<svg width="456" height="65" viewBox="0 0 456 65" fill="none" xmlns="http://www.w3.org/2000/svg">
<path d="M97.0701 56.03L96.3729 55.3129L96.363 55.3229L97.0701 56.03ZM96.8901 33.98L96.1108 34.6068L96.1191 34.6169L96.8901 33.98ZM82.2201 30.38L81.9867 29.4076L81.2201 29.5916V30.38H82.2201ZM83.0301 77.54L82.0937 77.8911L82.1028 77.9152L82.113 77.9387L83.0301 77.54ZM85.7301 80.51L85.2829 81.4044L85.3011 81.4136L85.3197 81.4219L85.7301 80.51ZM90.7701 81.5L91.7131 81.1672L91.4912 80.5385L90.8255 80.5015L90.7701 81.5ZM91.3101 86.27L91.249 87.2681L92.3101 87.3331V86.27H91.3101ZM64.4901 86.27H63.4901V87.3359L64.5538 87.268L64.4901 86.27ZM64.9401 81.5L64.8688 80.5025L64.1889 80.5511L63.9856 81.2017L64.9401 81.5ZM68.7201 80.6L68.2495 79.7176L68.2366 79.7245L68.2239 79.7318L68.7201 80.6ZM70.6101 78.17L69.6565 77.8689L69.6565 77.8689L70.6101 78.17ZM70.6101 32.99L69.6565 33.2911L69.6565 33.2911L70.6101 32.99ZM68.8101 30.56L69.3062 29.6918L69.3062 29.6918L68.8101 30.56ZM65.0301 29.66L64.0686 29.9347L64.2608 30.6076L64.9588 30.6575L65.0301 29.66ZM64.4901 24.89L64.5445 23.8915L63.4901 23.834V24.89H64.4901ZM77.3601 25.16V26.1601L77.3718 26.1599L77.3601 25.16ZM85.0101 25.07L85.0218 26.0699L85.0352 26.0698L85.0485 26.0693L85.0101 25.07ZM106.88 29.93L106.179 30.6434L106.186 30.6498L106.192 30.656L106.88 29.93ZM109.58 53.51L110.475 53.9572L110.478 53.9507L109.58 53.51ZM102.38 61.34L102.897 62.1961L102.909 62.1889L102.38 61.34ZM84.6501 63.23L83.6637 63.3944L83.7569 63.9535L84.2844 64.1608L84.6501 63.23ZM85.0101 58.73L85.2922 57.7706L84.4195 57.5139L84.0816 58.3586L85.0101 58.73ZM88.9701 60.18C92.503 60.18 95.468 59.0463 97.7772 56.7371L96.363 55.3229C94.4722 57.2137 92.0372 58.18 88.9701 58.18V60.18ZM97.7672 56.747C100.215 54.3672 101.31 50.492 101.31 45.41H99.3101C99.3101 50.288 98.2452 53.4928 96.373 55.313L97.7672 56.747ZM101.31 45.41C101.31 40.4006 100.135 36.3373 97.661 33.3431L96.1191 34.6169C98.2056 37.1427 99.3101 40.6994 99.3101 45.41H101.31ZM97.6693 33.3532C95.2024 30.2863 91.4184 28.84 86.5401 28.84V30.84C91.0218 30.84 94.1377 32.1537 96.1109 34.6068L97.6693 33.3532ZM86.5401 28.84C85.0729 28.84 83.5543 29.0314 81.9867 29.4076L82.4535 31.3524C83.8858 31.0086 85.2473 30.84 86.5401 30.84V28.84ZM81.2201 30.38V71.51H83.2201V30.38H81.2201ZM81.2201 71.51C81.2201 74.1399 81.4926 76.288 82.0937 77.8911L83.9664 77.1889C83.4876 75.912 83.2201 74.0401 83.2201 71.51H81.2201ZM82.113 77.9387C82.7945 79.5061 83.8473 80.6866 85.2829 81.4044L86.1773 79.6156C85.2129 79.1334 84.4657 78.3339 83.9471 77.1413L82.113 77.9387ZM85.3197 81.4219C86.6808 82.0344 88.5007 82.3755 90.7146 82.4985L90.8255 80.5015C88.7195 80.3845 87.1794 80.0656 86.1404 79.5981L85.3197 81.4219ZM89.8271 81.8328C90.128 82.6854 90.3101 84.1336 90.3101 86.27H92.3101C92.3101 84.0864 92.1322 82.3546 91.7131 81.1672L89.8271 81.8328ZM91.3712 85.2719C88.3998 85.0899 84.0251 85 78.2601 85V87C84.015 87 88.3404 87.0901 91.249 87.2681L91.3712 85.2719ZM78.2601 85C71.8983 85 67.2808 85.0898 64.4264 85.272L64.5538 87.268C67.3394 87.0902 71.9018 87 78.2601 87V85ZM65.4901 86.27C65.4901 84.0593 65.6435 82.6018 65.8946 81.7983L63.9856 81.2017C63.6367 82.3182 63.4901 84.0407 63.4901 86.27H65.4901ZM65.0113 82.4975C66.7457 82.3736 68.183 82.0587 69.2162 81.4682L68.2239 79.7318C67.5772 80.1013 66.4944 80.3864 64.8688 80.5025L65.0113 82.4975ZM69.1907 81.4824C70.3609 80.8582 71.1395 79.8145 71.5637 78.4711L69.6565 77.8689C69.3607 78.8055 68.8792 79.3818 68.2495 79.7176L69.1907 81.4824ZM71.5637 78.4711C71.9709 77.1815 72.1501 75.3472 72.1501 73.04H70.1501C70.1501 75.2928 69.9693 76.8785 69.6565 77.8689L71.5637 78.4711ZM72.1501 73.04V38.03H70.1501V73.04H72.1501ZM72.1501 38.03C72.1501 35.7795 71.9704 33.9768 71.5637 32.6889L69.6565 33.2911C69.9698 34.2832 70.1501 35.8405 70.1501 38.03H72.1501ZM71.5637 32.6889C71.1466 31.3683 70.4131 30.3243 69.3062 29.6918L68.3139 31.4282C68.887 31.7557 69.3535 32.3318 69.6565 33.2911L71.5637 32.6889ZM69.3062 29.6918C68.273 29.1013 66.8357 28.7864 65.1013 28.6625L64.9588 30.6575C66.5844 30.7736 67.6672 31.0587 68.3139 31.4282L69.3062 29.6918ZM65.9916 29.3853C65.666 28.2456 65.4901 26.756 65.4901 24.89H63.4901C63.4901 26.864 63.6742 28.5544 64.0686 29.9347L65.9916 29.3853ZM64.4356 25.8885C67.7611 26.0699 72.0712 26.16 77.3601 26.16V24.16C72.0889 24.16 67.819 24.0701 64.5445 23.8915L64.4356 25.8885ZM77.3718 26.1599L85.0218 26.0699L84.9983 24.0701L77.3483 24.1601L77.3718 26.1599ZM85.0485 26.0693C86.5919 26.0099 88.4384 25.98 90.5901 25.98V23.98C88.4217 23.98 86.5482 24.0101 84.9716 24.0707L85.0485 26.0693ZM90.5901 25.98C97.9773 25.98 103.091 27.6103 106.179 30.6434L107.581 29.2165C103.949 25.6497 98.2028 23.98 90.5901 23.98V25.98ZM106.192 30.656C109.386 33.6811 111.01 37.6943 111.01 42.8H113.01C113.01 37.2257 111.215 32.6589 107.568 29.204L106.192 30.656ZM111.01 42.8C111.01 46.4942 110.232 49.9126 108.682 53.0693L110.478 53.9507C112.168 50.5074 113.01 46.7858 113.01 42.8H111.01ZM108.686 53.0628C107.151 56.1319 104.88 58.6052 101.852 60.4911L102.909 62.1889C106.24 60.1148 108.769 57.3681 110.475 53.9572L108.686 53.0628ZM101.863 60.4839C98.8672 62.2928 95.2437 63.22 90.9501 63.22V65.22C95.5365 65.22 99.533 64.2272 102.897 62.1961L101.863 60.4839ZM90.9501 63.22C88.5092 63.22 86.543 62.8992 85.0157 62.2992L84.2844 64.1608C86.1172 64.8808 88.3509 65.22 90.9501 65.22V63.22ZM85.6365 63.0656C85.52 62.3665 85.4701 61.8591 85.4701 61.52H83.4701C83.4701 62.0209 83.5402 62.6535 83.6637 63.3944L85.6365 63.0656ZM85.4701 61.52C85.4701 60.6885 85.6253 59.8844 85.9386 59.1014L84.0816 58.3586C83.6748 59.3756 83.4701 60.4315 83.4701 61.52H85.4701ZM84.7279 59.6894C85.8741 60.0265 87.299 60.18 88.9701 60.18V58.18C87.4012 58.18 86.186 58.0335 85.2922 57.7706L84.7279 59.6894ZM175.878 81.5L176.838 81.22L176.654 80.5892L176.002 80.5077L175.878 81.5ZM176.508 86.27L176.431 87.2671L177.508 87.3499V86.27H176.508ZM153.378 86.27H152.378V87.3521L153.456 87.2669L153.378 86.27ZM154.098 81.5L153.979 80.5071L153.402 80.5764L153.176 81.1119L154.098 81.5ZM157.338 80.6L156.834 79.7362L156.817 79.746L156.801 79.7563L157.338 80.6ZM157.158 74.57L156.237 74.9596L156.241 74.9707L156.246 74.9816L157.158 74.57ZM154.188 67.55L155.109 67.1604L154.85 66.55H154.188V67.55ZM131.328 68L131.277 67.0013L130.628 67.0341L130.394 67.641L131.328 68ZM129.528 72.68L130.458 73.0465L130.461 73.039L129.528 72.68ZM129.438 80.42L128.762 81.1572L128.779 81.1731L128.798 81.1882L129.438 80.42ZM132.768 81.5L133.716 81.1838L133.507 80.556L132.847 80.5032L132.768 81.5ZM133.488 86.27L133.4 87.2661L134.488 87.3621V86.27H133.488ZM116.568 86.27H115.568V87.324L116.62 87.2686L116.568 86.27ZM117.288 81.59L117.099 80.608L116.552 80.7132L116.353 81.234L117.288 81.59ZM120.888 79.34L120.074 78.7587L120.069 78.7665L120.888 79.34ZM124.488 72.05L125.411 72.4346L125.414 72.4274L125.417 72.4202L124.488 72.05ZM143.208 25.07L142.976 24.0972L142.471 24.2175L142.279 24.6998L143.208 25.07ZM147.618 24.62L148.533 24.2161L148.269 23.62H147.618V24.62ZM168.678 72.32L167.763 72.7239L167.767 72.7322L168.678 72.32ZM171.468 77.99L170.599 78.4861L170.605 78.4954L170.61 78.5045L171.468 77.99ZM173.448 80.6L172.779 81.3433L172.817 81.3781L172.86 81.4087L173.448 80.6ZM152.208 62.96V63.96H153.723L153.127 62.5668L152.208 62.96ZM146.358 49.28L147.277 48.8868L147.274 48.8782L147.27 48.8696L146.358 49.28ZM142.218 38.57L143.17 38.2635L142.2 35.253L141.263 38.2736L142.218 38.57ZM138.528 49.28L139.462 49.6365L139.463 49.6328L138.528 49.28ZM133.308 62.96L132.373 62.6035L131.856 63.96H133.308V62.96ZM174.918 81.78C175.307 83.1159 175.508 84.61 175.508 86.27H177.508C177.508 84.45 177.288 82.7641 176.838 81.22L174.918 81.78ZM176.584 85.2729C174.203 85.0898 170.39 85 165.168 85V87C170.385 87 174.132 87.0902 176.431 87.2671L176.584 85.2729ZM165.168 85C159.588 85 155.623 85.0897 153.299 85.2731L153.456 87.2669C155.693 87.0903 159.587 87 165.168 87V85ZM154.378 86.27C154.378 84.2878 154.614 82.8508 155.019 81.8881L153.176 81.1119C152.621 82.4292 152.378 84.1722 152.378 86.27H154.378ZM154.217 82.4929C155.752 82.3086 157.018 81.9886 157.875 81.4437L156.801 79.7563C156.337 80.0514 155.443 80.3314 153.979 80.5071L154.217 82.4929ZM157.842 81.4638C158.872 80.8629 159.418 79.9023 159.418 78.71H157.418C157.418 79.1977 157.244 79.4971 156.834 79.7362L157.842 81.4638ZM159.418 78.71C159.418 77.5765 158.912 76.0243 158.069 74.1584L156.246 74.9816C157.084 76.8357 157.418 78.0435 157.418 78.71H159.418ZM158.079 74.1804L155.109 67.1604L153.267 67.9396L156.237 74.9596L158.079 74.1804ZM154.188 66.55C144.879 66.55 137.241 66.7001 131.277 67.0013L131.378 68.9987C137.295 68.6999 144.896 68.55 154.188 68.55V66.55ZM130.394 67.641L128.594 72.321L130.461 73.039L132.261 68.359L130.394 67.641ZM128.597 72.3135C127.796 74.3475 127.358 76.1313 127.358 77.63H129.358C129.358 76.4887 129.699 74.9725 130.458 73.0465L128.597 72.3135ZM127.358 77.63C127.358 79.0413 127.789 80.2657 128.762 81.1572L130.113 79.6828C129.646 79.2543 129.358 78.6187 129.358 77.63H127.358ZM128.798 81.1882C129.746 81.9787 131.097 82.3695 132.688 82.4968L132.847 80.5032C131.439 80.3905 130.569 80.0613 130.078 79.6518L128.798 81.1882ZM131.819 81.8162C132.26 83.1406 132.488 84.622 132.488 86.27H134.488C134.488 84.438 134.235 82.7394 133.716 81.1838L131.819 81.8162ZM133.576 85.2739C131.49 85.0899 128.394 85 124.308 85V87C128.381 87 131.405 87.0901 133.4 87.2661L133.576 85.2739ZM124.308 85C122.541 85 119.939 85.0912 116.515 85.2714L116.62 87.2686C120.036 87.0888 122.595 87 124.308 87V85ZM117.568 86.27C117.568 84.4887 117.799 83.0581 118.222 81.946L116.353 81.234C115.817 82.6419 115.568 84.3313 115.568 86.27H117.568ZM117.477 82.572C119.268 82.2275 120.705 81.3454 121.707 79.9135L120.069 78.7665C119.391 79.7346 118.427 80.3525 117.099 80.608L117.477 82.572ZM121.701 79.9212C122.675 78.5582 123.912 76.0306 125.411 72.4346L123.565 71.6654C122.063 75.2694 120.9 77.6018 120.074 78.7588L121.701 79.9212ZM125.417 72.4202L144.137 25.4402L142.279 24.6998L123.559 71.6798L125.417 72.4202ZM143.439 26.0428C144.605 25.7653 145.994 25.62 147.618 25.62V23.62C145.881 23.62 144.331 23.7747 142.976 24.0972L143.439 26.0428ZM146.703 25.0239L167.763 72.7239L169.593 71.9161L148.533 24.2161L146.703 25.0239ZM167.767 72.7322C168.91 75.2601 169.856 77.1844 170.599 78.4861L172.336 77.4939C171.64 76.2756 170.725 74.4199 169.589 71.9078L167.767 72.7322ZM170.61 78.5045C171.35 79.737 172.07 80.7054 172.779 81.3433L174.117 79.8567C173.625 79.4146 173.026 78.643 172.325 77.4755L170.61 78.5045ZM172.86 81.4087C173.68 82.0051 174.657 82.3552 175.754 82.4923L176.002 80.5077C175.178 80.4048 174.536 80.1549 174.036 79.7913L172.86 81.4087ZM153.127 62.5668L147.277 48.8868L145.438 49.6732L151.288 63.3532L153.127 62.5668ZM147.27 48.8696C145.664 45.3014 144.298 41.7661 143.17 38.2635L141.266 38.8765C142.418 42.4539 143.812 46.0586 145.446 49.6904L147.27 48.8696ZM141.263 38.2736C140.189 41.7333 138.966 45.2845 137.592 48.9272L139.463 49.6328C140.85 45.9555 142.086 42.3667 143.173 38.8664L141.263 38.2736ZM137.593 48.9235L132.373 62.6035L134.242 63.3165L139.462 49.6365L137.593 48.9235ZM133.308 63.96H152.208V61.96H133.308V63.96ZM193.428 32.99L192.475 33.2911L192.475 33.2911L193.428 32.99ZM191.628 30.56L192.125 29.6918L192.125 29.6918L191.628 30.56ZM187.848 29.66L186.887 29.9347L187.079 30.6076L187.777 30.6575L187.848 29.66ZM187.308 24.89L187.364 23.8915L186.308 23.8329V24.89H187.308ZM211.698 24.89H212.698V23.8387L211.648 23.8912L211.698 24.89ZM211.608 27.5L212.606 27.5713L212.606 27.5712L211.608 27.5ZM211.158 29.66L211.23 30.6575L211.854 30.6128L212.087 30.0314L211.158 29.66ZM207.378 30.56L207.875 31.4282L207.875 31.4282L207.378 30.56ZM205.578 32.99L206.532 33.2911L206.532 33.2911L205.578 32.99ZM205.578 78.17L206.532 77.8689L206.532 77.8689L205.578 78.17ZM207.378 80.6L207.875 79.7318L207.875 79.7318L207.378 80.6ZM211.158 81.5L212.095 81.1489L211.87 80.5482L211.23 80.5025L211.158 81.5ZM211.698 86.27L211.644 87.2685L212.698 87.326V86.27H211.698ZM187.308 86.27H186.308V87.325L187.362 87.2686L187.308 86.27ZM187.848 81.5L187.777 80.5025L187.099 80.551L186.895 81.1989L187.848 81.5ZM191.628 80.6L192.125 81.4682L192.125 81.4682L191.628 80.6ZM193.428 78.17L192.475 77.8689L192.475 77.8689L193.428 78.17ZM194.968 38.03C194.968 35.7795 194.789 33.9768 194.382 32.6889L192.475 33.2911C192.788 34.2832 192.968 35.8405 192.968 38.03H194.968ZM194.382 32.6889C193.965 31.3683 193.231 30.3243 192.125 29.6918L191.132 31.4282C191.705 31.7557 192.172 32.3318 192.475 33.2911L194.382 32.6889ZM192.125 29.6918C191.091 29.1013 189.654 28.7864 187.92 28.6625L187.777 30.6575C189.403 30.7736 190.486 31.0587 191.132 31.4282L192.125 29.6918ZM188.81 29.3853C188.484 28.2456 188.308 26.756 188.308 24.89H186.308C186.308 26.864 186.493 28.5544 186.887 29.9347L188.81 29.3853ZM187.253 25.8885C190.518 26.0699 194.649 26.16 199.638 26.16V24.16C194.668 24.16 190.578 24.0701 187.364 23.8915L187.253 25.8885ZM199.638 26.16C204.091 26.16 208.128 26.0697 211.748 25.8888L211.648 23.8912C208.068 24.0703 204.065 24.16 199.638 24.16V26.16ZM210.698 24.89C210.698 25.7678 210.669 26.614 210.611 27.4288L212.606 27.5712C212.668 26.706 212.698 25.8122 212.698 24.89H210.698ZM210.611 27.4288C210.556 28.1952 210.422 28.8085 210.23 29.2886L212.087 30.0314C212.375 29.3115 212.541 28.4848 212.606 27.5713L210.611 27.4288ZM211.087 28.6625C209.353 28.7864 207.916 29.1013 206.882 29.6918L207.875 31.4282C208.521 31.0587 209.604 30.7736 211.23 30.6575L211.087 28.6625ZM206.882 29.6918C205.775 30.3243 205.042 31.3683 204.625 32.6889L206.532 33.2911C206.835 32.3318 207.301 31.7557 207.875 31.4282L206.882 29.6918ZM204.625 32.6889C204.218 33.9768 204.038 35.7795 204.038 38.03H206.038C206.038 35.8405 206.219 34.2832 206.532 33.2911L204.625 32.6889ZM204.038 38.03V73.04H206.038V38.03H204.038ZM204.038 73.04C204.038 75.3472 204.218 77.1815 204.625 78.4711L206.532 77.8689C206.219 76.8785 206.038 75.2928 206.038 73.04H204.038ZM204.625 78.4711C205.042 79.7918 205.775 80.8357 206.882 81.4682L207.875 79.7318C207.301 79.4043 206.835 78.8282 206.532 77.8689L204.625 78.4711ZM206.882 81.4682C207.916 82.0587 209.353 82.3736 211.087 82.4975L211.23 80.5025C209.604 80.3864 208.521 80.1013 207.875 79.7318L206.882 81.4682ZM210.222 81.8511C210.514 82.6299 210.698 84.0631 210.698 86.27H212.698C212.698 84.0369 212.523 82.2901 212.095 81.1489L210.222 81.8511ZM211.753 85.2715C208.429 85.0902 204.48 85 199.908 85V87C204.457 87 208.367 87.0898 211.644 87.2685L211.753 85.2715ZM199.908 85C194.858 85 190.639 85.0901 187.255 85.2714L187.362 87.2686C190.698 87.0899 194.878 87 199.908 87V85ZM188.308 86.27C188.308 84.2708 188.487 82.7987 188.802 81.8011L186.895 81.1989C186.49 82.4813 186.308 84.1892 186.308 86.27H188.308ZM187.92 82.4975C189.654 82.3736 191.091 82.0587 192.125 81.4682L191.132 79.7318C190.486 80.1013 189.403 80.3864 187.777 80.5025L187.92 82.4975ZM192.125 81.4682C193.231 80.8357 193.965 79.7917 194.382 78.4711L192.475 77.8689C192.172 78.8282 191.705 79.4043 191.132 79.7318L192.125 81.4682ZM194.382 78.4711C194.789 77.1815 194.968 75.3472 194.968 73.04H192.968C192.968 75.2928 192.788 76.8785 192.475 77.8689L194.382 78.4711ZM194.968 73.04V38.03H192.968V73.04H194.968ZM283.171 24.89H284.171V23.8101L283.094 23.8929L283.171 24.89ZM282.721 29.66L282.763 30.6591L283.49 30.6288L283.685 29.9276L282.721 29.66ZM279.391 30.92L280.098 31.6271L280.098 31.6271L279.391 30.92ZM277.771 34.7L276.791 34.5039L276.787 34.5197L276.785 34.5356L277.771 34.7ZM277.321 86L277.624 86.9529L278.321 86.7312V86H277.321ZM272.191 86.63L271.394 87.2337L271.694 87.63H272.191V86.63ZM236.821 39.92L237.618 39.3163L235.821 36.9429V39.92H236.821ZM237.361 76.37L236.379 76.56L236.381 76.5661L237.361 76.37ZM239.251 80.24L238.596 80.9957L238.608 81.0061L238.621 81.0161L239.251 80.24ZM243.301 81.5L244.25 81.1838L244.03 80.5245L243.336 80.5006L243.301 81.5ZM243.841 86.27L243.775 87.2678L244.841 87.3389V86.27H243.841ZM224.671 86.27H223.671V87.3568L224.754 87.2665L224.671 86.27ZM225.121 81.5L225.087 80.5006L224.343 80.5262L224.154 81.2455L225.121 81.5ZM229.081 80.24L228.451 79.4639L228.438 79.4739L228.426 79.4843L229.081 80.24ZM231.061 76.37L230.086 76.1497L230.083 76.1618L230.081 76.1739L231.061 76.37ZM231.691 33.17H232.691V32.8269L232.48 32.5561L231.691 33.17ZM231.061 32.36L231.85 31.7461L231.844 31.7377L231.837 31.7294L231.061 32.36ZM228.721 30.38L228.274 31.2744L228.288 31.2814L228.302 31.288L228.721 30.38ZM225.121 29.66L224.148 29.8916L224.318 30.6052L225.05 30.6575L225.121 29.66ZM224.671 24.89L224.764 23.8944L223.671 23.7919V24.89H224.671ZM239.971 24.89L240.772 24.2916L240.435 23.8404L239.875 23.8946L239.971 24.89ZM272.101 67.91L271.3 68.5084L273.101 70.9201V67.91H272.101ZM271.561 34.7L270.58 34.8961L270.582 34.9026L271.561 34.7ZM269.581 30.92L268.926 31.6757L268.953 31.6988L268.981 31.72L269.581 30.92ZM265.531 29.66L264.553 29.8695L264.717 30.6334L265.498 30.6594L265.531 29.66ZM264.991 24.89L265.059 23.8923L263.991 23.8195V24.89H264.991ZM274.351 26.16C277.905 26.16 280.873 26.0697 283.248 25.8871L283.094 23.8929C280.789 24.0703 277.877 24.16 274.351 24.16V26.16ZM282.171 24.89C282.171 26.9637 282.021 28.445 281.758 29.3924L283.685 29.9276C284.021 28.715 284.171 27.0163 284.171 24.89H282.171ZM282.679 28.6609C281.068 28.728 279.69 29.2066 278.684 30.2129L280.098 31.6271C280.652 31.0734 281.494 30.712 282.763 30.6591L282.679 28.6609ZM278.684 30.2129C277.751 31.1454 277.162 32.6452 276.791 34.5039L278.752 34.8961C279.1 33.1548 279.591 32.1346 280.098 31.6271L278.684 30.2129ZM276.785 34.5356C276.471 36.4175 276.321 39.0625 276.321 42.44H278.321C278.321 39.0975 278.471 36.5825 278.757 34.8644L276.785 34.5356ZM276.321 42.44V86H278.321V42.44H276.321ZM277.018 85.0471C275.833 85.4242 274.236 85.63 272.191 85.63V87.63C274.347 87.63 276.17 87.4158 277.624 86.9529L277.018 85.0471ZM272.988 86.0263L237.618 39.3163L236.024 40.5237L271.394 87.2337L272.988 86.0263ZM235.821 39.92V68.36H237.821V39.92H235.821ZM235.821 68.36C235.821 71.8603 236.001 74.6057 236.379 76.56L238.343 76.18C238.001 74.4143 237.821 71.8197 237.821 68.36H235.821ZM236.381 76.5661C236.762 78.4725 237.459 80.0105 238.596 80.9957L239.906 79.4843C239.243 78.9095 238.68 77.8675 238.342 76.1739L236.381 76.5661ZM238.621 81.0161C239.806 81.9796 241.395 82.4349 243.267 82.4994L243.336 80.5006C241.727 80.4451 240.616 80.0604 239.882 79.4639L238.621 81.0161ZM242.352 81.8162C242.661 82.7417 242.841 84.2028 242.841 86.27H244.841C244.841 84.1372 244.661 82.4183 244.25 81.1838L242.352 81.8162ZM243.908 85.2722C241.18 85.0903 238.007 85 234.391 85V87C237.976 87 241.103 87.0897 243.775 87.2678L243.908 85.2722ZM234.391 85C230.065 85 226.791 85.0899 224.588 85.2735L224.754 87.2665C226.871 87.0901 230.077 87 234.391 87V85ZM225.671 86.27C225.671 84.2632 225.82 82.7725 226.088 81.7545L224.154 81.2455C223.822 82.5075 223.671 84.1968 223.671 86.27H225.671ZM225.156 82.4994C227.022 82.4351 228.599 81.9811 229.736 80.9957L228.426 79.4843C227.763 80.0589 226.7 80.4449 225.087 80.5006L225.156 82.4994ZM229.712 81.0161C230.922 80.0329 231.657 78.4876 232.042 76.5661L230.081 76.1739C229.745 77.8524 229.16 78.8871 228.451 79.4639L229.712 81.0161ZM232.037 76.5903C232.481 74.6216 232.691 71.8641 232.691 68.36H230.691C230.691 71.8159 230.481 74.3984 230.086 76.1497L232.037 76.5903ZM232.691 68.36V33.17H230.691V68.36H232.691ZM232.48 32.5561L231.85 31.7461L230.272 32.9739L230.902 33.7839L232.48 32.5561ZM231.837 31.7294C231 30.6993 230.106 29.9178 229.14 29.472L228.302 31.288C228.896 31.5622 229.562 32.1007 230.285 32.9906L231.837 31.7294ZM229.168 29.4856C228.261 29.0318 226.892 28.7839 225.192 28.6625L225.05 30.6575C226.711 30.7761 227.741 31.0082 228.274 31.2744L229.168 29.4856ZM226.094 29.4284C225.818 28.2712 225.671 26.7656 225.671 24.89H223.671C223.671 26.8544 223.824 28.5288 224.148 29.8916L226.094 29.4284ZM224.578 25.8856C226.544 26.07 229.28 26.16 232.771 26.16V24.16C229.302 24.16 226.638 24.07 224.764 23.8944L224.578 25.8856ZM232.771 26.16C235.727 26.16 238.163 26.0697 240.067 25.8853L239.875 23.8946C238.059 24.0703 235.695 24.16 232.771 24.16V26.16ZM239.17 25.4884L271.3 68.5084L272.902 67.3116L240.772 24.2916L239.17 25.4884ZM273.101 67.91V42.44H271.101V67.91H273.101ZM273.101 42.44C273.101 39.0021 272.922 36.3398 272.54 34.4974L270.582 34.9026C270.921 36.5402 271.101 39.0379 271.101 42.44H273.101ZM272.542 34.5039C272.158 32.5859 271.419 31.0488 270.181 30.12L268.981 31.72C269.663 32.2312 270.244 33.2141 270.581 34.8961L272.542 34.5039ZM270.236 30.1643C269.094 29.1743 267.481 28.7244 265.564 28.6606L265.498 30.6594C267.181 30.7156 268.268 31.1057 268.926 31.6757L270.236 30.1643ZM266.509 29.4505C266.162 27.8296 265.991 26.3103 265.991 24.89H263.991C263.991 26.4697 264.181 28.1304 264.553 29.8695L266.509 29.4505ZM264.923 25.8877C267.592 26.0697 270.736 26.16 274.351 26.16V24.16C270.766 24.16 267.67 24.0703 265.059 23.8923L264.923 25.8877ZM343.867 24.89L344.866 24.9322L344.912 23.8391L343.819 23.8911L343.867 24.89ZM344.857 40.01L345.251 40.9291L345.956 40.6268L345.847 39.8672L344.857 40.01ZM339.007 41L338.01 41.0791L338.081 41.9753L338.98 41.9996L339.007 41ZM336.127 32.63L335.371 33.2849L335.377 33.292L335.384 33.299L336.127 32.63ZM324.877 29.93V28.93H323.877V29.93H324.877ZM325.417 78.17L324.463 78.4711L324.47 78.4936L324.479 78.5157L325.417 78.17ZM327.577 80.6L327.151 81.5048L327.151 81.5048L327.577 80.6ZM332.347 81.5L333.279 81.1376L333.046 80.5373L332.402 80.5015L332.347 81.5ZM332.977 86.27L332.929 87.2689L333.977 87.3188V86.27H332.977ZM305.257 86.27H304.257V87.3221L305.308 87.2687L305.257 86.27ZM305.887 81.5L305.831 80.5015L305.188 80.5373L304.955 81.1376L305.887 81.5ZM310.747 80.6L311.153 81.5138L311.153 81.5138L310.747 80.6ZM312.997 78.17L312.075 77.7819L312.066 77.8029L312.059 77.8243L312.997 78.17ZM313.717 29.93H314.717V28.93H313.717V29.93ZM304.267 31.19L303.778 30.3175L303.771 30.3218L303.763 30.3262L304.267 31.19ZM301.027 34.79L301.928 35.2227L301.932 35.2159L301.935 35.2091L301.027 34.79ZM299.047 41V42H299.845L300.022 41.2216L299.047 41ZM293.377 40.1L292.396 39.9078L292.249 40.6543L292.93 40.9944L293.377 40.1ZM295.087 24.89L295.135 23.8911L294.087 23.8412V24.89H295.087ZM342.868 24.8478C342.684 29.1879 343.021 34.2928 343.867 40.1529L345.847 39.8672C345.012 34.0872 344.689 29.1121 344.866 24.9322L342.868 24.8478ZM344.463 39.0909C342.941 39.743 341.14 40.0573 339.034 40.0004L338.98 41.9996C341.314 42.0627 343.413 41.717 345.251 40.9291L344.463 39.0909ZM340.004 40.9209C339.696 37.0379 338.7 33.9938 336.87 31.961L335.384 33.299C336.794 34.8661 337.718 37.4021 338.01 41.0791L340.004 40.9209ZM336.883 31.9751C335.068 29.881 332.31 28.93 328.837 28.93V30.93C331.963 30.93 334.066 31.779 335.371 33.2849L336.883 31.9751ZM328.837 28.93H324.877V30.93H328.837V28.93ZM323.877 29.93V73.04H325.877V29.93H323.877ZM323.877 73.04C323.877 75.3472 324.056 77.1815 324.463 78.4711L326.371 77.8689C326.058 76.8785 325.877 75.2928 325.877 73.04H323.877ZM324.479 78.5157C324.982 79.881 325.874 80.9038 327.151 81.5048L328.003 79.6952C327.24 79.3362 326.692 78.739 326.355 77.8243L324.479 78.5157ZM327.151 81.5048C328.351 82.0693 330.099 82.3767 332.291 82.4985L332.402 80.5015C330.275 80.3833 328.843 80.0907 328.003 79.6952L327.151 81.5048ZM331.415 81.8624C331.767 82.7684 331.977 84.21 331.977 86.27H333.977C333.977 84.13 333.767 82.3916 333.279 81.1376L331.415 81.8624ZM333.025 85.2711C329.224 85.0902 324.738 85 319.567 85V87C324.716 87 329.17 87.0898 332.929 87.2689L333.025 85.2711ZM319.567 85C313.56 85 308.771 85.09 305.206 85.2713L305.308 87.2687C308.823 87.09 313.574 87 319.567 87V85ZM306.257 86.27C306.257 84.21 306.467 82.7684 306.819 81.8624L304.955 81.1376C304.467 82.3916 304.257 84.13 304.257 86.27H306.257ZM305.942 82.4985C308.14 82.3764 309.906 82.0683 311.153 81.5138L310.341 79.6862C309.428 80.0917 307.954 80.3836 305.831 80.5015L305.942 82.4985ZM311.153 81.5138C312.488 80.9207 313.425 79.9012 313.935 78.5157L312.059 77.8243C311.729 78.7188 311.166 79.3193 310.341 79.6862L311.153 81.5138ZM313.919 78.5581C314.477 77.2314 314.717 75.3599 314.717 73.04H312.717C312.717 75.2801 312.477 76.8286 312.075 77.7819L313.919 78.5581ZM314.717 73.04V29.93H312.717V73.04H314.717ZM313.717 28.93H310.387V30.93H313.717V28.93ZM310.387 28.93C307.715 28.93 305.484 29.3623 303.778 30.3175L304.756 32.0625C306.05 31.3377 307.899 30.93 310.387 30.93V28.93ZM303.763 30.3262C302.14 31.2728 300.922 32.6309 300.119 34.3709L301.935 35.2091C302.572 33.8291 303.514 32.7871 304.771 32.0538L303.763 30.3262ZM300.125 34.3573C299.359 35.9533 298.679 38.1048 298.072 40.7784L300.022 41.2216C300.614 38.6152 301.255 36.6267 301.928 35.2227L300.125 34.3573ZM299.047 40C296.504 40 294.809 39.6978 293.824 39.2056L292.93 40.9944C294.345 41.7022 296.43 42 299.047 42V40ZM294.358 40.2922C295.506 34.4305 296.087 29.2933 296.087 24.89H294.087C294.087 29.1267 293.527 34.1295 292.396 39.9078L294.358 40.2922ZM295.039 25.8889C298.848 26.0702 307.003 26.16 319.477 26.16V24.16C306.991 24.16 298.886 24.0698 295.135 23.8911L295.039 25.8889ZM319.477 26.16C331.951 26.16 340.106 26.0702 343.915 25.8889L343.819 23.8911C340.068 24.0698 331.963 24.16 319.477 24.16V26.16ZM359.77 32.99L358.817 33.2911L358.817 33.2911L359.77 32.99ZM357.97 30.56L358.466 29.6918L358.466 29.6918L357.97 30.56ZM354.19 29.66L353.229 29.9347L353.421 30.6076L354.119 30.6575L354.19 29.66ZM353.65 24.89L353.706 23.8915L352.65 23.8329V24.89H353.65ZM378.04 24.89H379.04V23.8387L377.99 23.8912L378.04 24.89ZM377.95 27.5L378.948 27.5713L378.948 27.5712L377.95 27.5ZM377.5 29.66L377.571 30.6575L378.196 30.6128L378.429 30.0314L377.5 29.66ZM373.72 30.56L374.216 31.4282L374.216 31.4282L373.72 30.56ZM371.92 32.99L372.874 33.2911L372.874 33.2911L371.92 32.99ZM371.92 78.17L372.874 77.8689L372.874 77.8689L371.92 78.17ZM373.72 80.6L374.216 79.7318L374.216 79.7318L373.72 80.6ZM377.5 81.5L378.437 81.1489L378.211 80.5482L377.571 80.5025L377.5 81.5ZM378.04 86.27L377.986 87.2685L379.04 87.326V86.27H378.04ZM353.65 86.27H352.65V87.325L353.704 87.2686L353.65 86.27ZM354.19 81.5L354.119 80.5025L353.441 80.551L353.237 81.1989L354.19 81.5ZM357.97 80.6L358.466 81.4682L358.466 81.4682L357.97 80.6ZM359.77 78.17L358.817 77.8689L358.817 77.8689L359.77 78.17ZM361.31 38.03C361.31 35.7795 361.131 33.9768 360.724 32.6889L358.817 33.2911C359.13 34.2832 359.31 35.8405 359.31 38.03H361.31ZM360.724 32.6889C360.307 31.3683 359.573 30.3243 358.466 29.6918L357.474 31.4282C358.047 31.7557 358.514 32.3318 358.817 33.2911L360.724 32.6889ZM358.466 29.6918C357.433 29.1013 355.996 28.7864 354.261 28.6625L354.119 30.6575C355.745 30.7736 356.827 31.0587 357.474 31.4282L358.466 29.6918ZM355.152 29.3853C354.826 28.2456 354.65 26.756 354.65 24.89H352.65C352.65 26.864 352.834 28.5544 353.229 29.9347L355.152 29.3853ZM353.595 25.8885C356.86 26.0699 360.99 26.16 365.98 26.16V24.16C361.01 24.16 356.92 24.0701 353.706 23.8915L353.595 25.8885ZM365.98 26.16C370.433 26.16 374.47 26.0697 378.09 25.8888L377.99 23.8912C374.41 24.0703 370.407 24.16 365.98 24.16V26.16ZM377.04 24.89C377.04 25.7678 377.011 26.614 376.953 27.4288L378.948 27.5712C379.009 26.706 379.04 25.8122 379.04 24.89H377.04ZM376.953 27.4288C376.898 28.1952 376.764 28.8085 376.572 29.2886L378.429 30.0314C378.717 29.3115 378.882 28.4848 378.948 27.5713L376.953 27.4288ZM377.429 28.6625C375.695 28.7864 374.257 29.1013 373.224 29.6918L374.216 31.4282C374.863 31.0587 375.946 30.7736 377.571 30.6575L377.429 28.6625ZM373.224 29.6918C372.117 30.3243 371.384 31.3683 370.967 32.6889L372.874 33.2911C373.177 32.3318 373.643 31.7557 374.216 31.4282L373.224 29.6918ZM370.967 32.6889C370.56 33.9768 370.38 35.7795 370.38 38.03H372.38C372.38 35.8405 372.561 34.2832 372.874 33.2911L370.967 32.6889ZM370.38 38.03V73.04H372.38V38.03H370.38ZM370.38 73.04C370.38 75.3472 370.559 77.1815 370.967 78.4711L372.874 77.8689C372.561 76.8785 372.38 75.2928 372.38 73.04H370.38ZM370.967 78.4711C371.384 79.7918 372.117 80.8357 373.224 81.4682L374.216 79.7318C373.643 79.4043 373.177 78.8282 372.874 77.8689L370.967 78.4711ZM373.224 81.4682C374.257 82.0587 375.695 82.3736 377.429 82.4975L377.571 80.5025C375.946 80.3864 374.863 80.1013 374.216 79.7318L373.224 81.4682ZM376.564 81.8511C376.856 82.6299 377.04 84.0631 377.04 86.27H379.04C379.04 84.0369 378.865 82.2901 378.437 81.1489L376.564 81.8511ZM378.095 85.2715C374.771 85.0902 370.822 85 366.25 85V87C370.798 87 374.709 87.0898 377.986 87.2685L378.095 85.2715ZM366.25 85C361.2 85 356.981 85.0901 353.597 85.2714L353.704 87.2686C357.04 87.0899 361.22 87 366.25 87V85ZM354.65 86.27C354.65 84.2708 354.829 82.7987 355.144 81.8011L353.237 81.1989C352.832 82.4813 352.65 84.1892 352.65 86.27H354.65ZM354.261 82.4975C355.996 82.3736 357.433 82.0587 358.466 81.4682L357.474 79.7318C356.827 80.1013 355.745 80.3864 354.119 80.5025L354.261 82.4975ZM358.466 81.4682C359.573 80.8357 360.307 79.7917 360.724 78.4711L358.817 77.8689C358.514 78.8282 358.047 79.4043 357.474 79.7318L358.466 81.4682ZM360.724 78.4711C361.131 77.1815 361.31 75.3472 361.31 73.04H359.31C359.31 75.2928 359.129 76.8785 358.817 77.8689L360.724 78.4711ZM361.31 73.04V38.03H359.31V73.04H361.31ZM449.513 24.89H450.513V23.8101L449.436 23.8929L449.513 24.89ZM449.063 29.66L449.105 30.6591L449.832 30.6288L450.026 29.9276L449.063 29.66ZM445.733 30.92L446.44 31.6271L446.44 31.6271L445.733 30.92ZM444.113 34.7L443.132 34.5039L443.129 34.5197L443.126 34.5356L444.113 34.7ZM443.663 86L443.966 86.9529L444.663 86.7312V86H443.663ZM438.533 86.63L437.736 87.2337L438.036 87.63H438.533V86.63ZM403.163 39.92L403.96 39.3163L402.163 36.9429V39.92H403.163ZM403.703 76.37L402.721 76.56L402.722 76.5661L403.703 76.37ZM405.593 80.24L404.938 80.9957L404.95 81.0061L404.962 81.0161L405.593 80.24ZM409.643 81.5L410.592 81.1838L410.372 80.5245L409.677 80.5006L409.643 81.5ZM410.183 86.27L410.116 87.2678L411.183 87.3389V86.27H410.183ZM391.013 86.27H390.013V87.3568L391.096 87.2665L391.013 86.27ZM391.463 81.5L391.428 80.5006L390.685 80.5262L390.496 81.2455L391.463 81.5ZM395.423 80.24L394.792 79.4639L394.78 79.4739L394.768 79.4843L395.423 80.24ZM397.403 76.37L396.427 76.1497L396.425 76.1618L396.422 76.1739L397.403 76.37ZM398.033 33.17H399.033V32.8269L398.822 32.5561L398.033 33.17ZM397.403 32.36L398.192 31.7461L398.186 31.7377L398.179 31.7294L397.403 32.36ZM395.063 30.38L394.616 31.2744L394.63 31.2814L394.644 31.288L395.063 30.38ZM391.463 29.66L390.49 29.8916L390.66 30.6052L391.392 30.6575L391.463 29.66ZM391.013 24.89L391.106 23.8944L390.013 23.7919V24.89H391.013ZM406.313 24.89L407.114 24.2916L406.777 23.8404L406.217 23.8946L406.313 24.89ZM438.443 67.91L437.642 68.5084L439.443 70.9201V67.91H438.443ZM437.903 34.7L436.922 34.8961L436.924 34.9026L437.903 34.7ZM435.923 30.92L435.268 31.6757L435.295 31.6988L435.323 31.72L435.923 30.92ZM431.873 29.66L430.895 29.8695L431.059 30.6334L431.84 30.6594L431.873 29.66ZM431.333 24.89L431.401 23.8923L430.333 23.8195V24.89H431.333ZM440.693 26.16C444.247 26.16 447.215 26.0697 449.59 25.8871L449.436 23.8929C447.131 24.0703 444.219 24.16 440.693 24.16V26.16ZM448.513 24.89C448.513 26.9637 448.363 28.445 448.099 29.3924L450.026 29.9276C450.363 28.715 450.513 27.0163 450.513 24.89H448.513ZM449.021 28.6609C447.41 28.728 446.032 29.2066 445.026 30.2129L446.44 31.6271C446.994 31.0734 447.836 30.712 449.105 30.6591L449.021 28.6609ZM445.026 30.2129C444.093 31.1454 443.504 32.6452 443.132 34.5039L445.093 34.8961C445.442 33.1548 445.933 32.1346 446.44 31.6271L445.026 30.2129ZM443.126 34.5356C442.813 36.4175 442.663 39.0625 442.663 42.44H444.663C444.663 39.0975 444.813 36.5825 445.099 34.8644L443.126 34.5356ZM442.663 42.44V86H444.663V42.44H442.663ZM443.36 85.0471C442.174 85.4242 440.577 85.63 438.533 85.63V87.63C440.688 87.63 442.511 87.4158 443.966 86.9529L443.36 85.0471ZM439.33 86.0263L403.96 39.3163L402.366 40.5237L437.736 87.2337L439.33 86.0263ZM402.163 39.92V68.36H404.163V39.92H402.163ZM402.163 68.36C402.163 71.8603 402.343 74.6057 402.721 76.56L404.685 76.18C404.343 74.4143 404.163 71.8197 404.163 68.36H402.163ZM402.722 76.5661C403.104 78.4725 403.801 80.0105 404.938 80.9957L406.248 79.4843C405.585 78.9095 405.022 77.8675 404.683 76.1739L402.722 76.5661ZM404.962 81.0161C406.148 81.9796 407.737 82.4349 409.608 82.4994L409.677 80.5006C408.069 80.4451 406.958 80.0604 406.223 79.4639L404.962 81.0161ZM408.694 81.8162C409.003 82.7417 409.183 84.2028 409.183 86.27H411.183C411.183 84.1372 411.003 82.4183 410.592 81.1838L408.694 81.8162ZM410.249 85.2722C407.521 85.0903 404.348 85 400.733 85V87C404.317 87 407.444 87.0897 410.116 87.2678L410.249 85.2722ZM400.733 85C396.407 85 393.133 85.0899 390.93 85.2735L391.096 87.2665C393.213 87.0901 396.419 87 400.733 87V85ZM392.013 86.27C392.013 84.2632 392.162 82.7725 392.43 81.7545L390.496 81.2455C390.164 82.5075 390.013 84.1968 390.013 86.27H392.013ZM391.497 82.4994C393.364 82.4351 394.941 81.9811 396.078 80.9957L394.768 79.4843C394.105 80.0589 393.042 80.4449 391.428 80.5006L391.497 82.4994ZM396.053 81.0161C397.264 80.0329 397.999 78.4876 398.383 76.5661L396.422 76.1739C396.087 77.8524 395.502 78.8871 394.792 79.4639L396.053 81.0161ZM398.378 76.5903C398.823 74.6216 399.033 71.8641 399.033 68.36H397.033C397.033 71.8159 396.823 74.3984 396.427 76.1497L398.378 76.5903ZM399.033 68.36V33.17H397.033V68.36H399.033ZM398.822 32.5561L398.192 31.7461L396.614 32.9739L397.244 33.7839L398.822 32.5561ZM398.179 31.7294C397.342 30.6993 396.448 29.9178 395.482 29.472L394.644 31.288C395.238 31.5622 395.904 32.1007 396.627 32.9906L398.179 31.7294ZM395.51 29.4856C394.603 29.0318 393.233 28.7839 391.534 28.6625L391.392 30.6575C393.052 30.7761 394.083 31.0082 394.616 31.2744L395.51 29.4856ZM392.436 29.4284C392.16 28.2712 392.013 26.7656 392.013 24.89H390.013C390.013 26.8544 390.166 28.5288 390.49 29.8916L392.436 29.4284ZM390.92 25.8856C392.886 26.07 395.622 26.16 399.113 26.16V24.16C395.644 24.16 392.98 24.07 391.106 23.8944L390.92 25.8856ZM399.113 26.16C402.069 26.16 404.505 26.0697 406.409 25.8853L406.217 23.8946C404.401 24.0703 402.037 24.16 399.113 24.16V26.16ZM405.512 25.4884L437.642 68.5084L439.244 67.3116L407.114 24.2916L405.512 25.4884ZM439.443 67.91V42.44H437.443V67.91H439.443ZM439.443 42.44C439.443 39.0021 439.263 36.3398 438.882 34.4974L436.924 34.9026C437.262 36.5402 437.443 39.0379 437.443 42.44H439.443ZM438.883 34.5039C438.5 32.5859 437.761 31.0488 436.523 30.12L435.323 31.72C436.005 32.2312 436.586 33.2141 436.922 34.8961L438.883 34.5039ZM436.578 30.1643C435.436 29.1743 433.823 28.7244 431.906 28.6606L431.84 30.6594C433.523 30.7156 434.61 31.1057 435.268 31.6757L436.578 30.1643ZM432.851 29.4505C432.503 27.8296 432.333 26.3103 432.333 24.89H430.333C430.333 26.4697 430.522 28.1304 430.895 29.8695L432.851 29.4505ZM431.265 25.8877C433.934 26.0697 437.078 26.16 440.693 26.16V24.16C437.108 24.16 434.012 24.0703 431.401 23.8923L431.265 25.8877ZM474.929 82.94L474.428 83.8055L474.436 83.8103L474.929 82.94ZM464.309 71.78L463.419 72.2361L463.423 72.2448L464.309 71.78ZM464.849 38.39L464 37.861L463.998 37.864L464.849 38.39ZM476.279 27.95L476.721 28.8467L476.726 28.8444L476.279 27.95ZM503.729 25.52L503.524 26.4987L503.527 26.4994L503.729 25.52ZM513.629 28.67L514.611 28.8595L514.758 28.0946L514.053 27.7643L513.629 28.67ZM512.639 42.62L513.055 43.5291L513.639 43.2617V42.62H512.639ZM506.699 43.61L505.7 43.6534L505.741 44.61H506.699V43.61ZM502.739 32.18L502.07 32.9234L502.08 32.9326L502.739 32.18ZM481.409 32.27L481.993 33.0816L482.004 33.0738L481.409 32.27ZM474.749 41L475.677 41.3714L475.679 41.3661L474.749 41ZM474.839 67.64L473.893 67.964L473.895 67.9718L473.898 67.9796L474.839 67.64ZM481.679 77.9L481.036 78.6658L481.045 78.6733L481.679 77.9ZM496.619 81.41L496.723 82.4045L496.749 82.4018L496.775 82.3978L496.619 81.41ZM499.949 80.51L500.311 81.442L500.311 81.442L499.949 80.51ZM502.199 78.53L501.304 78.0828L501.298 78.0949L501.293 78.1071L502.199 78.53ZM502.379 64.22L503.327 63.9038L503.327 63.9038L502.379 64.22ZM500.399 62.06L499.998 62.9762L500.023 62.9869L500.048 62.9963L500.399 62.06ZM495.539 61.34L494.581 61.6273L494.789 62.3206L495.512 62.3397L495.539 61.34ZM494.999 56.39L495.102 55.3953L493.999 55.2812V56.39H494.999ZM517.589 56.48H518.589V55.4032L517.515 55.4827L517.589 56.48ZM517.049 61.34L517.099 62.3388L517.793 62.304L518.002 61.6411L517.049 61.34ZM514.439 61.97L514.993 62.8021L514.993 62.8021L514.439 61.97ZM513.359 64.13L514.344 64.3038L514.345 64.2944L513.359 64.13ZM513.269 77L512.275 77.1104L512.278 77.1423L512.284 77.1738L513.269 77ZM514.349 79.97L514.935 80.7802L515.658 80.2573L515.22 79.4797L514.349 79.97ZM503.999 84.92L503.704 83.9645L503.7 83.9658L503.999 84.92ZM490.859 85.81C484.944 85.81 479.809 84.5522 475.421 82.0697L474.436 83.8103C479.169 86.4878 484.653 87.81 490.859 87.81V85.81ZM475.43 82.0746C471.038 79.532 467.629 75.9531 465.194 71.3152L463.423 72.2448C466.028 77.2069 469.699 81.068 474.428 83.8054L475.43 82.0746ZM465.199 71.3239C462.824 66.6908 461.619 61.2131 461.619 54.86H459.619C459.619 61.4669 460.873 67.2692 463.419 72.2361L465.199 71.3239ZM461.619 54.86C461.619 48.5888 462.995 43.2892 465.699 38.916L463.998 37.864C461.063 42.6108 459.619 48.2912 459.619 54.86H461.619ZM465.697 38.919C468.482 34.452 472.153 31.1017 476.721 28.8467L475.836 27.0533C470.924 29.4783 466.975 33.088 464 37.861L465.697 38.919ZM476.726 28.8444C481.377 26.5189 486.502 25.35 492.119 25.35V23.35C486.215 23.35 480.78 24.5811 475.832 27.0556L476.726 28.8444ZM492.119 25.35C496.074 25.35 499.875 25.7337 503.524 26.4987L503.934 24.5413C500.143 23.7463 496.204 23.35 492.119 23.35V25.35ZM503.527 26.4994C507.248 27.2672 510.47 28.2956 513.205 29.5757L514.053 27.7643C511.147 26.4044 507.77 25.3328 503.931 24.5406L503.527 26.4994ZM512.647 28.4805C511.969 31.991 511.639 36.7134 511.639 42.62H513.639C513.639 36.7666 513.968 32.189 514.611 28.8595L512.647 28.4805ZM512.222 41.7109C510.967 42.286 509.151 42.61 506.699 42.61V44.61C509.287 44.61 511.43 44.274 513.055 43.5291L512.222 41.7109ZM507.698 43.5666C507.454 37.9607 506.111 33.8016 503.397 31.4274L502.08 32.9326C504.167 34.7584 505.463 38.2193 505.7 43.6534L507.698 43.5666ZM503.408 31.4367C500.765 29.0582 497.073 27.94 492.479 27.94V29.94C496.765 29.94 499.913 30.9818 502.07 32.9233L503.408 31.4367ZM492.479 27.94C487.923 27.94 484.015 29.0976 480.814 31.4662L482.004 33.0738C484.803 31.0024 488.274 29.94 492.479 29.94V27.94ZM480.824 31.4585C477.659 33.7379 475.324 36.8072 473.818 40.6339L475.679 41.3661C477.054 37.8728 479.159 35.1221 481.993 33.0815L480.824 31.4585ZM473.82 40.6286C472.328 44.3595 471.589 48.4473 471.589 52.88H473.589C473.589 48.6727 474.29 44.8405 475.677 41.3714L473.82 40.6286ZM471.589 52.88C471.589 58.431 472.351 63.4629 473.893 67.964L475.785 67.316C474.326 63.0571 473.589 58.249 473.589 52.88H471.589ZM473.898 67.9796C475.508 72.4366 477.879 76.0142 481.036 78.6657L482.322 77.1343C479.479 74.7458 477.29 71.4834 475.779 67.3004L473.898 67.9796ZM481.045 78.6733C484.239 81.2924 488.068 82.59 492.479 82.59V80.59C488.489 80.59 485.119 79.4276 482.313 77.1267L481.045 78.6733ZM492.479 82.59C494.121 82.59 495.538 82.5293 496.723 82.4045L496.514 80.4155C495.42 80.5307 494.077 80.59 492.479 80.59V82.59ZM496.775 82.3978C497.986 82.2066 499.165 81.8878 500.311 81.442L499.586 79.578C498.573 79.9722 497.532 80.2534 496.463 80.4222L496.775 82.3978ZM500.311 81.442C501.588 80.9453 502.558 80.1249 503.105 78.9529L501.293 78.1071C501 78.7351 500.469 79.2347 499.586 79.578L500.311 81.442ZM503.093 78.9772C503.683 77.7977 503.919 76.0387 503.919 73.85H501.919C501.919 75.9813 501.675 77.3423 501.304 78.0828L503.093 78.9772ZM503.919 73.85V69.71H501.919V73.85H503.919ZM503.919 69.71C503.919 67.1238 503.743 65.1506 503.327 63.9038L501.43 64.5362C501.734 65.4494 501.919 67.1362 501.919 69.71H503.919ZM503.327 63.9038C502.884 62.5734 502.026 61.6022 500.75 61.1237L500.048 62.9963C500.691 63.2378 501.154 63.7066 501.43 64.5362L503.327 63.9038ZM500.8 61.1438C499.648 60.64 497.858 60.4007 495.565 60.3403L495.512 62.3397C497.78 62.3993 499.229 62.64 499.998 62.9762L500.8 61.1438ZM496.497 61.0527C496.177 59.9877 495.999 58.4489 495.999 56.39H493.999C493.999 58.5311 494.18 60.2923 494.581 61.6273L496.497 61.0527ZM494.896 57.3847C496.697 57.571 500.562 57.66 506.429 57.66V55.66C500.536 55.66 496.78 55.569 495.102 55.3953L494.896 57.3847ZM506.429 57.66C512.238 57.66 515.998 57.6006 517.663 57.4773L517.515 55.4827C515.939 55.5994 512.26 55.66 506.429 55.66V57.66ZM516.589 56.48C516.589 58.5427 516.41 60.0432 516.095 61.0389L518.002 61.6411C518.408 60.3568 518.589 58.6173 518.589 56.48H516.589ZM516.999 60.3412C515.749 60.4037 514.655 60.6243 513.884 61.138L514.993 62.8021C515.303 62.5957 515.949 62.3963 517.099 62.3388L516.999 60.3412ZM513.884 61.1379C512.998 61.7287 512.568 62.7909 512.372 63.9656L514.345 64.2944C514.509 63.3091 514.8 62.9313 514.993 62.8021L513.884 61.1379ZM512.374 63.9562C512.177 65.071 512.089 66.8892 512.089 69.35H514.089C514.089 66.8908 514.18 65.229 514.344 64.3038L512.374 63.9562ZM512.089 69.35V72.86H514.089V69.35H512.089ZM512.089 72.86C512.089 74.5593 512.149 75.9797 512.275 77.1104L514.263 76.8896C514.148 75.8603 514.089 74.5207 514.089 72.86H512.089ZM512.284 77.1738C512.485 78.3118 512.885 79.4082 513.477 80.4603L515.22 79.4797C514.732 78.6118 514.413 77.7282 514.254 76.8262L512.284 77.1738ZM513.763 79.1598C511.049 81.1232 507.702 82.7297 503.704 83.9645L504.294 85.8755C508.455 84.5903 512.009 82.8968 514.935 80.7802L513.763 79.1598ZM503.7 83.9658C499.788 85.1919 495.51 85.81 490.859 85.81V87.81C495.688 87.81 500.17 87.1681 504.298 85.8742L503.7 83.9658Z" transform="translate(-63 -23)" fill="#F2F2F2"/>
</svg>
