<svg width="293" height="65" viewBox="0 0 293 65" fill="none" xmlns="http://www.w3.org/2000/svg">
<path d="M232.113 24.89H233.113V23.8142L232.04 23.8927L232.113 24.89ZM231.483 29.66L231.75 30.6235L232.254 30.4836L232.426 29.9903L231.483 29.66ZM228.693 31.28L227.986 30.5729L227.971 30.587L227.958 30.6017L228.693 31.28ZM226.533 34.97L225.613 34.5761L225.607 34.5901L225.602 34.6043L226.533 34.97ZM223.923 42.62L222.969 42.3189L222.967 42.324L223.923 42.62ZM210.423 86.18L210.753 87.1239L211.229 86.9574L211.378 86.476L210.423 86.18ZM205.113 86.81L204.169 87.142L204.404 87.81H205.113V86.81ZM188.553 42.35L189.484 41.986L188.485 39.4289L187.605 42.0297L188.553 42.35ZM173.703 86.27L173.945 87.2401L174.475 87.1077L174.65 86.5903L173.703 86.27ZM168.303 86.81L167.345 87.0997L167.56 87.81H168.303V86.81ZM153.633 40.46L152.682 40.7713L152.685 40.7789L153.633 40.46ZM150.933 33.26L150.016 33.6587L150.026 33.6833L150.038 33.7072L150.933 33.26ZM149.133 30.56L148.519 31.3494L148.539 31.3648L148.559 31.3792L149.133 30.56ZM146.523 29.75L145.55 29.9816L145.715 30.6742L146.423 30.745L146.523 29.75ZM146.073 24.89L146.135 23.8919L145.073 23.8255V24.89H146.073ZM169.743 24.89H170.743V23.8379L169.692 23.8913L169.743 24.89ZM169.203 29.66L169.261 30.6583L169.987 30.6156L170.17 29.9124L169.203 29.66ZM164.883 30.56L164.386 29.6918L164.372 29.6998L164.359 29.7083L164.883 30.56ZM165.243 39.29L166.191 38.9737L166.187 38.9622L165.243 39.29ZM174.333 68.63L173.37 68.9013L174.24 71.9881L175.279 68.9538L174.333 68.63ZM189.273 24.98L188.956 24.0313L188.487 24.1879L188.326 24.6562L189.273 24.98ZM194.313 24.44L195.247 24.0832L195.001 23.44H194.313V24.44ZM210.783 69.08L209.841 69.4166L210.849 72.2363L211.738 69.3768L210.783 69.08ZM219.063 42.44L220.018 42.7368L220.02 42.7273L219.063 42.44ZM218.973 31.46L218.266 32.1671L218.289 32.1907L218.314 32.2126L218.973 31.46ZM214.653 29.66L213.718 30.016L213.926 30.5613L214.503 30.6487L214.653 29.66ZM213.933 24.89L214.004 23.8925L212.933 23.816V24.89H213.933ZM223.203 26.16C226.698 26.16 229.694 26.0697 232.186 25.8873L232.04 23.8927C229.612 24.0703 226.667 24.16 223.203 24.16V26.16ZM231.113 24.89C231.113 26.813 230.907 28.2779 230.539 29.3297L232.426 29.9903C232.898 28.6421 233.113 26.927 233.113 24.89H231.113ZM231.215 28.6965C229.972 29.0419 228.889 29.6689 227.986 30.5729L229.4 31.9871C230.056 31.3311 230.834 30.8781 231.75 30.6235L231.215 28.6965ZM227.958 30.6017C227.124 31.5046 226.351 32.8556 225.613 34.5761L227.452 35.3639C228.154 33.7244 228.821 32.6154 229.427 31.9583L227.958 30.6017ZM225.602 34.6043C224.929 36.3173 224.051 38.8939 222.969 42.3189L224.876 42.9211C225.955 39.5061 226.816 36.9827 227.463 35.3357L225.602 34.6043ZM222.967 42.324L209.467 85.884L211.378 86.476L224.878 42.916L222.967 42.324ZM210.092 85.2361C209.053 85.5999 207.418 85.81 205.113 85.81V87.81C207.487 87.81 209.392 87.6001 210.753 87.1239L210.092 85.2361ZM206.056 86.478C201.132 72.486 195.608 57.6552 189.484 41.986L187.621 42.714C193.738 58.3648 199.254 73.174 204.169 87.142L206.056 86.478ZM187.605 42.0297L172.755 85.9497L174.65 86.5903L189.5 42.6703L187.605 42.0297ZM173.46 85.2999C172.126 85.6333 170.414 85.81 168.303 85.81V87.81C170.511 87.81 172.399 87.6267 173.945 87.2401L173.46 85.2999ZM169.26 86.5203C163.738 68.2743 158.845 52.8139 154.58 40.1411L152.685 40.7789C156.941 53.4261 161.827 68.8657 167.345 87.0997L169.26 86.5203ZM154.583 40.1487C153.443 36.6704 152.524 34.2062 151.827 32.8128L150.038 33.7072C150.662 34.9538 151.542 37.2896 152.682 40.7713L154.583 40.1487ZM151.85 32.8613C151.239 31.4565 150.548 30.3303 149.706 29.7408L148.559 31.3792C148.917 31.6297 149.426 32.3035 150.016 33.6587L151.85 32.8613ZM149.747 29.7706C148.983 29.1767 147.885 28.8812 146.622 28.755L146.423 30.745C147.56 30.8588 148.202 31.1033 148.519 31.3494L149.747 29.7706ZM147.495 29.5184C147.22 28.363 147.073 26.8284 147.073 24.89H145.073C145.073 26.9116 145.225 28.617 145.55 29.9816L147.495 29.5184ZM146.01 25.8881C148.92 26.0699 152.783 26.16 157.593 26.16V24.16C152.802 24.16 148.985 24.0701 146.135 23.8919L146.01 25.8881ZM157.593 26.16C162.165 26.16 166.233 26.0698 169.793 25.8887L169.692 23.8913C166.173 24.0702 162.14 24.16 157.593 24.16V26.16ZM168.743 24.89C168.743 26.626 168.569 28.1282 168.235 29.4076L170.17 29.9124C170.556 28.4318 170.743 26.754 170.743 24.89H168.743ZM169.144 28.6617C167.084 28.7829 165.442 29.0887 164.386 29.6918L165.379 31.4282C166.003 31.0713 167.241 30.7771 169.261 30.6583L169.144 28.6617ZM164.359 29.7083C163.208 30.4164 162.713 31.6007 162.713 32.99H164.713C164.713 32.0993 164.997 31.6636 165.407 31.4117L164.359 29.7083ZM162.713 32.99C162.713 34.4375 163.28 36.6826 164.298 39.6178L166.187 38.9622C165.166 36.0174 164.713 34.0625 164.713 32.99H162.713ZM164.294 39.6062C167.83 50.2143 170.855 59.9791 173.37 68.9013L175.295 68.3587C172.77 59.4009 169.735 49.6057 166.191 38.9738L164.294 39.6062ZM175.279 68.9538L190.219 25.3038L188.326 24.6562L173.387 68.3062L175.279 68.9538ZM189.589 25.9287C190.509 25.6219 192.055 25.44 194.313 25.44V23.44C192.01 23.44 190.196 23.6181 188.956 24.0313L189.589 25.9287ZM193.378 24.7968C198.716 38.7694 204.203 53.6426 209.841 69.4166L211.724 68.7434C206.082 52.9574 200.59 38.0706 195.247 24.0832L193.378 24.7968ZM211.738 69.3768L220.018 42.7368L218.108 42.1432L209.828 68.7832L211.738 69.3768ZM220.02 42.7273C220.929 39.6999 221.413 37.248 221.413 35.42H219.413C219.413 36.952 218.997 39.1801 218.105 42.1527L220.02 42.7273ZM221.413 35.42C221.413 33.4542 220.886 31.8054 219.631 30.7074L218.314 32.2126C218.979 32.7946 219.413 33.7858 219.413 35.42H221.413ZM219.68 30.7529C218.564 29.6375 216.881 28.9862 214.802 28.6713L214.503 30.6487C216.384 30.9338 217.581 31.4825 218.266 32.1671L219.68 30.7529ZM215.587 29.304C215.165 28.1949 214.933 26.7358 214.933 24.89H212.933C212.933 26.8842 213.181 28.6051 213.718 30.016L215.587 29.304ZM213.861 25.8875C216.413 26.0697 219.528 26.16 223.203 26.16V24.16C219.557 24.16 216.492 24.0703 214.004 23.8925L213.861 25.8875ZM254.471 82.76L253.956 83.6175L253.961 83.6205L254.471 82.76ZM243.941 71.6L243.051 72.0561L243.054 72.0628L243.058 72.0694L243.941 71.6ZM244.121 39.2L243.25 38.7087L243.245 38.7172L244.121 39.2ZM254.921 28.31L255.413 29.1804L255.422 29.1754L254.921 28.31ZM285.881 28.22L285.388 29.0904L285.393 29.0931L285.881 28.22ZM296.591 39.02L295.713 39.4989L295.718 39.5076L296.591 39.02ZM296.591 71.33L295.707 70.8611L295.705 70.8652L296.591 71.33ZM285.971 82.67L285.453 81.8145L285.453 81.8145L285.971 82.67ZM280.841 78.53L281.481 79.2982L281.481 79.2982L280.841 78.53ZM286.601 69.89L285.663 69.5422L285.66 69.5507L286.601 69.89ZM286.061 43.16L285.13 43.5269L285.135 43.5381L286.061 43.16ZM278.951 33.08L278.315 33.852L278.324 33.8594L278.951 33.08ZM260.051 32.27L260.657 33.0654L260.663 33.0609L260.668 33.0563L260.051 32.27ZM254.111 40.55L253.182 40.1786L253.179 40.1853L253.177 40.1921L254.111 40.55ZM254.381 67.28L253.439 67.6155L253.44 67.6196L254.381 67.28ZM261.221 77.72L261.881 76.9693L261.881 76.9693L261.221 77.72ZM270.311 85.81C264.466 85.81 259.366 84.4966 254.98 81.8995L253.961 83.6205C258.695 86.4234 264.156 87.81 270.311 87.81V85.81ZM254.985 81.9025C250.645 79.2982 247.26 75.714 244.824 71.1306L243.058 72.0694C245.661 76.966 249.297 80.8218 253.956 83.6175L254.985 81.9025ZM244.831 71.1439C242.451 66.5003 241.251 61.2595 241.251 55.4H239.251C239.251 61.5405 240.51 67.0997 243.051 72.0561L244.831 71.1439ZM241.251 55.4C241.251 49.424 242.509 44.1946 244.996 39.6828L243.245 38.7172C240.572 43.5654 239.251 49.136 239.251 55.4H241.251ZM244.992 39.6913C247.545 35.1655 251.016 31.6684 255.413 29.1804L254.428 27.4397C249.706 30.1116 245.977 33.8745 243.25 38.7087L244.992 39.6913ZM255.422 29.1754C259.817 26.6307 264.772 25.35 270.311 25.35V23.35C264.449 23.35 259.144 24.7093 254.42 27.4446L255.422 29.1754ZM270.311 25.35C275.978 25.35 280.995 26.6045 285.388 29.0903L286.373 27.3496C281.647 24.6755 276.284 23.35 270.311 23.35V25.35ZM285.393 29.0931C289.849 31.5817 293.284 35.0454 295.713 39.4989L297.468 38.5411C294.858 33.7546 291.152 30.0183 286.368 27.3469L285.393 29.0931ZM295.718 39.5076C298.203 43.9581 299.461 49.1256 299.461 55.04H301.461C301.461 48.8344 300.138 43.3219 297.464 38.5324L295.718 39.5076ZM299.461 55.04C299.461 60.8916 298.204 66.1583 295.707 70.8611L297.474 71.7989C300.137 66.7817 301.461 61.1884 301.461 55.04H299.461ZM295.705 70.8652C293.268 75.5068 289.854 79.1505 285.453 81.8145L286.488 83.5255C291.207 80.6695 294.873 76.7532 297.476 71.7948L295.705 70.8652ZM285.453 81.8145C281.065 84.4704 276.027 85.81 270.311 85.81V87.81C276.354 87.81 281.756 86.3896 286.488 83.5255L285.453 81.8145ZM271.931 82.68C275.574 82.68 278.773 81.5548 281.481 79.2982L280.2 77.7618C277.868 79.7052 275.127 80.68 271.931 80.68V82.68ZM281.481 79.2982C284.161 77.0649 286.172 74.0251 287.541 70.2293L285.66 69.5507C284.389 73.0749 282.56 75.7951 280.2 77.7618L281.481 79.2982ZM287.538 70.2378C288.966 66.3885 289.671 62.0679 289.671 57.29H287.671C287.671 61.8721 286.995 65.9515 285.663 69.5422L287.538 70.2378ZM289.671 57.29C289.671 52.016 288.781 47.1756 286.986 42.7819L285.135 43.5381C286.82 47.6644 287.671 52.244 287.671 57.29H289.671ZM286.991 42.7931C285.258 38.3987 282.794 34.8863 279.577 32.3006L278.324 33.8594C281.228 36.1937 283.503 39.4013 285.13 43.5269L286.991 42.7931ZM279.586 32.3081C276.354 29.6458 272.681 28.3 268.601 28.3V30.3C272.201 30.3 275.428 31.4742 278.315 33.8519L279.586 32.3081ZM268.601 28.3C265.195 28.3 262.127 29.3664 259.433 31.4837L260.668 33.0563C263.014 31.2136 265.647 30.3 268.601 30.3V28.3ZM259.445 31.4746C256.752 33.5263 254.674 36.4482 253.182 40.1786L255.039 40.9214C256.427 37.4518 258.31 34.8537 260.657 33.0654L259.445 31.4746ZM253.177 40.1921C251.744 43.9292 251.041 48.2248 251.041 53.06H253.041C253.041 48.4152 253.717 44.3708 255.044 40.9079L253.177 40.1921ZM251.041 53.06C251.041 58.2633 251.837 63.1179 253.439 67.6155L255.323 66.9445C253.805 62.6821 253.041 58.0567 253.041 53.06H251.041ZM253.44 67.6196C255.049 72.0742 257.416 75.7038 260.56 78.4707L261.881 76.9693C259.025 74.4562 256.833 71.1258 255.321 66.9404L253.44 67.6196ZM260.56 78.4707C263.75 81.2776 267.557 82.68 271.931 82.68V80.68C268.024 80.68 264.692 79.4424 261.881 76.9693L260.56 78.4707ZM357.904 73.31L357.035 73.805L357.036 73.8061L357.904 73.31ZM360.964 78.08L360.174 78.6939L360.193 78.7184L360.214 78.7416L360.964 78.08ZM368.614 81.23H369.614V80.2905L368.676 80.2319L368.614 81.23ZM368.074 86V87H368.818L369.032 86.2873L368.074 86ZM352.234 86.81L351.367 87.3079L351.707 87.9003L352.382 87.7989L352.234 86.81ZM347.734 78.35L346.826 78.7705L346.831 78.7791L347.734 78.35ZM345.664 73.85L346.578 73.4439L346.565 73.4166L346.552 73.3901L345.664 73.85ZM341.074 65.84L340.242 66.3947L340.242 66.3947L341.074 65.84ZM335.674 59.54L336.371 58.8235L336.067 58.5268L335.642 58.5405L335.674 59.54ZM332.884 59.63L332.849 60.6294L332.883 60.6306L332.916 60.6295L332.884 59.63ZM330.274 59.54L330.308 58.5406L329.274 58.5049V59.54H330.274ZM330.724 78.17L329.754 78.4125L329.759 78.4351L329.766 78.4573L330.724 78.17ZM332.434 80.69L332.958 79.8383L332.958 79.8383L332.434 80.69ZM335.854 81.5L336.808 81.2017L336.598 80.529L335.894 80.5008L335.854 81.5ZM336.304 86.27L336.233 87.2675L337.304 87.344V86.27H336.304ZM312.544 86.27H311.544V87.3306L312.603 87.2683L312.544 86.27ZM313.084 81.5L313.013 80.5025L312.346 80.5501L312.135 81.1838L313.084 81.5ZM316.864 80.6L317.36 81.4682L317.36 81.4682L316.864 80.6ZM318.664 78.17L317.71 77.8689L317.71 77.8689L318.664 78.17ZM318.664 32.9L317.706 33.1873L317.708 33.1943L317.71 33.2011L318.664 32.9ZM316.774 30.38L316.278 31.2482L316.29 31.2555L316.303 31.2624L316.774 30.38ZM312.994 29.57L312.027 29.8245L312.216 30.5429L312.958 30.5694L312.994 29.57ZM312.544 24.89L312.625 23.8933L311.544 23.8056V24.89H312.544ZM324.604 25.16V26.1601L324.616 26.1599L324.604 25.16ZM331.714 25.07L331.726 26.0699L331.736 26.0698L331.745 26.0695L331.714 25.07ZM355.834 29.3L355.182 30.0583L355.189 30.0644L355.196 30.0704L355.834 29.3ZM357.094 51.44L356.35 50.7718L356.342 50.7804L357.094 51.44ZM346.474 57.56L346.228 56.5906L344.359 57.0642L345.823 58.3193L346.474 57.56ZM351.694 63.23L350.873 63.8018L350.879 63.81L350.885 63.8182L351.694 63.23ZM330.274 54.5H329.274V55.3828L330.15 55.4923L330.274 54.5ZM345.034 51.53L345.634 52.33L345.636 52.328L345.034 51.53ZM346.114 32.9L345.407 33.6071L345.417 33.6169L345.427 33.6265L346.114 32.9ZM330.274 30.38L330.045 29.4066L329.274 29.588V30.38H330.274ZM357.036 73.8061C358.244 75.9212 359.291 77.5587 360.174 78.6939L361.753 77.4661C360.956 76.4413 359.963 74.8988 358.772 72.8139L357.036 73.8061ZM360.214 78.7416C361.203 79.863 362.344 80.7076 363.636 81.2516L364.412 79.4084C363.424 78.9924 362.524 78.337 361.714 77.4184L360.214 78.7416ZM363.636 81.2516C364.92 81.7924 366.574 82.1045 368.551 82.2281L368.676 80.2319C366.813 80.1155 365.407 79.8276 364.412 79.4084L363.636 81.2516ZM367.614 81.23C367.614 83.1621 367.437 84.6437 367.116 85.7127L369.032 86.2873C369.431 84.9563 369.614 83.2579 369.614 81.23H367.614ZM368.074 85C361.1 85 355.761 85.2698 352.085 85.8211L352.382 87.7989C355.907 87.2702 361.127 87 368.074 87V85ZM353.101 86.3121C351.249 83.0864 349.763 80.2903 348.637 77.9209L346.831 78.7791C347.985 81.2097 349.498 84.0536 351.367 87.3079L353.101 86.3121ZM348.641 77.9295C347.5 75.4662 346.814 73.9749 346.578 73.4439L344.75 74.2561C344.994 74.8051 345.688 76.3138 346.826 78.7705L348.641 77.9295ZM346.552 73.3901C344.803 70.0141 343.254 67.3082 341.906 65.2853L340.242 66.3947C341.533 68.3318 343.044 70.9659 344.776 74.3099L346.552 73.3901ZM341.906 65.2853C340.536 63.231 338.686 61.0773 336.371 58.8235L334.976 60.2565C337.222 62.4427 338.971 64.489 340.242 66.3947L341.906 65.2853ZM335.642 58.5405L332.852 58.6305L332.916 60.6295L335.706 60.5395L335.642 58.5405ZM332.918 58.6306L330.308 58.5406L330.239 60.5394L332.849 60.6294L332.918 58.6306ZM329.274 59.54V72.86H331.274V59.54H329.274ZM329.274 72.86C329.274 75.2229 329.423 77.0914 329.754 78.4125L331.694 77.9275C331.424 76.8486 331.274 75.1771 331.274 72.86H329.274ZM329.766 78.4573C330.17 79.8053 330.855 80.8924 331.91 81.5417L332.958 79.8383C332.453 79.5276 331.997 78.9347 331.682 77.8827L329.766 78.4573ZM331.91 81.5417C332.901 82.1517 334.24 82.4363 335.814 82.4992L335.894 80.5008C334.468 80.4437 333.527 80.1883 332.958 79.8383L331.91 81.5417ZM334.899 81.7983C335.15 82.6018 335.304 84.0593 335.304 86.27H337.304C337.304 84.0407 337.157 82.3182 336.808 81.2017L334.899 81.7983ZM336.375 85.2725C333.817 85.0898 329.767 85 324.244 85V87C329.761 87 333.751 87.0902 336.233 87.2675L336.375 85.2725ZM324.244 85C319.494 85 315.572 85.0901 312.485 85.2717L312.603 87.2683C315.635 87.0899 319.514 87 324.244 87V85ZM313.544 86.27C313.544 84.2028 313.724 82.7417 314.032 81.8162L312.135 81.1838C311.724 82.4183 311.544 84.1372 311.544 86.27H313.544ZM313.155 82.4975C314.889 82.3736 316.327 82.0587 317.36 81.4682L316.368 79.7318C315.721 80.1013 314.638 80.3864 313.013 80.5025L313.155 82.4975ZM317.36 81.4682C318.467 80.8357 319.2 79.7917 319.617 78.4711L317.71 77.8689C317.407 78.8282 316.941 79.4043 316.368 79.7318L317.36 81.4682ZM319.617 78.4711C320.025 77.1815 320.204 75.3472 320.204 73.04H318.204C318.204 75.2928 318.023 76.8785 317.71 77.8689L319.617 78.4711ZM320.204 73.04V38.03H318.204V73.04H320.204ZM320.204 38.03C320.204 35.7228 320.025 33.8885 319.617 32.5989L317.71 33.2011C318.023 34.1915 318.204 35.7772 318.204 38.03H320.204ZM319.622 32.6127C319.204 31.2193 318.431 30.1306 317.244 29.4976L316.303 31.2624C316.916 31.5894 317.404 32.1807 317.706 33.1873L319.622 32.6127ZM317.27 29.5118C316.221 28.9123 314.768 28.6327 313.029 28.5706L312.958 30.5694C314.579 30.6273 315.647 30.8877 316.278 31.2482L317.27 29.5118ZM313.961 29.3155C313.693 28.2958 313.544 26.8338 313.544 24.89H311.544C311.544 26.9062 311.695 28.5642 312.027 29.8245L313.961 29.3155ZM312.463 25.8867C314.729 26.0704 318.786 26.16 324.604 26.16V24.16C318.781 24.16 314.799 24.0696 312.625 23.8933L312.463 25.8867ZM324.616 26.1599L331.726 26.0699L331.701 24.0701L324.591 24.1601L324.616 26.1599ZM331.745 26.0695C335.582 25.9496 338.539 25.89 340.624 25.89V23.89C338.508 23.89 335.526 23.9504 331.683 24.0705L331.745 26.0695ZM340.624 25.89C347.218 25.89 352.014 27.3351 355.182 30.0583L356.486 28.5417C352.814 25.3849 347.469 23.89 340.624 23.89V25.89ZM355.196 30.0704C358.441 32.7555 360.054 36.2201 360.054 40.55H362.054C362.054 35.6399 360.187 31.6045 356.471 28.5296L355.196 30.0704ZM360.054 40.55C360.054 44.6483 358.809 48.0331 356.35 50.7719L357.838 52.1081C360.659 48.9669 362.054 45.0917 362.054 40.55H360.054ZM356.342 50.7804C353.919 53.5417 350.57 55.4908 346.228 56.5906L346.719 58.5294C351.378 57.3492 355.109 55.2183 357.845 52.0996L356.342 50.7804ZM345.823 58.3193C347.868 60.072 349.548 61.9004 350.873 63.8018L352.514 62.6582C351.079 60.5996 349.28 58.648 347.125 56.8007L345.823 58.3193ZM350.885 63.8182C352.29 65.7498 354.337 69.0679 357.035 73.805L358.773 72.815C356.071 68.0721 353.978 64.6702 352.503 62.6418L350.885 63.8182ZM330.15 55.4923C331.612 55.6751 332.857 55.77 333.874 55.77V53.77C332.97 53.77 331.815 53.6849 330.398 53.5077L330.15 55.4923ZM333.874 55.77C338.592 55.77 342.539 54.6509 345.634 52.33L344.434 50.73C341.768 52.7291 338.276 53.77 333.874 53.77V55.77ZM345.636 52.328C348.868 49.8878 350.444 46.3279 350.444 41.81H348.444C348.444 45.8121 347.08 48.7322 344.431 50.732L345.636 52.328ZM350.444 41.81C350.444 37.7702 349.269 34.5084 346.801 32.1735L345.427 33.6265C347.398 35.4916 348.444 38.1698 348.444 41.81H350.444ZM346.821 32.1929C344.4 29.7724 340.764 28.66 336.124 28.66V30.66C340.483 30.66 343.507 31.7076 345.407 33.6071L346.821 32.1929ZM336.124 28.66C334.178 28.66 332.151 28.9111 330.045 29.4066L330.503 31.3534C332.477 30.8889 334.35 30.66 336.124 30.66V28.66ZM329.274 30.38V54.5H331.274V30.38H329.274ZM423.546 72.41L424.359 71.8273L424.355 71.8224L423.546 72.41ZM436.596 81.32H437.596V80.3983L436.677 80.3233L436.596 81.32ZM435.966 86V87H436.663L436.904 86.3457L435.966 86ZM419.316 86.63L418.443 87.1167L418.77 87.7046L419.438 87.6225L419.316 86.63ZM409.416 71.69L408.609 72.2806L408.612 72.2846L409.416 71.69ZM397.176 57.2L397.878 56.4874L396.176 54.812V57.2H397.176ZM397.716 78.17L398.67 77.8689L398.67 77.8689L397.716 78.17ZM399.516 80.6L400.012 79.7318L400.012 79.7318L399.516 80.6ZM403.296 81.5L404.232 81.1489L404.007 80.5482L403.367 80.5025L403.296 81.5ZM403.836 86.27L403.782 87.2685L404.836 87.326V86.27H403.836ZM379.446 86.27H378.446V87.325L379.5 87.2686L379.446 86.27ZM379.986 81.5L379.915 80.5025L379.237 80.551L379.033 81.1989L379.986 81.5ZM383.766 80.6L384.262 81.4682L384.262 81.4682L383.766 80.6ZM385.566 78.17L384.613 77.8689L384.613 77.8689L385.566 78.17ZM385.566 32.99L384.613 33.2911L384.613 33.2911L385.566 32.99ZM383.766 30.56L384.262 29.6918L384.262 29.6918L383.766 30.56ZM379.986 29.66L379.025 29.9347L379.217 30.6076L379.915 30.6575L379.986 29.66ZM379.446 24.89L379.502 23.8915L378.446 23.8329V24.89H379.446ZM403.836 24.89H404.836V23.8387L403.786 23.8912L403.836 24.89ZM403.746 27.5L404.744 27.5713L404.744 27.5712L403.746 27.5ZM403.296 29.66L403.367 30.6575L403.992 30.6128L404.225 30.0314L403.296 29.66ZM399.516 30.56L400.012 31.4282L400.012 31.4282L399.516 30.56ZM397.716 32.99L398.67 33.2911L398.67 33.2911L397.716 32.99ZM397.176 53.6H396.176V56.0832L397.897 54.293L397.176 53.6ZM412.836 37.31L412.12 36.6117L412.115 36.617L412.836 37.31ZM413.646 29.66L412.693 29.9611L412.899 30.6139L413.582 30.6579L413.646 29.66ZM413.106 24.89L413.194 23.8939L412.106 23.7979V24.89H413.106ZM433.176 24.89H434.176V23.8122L433.101 23.8928L433.176 24.89ZM432.456 29.66L432.512 30.6585L433.135 30.6238L433.378 30.0481L432.456 29.66ZM426.336 31.46L426.817 32.3369L426.826 32.3316L426.336 31.46ZM419.676 37.13L420.404 37.8158L420.407 37.8129L419.676 37.13ZM406.446 51.17L405.718 50.4842L405.065 51.1771L405.725 51.8633L406.446 51.17ZM422.733 72.9927C425.034 76.2007 427.118 78.5249 428.99 79.8799L430.163 78.2601C428.554 77.0951 426.619 74.9793 424.359 71.8273L422.733 72.9927ZM428.99 79.8799C430.923 81.2801 433.458 82.0671 436.515 82.3167L436.677 80.3233C433.854 80.0929 431.709 79.3799 430.163 78.2601L428.99 79.8799ZM435.596 81.32C435.596 83.2467 435.389 84.6727 435.028 85.6543L436.904 86.3457C437.383 85.0473 437.596 83.3533 437.596 81.32H435.596ZM435.966 85C428.282 85 422.68 85.2094 419.194 85.6375L419.438 87.6225C422.793 87.2106 428.29 87 435.966 87V85ZM420.19 86.1433C417.821 81.8925 414.495 76.8749 410.22 71.0954L408.612 72.2846C412.858 78.0251 416.131 82.9675 418.443 87.1167L420.19 86.1433ZM410.223 71.0994C405.941 65.2487 401.826 60.3749 397.878 56.4874L396.475 57.9126C400.326 61.7051 404.372 66.4913 408.609 72.2806L410.223 71.0994ZM396.176 57.2V73.04H398.176V57.2H396.176ZM396.176 73.04C396.176 75.3472 396.355 77.1815 396.763 78.4711L398.67 77.8689C398.357 76.8785 398.176 75.2928 398.176 73.04H396.176ZM396.763 78.4711C397.18 79.7918 397.913 80.8357 399.02 81.4682L400.012 79.7318C399.439 79.4043 398.973 78.8282 398.67 77.8689L396.763 78.4711ZM399.02 81.4682C400.053 82.0587 401.49 82.3736 403.225 82.4975L403.367 80.5025C401.742 80.3864 400.659 80.1013 400.012 79.7318L399.02 81.4682ZM402.36 81.8511C402.652 82.6299 402.836 84.0631 402.836 86.27H404.836C404.836 84.0369 404.66 82.2901 404.232 81.1489L402.36 81.8511ZM403.891 85.2715C400.567 85.0902 396.618 85 392.046 85V87C396.594 87 400.505 87.0898 403.782 87.2685L403.891 85.2715ZM392.046 85C386.996 85 382.777 85.0901 379.393 85.2714L379.5 87.2686C382.835 87.0899 387.016 87 392.046 87V85ZM380.446 86.27C380.446 84.2708 380.625 82.7987 380.94 81.8011L379.033 81.1989C378.628 82.4813 378.446 84.1892 378.446 86.27H380.446ZM380.057 82.4975C381.792 82.3736 383.229 82.0587 384.262 81.4682L383.27 79.7318C382.623 80.1013 381.54 80.3864 379.915 80.5025L380.057 82.4975ZM384.262 81.4682C385.369 80.8357 386.103 79.7917 386.52 78.4711L384.613 77.8689C384.31 78.8282 383.843 79.4043 383.27 79.7318L384.262 81.4682ZM386.52 78.4711C386.927 77.1815 387.106 75.3472 387.106 73.04H385.106C385.106 75.2928 384.925 76.8785 384.613 77.8689L386.52 78.4711ZM387.106 73.04V38.03H385.106V73.04H387.106ZM387.106 38.03C387.106 35.7795 386.926 33.9768 386.52 32.6889L384.613 33.2911C384.926 34.2832 385.106 35.8405 385.106 38.03H387.106ZM386.52 32.6889C386.103 31.3683 385.369 30.3243 384.262 29.6918L383.27 31.4282C383.843 31.7557 384.31 32.3318 384.613 33.2911L386.52 32.6889ZM384.262 29.6918C383.229 29.1013 381.792 28.7864 380.057 28.6625L379.915 30.6575C381.54 30.7736 382.623 31.0587 383.27 31.4282L384.262 29.6918ZM380.948 29.3853C380.622 28.2456 380.446 26.756 380.446 24.89H378.446C378.446 26.864 378.63 28.5544 379.025 29.9347L380.948 29.3853ZM379.391 25.8885C382.656 26.0699 386.786 26.16 391.776 26.16V24.16C386.806 24.16 382.716 24.0701 379.502 23.8915L379.391 25.8885ZM391.776 26.16C396.229 26.16 400.266 26.0697 403.886 25.8888L403.786 23.8912C400.206 24.0703 396.203 24.16 391.776 24.16V26.16ZM402.836 24.89C402.836 25.7678 402.807 26.614 402.749 27.4288L404.744 27.5712C404.805 26.706 404.836 25.8122 404.836 24.89H402.836ZM402.749 27.4288C402.694 28.1952 402.56 28.8085 402.368 29.2886L404.225 30.0314C404.513 29.3115 404.678 28.4848 404.744 27.5713L402.749 27.4288ZM403.225 28.6625C401.49 28.7864 400.053 29.1013 399.02 29.6918L400.012 31.4282C400.659 31.0587 401.742 30.7736 403.367 30.6575L403.225 28.6625ZM399.02 29.6918C397.913 30.3243 397.18 31.3683 396.763 32.6889L398.67 33.2911C398.973 32.3318 399.439 31.7557 400.012 31.4282L399.02 29.6918ZM396.763 32.6889C396.356 33.9768 396.176 35.7795 396.176 38.03H398.176C398.176 35.8405 398.356 34.2832 398.67 33.2911L396.763 32.6889ZM396.176 38.03V53.6H398.176V38.03H396.176ZM397.897 54.293L413.557 38.003L412.115 36.617L396.455 52.907L397.897 54.293ZM413.552 38.0083C414.779 36.7505 415.732 35.5983 416.384 34.555C417.026 33.5276 417.436 32.512 417.436 31.55H415.436C415.436 31.968 415.246 32.6024 414.688 33.495C414.14 34.3717 413.293 35.4095 412.12 36.6117L413.552 38.0083ZM417.436 31.55C417.436 30.6542 417.044 29.8989 416.299 29.3946C415.62 28.9341 414.714 28.7268 413.711 28.6621L413.582 30.6579C414.438 30.7132 414.928 30.8809 415.178 31.0504C415.363 31.1761 415.436 31.3058 415.436 31.55H417.436ZM414.6 29.3589C414.285 28.3613 414.106 26.8892 414.106 24.89H412.106C412.106 26.9708 412.288 28.6787 412.693 29.9611L414.6 29.3589ZM413.018 25.8861C415.105 26.0702 418.321 26.16 422.646 26.16V24.16C418.331 24.16 415.188 24.0698 413.194 23.8939L413.018 25.8861ZM422.646 26.16C427.273 26.16 430.813 26.0701 433.251 25.8872L433.101 23.8928C430.739 24.0699 427.259 24.16 422.646 24.16V26.16ZM432.176 24.89C432.176 26.8722 431.94 28.3092 431.534 29.2719L433.378 30.0481C433.932 28.7308 434.176 26.9878 434.176 24.89H432.176ZM432.401 28.6615C430.085 28.7902 427.897 29.4349 425.846 30.5884L426.826 32.3316C428.616 31.3251 430.507 30.7698 432.512 30.6585L432.401 28.6615ZM425.855 30.5832C423.857 31.6793 421.551 33.6602 418.946 36.4471L420.407 37.8129C422.961 35.0798 425.096 33.2808 426.817 32.3368L425.855 30.5832ZM418.948 36.4442L405.718 50.4842L407.174 51.8558L420.404 37.8158L418.948 36.4442ZM405.725 51.8633C410.238 56.5542 415.907 63.5911 422.737 72.9976L424.355 71.8224C417.505 62.3889 411.774 55.2658 407.167 50.4767L405.725 51.8633Z" transform="translate(-145 -23)" fill="#F2F2F2"/>
</svg>
