<svg width="141" height="886" viewBox="0 0 141 886" fill="none" xmlns="http://www.w3.org/2000/svg">
<path d="M1.152 156.128L0.565032 155.318L-0.301097 155.946L0.383779 156.768L1.152 156.128ZM18.432 48.992H19.432V48.2029L18.6646 48.0194L18.432 48.992ZM5.184 45.824H4.184V46.6131L4.95143 46.7966L5.184 45.824ZM5.184 39.2V38.2H4.184V39.2H5.184ZM49.392 39.2H50.392V38.2H49.392V39.2ZM49.392 45.824L49.6246 46.7966L50.392 46.6131V45.824H49.392ZM36.144 48.992L35.9114 48.0194L35.144 48.2029V48.992H36.144ZM26.784 145.184L25.9966 144.567L25.9886 144.578L26.784 145.184ZM6.192 162.176L5.42378 162.816L5.90166 163.39L6.58732 163.095L6.192 162.176ZM1.73897 156.938C13.5675 148.362 19.432 135.455 19.432 118.4H17.432C17.432 134.945 11.7765 147.19 0.565032 155.318L1.73897 156.938ZM19.432 118.4V48.992H17.432V118.4H19.432ZM18.6646 48.0194L5.41657 44.8514L4.95143 46.7966L18.1994 49.9646L18.6646 48.0194ZM6.184 45.824V39.2H4.184V45.824H6.184ZM5.184 40.2H49.392V38.2H5.184V40.2ZM48.392 39.2V45.824H50.392V39.2H48.392ZM49.1594 44.8514L35.9114 48.0194L36.3766 49.9646L49.6246 46.7966L49.1594 44.8514ZM35.144 48.992V118.4H37.144V48.992H35.144ZM35.144 118.4C35.144 128.059 32.1024 136.771 25.9967 144.567L27.5713 145.801C33.9456 137.661 37.144 128.517 37.144 118.4H35.144ZM25.9886 144.578C19.9253 152.536 13.1904 158.075 5.79668 161.257L6.58732 163.095C14.3616 159.749 21.3547 153.96 27.5794 145.79L25.9886 144.578ZM6.96022 161.536L1.92022 155.488L0.383779 156.768L5.42378 162.816L6.96022 161.536ZM103.349 97.232V98.232H104.349V97.232H103.349ZM99.7492 76.352L99.0421 77.0591L99.0569 77.0738L99.0722 77.0879L99.7492 76.352ZM88.8052 72.896V71.896H88.4361L88.1555 72.1358L88.8052 72.896ZM71.9572 87.296L71.4273 88.144L72.0493 88.5328L72.607 88.0562L71.9572 87.296ZM66.0532 81.248L65.185 81.7441L65.1956 81.7627L65.207 81.7808L66.0532 81.248ZM63.6052 72.752L63.1249 71.8749L62.586 72.1701L62.6058 72.7842L63.6052 72.752ZM76.8533 67.712L77.0866 68.6844L77.0958 68.6822L77.1049 68.6798L76.8533 67.712ZM120.629 130.64H119.629V131.64H120.629V130.64ZM131.861 130.64H132.861V129.64H131.861V130.64ZM131.861 135.392L132.552 136.115L132.861 135.819V135.392H131.861ZM124.517 140.288L124.123 139.369L124.11 139.375L124.096 139.381L124.517 140.288ZM104.069 134.816L104.946 134.335L104.387 133.317L103.464 134.02L104.069 134.816ZM65.9093 137.12L65.312 137.922L65.3201 137.928L65.9093 137.12ZM80.7413 129.488L80.1413 130.288L80.149 130.294L80.1569 130.3L80.7413 129.488ZM103.349 127.184L104.006 127.938L104.349 127.639V127.184H103.349ZM103.349 104.576H104.349V103.576H103.349V104.576ZM83.7652 109.328L84.3448 110.143L84.3482 110.141L83.7652 109.328ZM60.1412 122.144C60.1412 114.209 63.6235 108.31 70.6842 104.331C77.8288 100.305 88.6744 98.232 103.349 98.232V96.232C88.5521 96.232 77.2937 98.3109 69.7023 102.589C62.027 106.914 58.1412 113.471 58.1412 122.144H60.1412ZM104.349 97.232V92.192H102.349V97.232H104.349ZM104.349 92.192C104.349 87.977 104.047 84.4871 103.424 81.7464C102.806 79.0266 101.845 76.9211 100.426 75.6161L99.0722 77.0879C100.054 77.9909 100.892 79.6294 101.474 82.1896C102.051 84.7289 102.349 88.055 102.349 92.192H104.349ZM100.456 75.6449C97.8856 73.0741 93.9242 71.896 88.8052 71.896V73.896C93.6703 73.896 97.0049 75.0219 99.0421 77.0591L100.456 75.6449ZM88.1555 72.1358L71.3075 86.5358L72.607 88.0562L89.455 73.6562L88.1555 72.1358ZM72.4872 86.448C70.3265 85.0975 68.4615 83.196 66.8995 80.7152L65.207 81.7808C66.909 84.484 68.98 86.6145 71.4273 88.144L72.4872 86.448ZM66.9215 80.7519C65.4631 78.1996 64.6953 75.5262 64.6047 72.7198L62.6058 72.7842C62.7072 75.9298 63.5714 78.9204 65.185 81.7441L66.9215 80.7519ZM64.0856 73.6291C68.0343 71.4667 72.3665 69.8172 77.0866 68.6844L76.6199 66.7396C71.74 67.9108 67.2402 69.6213 63.1249 71.8749L64.0856 73.6291ZM77.1049 68.6798C81.8272 67.452 86.4946 66.84 91.1092 66.84V64.84C86.3159 64.84 81.4793 65.476 76.6016 66.7442L77.1049 68.6798ZM91.1092 66.84C100.834 66.84 107.941 68.8834 112.606 72.7981C117.239 76.6845 119.629 82.5567 119.629 90.608H121.629C121.629 82.1473 119.1 75.6355 113.892 71.2659C108.718 66.9246 101.065 64.84 91.1092 64.84V66.84ZM119.629 90.608V130.64H121.629V90.608H119.629ZM120.629 131.64H131.861V129.64H120.629V131.64ZM130.861 130.64V135.392H132.861V130.64H130.861ZM131.17 134.669C129.045 136.702 126.696 138.266 124.123 139.369L124.911 141.207C127.714 140.006 130.262 138.306 132.552 136.115L131.17 134.669ZM124.096 139.381C121.521 140.577 119.024 141.16 116.597 141.16V143.16C119.354 143.16 122.137 142.495 124.938 141.195L124.096 139.381ZM116.597 141.16C113.912 141.16 111.633 140.581 109.723 139.461C107.813 138.342 106.217 136.649 104.946 134.335L103.193 135.297C104.61 137.879 106.445 139.858 108.712 141.187C110.977 142.515 113.618 143.16 116.597 143.16V141.16ZM103.464 134.02C97.2052 138.784 90.1699 141.16 82.3252 141.16V143.16C90.6086 143.16 98.0693 140.64 104.675 135.612L103.464 134.02ZM82.3252 141.16C76.1764 141.16 70.9164 139.533 66.4984 136.312L65.3201 137.928C70.1181 141.427 75.8021 143.16 82.3252 143.16V141.16ZM66.5065 136.318C62.2949 133.182 60.1412 128.516 60.1412 122.144H58.1412C58.1412 129.02 60.4996 134.338 65.312 137.922L66.5065 136.318ZM76.2852 121.568C76.2852 125.353 77.5265 128.327 80.1413 130.288L81.3412 128.688C79.348 127.193 78.2852 124.887 78.2852 121.568H76.2852ZM80.1569 130.3C82.7635 132.176 86.0052 133.08 89.8132 133.08V131.08C86.3253 131.08 83.519 130.256 81.3256 128.676L80.1569 130.3ZM89.8132 133.08C95.3183 133.08 100.068 131.371 104.006 127.938L102.692 126.43C99.1423 129.525 94.8682 131.08 89.8132 131.08V133.08ZM104.349 127.184V104.576H102.349V127.184H104.349ZM103.349 103.576C94.6141 103.576 87.8419 105.173 83.1823 108.515L84.3482 110.141C88.5206 107.147 94.8044 105.576 103.349 105.576V103.576ZM83.1857 108.513C78.615 111.763 76.2852 116.141 76.2852 121.568H78.2852C78.2852 116.819 80.2755 113.037 84.3448 110.143L83.1857 108.513ZM140.898 140H139.898V141H140.898V140ZM140.898 133.808L140.669 132.835L139.898 133.016V133.808H140.898ZM153.138 130.928L153.367 131.901L154.138 131.72V130.928H153.138ZM153.138 36.464H154.138V35.464H153.138V36.464ZM140.898 36.464H139.898V37.464H140.898V36.464ZM140.898 30.272L140.667 29.2991L139.898 29.4817V30.272H140.898ZM163.938 24.8V23.8H163.821L163.707 23.8271L163.938 24.8ZM170.418 24.8H171.418V23.8H170.418V24.8ZM170.418 130.928H169.418V131.667L170.124 131.884L170.418 130.928ZM179.778 133.808H180.778V133.069L180.072 132.852L179.778 133.808ZM179.778 140V141H180.778V140H179.778ZM172.866 105.296L172.13 104.619L171.575 105.223L172.059 105.886L172.866 105.296ZM199.218 76.64L199.954 77.3169L201.089 76.083L199.464 75.6707L199.218 76.64ZM189.57 74.192H188.57V74.97L189.324 75.1613L189.57 74.192ZM189.57 68V67H188.57V68H189.57ZM222.114 68H223.114V67H222.114V68ZM222.114 74.192L222.336 75.1671L223.114 74.9902V74.192H222.114ZM209.442 77.072L209.221 76.0969L208.916 76.1662L208.704 76.3972L209.442 77.072ZM189.426 98.96L188.688 98.2852L188.133 98.8928L188.622 99.5548L189.426 98.96ZM213.186 131.072L212.382 131.667L212.602 131.963L212.961 132.046L213.186 131.072ZM224.994 133.808H225.994V133.013L225.22 132.834L224.994 133.808ZM224.994 140V141H225.994V140H224.994ZM198.21 140L197.403 140.59L197.702 141H198.21V140ZM141.898 140V133.808H139.898V140H141.898ZM141.127 134.781L153.367 131.901L152.909 129.955L140.669 132.835L141.127 134.781ZM154.138 130.928V36.464H152.138V130.928H154.138ZM153.138 35.464H140.898V37.464H153.138V35.464ZM141.898 36.464V30.272H139.898V36.464H141.898ZM141.129 31.2449L164.169 25.7729L163.707 23.8271L140.667 29.2991L141.129 31.2449ZM163.938 25.8H170.418V23.8H163.938V25.8ZM169.418 24.8V130.928H171.418V24.8H169.418ZM170.124 131.884L179.484 134.764L180.072 132.852L170.712 129.972L170.124 131.884ZM178.778 133.808V140H180.778V133.808H178.778ZM179.778 139H140.898V141H179.778V139ZM173.602 105.973L199.954 77.3169L198.482 75.9631L172.13 104.619L173.602 105.973ZM199.464 75.6707L189.816 73.2227L189.324 75.1613L198.972 77.6093L199.464 75.6707ZM190.57 74.192V68H188.57V74.192H190.57ZM189.57 69H222.114V67H189.57V69ZM221.114 68V74.192H223.114V68H221.114ZM221.893 73.2169L209.221 76.0969L209.664 78.0471L222.336 75.1671L221.893 73.2169ZM208.704 76.3972L188.688 98.2852L190.164 99.6348L210.18 77.7468L208.704 76.3972ZM188.622 99.5548L212.382 131.667L213.99 130.477L190.23 98.3652L188.622 99.5548ZM212.961 132.046L224.769 134.782L225.22 132.834L213.412 130.098L212.961 132.046ZM223.994 133.808V140H225.994V133.808H223.994ZM224.994 139H198.21V141H224.994V139ZM199.018 139.41L173.674 104.706L172.059 105.886L197.403 140.59L199.018 139.41ZM241.689 76.64L242.451 77.2883L242.455 77.2832L241.689 76.64ZM281.289 69.008L280.834 69.8982L280.846 69.9045L280.859 69.9105L281.289 69.008ZM291.225 77.504L290.39 78.0536L290.395 78.0612L290.4 78.0687L291.225 77.504ZM296.697 89.744L295.728 89.9914L295.728 89.9914L296.697 89.744ZM298.425 104.432V105.432H299.425V104.432H298.425ZM249.753 104.432V103.432H248.664L248.757 104.517L249.753 104.432ZM257.673 124.592L256.903 125.23L256.908 125.236L257.673 124.592ZM293.097 129.488L294.038 129.148L293.695 128.2L292.75 128.55L293.097 129.488ZM295.545 136.256L295.949 137.171L296.803 136.794L296.486 135.916L295.545 136.256ZM242.553 130.784L241.8 131.442L241.805 131.447L242.553 130.784ZM249.753 97.376L248.754 97.3474L248.722 98.4559L249.828 98.3732L249.753 97.376ZM280.569 95.072L280.644 96.0692L281.617 95.9965L281.568 95.0221L280.569 95.072ZM254.505 80.528L253.679 79.9652L253.675 79.9713L253.671 79.9774L254.505 80.528ZM233.617 103.136C233.617 92.7802 236.577 84.1875 242.451 77.2882L240.928 75.9918C234.706 83.3005 231.617 92.3718 231.617 103.136H233.617ZM242.455 77.2832C248.286 70.3411 256.341 66.84 266.745 66.84V64.84C255.838 64.84 247.188 68.5389 240.924 75.9968L242.455 77.2832ZM266.745 66.84C272.187 66.84 276.872 67.8715 280.834 69.8982L281.745 68.1178C277.45 65.9205 272.44 64.84 266.745 64.84V66.84ZM280.859 69.9105C284.93 71.8538 288.097 74.5689 290.39 78.0536L292.061 76.9544C289.553 73.1431 286.096 70.1942 281.72 68.1055L280.859 69.9105ZM290.4 78.0687C292.827 81.615 294.604 85.5866 295.728 89.9914L297.666 89.4966C296.487 84.8774 294.616 80.689 292.051 76.9393L290.4 78.0687ZM295.728 89.9914C296.857 94.4126 297.425 99.2245 297.425 104.432H299.425C299.425 99.0795 298.841 94.0994 297.666 89.4966L295.728 89.9914ZM298.425 103.432H249.753V105.432H298.425V103.432ZM248.757 104.517C249.445 112.572 252.153 119.49 256.903 125.23L258.444 123.954C253.978 118.558 251.406 112.036 250.75 104.347L248.757 104.517ZM256.908 125.236C261.73 130.961 268.312 133.8 276.537 133.8V131.8C268.827 131.8 262.833 129.167 258.438 123.948L256.908 125.236ZM276.537 133.8C281.769 133.8 287.408 132.665 293.445 130.426L292.75 128.55C286.882 130.727 281.481 131.8 276.537 131.8V133.8ZM292.157 129.828L294.605 136.596L296.486 135.916L294.038 129.148L292.157 129.828ZM295.142 135.341C286.315 139.232 277.956 141.16 270.057 141.16V143.16C278.286 143.16 286.92 141.152 295.949 137.171L295.142 135.341ZM270.057 141.16C258.681 141.16 249.803 137.458 243.302 130.121L241.805 131.447C248.743 139.278 258.202 143.16 270.057 143.16V141.16ZM243.307 130.126C236.855 122.739 233.617 113.762 233.617 103.136H231.617C231.617 114.206 235.004 123.661 241.8 131.442L243.307 130.126ZM249.828 98.3732L280.644 96.0692L280.495 94.0748L249.679 96.3788L249.828 98.3732ZM281.568 95.0221C281.274 89.135 279.897 83.9851 277.407 79.602L275.668 80.59C277.978 84.6549 279.289 89.489 279.571 95.1219L281.568 95.0221ZM277.407 79.602C274.851 75.1033 271.131 72.76 266.313 72.76V74.76C270.328 74.76 273.424 76.6407 275.668 80.59L277.407 79.602ZM266.313 72.76C261.133 72.76 256.907 75.2234 253.679 79.9652L255.332 81.0908C258.247 76.8086 261.894 74.76 266.313 74.76V72.76ZM253.671 79.9774C250.57 84.6785 248.95 90.4866 248.754 97.3474L250.753 97.4046C250.941 90.8254 252.489 85.4015 255.34 81.0786L253.671 79.9774ZM350.061 140H349.061V141H350.061V140ZM350.061 133.376L349.825 132.404L349.061 132.589V133.376H350.061ZM363.741 130.064L363.976 131.036L364.697 130.861L364.739 130.121L363.741 130.064ZM368.349 48.848L369.347 48.9046L369.394 48.0695L368.581 47.8753L368.349 48.848ZM355.677 45.824L354.677 45.8023L354.659 46.6093L355.445 46.7967L355.677 45.824ZM355.821 39.2V38.2H354.842L354.821 39.1783L355.821 39.2ZM386.637 39.2L387.555 38.8042L387.295 38.2H386.637V39.2ZM419.037 114.368L418.118 114.764L419.033 116.885L419.954 114.767L419.037 114.368ZM451.725 39.2V38.2H451.069L450.808 38.8012L451.725 39.2ZM481.389 39.2H482.389V38.2H481.389V39.2ZM481.389 45.824L481.616 46.7978L482.389 46.6175V45.824H481.389ZM468.429 48.848L468.201 47.8742L467.38 48.0659L467.43 48.9081L468.429 48.848ZM473.325 130.208L472.326 130.268L472.371 131.015L473.101 131.183L473.325 130.208ZM487.149 133.376H488.149V132.579L487.372 132.401L487.149 133.376ZM487.149 140V141H488.149V140H487.149ZM443.373 140H442.373V141H443.373V140ZM443.373 133.376L443.141 132.403L442.373 132.587V133.376H443.373ZM456.045 130.352L456.277 131.325L457.091 131.13L457.043 130.295L456.045 130.352ZM452.157 62.096L453.155 62.0391L451.239 61.6978L452.157 62.096ZM418.029 140.72V141.72H418.685L418.946 141.118L418.029 140.72ZM411.693 140.72L410.777 141.122L411.039 141.72H411.693V140.72ZM377.133 61.952L378.048 61.5502L376.134 61.8994L377.133 61.952ZM373.533 130.352L372.534 130.299L372.49 131.133L373.303 131.325L373.533 130.352ZM386.349 133.376H387.349V132.584L386.578 132.403L386.349 133.376ZM386.349 140V141H387.349V140H386.349ZM351.061 140V133.376H349.061V140H351.061ZM350.296 134.348L363.976 131.036L363.505 129.092L349.825 132.404L350.296 134.348ZM364.739 130.121L369.347 48.9046L367.35 48.7914L362.742 130.007L364.739 130.121ZM368.581 47.8753L355.909 44.8513L355.445 46.7967L368.117 49.8207L368.581 47.8753ZM356.676 45.8457L356.82 39.2217L354.821 39.1783L354.677 45.8023L356.676 45.8457ZM355.821 40.2H386.637V38.2H355.821V40.2ZM385.718 39.5958L418.118 114.764L419.955 113.972L387.555 38.8042L385.718 39.5958ZM419.954 114.767L452.642 39.5988L450.808 38.8012L418.12 113.969L419.954 114.767ZM451.725 40.2H481.389V38.2H451.725V40.2ZM480.389 39.2V45.824H482.389V39.2H480.389ZM481.161 44.8502L468.201 47.8742L468.656 49.8218L481.616 46.7978L481.161 44.8502ZM467.43 48.9081L472.326 130.268L474.323 130.148L469.427 48.7879L467.43 48.9081ZM473.101 131.183L486.925 134.351L487.372 132.401L473.548 129.233L473.101 131.183ZM486.149 133.376V140H488.149V133.376H486.149ZM487.149 139H443.373V141H487.149V139ZM444.373 140V133.376H442.373V140H444.373ZM443.605 134.349L456.277 131.325L455.813 129.379L443.141 132.403L443.605 134.349ZM457.043 130.295L453.155 62.0391L451.158 62.1529L455.046 130.409L457.043 130.295ZM451.239 61.6978L417.111 140.322L418.946 141.118L453.074 62.4942L451.239 61.6978ZM418.029 139.72H411.693V141.72H418.029V139.72ZM412.608 140.318L378.048 61.5502L376.217 62.3538L410.777 141.122L412.608 140.318ZM376.134 61.8994L372.534 130.299L374.531 130.405L378.131 62.0046L376.134 61.8994ZM373.303 131.325L386.119 134.349L386.578 132.403L373.762 129.379L373.303 131.325ZM385.349 133.376V140H387.349V133.376H385.349ZM386.349 139H350.061V141H386.349V139ZM494.526 74.192H493.526V74.984L494.297 75.1654L494.526 74.192ZM494.526 68V67H493.526V68H494.526ZM523.902 68H524.902V67H523.902V68ZM554.718 124.736L555.366 125.498L555.718 125.198V124.736H554.718ZM554.718 77.072H555.718V76.3334L555.012 76.1162L554.718 77.072ZM545.358 74.192H544.358V74.9306L545.064 75.1478L545.358 74.192ZM545.358 68V67H544.358V68H545.358ZM571.854 68H572.854V67H571.854V68ZM571.854 130.64H570.854V131.64H571.854V130.64ZM583.086 130.64H584.086V129.64H583.086V130.64ZM583.086 135.392L583.745 136.145L584.086 135.846V135.392H583.086ZM575.31 140.288L574.913 139.37L574.901 139.375L575.31 140.288ZM561.054 140.864L561.502 139.97L561.491 139.964L561.48 139.959L561.054 140.864ZM557.31 137.84L556.488 138.409L556.488 138.409L557.31 137.84ZM555.438 134.816L554.525 135.222L554.534 135.243L554.544 135.263L555.438 134.816ZM554.718 132.656L555.705 132.492L555.418 130.769L554.077 131.889L554.718 132.656ZM512.67 135.968L511.947 136.658L511.955 136.667L512.67 135.968ZM506.766 77.072H507.766V76.28L506.995 76.0986L506.766 77.072ZM495.526 74.192V68H493.526V74.192H495.526ZM494.526 69H523.902V67H494.526V69ZM522.902 68V117.68H524.902V68H522.902ZM522.902 117.68C522.902 122.6 523.957 126.477 526.24 129.132C528.548 131.816 531.962 133.08 536.286 133.08V131.08C532.355 131.08 529.577 129.944 527.757 127.828C525.912 125.683 524.902 122.36 524.902 117.68H522.902ZM536.286 133.08C543.089 133.08 549.455 130.522 555.366 125.498L554.071 123.974C548.461 128.742 542.54 131.08 536.286 131.08V133.08ZM555.718 124.736V77.072H553.718V124.736H555.718ZM555.012 76.1162L545.652 73.2362L545.064 75.1478L554.424 78.0278L555.012 76.1162ZM546.358 74.192V68H544.358V74.192H546.358ZM545.358 69H571.854V67H545.358V69ZM570.854 68V130.64H572.854V68H570.854ZM571.854 131.64H583.086V129.64H571.854V131.64ZM582.086 130.64V135.392H584.086V130.64H582.086ZM582.428 134.639C580.204 136.586 577.7 138.163 574.913 139.37L575.708 141.206C578.681 139.917 581.361 138.23 583.745 136.145L582.428 134.639ZM574.901 139.375C572.234 140.571 569.588 141.16 566.958 141.16V143.16C569.896 143.16 572.819 142.501 575.719 141.201L574.901 139.375ZM566.958 141.16C564.883 141.16 563.072 140.755 561.502 139.97L560.607 141.758C562.493 142.701 564.617 143.16 566.958 143.16V141.16ZM561.48 139.959C559.977 139.252 558.879 138.349 558.133 137.271L556.488 138.409C557.47 139.827 558.867 140.94 560.629 141.769L561.48 139.959ZM558.133 137.271C557.278 136.037 556.686 135.074 556.333 134.369L554.544 135.263C554.959 136.094 555.614 137.147 556.488 138.409L558.133 137.271ZM556.352 134.41C555.984 133.582 555.781 132.949 555.705 132.492L553.732 132.82C553.848 133.515 554.125 134.322 554.525 135.222L556.352 134.41ZM554.077 131.889C546.648 138.095 538.709 141.16 530.238 141.16V143.16C539.239 143.16 547.621 139.889 555.36 133.423L554.077 131.889ZM530.238 141.16C522.735 141.16 517.174 139.147 513.386 135.269L511.955 136.667C516.231 141.045 522.382 143.16 530.238 143.16V141.16ZM513.394 135.278C509.669 131.371 507.766 126.164 507.766 119.552H505.766C505.766 126.572 507.8 132.309 511.947 136.658L513.394 135.278ZM507.766 119.552V77.072H505.766V119.552H507.766ZM506.995 76.0986L494.755 73.2186L494.297 75.1654L506.537 78.0454L506.995 76.0986ZM597.265 138.848H596.265V139.604L596.992 139.81L597.265 138.848ZM597.265 118.256V117.256H596.265V118.256H597.265ZM603.889 118.256L604.829 117.916L604.59 117.256H603.889V118.256ZM609.361 133.376L608.42 133.716L608.618 134.263L609.192 134.362L609.361 133.376ZM633.553 131.936L634.077 132.788L634.086 132.782L633.553 131.936ZM633.265 116.384L632.678 117.194L632.688 117.201L632.697 117.207L633.265 116.384ZM618.865 109.328L618.479 110.251L618.488 110.255L618.498 110.258L618.865 109.328ZM603.889 99.824L603.163 100.512L603.172 100.522L603.889 99.824ZM606.625 71.024L607.155 71.872L607.159 71.8695L606.625 71.024ZM648.529 68.576H649.529V67.8297L648.813 67.6174L648.529 68.576ZM648.529 88.16V89.16H649.529V88.16H648.529ZM642.481 88.16L641.537 88.4912L641.772 89.16H642.481V88.16ZM637.729 74.624L638.672 74.2928L638.499 73.7991L637.995 73.66L637.729 74.624ZM616.993 75.92L617.599 76.7155L617.604 76.7113L616.993 75.92ZM615.985 87.872L615.254 88.5543L615.254 88.5543L615.985 87.872ZM620.449 91.472L619.942 92.3339L619.971 92.3512L620.002 92.3664L620.449 91.472ZM628.657 95.216L628.257 96.1327L628.264 96.1358L628.271 96.1388L628.657 95.216ZM647.377 106.304L646.67 107.011L646.679 107.02L646.688 107.029L647.377 106.304ZM644.641 136.688L645.182 137.529L645.192 137.522L644.641 136.688ZM598.265 138.848V118.256H596.265V138.848H598.265ZM597.265 119.256H603.889V117.256H597.265V119.256ZM602.948 118.596L608.42 133.716L610.301 133.036L604.829 117.916L602.948 118.596ZM609.192 134.362C612.618 134.949 616.419 135.24 620.593 135.24V133.24C616.51 133.24 612.824 132.955 609.53 132.39L609.192 134.362ZM620.593 135.24C626.759 135.24 631.326 134.48 634.077 132.788L633.029 131.084C630.787 132.464 626.714 133.24 620.593 133.24V135.24ZM634.086 132.782C637.044 130.92 638.441 127.812 638.441 123.728H636.441C636.441 127.324 635.246 129.688 633.02 131.09L634.086 132.782ZM638.441 123.728C638.441 120.374 636.844 117.638 633.832 115.561L632.697 117.207C635.253 118.97 636.441 121.13 636.441 123.728H638.441ZM633.851 115.574C630.959 113.479 626.058 111.09 619.232 108.398L618.498 110.258C625.303 112.942 630.003 115.257 632.678 117.194L633.851 115.574ZM619.25 108.405C612.9 105.751 608.035 102.649 604.605 99.1264L603.172 100.522C606.846 104.295 611.966 107.529 618.479 110.251L619.25 108.405ZM604.614 99.1357C601.256 95.5964 599.561 91.1471 599.561 85.712H597.561C597.561 91.6049 599.417 96.5636 603.163 100.512L604.614 99.1357ZM599.561 85.712C599.561 79.6187 602.076 75.046 607.155 71.872L606.095 70.176C600.421 73.722 597.561 78.9413 597.561 85.712H599.561ZM607.159 71.8695C612.424 68.544 619.326 66.84 627.937 66.84V64.84C619.076 64.84 611.769 66.5921 606.091 70.1785L607.159 71.8695ZM627.937 66.84C635.442 66.84 642.208 67.7426 648.244 69.5346L648.813 67.6174C642.562 65.7614 635.6 64.84 627.937 64.84V66.84ZM647.529 68.576V88.16H649.529V68.576H647.529ZM648.529 87.16H642.481V89.16H648.529V87.16ZM643.424 87.8288L638.672 74.2928L636.785 74.9552L641.537 88.4912L643.424 87.8288ZM637.995 73.66C635.103 72.8623 631.746 72.472 627.937 72.472V74.472C631.616 74.472 634.787 74.8497 637.463 75.588L637.995 73.66ZM627.937 72.472C622.709 72.472 618.77 73.2827 616.381 75.1287L617.604 76.7113C619.439 75.2933 622.796 74.472 627.937 74.472V72.472ZM616.387 75.1246C614.061 76.8965 612.969 79.5822 612.969 82.976H614.969C614.969 80.0338 615.892 78.0155 617.599 76.7154L616.387 75.1246ZM612.969 82.976C612.969 85.0746 613.752 86.9453 615.254 88.5543L616.716 87.1897C615.53 85.9187 614.969 84.5254 614.969 82.976H612.969ZM615.254 88.5543C616.661 90.0618 618.223 91.3232 619.942 92.3339L620.956 90.6101C619.41 89.7008 617.997 88.5622 616.716 87.1897L615.254 88.5543ZM620.002 92.3664C621.754 93.2429 624.511 94.4996 628.257 96.1327L629.056 94.2993C625.315 92.6684 622.599 91.4291 620.896 90.5776L620.002 92.3664ZM628.271 96.1388C636.967 99.7698 643.064 103.405 646.67 107.011L648.084 105.597C644.202 101.715 637.819 97.9582 629.042 94.2932L628.271 96.1388ZM646.688 107.029C650.307 110.467 652.137 114.946 652.137 120.56H654.137C654.137 114.462 652.126 109.437 648.065 105.579L646.688 107.029ZM652.137 120.56C652.137 127.245 649.463 132.302 644.089 135.854L645.192 137.522C651.147 133.586 654.137 127.891 654.137 120.56H652.137ZM644.099 135.847C638.644 139.361 631.459 141.16 622.465 141.16V143.16C631.711 143.16 639.309 141.311 645.182 137.529L644.099 135.847ZM622.465 141.16C613.523 141.16 605.215 140.066 597.538 137.886L596.992 139.81C604.866 142.046 613.359 143.16 622.465 143.16V141.16ZM697.275 53.744L697.982 54.4511L697.982 54.4511L697.275 53.744ZM682.155 53.744L681.432 54.4345L681.448 54.4513L681.465 54.4674L682.155 53.744ZM682.155 38.624L682.862 39.3311L682.862 39.3311L682.155 38.624ZM697.275 38.48L696.568 39.1871L696.576 39.1953L696.585 39.2034L697.275 38.48ZM668.619 140H667.619V141H668.619V140ZM668.619 133.808L668.39 132.835L667.619 133.016V133.808H668.619ZM680.859 130.928L681.088 131.901L681.859 131.72V130.928H680.859ZM680.859 79.664H681.859V78.664H680.859V79.664ZM668.619 79.664H667.619V80.664H668.619V79.664ZM668.619 73.472L668.388 72.4991L667.619 72.6817V73.472H668.619ZM691.659 68V67H691.542L691.428 67.0271L691.659 68ZM697.995 68H698.995V67H697.995V68ZM697.995 130.928H696.995V131.72L697.766 131.901L697.995 130.928ZM710.235 133.808H711.235V133.016L710.464 132.835L710.235 133.808ZM710.235 140V141H711.235V140H710.235ZM699.443 46.112C699.443 48.8217 698.493 51.1117 696.568 53.0369L697.982 54.4511C700.281 52.1523 701.443 49.3543 701.443 46.112H699.443ZM696.568 53.0369C694.748 54.8564 692.511 55.768 689.787 55.768V57.768C693.015 57.768 695.77 56.6636 697.982 54.4511L696.568 53.0369ZM689.787 55.768C687.063 55.768 684.767 54.8553 682.845 53.0206L681.465 54.4674C683.767 56.6647 686.559 57.768 689.787 57.768V55.768ZM682.878 53.0535C681.044 51.1315 680.131 48.8364 680.131 46.112H678.131C678.131 49.3396 679.234 52.1325 681.432 54.4345L682.878 53.0535ZM680.131 46.112C680.131 43.3883 681.043 41.1506 682.862 39.3311L681.448 37.9169C679.235 40.1294 678.131 42.8837 678.131 46.112H680.131ZM682.862 39.3311C684.787 37.4059 687.077 36.456 689.787 36.456V34.456C686.545 34.456 683.747 35.6181 681.448 37.9169L682.862 39.3311ZM689.787 36.456C692.511 36.456 694.748 37.3676 696.568 39.1871L697.982 37.7729C695.77 35.5604 693.015 34.456 689.787 34.456V36.456ZM696.585 39.2034C698.488 41.0199 699.443 43.2973 699.443 46.112H701.443C701.443 42.7827 700.286 39.9721 697.965 37.7566L696.585 39.2034ZM669.619 140V133.808H667.619V140H669.619ZM668.848 134.781L681.088 131.901L680.63 129.955L668.39 132.835L668.848 134.781ZM681.859 130.928V79.664H679.859V130.928H681.859ZM680.859 78.664H668.619V80.664H680.859V78.664ZM669.619 79.664V73.472H667.619V79.664H669.619ZM668.85 74.4449L691.89 68.9729L691.428 67.0271L668.388 72.4991L668.85 74.4449ZM691.659 69H697.995V67H691.659V69ZM696.995 68V130.928H698.995V68H696.995ZM697.766 131.901L710.006 134.781L710.464 132.835L698.224 129.955L697.766 131.901ZM709.235 133.808V140H711.235V133.808H709.235ZM710.235 139H668.619V141H710.235V139ZM733.393 76.496L732.681 75.7937L732.676 75.7986L733.393 76.496ZM781.777 71.888L782.777 71.9174L782.794 71.3277L782.286 71.0273L781.777 71.888ZM778.897 80.96L779.725 81.5215L779.729 81.5148L779.734 81.508L778.897 80.96ZM772.705 86.864L772.017 87.5898L772.544 88.0888L773.181 87.7433L772.705 86.864ZM758.881 73.76L759.569 73.0342L759.28 72.76H758.881V73.76ZM758.017 73.76V72.76H757.93L757.843 72.7752L758.017 73.76ZM745.633 83.12L746.477 83.6569L746.481 83.65L745.633 83.12ZM747.361 125.744L746.647 126.444L746.654 126.451L747.361 125.744ZM781.633 128.624L782.578 128.296L782.19 127.178L781.152 127.747L781.633 128.624ZM784.081 135.68L784.553 136.561L785.306 136.158L785.026 135.352L784.081 135.68ZM733.393 132.224L732.696 132.941L732.706 132.951L733.393 132.224ZM724.025 104.288C724.025 93.0816 727.407 84.082 734.11 77.1934L732.676 75.7986C725.555 83.118 722.025 92.6464 722.025 104.288H724.025ZM734.105 77.1983C740.927 70.2828 749.119 66.84 758.737 66.84V64.84C748.579 64.84 739.875 68.5012 732.681 75.7937L734.105 77.1983ZM758.737 66.84C767.117 66.84 774.618 68.8151 781.268 72.7487L782.286 71.0273C775.304 66.8969 767.446 64.84 758.737 64.84V66.84ZM780.778 71.8586C780.687 74.9343 779.786 77.7793 778.061 80.412L779.734 81.508C781.657 78.5727 782.675 75.3697 782.777 71.9174L780.778 71.8586ZM778.07 80.3985C776.314 82.9852 774.362 84.8291 772.229 85.9847L773.181 87.7433C775.656 86.4029 777.832 84.3108 779.725 81.5215L778.07 80.3985ZM773.393 86.1382L759.569 73.0342L758.193 74.4858L772.017 87.5898L773.393 86.1382ZM758.881 72.76H758.017V74.76H758.881V72.76ZM757.843 72.7752C752.596 73.7013 748.251 77.0443 744.785 82.59L746.481 83.65C749.735 78.4437 753.647 75.5467 758.191 74.7448L757.843 72.7752ZM744.789 82.5831C741.295 88.0737 739.593 95.2395 739.593 104H741.593C741.593 95.4805 743.251 88.7263 746.477 83.6569L744.789 82.5831ZM739.593 104C739.593 114.013 741.874 121.57 746.647 126.444L748.076 125.044C743.824 120.702 741.593 113.763 741.593 104H739.593ZM746.654 126.451C751.478 131.275 757.795 133.656 765.505 133.656V131.656C758.239 131.656 752.46 129.429 748.068 125.037L746.654 126.451ZM765.505 133.656C771.521 133.656 777.064 132.274 782.114 129.501L781.152 127.747C776.411 130.35 771.201 131.656 765.505 131.656V133.656ZM780.688 128.952L783.136 136.008L785.026 135.352L782.578 128.296L780.688 128.952ZM783.609 134.799C775.676 139.048 767.629 141.16 759.457 141.16V143.16C767.989 143.16 776.358 140.952 784.553 136.561L783.609 134.799ZM759.457 141.16C749.324 141.16 740.888 137.932 734.08 131.497L732.706 132.951C739.915 139.764 748.855 143.16 759.457 143.16V141.16ZM734.09 131.507C727.415 125.018 724.025 115.989 724.025 104.288H722.025C722.025 116.395 725.547 125.99 732.696 132.941L734.09 131.507ZM794.771 140H793.771V141H794.771V140ZM794.771 133.808L794.542 132.835L793.771 133.016V133.808H794.771ZM807.011 130.928L807.24 131.901L808.011 131.72V130.928H807.011ZM807.011 36.464H808.011V35.464H807.011V36.464ZM794.771 36.464H793.771V37.464H794.771V36.464ZM794.771 30.272L794.54 29.2991L793.771 29.4817V30.272H794.771ZM817.811 24.8V23.8H817.694L817.58 23.8271L817.811 24.8ZM824.291 24.8H825.291V23.8H824.291V24.8ZM824.291 74.912H823.291V77.0399L824.929 75.6819L824.291 74.912ZM865.187 72.176L864.488 72.891L864.488 72.891L865.187 72.176ZM871.667 130.928H870.667V131.72L871.438 131.901L871.667 130.928ZM883.907 133.808H884.907V133.016L884.136 132.835L883.907 133.808ZM883.907 140V141H884.907V140H883.907ZM845.171 140H844.171V141H845.171V140ZM845.171 133.808L844.877 132.852L844.171 133.069V133.808H845.171ZM854.531 130.928L854.825 131.884L855.531 131.667V130.928H854.531ZM824.291 82.976L823.707 82.164L823.291 82.4632V82.976H824.291ZM824.291 130.928H823.291V131.667L823.997 131.884L824.291 130.928ZM833.651 133.808H834.651V133.069L833.945 132.852L833.651 133.808ZM833.651 140V141H834.651V140H833.651ZM795.771 140V133.808H793.771V140H795.771ZM795 134.781L807.24 131.901L806.782 129.955L794.542 132.835L795 134.781ZM808.011 130.928V36.464H806.011V130.928H808.011ZM807.011 35.464H794.771V37.464H807.011V35.464ZM795.771 36.464V30.272H793.771V36.464H795.771ZM795.002 31.2449L818.042 25.7729L817.58 23.8271L794.54 29.2991L795.002 31.2449ZM817.811 25.8H824.291V23.8H817.811V25.8ZM823.291 24.8V74.912H825.291V24.8H823.291ZM824.929 75.6819C832.076 69.7574 839.585 66.84 847.475 66.84V64.84C839.045 64.84 831.098 67.9706 823.653 74.1421L824.929 75.6819ZM847.475 66.84C854.768 66.84 860.397 68.8912 864.488 72.891L865.886 71.461C861.337 67.0128 855.158 64.84 847.475 64.84V66.84ZM864.488 72.891C868.596 76.9078 870.667 82.0645 870.667 88.448H872.667C872.667 81.5835 870.418 75.8922 865.886 71.461L864.488 72.891ZM870.667 88.448V130.928H872.667V88.448H870.667ZM871.438 131.901L883.678 134.781L884.136 132.835L871.896 129.955L871.438 131.901ZM882.907 133.808V140H884.907V133.808H882.907ZM883.907 139H845.171V141H883.907V139ZM846.171 140V133.808H844.171V140H846.171ZM845.465 134.764L854.825 131.884L854.237 129.972L844.877 132.852L845.465 134.764ZM855.531 130.928V91.04H853.531V130.928H855.531ZM855.531 91.04C855.531 86.0253 854.465 82.0777 852.16 79.3751C849.829 76.6419 846.378 75.352 842.003 75.352V77.352C845.979 77.352 848.793 78.5101 850.638 80.6729C852.509 82.8663 853.531 86.2627 853.531 91.04H855.531ZM842.003 75.352C836.069 75.352 829.965 77.6663 823.707 82.164L824.875 83.788C830.905 79.4537 836.608 77.352 842.003 77.352V75.352ZM823.291 82.976V130.928H825.291V82.976H823.291ZM823.997 131.884L833.357 134.764L833.945 132.852L824.585 129.972L823.997 131.884ZM832.651 133.808V140H834.651V133.808H832.651ZM833.651 139H794.771V141H833.651V139Z" transform="translate(-23 885) rotate(-90)" fill="#F2F2F2"/>
</svg>
