<svg width="789" height="71" viewBox="0 0 789 71" fill="none" xmlns="http://www.w3.org/2000/svg">
<path d="M46.5367 27.2V26.6999L46.5288 26.7001L46.5367 27.2ZM63.7367 32.7L63.3832 33.0536L63.3864 33.0568L63.7367 32.7ZM66.6367 57.9L67.0839 58.1236L67.0856 58.1202L66.6367 57.9ZM58.8367 66.4L58.5688 65.9778L58.5651 65.9802L58.8367 66.4ZM39.5367 68.6L39.0435 68.6822L39.0901 68.9617L39.3539 69.0654L39.5367 68.6ZM39.6367 64.5L39.7534 64.0138L39.2937 63.9035L39.1578 64.3563L39.6367 64.5ZM54.9367 36.4L54.5565 36.7248L54.5599 36.7287L54.9367 36.4ZM37.0367 32.2L36.9354 31.7104L36.5367 31.7929V32.2H37.0367ZM37.9367 86.9L37.471 87.0822L37.4739 87.0893L37.9367 86.9ZM40.6367 90L40.4131 90.4472L40.4277 90.4545L40.4427 90.4608L40.6367 90ZM45.9367 91L46.4076 90.8318L46.2963 90.5203L45.9661 90.5009L45.9367 91ZM46.4367 95.3L46.4042 95.7989L46.9367 95.8337V95.3H46.4367ZM20.2367 95.3H19.7367V95.8399L20.2751 95.7985L20.2367 95.3ZM20.7367 91L20.7118 90.5006L20.3782 90.5173L20.2658 90.8318L20.7367 91ZM26.1367 89.1L25.7526 88.7799L25.7508 88.7821L26.1367 89.1ZM26.1367 33.4L25.742 33.707L25.7516 33.7192L25.7618 33.7308L26.1367 33.4ZM20.7367 31.4L20.2658 31.5682L20.3782 31.8827L20.7118 31.8994L20.7367 31.4ZM20.2367 27.1L20.2655 26.6008L19.7367 26.5703V27.1H20.2367ZM33.8367 27.4V27.9001L33.8446 27.8999L33.8367 27.4ZM46.5367 27.7C54.2701 27.7 59.8484 29.5188 63.3832 33.0536L64.0903 32.3464C60.2917 28.5479 54.4033 26.7 46.5367 26.7V27.7ZM63.3864 33.0568C66.947 36.5526 68.7367 41.0523 68.7367 46.6H69.7367C69.7367 40.8143 67.8598 36.0474 64.087 32.3432L63.3864 33.0568ZM68.7367 46.6C68.7367 50.525 67.887 54.2161 66.1878 57.6798L67.0856 58.1202C68.8531 54.5172 69.7367 50.675 69.7367 46.6H68.7367ZM66.1895 57.6764C64.4992 61.0569 61.9635 63.8235 58.5688 65.9778L59.1046 66.8222C62.6432 64.5765 65.3075 61.6764 67.0839 58.1236L66.1895 57.6764ZM58.5651 65.9802C55.26 68.1188 51.2585 69.2 46.5367 69.2V70.2C51.415 70.2 55.6134 69.0812 59.1083 66.8198L58.5651 65.9802ZM46.5367 69.2C43.7763 69.2 41.5098 68.838 39.7195 68.1346L39.3539 69.0654C41.2969 69.8287 43.6971 70.2 46.5367 70.2V69.2ZM40.0299 68.5178C39.8983 67.7283 39.8367 67.1262 39.8367 66.7H38.8367C38.8367 67.2071 38.9084 67.8717 39.0435 68.6822L40.0299 68.5178ZM39.8367 66.7C39.8367 65.9416 39.9315 65.2574 40.1156 64.6437L39.1578 64.3563C38.9419 65.076 38.8367 65.8585 38.8367 66.7H39.8367ZM39.52 64.9862C41.2281 65.3961 43.0342 65.6 44.9367 65.6V64.6C43.1059 64.6 41.3786 64.4039 39.7534 64.0138L39.52 64.9862ZM44.9367 65.6C49.7276 65.6 53.4086 64.2725 55.8827 61.5353C58.3481 58.8076 59.5367 54.7653 59.5367 49.5H58.5367C58.5367 54.6347 57.3754 58.3924 55.1408 60.8647C52.9149 63.3275 49.5459 64.6 44.9367 64.6V65.6ZM59.5367 49.5C59.5367 43.8214 58.1503 39.3232 55.3135 36.0713L54.5599 36.7287C57.1898 39.7435 58.5367 43.9786 58.5367 49.5H59.5367ZM55.3169 36.0753C52.4565 32.7265 48.0251 31.1 42.1367 31.1V32.1C47.8484 32.1 51.9503 33.6735 54.5565 36.7247L55.3169 36.0753ZM42.1367 31.1C40.6266 31.1 38.8914 31.3057 36.9354 31.7104L37.138 32.6896C39.0487 32.2943 40.7135 32.1 42.1367 32.1V31.1ZM36.5367 32.2V80.3H37.5367V32.2H36.5367ZM36.5367 80.3C36.5367 83.1898 36.8375 85.463 37.4711 87.0822L38.4023 86.7178C37.836 85.2704 37.5367 83.1436 37.5367 80.3H36.5367ZM37.4739 87.0893C38.111 88.6467 39.0857 89.7835 40.4131 90.4472L40.8603 89.5528C39.7877 89.0165 38.9624 88.0867 38.3995 86.7107L37.4739 87.0893ZM40.4427 90.4608C41.7847 91.0259 43.616 91.3644 45.9074 91.4991L45.9661 90.5009C43.7241 90.369 42.0221 90.0408 40.8307 89.5392L40.4427 90.4608ZM45.4658 91.1682C45.7693 92.0177 45.9367 93.3802 45.9367 95.3H46.9367C46.9367 93.3531 46.7708 91.8489 46.4076 90.8318L45.4658 91.1682ZM46.4693 94.8011C43.3867 94.6 39.1743 94.5 33.8367 94.5V95.5C39.1658 95.5 43.3534 95.6 46.4042 95.7989L46.4693 94.8011ZM33.8367 94.5C27.3705 94.5 22.8197 94.5998 20.1984 94.8015L20.2751 95.7985C22.8538 95.6002 27.3696 95.5 33.8367 95.5V94.5ZM20.7367 95.3C20.7367 93.3802 20.9042 92.0177 21.2076 91.1682L20.2658 90.8318C19.9026 91.8489 19.7367 93.3531 19.7367 95.3H20.7367ZM20.7617 91.4994C23.4628 91.3643 25.4495 90.721 26.5227 89.4179L25.7508 88.7821C24.9573 89.7456 23.3439 90.369 20.7118 90.5006L20.7617 91.4994ZM26.5208 89.4201C27.0909 88.736 27.4905 87.7842 27.75 86.6077C28.0103 85.4274 28.1367 83.9886 28.1367 82.3H27.1367C27.1367 83.9447 27.0131 85.306 26.7735 86.3923C26.533 87.4825 26.1826 88.264 25.7526 88.7799L26.5208 89.4201ZM28.1367 82.3V40.1H27.1367V82.3H28.1367ZM28.1367 40.1C28.1367 38.4116 28.0104 36.9805 27.7496 35.8158C27.4899 34.6557 27.0888 33.7233 26.5116 33.0692L25.7618 33.7308C26.1846 34.21 26.5335 34.9609 26.7738 36.0342C27.013 37.1028 27.1367 38.455 27.1367 40.1H28.1367ZM26.5314 33.093C25.4602 31.7158 23.4698 31.036 20.7617 30.9006L20.7118 31.8994C23.337 32.0306 24.9466 32.6842 25.742 33.707L26.5314 33.093ZM21.2076 31.2318C20.9042 30.3823 20.7367 29.0198 20.7367 27.1H19.7367C19.7367 29.0469 19.9026 30.5511 20.2658 31.5682L21.2076 31.2318ZM20.2079 27.5992C23.6881 27.8 28.2321 27.9 33.8367 27.9V26.9C28.2413 26.9 23.7186 26.8 20.2655 26.6008L20.2079 27.5992ZM33.8446 27.8999L46.5446 27.6999L46.5288 26.7001L33.8288 26.9001L33.8446 27.8999ZM141.442 89.1L141.048 89.407L141.057 89.4192L141.067 89.4308L141.442 89.1ZM146.942 91L147.413 90.8318L147.301 90.5173L146.967 90.5006L146.942 91ZM147.442 95.3L147.417 95.7994L147.942 95.8256V95.3H147.442ZM123.242 95.3H122.742V95.8303L123.272 95.7991L123.242 95.3ZM123.742 91L123.717 90.5006L123.384 90.5173L123.271 90.8318L123.742 91ZM129.142 89.1L128.758 88.7799L128.756 88.7821L129.142 89.1ZM130.642 62.5H131.142V62H130.642V62.5ZM100.142 63.1L100.103 62.6016L99.6422 62.6379V63.1H100.142ZM101.542 89.1L101.148 89.407L101.157 89.4192L101.167 89.4308L101.542 89.1ZM107.042 91L107.513 90.8318L107.401 90.5173L107.067 90.5006L107.042 91ZM107.542 95.3L107.517 95.7994L108.042 95.8256V95.3H107.542ZM83.3422 95.3H82.8422V95.8303L83.3715 95.7991L83.3422 95.3ZM83.8422 91L83.8172 90.5006L83.4836 90.5173L83.3713 90.8318L83.8422 91ZM89.2422 89.1L88.8581 88.7799L88.8562 88.7821L89.2422 89.1ZM89.2422 33.4L88.8475 33.707L88.857 33.7192L88.8673 33.7308L89.2422 33.4ZM83.8422 31.4L83.3713 31.5682L83.4836 31.8827L83.8172 31.8994L83.8422 31.4ZM83.3422 27.1L83.3694 26.6007L82.8422 26.572V27.1H83.3422ZM107.542 27.1H108.042V26.5744L107.517 26.6006L107.542 27.1ZM107.042 31.4L107.067 31.8994L107.401 31.8827L107.513 31.5682L107.042 31.4ZM101.542 33.4L101.158 33.0799L101.156 33.0821L101.542 33.4ZM100.142 58.2H99.6422V58.7H100.142V58.2ZM130.642 58.2V58.7H131.142V58.2H130.642ZM129.142 33.4L128.748 33.707L128.757 33.7192L128.767 33.7308L129.142 33.4ZM123.742 31.4L123.271 31.5682L123.384 31.8827L123.717 31.8994L123.742 31.4ZM123.242 27.1L123.269 26.6007L122.742 26.572V27.1H123.242ZM147.442 27.1H147.942V26.5744L147.417 26.6006L147.442 27.1ZM146.942 31.4L146.967 31.8994L147.301 31.8827L147.413 31.5682L146.942 31.4ZM141.442 33.4L141.058 33.0799L141.056 33.0821L141.442 33.4ZM139.542 82.3C139.542 83.9871 139.66 85.4233 139.902 86.6008C140.144 87.7736 140.516 88.7231 141.048 89.407L141.837 88.793C141.435 88.2769 141.107 87.4931 140.882 86.3992C140.658 85.31 140.542 83.9462 140.542 82.3H139.542ZM141.067 89.4308C142.204 90.7194 144.211 91.3641 146.917 91.4994L146.967 90.5006C144.34 90.3693 142.68 89.7472 141.817 88.7692L141.067 89.4308ZM146.471 91.1682C146.775 92.0177 146.942 93.3802 146.942 95.3H147.942C147.942 93.3531 147.776 91.8489 147.413 90.8318L146.471 91.1682ZM147.467 94.8006C143.459 94.6002 139.417 94.5 135.342 94.5V95.5C139.401 95.5 143.426 95.5998 147.417 95.7994L147.467 94.8006ZM135.342 94.5C130.669 94.5 126.625 94.6001 123.213 94.8009L123.272 95.7991C126.659 95.5999 130.682 95.5 135.342 95.5V94.5ZM123.742 95.3C123.742 93.3802 123.91 92.0177 124.213 91.1682L123.271 90.8318C122.908 91.8489 122.742 93.3531 122.742 95.3H123.742ZM123.767 91.4994C126.468 91.3643 128.455 90.721 129.528 89.4179L128.756 88.7821C127.963 89.7456 126.349 90.369 123.717 90.5006L123.767 91.4994ZM129.526 89.4201C130.096 88.736 130.496 87.7842 130.755 86.6077C131.016 85.4274 131.142 83.9886 131.142 82.3H130.142C130.142 83.9447 130.019 85.306 129.779 86.3923C129.538 87.4825 129.188 88.264 128.758 88.7799L129.526 89.4201ZM131.142 82.3V62.5H130.142V82.3H131.142ZM130.642 62C115.379 62 105.192 62.1997 100.103 62.6016L100.182 63.5984C105.225 63.2003 115.372 63 130.642 63V62ZM99.6422 63.1V82.3H100.642V63.1H99.6422ZM99.6422 82.3C99.6422 83.9871 99.76 85.4233 100.002 86.6008C100.244 87.7736 100.616 88.7231 101.148 89.407L101.937 88.793C101.535 88.2769 101.207 87.4931 100.982 86.3992C100.758 85.31 100.642 83.9462 100.642 82.3H99.6422ZM101.167 89.4308C102.304 90.7194 104.311 91.3641 107.017 91.4994L107.067 90.5006C104.44 90.3693 102.78 89.7472 101.917 88.7692L101.167 89.4308ZM106.571 91.1682C106.875 92.0177 107.042 93.3802 107.042 95.3H108.042C108.042 93.3531 107.876 91.8489 107.513 90.8318L106.571 91.1682ZM107.567 94.8006C103.559 94.6002 99.5171 94.5 95.4422 94.5V95.5C99.5007 95.5 103.526 95.5998 107.517 95.7994L107.567 94.8006ZM95.4422 94.5C90.769 94.5 86.7254 94.6001 83.3128 94.8009L83.3715 95.7991C86.759 95.5999 90.782 95.5 95.4422 95.5V94.5ZM83.8422 95.3C83.8422 93.3802 84.0096 92.0177 84.3131 91.1682L83.3713 90.8318C83.0081 91.8489 82.8422 93.3531 82.8422 95.3H83.8422ZM83.8672 91.4994C86.5683 91.3643 88.555 90.721 89.6282 89.4179L88.8562 88.7821C88.0628 89.7456 86.4494 90.369 83.8172 90.5006L83.8672 91.4994ZM89.6263 89.4201C90.1963 88.736 90.5959 87.7842 90.8554 86.6077C91.1158 85.4274 91.2422 83.9886 91.2422 82.3H90.2422C90.2422 83.9447 90.1186 85.306 89.8789 86.3923C89.6384 87.4825 89.288 88.264 88.8581 88.7799L89.6263 89.4201ZM91.2422 82.3V40.1H90.2422V82.3H91.2422ZM91.2422 40.1C91.2422 38.4116 91.1159 36.9805 90.8551 35.8158C90.5954 34.6557 90.1943 33.7233 89.6171 33.0692L88.8673 33.7308C89.2901 34.21 89.639 34.9609 89.8793 36.0342C90.1185 37.1028 90.2422 38.455 90.2422 40.1H91.2422ZM89.6369 33.093C88.5656 31.7158 86.5753 31.036 83.8672 30.9006L83.8172 31.8994C86.4424 32.0306 88.0521 32.6842 88.8475 33.707L89.6369 33.093ZM84.3131 31.2318C84.0096 30.3823 83.8422 29.0198 83.8422 27.1H82.8422C82.8422 29.0469 83.0081 30.5511 83.3713 31.5682L84.3131 31.2318ZM83.315 27.5993C86.9923 27.7998 91.0348 27.9 95.4422 27.9V26.9C91.0496 26.9 87.0255 26.8002 83.3694 26.6007L83.315 27.5993ZM95.4422 27.9C99.5171 27.9 103.559 27.7998 107.567 27.5994L107.517 26.6006C103.526 26.8002 99.5007 26.9 95.4422 26.9V27.9ZM107.042 27.1C107.042 29.0198 106.875 30.3823 106.571 31.2318L107.513 31.5682C107.876 30.5511 108.042 29.0469 108.042 27.1H107.042ZM107.017 30.9006C104.305 31.0362 102.294 31.7172 101.158 33.0799L101.926 33.7201C102.791 32.6828 104.446 32.0304 107.067 31.8994L107.017 30.9006ZM101.156 33.0821C100.617 33.7365 100.244 34.6666 100.003 35.8227C99.76 36.9845 99.6422 38.4132 99.6422 40.1H100.642C100.642 38.4535 100.758 37.0988 100.982 36.0273C101.207 34.95 101.534 34.1969 101.928 33.7179L101.156 33.0821ZM99.6422 40.1V58.2H100.642V40.1H99.6422ZM100.142 58.7H130.642V57.7H100.142V58.7ZM131.142 58.2V40.1H130.142V58.2H131.142ZM131.142 40.1C131.142 38.4116 131.016 36.9805 130.755 35.8158C130.495 34.6557 130.094 33.7233 129.517 33.0692L128.767 33.7308C129.19 34.21 129.539 34.9609 129.779 36.0342C130.019 37.1028 130.142 38.455 130.142 40.1H131.142ZM129.537 33.093C128.466 31.7158 126.475 31.036 123.767 30.9006L123.717 31.8994C126.342 32.0306 127.952 32.6842 128.748 33.707L129.537 33.093ZM124.213 31.2318C123.91 30.3823 123.742 29.0198 123.742 27.1H122.742C122.742 29.0469 122.908 30.5511 123.271 31.5682L124.213 31.2318ZM123.215 27.5993C126.892 27.7998 130.935 27.9 135.342 27.9V26.9C130.95 26.9 126.925 26.8002 123.269 26.6007L123.215 27.5993ZM135.342 27.9C139.417 27.9 143.459 27.7998 147.467 27.5994L147.417 26.6006C143.426 26.8002 139.401 26.9 135.342 26.9V27.9ZM146.942 27.1C146.942 29.0198 146.775 30.3823 146.471 31.2318L147.413 31.5682C147.776 30.5511 147.942 29.0469 147.942 27.1H146.942ZM146.917 30.9006C144.205 31.0362 142.194 31.7172 141.058 33.0799L141.826 33.7201C142.691 32.6828 144.346 32.0304 146.967 31.8994L146.917 30.9006ZM141.056 33.0821C140.517 33.7365 140.144 34.6666 139.903 35.8227C139.66 36.9845 139.542 38.4132 139.542 40.1H140.542C140.542 38.4535 140.658 37.0988 140.882 36.0273C141.107 34.95 141.434 34.1969 141.828 33.7179L141.056 33.0821ZM139.542 40.1V82.3H140.542V40.1H139.542ZM177.335 91.4L177.074 91.8262L177.078 91.8287L177.335 91.4ZM165.635 78.9L165.19 79.1281L165.194 79.1347L165.635 78.9ZM165.835 43.2L165.398 42.9567L165.397 42.9586L165.835 43.2ZM177.735 30.9L177.485 30.4673L177.482 30.4687L177.735 30.9ZM211.535 30.9L211.282 31.3313L211.289 31.3352L211.535 30.9ZM223.335 43.1L222.894 43.3347L222.897 43.3414L223.335 43.1ZM223.335 78.8L222.895 78.5633L222.894 78.5653L223.335 78.8ZM211.535 91.3L211.276 90.8722L211.274 90.8738L211.535 91.3ZM207.535 87.4L207.235 87L207.231 87.0031L207.535 87.4ZM214.835 77.6L215.299 77.787L215.3 77.7844L214.835 77.6ZM214.035 47.3L213.576 47.4985L213.579 47.5036L214.035 47.3ZM205.135 35.6L204.834 35.9992L204.834 35.9992L205.135 35.6ZM181.835 34.7L182.128 35.1051L182.128 35.1051L181.835 34.7ZM174.435 44.2L173.978 43.9976L173.975 44.0039L174.435 44.2ZM174.735 74.4L174.269 74.5803L174.271 74.5857L174.735 74.4ZM183.335 86.5L183.018 86.8864L183.022 86.8898L183.335 86.5ZM194.535 95.4C188.149 95.4 182.506 93.9197 177.592 90.9713L177.078 91.8287C182.164 94.8803 187.988 96.4 194.535 96.4V95.4ZM177.597 90.9738C172.674 87.9546 168.836 83.8546 166.077 78.6653L165.194 79.1347C168.035 84.4787 171.996 88.7121 177.074 91.8262L177.597 90.9738ZM166.08 78.672C163.387 73.4161 162.035 67.5289 162.035 61H161.035C161.035 67.6711 162.417 73.7172 165.19 79.128L166.08 78.672ZM162.035 61C162.035 54.4072 163.452 48.5587 166.273 43.4414L165.397 42.9586C162.485 48.2412 161.035 54.2595 161.035 61H162.035ZM166.272 43.4433C169.164 38.2513 173.068 34.2176 177.988 31.3313L177.482 30.4687C172.402 33.4491 168.373 37.6154 165.398 42.9567L166.272 43.4433ZM177.986 31.3327C182.973 28.4456 188.485 27 194.535 27V26C188.318 26 182.631 27.4877 177.485 30.4673L177.986 31.3327ZM194.535 27C200.788 27 206.366 28.447 211.282 31.3313L211.788 30.4687C206.704 27.4863 200.949 26 194.535 26V27ZM211.289 31.3352C216.271 34.1538 220.137 38.1499 222.894 43.3347L223.777 42.8653C220.933 37.5168 216.933 33.3796 211.781 30.4648L211.289 31.3352ZM222.897 43.3414C225.718 48.458 227.135 54.3396 227.135 61H228.135C228.135 54.1937 226.686 48.142 223.773 42.8586L222.897 43.3414ZM227.135 61C227.135 67.4574 225.719 73.3084 222.895 78.5633L223.776 79.0367C226.684 73.6249 228.135 67.6093 228.135 61H227.135ZM222.894 78.5653C220.136 83.7529 216.265 87.8526 211.276 90.8722L211.794 91.7277C216.938 88.614 220.935 84.3804 223.777 79.0347L222.894 78.5653ZM211.274 90.8738C206.359 93.8884 200.784 95.4 194.535 95.4V96.4C200.953 96.4 206.712 94.845 211.797 91.7262L211.274 90.8738ZM196.535 91.5C200.838 91.5 204.613 90.2682 207.839 87.7969L207.231 87.0031C204.191 89.3318 200.633 90.5 196.535 90.5V91.5ZM207.835 87.8C211.116 85.3392 213.602 81.995 215.299 77.787L214.371 77.413C212.735 81.4717 210.354 84.6608 207.235 87L207.835 87.8ZM215.3 77.7844C216.993 73.5183 217.835 68.788 217.835 63.6H216.835C216.835 68.6787 216.011 73.2817 214.37 77.4156L215.3 77.7844ZM217.835 63.6C217.835 57.6035 216.723 52.0998 214.492 47.0964L213.579 47.5036C215.747 52.3668 216.835 57.7299 216.835 63.6H217.835ZM214.494 47.1015C212.331 42.0992 209.314 38.1261 205.436 35.2008L204.834 35.9992C208.556 38.8073 211.473 42.6341 213.576 47.4985L214.494 47.1015ZM205.436 35.2008C201.551 32.2701 197.213 30.8 192.435 30.8V31.8C196.991 31.8 201.119 33.1965 204.834 35.9992L205.436 35.2008ZM192.435 30.8C188.399 30.8 184.762 31.9654 181.542 34.2949L182.128 35.1051C185.175 32.9012 188.605 31.8 192.435 31.8V30.8ZM181.542 34.2949C178.327 36.6208 175.808 39.8624 173.978 43.9976L174.892 44.4024C176.662 40.4043 179.077 37.3126 182.128 35.1051L181.542 34.2949ZM173.975 44.0039C172.211 48.144 171.335 52.9129 171.335 58.3H172.335C172.335 53.0204 173.193 48.3893 174.895 44.396L173.975 44.0039ZM171.335 58.3C171.335 64.0907 172.312 69.5189 174.269 74.5803L175.202 74.2197C173.292 69.2811 172.335 63.976 172.335 58.3H171.335ZM174.271 74.5857C176.299 79.6548 179.212 83.7603 183.018 86.8864L183.653 86.1136C179.991 83.1063 177.172 79.1452 175.199 74.2143L174.271 74.5857ZM183.022 86.8898C186.849 89.9654 191.362 91.5 196.535 91.5V90.5C191.575 90.5 187.288 89.0346 183.648 86.1102L183.022 86.8898ZM290.501 30.7L290.001 30.6861V30.7H290.501ZM291.201 43.1L291.416 43.5514L291.728 43.4029L291.699 43.0585L291.201 43.1ZM286.201 44L285.701 44.0167L285.717 44.4836L286.184 44.4997L286.201 44ZM283.301 34.9L282.924 35.2284L282.924 35.2284L283.301 34.9ZM269.601 31.8V31.3H269.101V31.8H269.601ZM270.201 87.6L269.726 87.7581L269.729 87.7664L270.201 87.6ZM272.401 90.1L272.177 90.5472L272.194 90.5554L272.21 90.5623L272.401 90.1ZM277.401 91L277.872 90.8318L277.761 90.5209L277.431 90.5009L277.401 91ZM277.901 95.3L277.877 95.7995L278.401 95.824V95.3H277.901ZM251.701 95.3H251.201V95.8275L251.728 95.7993L251.701 95.3ZM252.201 91L252.171 90.5009L251.841 90.5209L251.73 90.8318L252.201 91ZM257.201 90.1L257.391 90.5623L257.403 90.5577L257.414 90.5524L257.201 90.1ZM259.501 87.5L259.035 87.3188L259.03 87.3302L259.026 87.3419L259.501 87.5ZM260.201 31.8H260.701V31.3H260.201V31.8ZM248.001 33.3L248.245 33.7363L248.252 33.7326L248.258 33.7287L248.001 33.3ZM244.401 37.2L243.943 36.9986L243.939 37.0077L244.401 37.2ZM242.601 44V44.5H243.018L243.093 44.0894L242.601 44ZM237.801 43.1L237.309 43.0125L237.248 43.3516L237.544 43.5287L237.801 43.1ZM239.401 27.1L239.428 26.6007L238.901 26.5725V27.1H239.401ZM290.601 27.1L291.101 27.1139L291.116 26.5712L290.574 26.6007L290.601 27.1ZM290.001 30.7C290.001 33.3887 290.236 37.5393 290.703 43.1415L291.699 43.0585C291.233 37.4607 291.001 33.3447 291.001 30.7H290.001ZM290.986 42.6486C289.674 43.2733 288.091 43.5649 286.218 43.5003L286.184 44.4997C288.178 44.5685 289.928 44.2601 291.416 43.5514L290.986 42.6486ZM286.701 43.9833C286.565 39.9197 285.581 36.7571 283.678 34.5716L282.924 35.2284C284.62 37.1762 285.57 40.0803 285.701 44.0167L286.701 43.9833ZM283.678 34.5716C281.75 32.3586 278.787 31.3 274.901 31.3V32.3C278.614 32.3 281.251 33.3081 282.924 35.2284L283.678 34.5716ZM274.901 31.3H269.601V32.3H274.901V31.3ZM269.101 31.8V82.3H270.101V31.8H269.101ZM269.101 82.3C269.101 84.6497 269.301 86.4809 269.726 87.7581L270.675 87.4419C270.301 86.3191 270.101 84.6169 270.101 82.3H269.101ZM269.729 87.7664C270.172 89.0209 270.994 89.9554 272.177 90.5472L272.624 89.6528C271.675 89.1779 271.03 88.4458 270.672 87.4336L269.729 87.7664ZM272.21 90.5623C273.42 91.0605 275.152 91.3646 277.371 91.4991L277.431 90.5009C275.249 90.3687 273.648 90.0729 272.591 89.6377L272.21 90.5623ZM276.93 91.1682C277.233 92.0177 277.401 93.3802 277.401 95.3H278.401C278.401 93.3531 278.235 91.8489 277.872 90.8318L276.93 91.1682ZM277.924 94.8005C273.649 94.6002 269.275 94.5 264.801 94.5V95.5C269.26 95.5 273.619 95.5998 277.877 95.7995L277.924 94.8005ZM264.801 94.5C259.795 94.5 255.419 94.6001 251.674 94.8007L251.728 95.7993C255.45 95.5999 259.807 95.5 264.801 95.5V94.5ZM252.201 95.3C252.201 93.3802 252.368 92.0177 252.672 91.1682L251.73 90.8318C251.367 91.8489 251.201 93.3531 251.201 95.3H252.201ZM252.231 91.4991C254.449 91.3646 256.181 91.0605 257.391 90.5623L257.01 89.6377C255.953 90.0729 254.352 90.3687 252.171 90.5009L252.231 91.4991ZM257.414 90.5524C258.672 89.9602 259.532 88.9864 259.975 87.6581L259.026 87.3419C258.669 88.4136 257.996 89.1731 256.988 89.6476L257.414 90.5524ZM259.967 87.6812C260.467 86.3953 260.701 84.5888 260.701 82.3H259.701C259.701 84.5445 259.468 86.2047 259.035 87.3188L259.967 87.6812ZM260.701 82.3V31.8H259.701V82.3H260.701ZM260.201 31.3H255.101V32.3H260.201V31.3ZM255.101 31.3C251.991 31.3 249.521 31.805 247.744 32.8713L248.258 33.7287C249.814 32.795 252.077 32.3 255.101 32.3V31.3ZM247.756 32.8637C246 33.8473 244.722 35.2275 243.943 36.9986L244.858 37.4014C245.546 35.8392 246.668 34.6193 248.245 33.7363L247.756 32.8637ZM243.939 37.0077C243.252 38.6561 242.645 40.9633 242.109 43.9106L243.093 44.0894C243.624 41.1701 244.216 38.9439 244.862 37.3923L243.939 37.0077ZM242.601 43.5C240.424 43.5 238.938 43.1991 238.058 42.6713L237.544 43.5287C238.664 44.2009 240.378 44.5 242.601 44.5V43.5ZM238.293 43.1875C239.363 37.1668 239.901 31.8033 239.901 27.1H238.901C238.901 31.73 238.371 37.0332 237.309 43.0125L238.293 43.1875ZM239.374 27.5993C243.123 27.8001 251.638 27.9 264.901 27.9V26.9C251.63 26.9 243.145 26.7999 239.428 26.6007L239.374 27.5993ZM264.901 27.9C278.363 27.9 286.945 27.8002 290.628 27.5993L290.574 26.6007C286.923 26.7998 278.372 26.9 264.901 26.9V27.9ZM290.101 27.0861L290.001 30.6861L291.001 30.7139L291.101 27.1139L290.101 27.0861ZM317.218 91.4L316.957 91.8262L316.961 91.8287L317.218 91.4ZM305.518 78.9L305.073 79.1281L305.076 79.1347L305.518 78.9ZM305.718 43.2L305.281 42.9567L305.28 42.9586L305.718 43.2ZM317.618 30.9L317.367 30.4673L317.365 30.4687L317.618 30.9ZM351.418 30.9L351.165 31.3313L351.172 31.3352L351.418 30.9ZM363.218 43.1L362.776 43.3347L362.78 43.3414L363.218 43.1ZM363.218 78.8L362.778 78.5633L362.776 78.5653L363.218 78.8ZM351.418 91.3L351.159 90.8722L351.157 90.8738L351.418 91.3ZM347.418 87.4L347.118 87L347.114 87.0031L347.418 87.4ZM354.718 77.6L355.182 77.787L355.183 77.7844L354.718 77.6ZM353.918 47.3L353.459 47.4985L353.461 47.5036L353.918 47.3ZM345.018 35.6L344.717 35.9992L344.717 35.9992L345.018 35.6ZM321.718 34.7L322.011 35.1051L322.011 35.1051L321.718 34.7ZM314.318 44.2L313.861 43.9976L313.858 44.0039L314.318 44.2ZM314.618 74.4L314.152 74.5803L314.154 74.5857L314.618 74.4ZM323.218 86.5L322.901 86.8864L322.905 86.8898L323.218 86.5ZM334.418 95.4C328.032 95.4 322.389 93.9197 317.475 90.9713L316.961 91.8287C322.047 94.8803 327.871 96.4 334.418 96.4V95.4ZM317.479 90.9738C312.557 87.9546 308.718 83.8546 305.959 78.6653L305.076 79.1347C307.918 84.4787 311.879 88.7121 316.957 91.8262L317.479 90.9738ZM305.963 78.672C303.269 73.4161 301.918 67.5289 301.918 61H300.918C300.918 67.6711 302.3 73.7172 305.073 79.128L305.963 78.672ZM301.918 61C301.918 54.4072 303.335 48.5587 306.156 43.4414L305.28 42.9586C302.368 48.2412 300.918 54.2595 300.918 61H301.918ZM306.155 43.4433C309.047 38.2513 312.951 34.2176 317.871 31.3313L317.365 30.4687C312.285 33.4491 308.256 37.6154 305.281 42.9567L306.155 43.4433ZM317.868 31.3327C322.855 28.4456 328.368 27 334.418 27V26C328.201 26 322.514 27.4877 317.367 30.4673L317.868 31.3327ZM334.418 27C340.671 27 346.249 28.447 351.165 31.3313L351.671 30.4687C346.587 27.4863 340.832 26 334.418 26V27ZM351.172 31.3352C356.153 34.1538 360.02 38.1499 362.776 43.3347L363.659 42.8653C360.816 37.5168 356.816 33.3796 351.664 30.4648L351.172 31.3352ZM362.78 43.3414C365.601 48.458 367.018 54.3396 367.018 61H368.018C368.018 54.1937 366.568 48.142 363.656 42.8586L362.78 43.3414ZM367.018 61C367.018 67.4574 365.602 73.3084 362.778 78.5633L363.658 79.0367C366.567 73.6249 368.018 67.6093 368.018 61H367.018ZM362.776 78.5653C360.019 83.7529 356.148 87.8526 351.159 90.8722L351.677 91.7277C356.821 88.614 360.817 84.3804 363.659 79.0347L362.776 78.5653ZM351.157 90.8738C346.241 93.8884 340.667 95.4 334.418 95.4V96.4C340.836 96.4 346.594 94.845 351.679 91.7262L351.157 90.8738ZM336.418 91.5C340.72 91.5 344.496 90.2682 347.722 87.7969L347.114 87.0031C344.074 89.3318 340.516 90.5 336.418 90.5V91.5ZM347.718 87.8C350.999 85.3392 353.485 81.995 355.182 77.787L354.254 77.413C352.618 81.4717 350.237 84.6608 347.118 87L347.718 87.8ZM355.183 77.7844C356.876 73.5183 357.718 68.788 357.718 63.6H356.718C356.718 68.6787 355.894 73.2817 354.253 77.4156L355.183 77.7844ZM357.718 63.6C357.718 57.6035 356.606 52.0998 354.375 47.0964L353.461 47.5036C355.63 52.3668 356.718 57.7299 356.718 63.6H357.718ZM354.377 47.1015C352.214 42.0992 349.197 38.1261 345.319 35.2008L344.717 35.9992C348.439 38.8073 351.356 42.6341 353.459 47.4985L354.377 47.1015ZM345.319 35.2008C341.434 32.2701 337.096 30.8 332.318 30.8V31.8C336.874 31.8 341.002 33.1965 344.717 35.9992L345.319 35.2008ZM332.318 30.8C328.281 30.8 324.645 31.9654 321.425 34.2949L322.011 35.1051C325.058 32.9012 328.488 31.8 332.318 31.8V30.8ZM321.425 34.2949C318.21 36.6208 315.691 39.8624 313.861 43.9976L314.775 44.4024C316.545 40.4043 318.96 37.3126 322.011 35.1051L321.425 34.2949ZM313.858 44.0039C312.093 48.144 311.218 52.9129 311.218 58.3H312.218C312.218 53.0204 313.076 48.3893 314.778 44.396L313.858 44.0039ZM311.218 58.3C311.218 64.0907 312.195 69.5189 314.152 74.5803L315.084 74.2197C313.175 69.2811 312.218 63.976 312.218 58.3H311.218ZM314.154 74.5857C316.181 79.6548 319.095 83.7603 322.901 86.8864L323.535 86.1136C319.874 83.1063 317.055 79.1452 315.082 74.2143L314.154 74.5857ZM322.905 86.8898C326.732 89.9654 331.244 91.5 336.418 91.5V90.5C331.458 90.5 327.17 89.0346 323.531 86.1102L322.905 86.8898ZM395.162 91.5L394.907 91.9298L394.909 91.9313L395.162 91.5ZM383.662 79L383.216 79.2258L383.216 79.2258L383.662 79ZM384.462 42L384.883 42.2709L384.884 42.2684L384.462 42ZM397.262 30.4L397.043 29.9506L397.041 29.9517L397.262 30.4ZM427.462 27.8L427.36 28.2894L427.367 28.2909L427.462 27.8ZM438.262 31.2L438.753 31.2947L438.827 30.9156L438.478 30.7489L438.262 31.2ZM437.163 46.7L437.338 47.1682L437.663 47.0465V46.7H437.163ZM431.863 47.6L431.363 47.6155L431.378 48.1H431.863V47.6ZM427.162 34.3L426.836 34.6791L426.846 34.687L427.162 34.3ZM401.263 34.4L401.543 34.8137L401.543 34.8137L401.263 34.4ZM392.862 44.5L392.406 44.2969L392.404 44.3004L392.862 44.5ZM392.862 74.9L392.392 75.0694L392.395 75.0769L392.862 74.9ZM401.062 86.7L400.747 87.0877L400.755 87.0939L401.062 86.7ZM419.963 90.7L420.027 91.1958L420.038 91.1944L420.048 91.1926L419.963 90.7ZM424.563 89.4L424.745 89.8658L424.757 89.8608L424.563 89.4ZM427.162 87.1L426.715 86.8763L426.709 86.8886L427.162 87.1ZM427.363 70.2L426.877 70.3213L426.881 70.336L426.886 70.3506L427.363 70.2ZM425.162 67.6L424.996 68.0715L424.996 68.0715L425.162 67.6ZM419.362 66.9L418.898 67.0857L419.021 67.3918L419.35 67.3999L419.362 66.9ZM418.762 62.3L418.802 61.8016L418.262 61.759V62.3H418.762ZM442.663 62.4H443.163V61.8756L442.639 61.9006L442.663 62.4ZM442.063 66.9L442.085 67.3995L442.415 67.3845L442.531 67.0756L442.063 66.9ZM438.963 67.7L439.24 68.116L439.255 68.1059L439.269 68.0947L438.963 67.7ZM437.662 70.3L437.172 70.2019L437.17 70.2138L437.168 70.2258L437.662 70.3ZM437.563 85.4L437.066 85.4584L437.068 85.4754L437.071 85.4921L437.563 85.4ZM438.662 88.4L438.96 88.8021L439.317 88.5379L439.097 88.1519L438.662 88.4ZM427.263 93.9L427.406 94.3791L427.41 94.3777L427.263 93.9ZM412.462 95.4C406.007 95.4 400.329 93.9516 395.416 91.0687L394.909 91.9313C399.996 94.9151 405.852 96.4 412.462 96.4V95.4ZM395.418 91.0702C390.571 88.1881 386.802 84.0943 384.109 78.7742L383.216 79.2258C385.99 84.7057 389.887 88.9452 394.907 91.9298L395.418 91.0702ZM384.109 78.7742C381.416 73.455 380.063 67.3013 380.063 60.3H379.063C379.063 67.432 380.442 73.745 383.216 79.2258L384.109 78.7742ZM380.063 60.3C380.063 53.2449 381.677 47.243 384.883 42.2709L384.042 41.7291C380.715 46.8903 379.063 53.0885 379.063 60.3H380.063ZM384.884 42.2684C388.104 37.2094 392.302 33.4063 397.484 30.8483L397.041 29.9517C391.689 32.5937 387.355 36.524 384.041 41.7316L384.884 42.2684ZM397.482 30.8494C402.746 28.2831 408.338 27 414.262 27V26C408.187 26 402.446 27.3169 397.043 29.9506L397.482 30.8494ZM414.262 27C418.898 27 423.264 27.4305 427.36 28.2894L427.565 27.3106C423.395 26.4362 418.96 26 414.262 26V27ZM427.367 28.2909C431.469 29.0846 435.026 30.2065 438.047 31.6511L438.478 30.7489C435.365 29.2602 431.723 28.1154 427.558 27.3091L427.367 28.2909ZM437.772 31.1053C437.029 34.9505 436.663 40.1534 436.663 46.7H437.663C437.663 40.18 438.029 35.0495 438.753 31.2947L437.772 31.1053ZM436.987 46.2318C435.45 46.8082 433.744 47.1 431.863 47.1V48.1C433.848 48.1 435.675 47.7918 437.338 47.1682L436.987 46.2318ZM432.362 47.5845C432.161 41.071 430.583 36.4522 427.479 33.913L426.846 34.687C429.609 36.9478 431.164 41.1956 431.363 47.6155L432.362 47.5845ZM427.489 33.921C424.502 31.3513 420.337 30.1 415.062 30.1V31.1C420.188 31.1 424.089 32.3154 426.836 34.679L427.489 33.921ZM415.062 30.1C409.517 30.1 404.814 31.3858 400.982 33.9863L401.543 34.8137C405.178 32.3476 409.674 31.1 415.062 31.1V30.1ZM400.982 33.9863C397.17 36.573 394.309 40.0133 392.406 44.2969L393.319 44.7031C395.149 40.5867 397.889 37.2936 401.543 34.8137L400.982 33.9863ZM392.404 44.3004C390.574 48.5024 389.663 53.1045 389.663 58.1H390.663C390.663 53.2288 391.551 48.7643 393.321 44.6996L392.404 44.3004ZM389.663 58.1C389.663 64.3483 390.57 70.0068 392.392 75.0694L393.333 74.7306C391.555 69.7932 390.663 64.2517 390.663 58.1H389.663ZM392.395 75.0769C394.288 80.0813 397.07 84.0914 400.747 87.0876L401.378 86.3124C397.855 83.4419 395.17 79.5854 393.33 74.7231L392.395 75.0769ZM400.755 87.0939C404.521 90.0383 409.1 91.5 414.463 91.5V90.5C409.292 90.5 404.938 89.0951 401.37 86.3061L400.755 87.0939ZM414.463 91.5C416.61 91.5 418.466 91.3994 420.027 91.1958L419.898 90.2042C418.392 90.4006 416.582 90.5 414.463 90.5V91.5ZM420.048 91.1926C421.616 90.9199 423.182 90.4771 424.745 89.8656L424.38 88.9344C422.876 89.5229 421.375 89.9468 419.877 90.2074L420.048 91.1926ZM424.757 89.8608C426.108 89.2917 427.084 88.4496 427.616 87.3114L426.709 86.8886C426.307 87.7504 425.55 88.4417 424.368 88.9392L424.757 89.8608ZM427.61 87.3236C428.198 86.1472 428.462 84.3144 428.462 81.9H427.462C427.462 84.2856 427.194 85.9195 426.715 86.8764L427.61 87.3236ZM428.462 81.9V76.9H427.462V81.9H428.462ZM428.462 76.9C428.462 73.7007 428.265 71.3973 427.839 70.0494L426.886 70.3506C427.26 71.5361 427.462 73.6993 427.462 76.9H428.462ZM427.848 70.0787C427.48 68.6099 426.645 67.5931 425.329 67.1285L424.996 68.0715C425.946 68.4069 426.578 69.1235 426.877 70.3213L427.848 70.0787ZM425.329 67.1285C424.114 66.6998 422.111 66.4669 419.375 66.4001L419.35 67.3999C422.081 67.4664 423.944 67.7002 424.996 68.0715L425.329 67.1285ZM419.827 66.7143C419.463 65.8055 419.262 64.3506 419.262 62.3H418.262C418.262 64.3827 418.462 65.9945 418.898 67.0857L419.827 66.7143ZM418.723 62.7984C421.278 63.0001 425.361 63.1 430.963 63.1V62.1C425.364 62.1 421.314 61.9999 418.802 61.8016L418.723 62.7984ZM430.963 63.1C435.965 63.1 439.875 63.0333 442.686 62.8994L442.639 61.9006C439.85 62.0333 435.96 62.1 430.963 62.1V63.1ZM442.163 62.4C442.163 64.3092 441.964 65.7398 441.594 66.7244L442.531 67.0756C442.961 65.9269 443.163 64.3575 443.163 62.4H442.163ZM442.04 66.4005C440.551 66.4682 439.384 66.7388 438.656 67.3053L439.269 68.0947C439.741 67.7278 440.64 67.4652 442.085 67.3995L442.04 66.4005ZM438.685 67.284C437.911 67.8003 437.444 68.8414 437.172 70.2019L438.153 70.3981C438.414 69.0919 438.814 68.3997 439.24 68.116L438.685 67.284ZM437.168 70.2258C436.962 71.5992 436.862 73.8317 436.862 76.9H437.862C437.862 73.835 437.963 71.6675 438.157 70.3742L437.168 70.2258ZM436.862 76.9V81.4H437.862V76.9H436.862ZM436.862 81.4C436.862 82.9467 436.93 84.3004 437.066 85.4584L438.059 85.3416C437.929 84.2329 437.862 82.92 437.862 81.4H436.862ZM437.071 85.4921C437.281 86.6131 437.667 87.6659 438.228 88.6481L439.097 88.1519C438.591 87.2675 438.244 86.3202 438.054 85.3079L437.071 85.4921ZM438.365 87.9979C435.353 90.2241 431.607 92.035 427.115 93.4223L427.41 94.3777C431.985 92.965 435.838 91.1092 438.96 88.8021L438.365 87.9979ZM427.119 93.4209C422.706 94.7384 417.822 95.4 412.462 95.4V96.4C417.903 96.4 422.886 95.7283 427.406 94.3791L427.119 93.4209ZM506.507 81L506.076 81.2533L506.076 81.254L506.507 81ZM510.407 86.8L510.025 87.1221L510.025 87.1221L510.407 86.8ZM514.107 89.6L513.91 90.0596L513.918 90.0628L514.107 89.6ZM520.007 90.7H520.507V90.2263L520.034 90.2007L520.007 90.7ZM519.607 95V95.5H519.984L520.088 95.1374L519.607 95ZM503.907 95.9L503.483 96.1644L503.659 96.4473L503.988 96.3934L503.907 95.9ZM497.207 84.1L497.653 83.8733L497.649 83.8669L497.646 83.8606L497.207 84.1ZM496.007 81.9L496.446 81.6606L496.444 81.6578L496.007 81.9ZM490.307 72.6L489.889 72.8748L489.894 72.8812L489.898 72.8875L490.307 72.6ZM483.607 64.3L483.973 63.9588L483.818 63.7929L483.591 63.8003L483.607 64.3ZM480.507 64.4V64.9H480.515L480.523 64.8997L480.507 64.4ZM476.607 64.2L476.649 63.7017L476.107 63.6566V64.2H476.607ZM477.907 89.1L477.502 89.3927L477.511 89.4056L477.521 89.4179L477.907 89.1ZM483.207 91L483.681 90.8419L483.573 90.5181L483.233 90.5007L483.207 91ZM483.707 95.3L483.672 95.7988L484.207 95.8361V95.3H483.707ZM459.807 95.3H459.307V95.8344L459.84 95.7989L459.807 95.3ZM460.307 91L460.283 90.5006L459.934 90.5176L459.83 90.8509L460.307 91ZM465.807 89.1L466.193 89.418L466.202 89.407L465.807 89.1ZM465.707 33.3L465.305 33.5966L465.313 33.6086L465.323 33.6201L465.707 33.3ZM460.307 31.4L459.83 31.5491L459.939 31.9H460.307V31.4ZM459.807 27.2L459.832 26.7006L459.307 26.6744V27.2H459.807ZM480.107 27.3L480.101 26.7999L480.089 26.8003L480.107 27.3ZM488.507 27.2V26.7L488.501 26.7L488.507 27.2ZM504.807 31.9L504.482 32.2801L504.486 32.2835L504.807 31.9ZM505.807 55.4L505.442 55.058L505.438 55.0621L505.807 55.4ZM493.507 62.2L493.384 61.7153L492.558 61.9245L493.144 62.5436L493.507 62.2ZM499.407 69.5L498.991 69.7774L498.995 69.7828L499.407 69.5ZM476.607 59.6H476.107V60.0414L476.545 60.0961L476.607 59.6ZM495.107 56.2L495.39 56.6125L495.395 56.6089L495.107 56.2ZM496.507 35.2L496.168 35.5675L496.178 35.5763L496.507 35.2ZM476.607 32.4L476.504 31.9107L476.107 31.9943V32.4H476.607ZM506.076 81.254C507.614 83.8619 508.931 85.8234 510.025 87.1221L510.789 86.4779C509.75 85.2432 508.466 83.3381 506.938 80.746L506.076 81.254ZM510.025 87.1221C511.137 88.4431 512.432 89.4262 513.91 90.0596L514.304 89.1404C512.982 88.5738 511.81 87.6902 510.789 86.4779L510.025 87.1221ZM513.918 90.0628C515.457 90.6923 517.485 91.0644 519.98 91.1993L520.034 90.2007C517.596 90.0689 515.691 89.7077 514.296 89.1372L513.918 90.0628ZM519.507 90.7C519.507 92.6233 519.373 93.999 519.126 94.8626L520.088 95.1374C520.374 94.1343 520.507 92.6434 520.507 90.7H519.507ZM519.607 94.5C512.798 94.5 507.533 94.8 503.826 95.4066L503.988 96.3934C507.614 95.8 512.816 95.5 519.607 95.5V94.5ZM504.331 95.6356C501.805 91.5797 499.579 87.659 497.653 83.8733L496.761 84.3267C498.702 88.141 500.943 92.0869 503.483 96.1644L504.331 95.6356ZM497.646 83.8606L496.446 81.6606L495.568 82.1394L496.768 84.3394L497.646 83.8606ZM496.444 81.6578C494.372 77.9147 492.463 74.7984 490.716 72.3125L489.898 72.8875C491.618 75.335 493.508 78.4186 495.57 82.1422L496.444 81.6578ZM490.725 72.3252C489.038 69.7617 486.786 66.9728 483.973 63.9588L483.242 64.6412C486.029 67.6272 488.242 70.3716 489.889 72.8748L490.725 72.3252ZM483.591 63.8003L480.491 63.9003L480.523 64.8997L483.623 64.7997L483.591 63.8003ZM480.507 63.9C479.527 63.9 478.242 63.8345 476.649 63.7017L476.566 64.6983C478.172 64.8322 479.487 64.9 480.507 64.9V63.9ZM476.107 64.2V82.3H477.107V64.2H476.107ZM476.107 82.3C476.107 83.9856 476.216 85.4193 476.441 86.5939C476.664 87.763 477.008 88.7097 477.502 89.3927L478.312 88.8073C477.939 88.2903 477.633 87.5037 477.423 86.4061C477.214 85.314 477.107 83.9477 477.107 82.3H476.107ZM477.521 89.4179C478.592 90.7187 480.542 91.364 483.181 91.4993L483.233 90.5007C480.672 90.3693 479.088 89.7479 478.293 88.7821L477.521 89.4179ZM482.733 91.1581C483.041 92.0823 483.207 93.4524 483.207 95.3H484.207C484.207 93.4143 484.04 91.9177 483.681 90.8419L482.733 91.1581ZM483.742 94.8012C480.858 94.6 476.878 94.5 471.807 94.5V95.5C476.869 95.5 480.823 95.6 483.672 95.7988L483.742 94.8012ZM471.807 94.5C466.802 94.5 462.79 94.6 459.774 94.8011L459.84 95.7989C462.824 95.6 466.812 95.5 471.807 95.5V94.5ZM460.307 95.3C460.307 93.5237 460.472 92.1472 460.784 91.1491L459.83 90.8509C459.475 91.9861 459.307 93.4763 459.307 95.3H460.307ZM460.331 91.4994C463.095 91.3646 465.118 90.7232 466.193 89.4179L465.421 88.7821C464.629 89.7434 462.986 90.3687 460.283 90.5006L460.331 91.4994ZM466.202 89.407C466.734 88.7231 467.105 87.7736 467.347 86.6008C467.589 85.4233 467.707 83.9871 467.707 82.3H466.707C466.707 83.9462 466.592 85.31 466.367 86.3992C466.142 87.4931 465.814 88.2769 465.412 88.793L466.202 89.407ZM467.707 82.3V40.1H466.707V82.3H467.707ZM467.707 40.1C467.707 38.4114 467.581 36.9726 467.32 35.7923C467.061 34.6158 466.661 33.664 466.091 32.9799L465.323 33.6201C465.753 34.136 466.103 34.9175 466.344 36.0077C466.583 37.094 466.707 38.4553 466.707 40.1H467.707ZM466.11 33.0034C465.032 31.5411 463.024 30.9 460.307 30.9V31.9C462.924 31.9 464.515 32.5256 465.305 33.5966L466.11 33.0034ZM460.784 31.2509C460.472 30.2514 460.307 28.9074 460.307 27.2H459.307C459.307 28.9593 459.475 30.4153 459.83 31.5491L460.784 31.2509ZM459.782 27.6994C462.462 27.8334 466.472 27.9 471.807 27.9V26.9C466.476 26.9 462.486 26.8333 459.832 26.7006L459.782 27.6994ZM471.807 27.9C475.475 27.9 478.249 27.8667 480.125 27.7997L480.089 26.8003C478.232 26.8667 475.472 26.9 471.807 26.9V27.9ZM480.113 27.8L488.513 27.7L488.501 26.7L480.101 26.8L480.113 27.8ZM488.507 27.7C495.645 27.7 500.942 29.2544 504.482 32.2801L505.132 31.5199C501.339 28.2789 495.769 26.7 488.507 26.7V27.7ZM504.486 32.2835C508.033 35.2503 509.807 39.1403 509.807 44H510.807C510.807 38.8597 508.914 34.683 505.128 31.5165L504.486 32.2835ZM509.807 44C509.807 48.2734 508.355 51.951 505.442 55.058L506.172 55.742C509.259 52.449 510.807 48.5266 510.807 44H509.807ZM505.438 55.0621C502.586 58.1741 498.58 60.3999 493.384 61.7153L493.63 62.6847C498.967 61.3335 503.162 59.0259 506.176 55.7379L505.438 55.0621ZM493.144 62.5436C495.461 64.9932 497.409 67.4046 498.991 69.7774L499.823 69.2227C498.205 66.7954 496.22 64.3401 493.87 61.8564L493.144 62.5436ZM498.995 69.7828C500.584 72.1007 502.943 75.9211 506.076 81.2533L506.938 80.7467C503.804 75.4122 501.43 71.566 499.819 69.2172L498.995 69.7828ZM476.545 60.0961C478.161 60.2982 479.649 60.4 481.007 60.4V59.4C479.698 59.4 478.253 59.3018 476.669 59.1039L476.545 60.0961ZM481.007 60.4C486.875 60.4 491.683 59.1522 495.39 56.6125L494.824 55.7875C491.331 58.1812 486.739 59.4 481.007 59.4V60.4ZM495.395 56.6089C499.145 53.9695 501.007 50.0732 501.007 45H500.007C500.007 49.7934 498.269 53.3638 494.819 55.7911L495.395 56.6089ZM501.007 45C501.007 40.6852 499.632 37.2697 496.836 34.8237L496.178 35.5763C498.716 37.7969 500.007 40.9148 500.007 45H501.007ZM496.846 34.8326C494.111 32.3079 489.792 31.1 484.007 31.1V32.1C489.688 32.1 493.703 33.2921 496.168 35.5674L496.846 34.8326ZM484.007 31.1C481.57 31.1 479.069 31.3708 476.504 31.9107L476.71 32.8893C479.212 32.3625 481.644 32.1 484.007 32.1V31.1ZM476.107 32.4V59.6H477.107V32.4H476.107ZM594.866 91L595.345 90.8563L595.257 90.5603L594.952 90.5074L594.866 91ZM595.466 95.3L595.441 95.7994L595.966 95.8256V95.3H595.466ZM572.766 95.3H572.266V95.8256L572.791 95.7994L572.766 95.3ZM573.466 91L573.413 90.5028L573.141 90.532L573.019 90.7764L573.466 91ZM577.366 90.1L577.143 89.6528L577.135 89.6568L577.127 89.6611L577.366 90.1ZM577.066 83.2L577.53 83.0121L577.526 83.002L577.066 83.2ZM572.666 73L573.126 72.802L572.995 72.5H572.666V73ZM546.266 73.4L546.247 72.9004L545.92 72.9128L545.801 73.2178L546.266 73.4ZM543.566 80.3L543.101 80.1178L543.099 80.122L543.566 80.3ZM543.166 89.9L542.846 90.2841L542.863 90.2984L542.882 90.3111L543.166 89.9ZM547.166 91L547.629 90.8096L547.511 90.5242L547.203 90.5014L547.166 91ZM547.866 95.3L547.822 95.7981L548.366 95.8461V95.3H547.866ZM530.066 95.3H529.566V95.827L530.093 95.7993L530.066 95.3ZM530.766 91.1L530.672 90.609L530.407 90.66L530.304 90.9096L530.766 91.1ZM534.866 88.5L535.273 88.7906L535.273 88.7906L534.866 88.5ZM538.766 80.3L539.232 80.4831L539.232 80.4816L538.766 80.3ZM559.466 27.2L559.352 26.7133L559.096 26.7735L559.001 27.0184L559.466 27.2ZM563.366 26.8L563.825 26.6002L563.694 26.3H563.366V26.8ZM587.166 81.4L586.708 81.5998L586.71 81.6038L587.166 81.4ZM591.066 88.8L590.672 89.107L590.677 89.1136L590.682 89.1201L591.066 88.8ZM570.766 68.5V69H571.524L571.226 68.3037L570.766 68.5ZM563.166 50.7L563.626 50.5037L563.625 50.5006L563.166 50.7ZM558.766 39.8L559.238 39.6348L558.748 38.2332L558.291 39.6461L558.766 39.8ZM554.966 50.6L555.433 50.7799L555.436 50.7714L554.966 50.6ZM548.066 68.5L547.6 68.3202L547.338 69H548.066V68.5ZM594.387 91.1437C594.772 92.4259 594.966 93.8104 594.966 95.3H595.966C595.966 93.7229 595.761 92.2407 595.345 90.8563L594.387 91.1437ZM595.491 94.8006C591.484 94.6003 587.676 94.5 584.066 94.5V95.5C587.657 95.5 591.449 95.5997 595.441 95.7994L595.491 94.8006ZM584.066 94.5C580.524 94.5 576.749 94.6003 572.741 94.8006L572.791 95.7994C576.784 95.5997 580.542 95.5 584.066 95.5V94.5ZM573.266 95.3C573.266 93.3889 573.5 92.0508 573.914 91.2236L573.019 90.7764C572.499 91.8158 572.266 93.3445 572.266 95.3H573.266ZM573.52 91.4972C575.39 91.2967 576.778 90.9904 577.606 90.5389L577.127 89.6611C576.488 90.0096 575.276 90.3033 573.413 90.5028L573.52 91.4972ZM577.59 90.5472C578.062 90.3112 578.439 89.9838 578.695 89.5572C578.95 89.1319 579.066 88.639 579.066 88.1H578.066C578.066 88.4943 577.982 88.8014 577.838 89.0428C577.694 89.2828 577.471 89.4888 577.143 89.6528L577.59 90.5472ZM579.066 88.1C579.066 87.6205 578.921 86.9516 578.67 86.1286C578.414 85.2925 578.033 84.2525 577.53 83.0121L576.603 83.3879C577.1 84.6142 577.469 85.6242 577.713 86.4214C577.961 87.2318 578.066 87.7795 578.066 88.1H579.066ZM577.526 83.002L573.126 72.802L572.207 73.198L576.607 83.398L577.526 83.002ZM572.666 72.5C562.063 72.5 553.256 72.6334 546.247 72.9004L546.285 73.8996C553.277 73.6333 562.07 73.5 572.666 73.5V72.5ZM545.801 73.2178L543.101 80.1178L544.032 80.4822L546.732 73.5822L545.801 73.2178ZM543.099 80.122C542.026 82.9381 541.466 85.2071 541.466 86.9H542.466C542.466 85.3929 542.973 83.2619 544.034 80.478L543.099 80.122ZM541.466 86.9C541.466 88.3368 541.902 89.497 542.846 90.2841L543.486 89.5159C542.831 88.9696 542.466 88.1299 542.466 86.9H541.466ZM542.882 90.3111C543.857 90.9862 545.296 91.3628 547.129 91.4986L547.203 90.5014C545.437 90.3705 544.209 90.0138 543.451 89.4889L542.882 90.3111ZM546.704 91.1904C547.138 92.2438 547.366 93.6069 547.366 95.3H548.366C548.366 93.5264 548.128 92.0228 547.629 90.8096L546.704 91.1904ZM547.91 94.8019C545.622 94.6 542.438 94.5 538.366 94.5V95.5C542.428 95.5 545.578 95.6 547.822 95.7981L547.91 94.8019ZM538.366 94.5C536.619 94.5 533.841 94.6006 530.04 94.8007L530.093 95.7993C533.892 95.5994 536.647 95.5 538.366 95.5V94.5ZM530.566 95.3C530.566 93.6766 530.794 92.3458 531.229 91.2904L530.304 90.9096C529.805 92.1209 529.566 93.5901 529.566 95.3H530.566ZM530.861 91.591C532.717 91.2341 534.197 90.298 535.273 88.7906L534.46 88.2094C533.536 89.502 532.283 90.2992 530.672 90.609L530.861 91.591ZM535.273 88.7906C536.313 87.3344 537.633 84.5471 539.232 80.4831L538.301 80.1169C536.7 84.1863 535.419 86.8656 534.46 88.2094L535.273 88.7906ZM539.232 80.4816L559.932 27.3816L559.001 27.0184L538.301 80.1184L539.232 80.4816ZM559.581 27.6867C560.669 27.4308 561.929 27.3 563.366 27.3V26.3C561.871 26.3 560.531 26.4359 559.352 26.7133L559.581 27.6867ZM562.908 26.9998L586.708 81.5998L587.625 81.2002L563.825 26.6002L562.908 26.9998ZM586.71 81.6038C588.374 85.3322 589.696 87.8526 590.672 89.107L591.461 88.493C590.57 87.3474 589.292 84.9345 587.623 81.1962L586.71 81.6038ZM590.682 89.1201C591.758 90.4108 593.13 91.2055 594.781 91.4926L594.952 90.5074C593.536 90.2611 592.375 89.5892 591.451 88.4799L590.682 89.1201ZM571.226 68.3037L563.626 50.5037L562.707 50.8963L570.307 68.6963L571.226 68.3037ZM563.625 50.5006C561.627 45.9047 560.166 42.2844 559.238 39.6348L558.294 39.9652C559.234 42.649 560.706 46.2953 562.708 50.8994L563.625 50.5006ZM558.291 39.6461C557.56 41.9033 556.296 45.4959 554.497 50.4286L555.436 50.7714C557.236 45.8374 558.506 42.23 559.242 39.9539L558.291 39.6461ZM554.5 50.4202L547.6 68.3202L548.533 68.6798L555.433 50.7798L554.5 50.4202ZM548.066 69H570.766V68H548.066V69ZM634.877 27.2V26.6999L634.869 26.7001L634.877 27.2ZM652.077 32.7L651.723 33.0536L651.726 33.0568L652.077 32.7ZM654.977 57.9L655.424 58.1236L655.425 58.1202L654.977 57.9ZM647.177 66.4L646.909 65.9778L646.905 65.9802L647.177 66.4ZM627.877 68.6L627.383 68.6822L627.43 68.9617L627.694 69.0654L627.877 68.6ZM627.977 64.5L628.093 64.0138L627.634 63.9035L627.498 64.3563L627.977 64.5ZM643.277 36.4L642.896 36.7248L642.9 36.7287L643.277 36.4ZM625.377 32.2L625.275 31.7104L624.877 31.7929V32.2H625.377ZM626.277 86.9L625.811 87.0822L625.814 87.0893L626.277 86.9ZM628.977 90L628.753 90.4472L628.768 90.4545L628.783 90.4608L628.977 90ZM634.277 91L634.747 90.8318L634.636 90.5203L634.306 90.5009L634.277 91ZM634.777 95.3L634.744 95.7989L635.277 95.8337V95.3H634.777ZM608.577 95.3H608.077V95.8399L608.615 95.7985L608.577 95.3ZM609.077 91L609.052 90.5006L608.718 90.5173L608.606 90.8318L609.077 91ZM614.477 89.1L614.092 88.7799L614.091 88.7821L614.477 89.1ZM614.477 33.4L614.082 33.707L614.091 33.7192L614.102 33.7308L614.477 33.4ZM609.077 31.4L608.606 31.5682L608.718 31.8827L609.052 31.8994L609.077 31.4ZM608.577 27.1L608.605 26.6008L608.077 26.5703V27.1H608.577ZM622.177 27.4V27.9001L622.184 27.8999L622.177 27.4ZM634.877 27.7C642.61 27.7 648.188 29.5188 651.723 33.0536L652.43 32.3464C648.632 28.5479 642.743 26.7 634.877 26.7V27.7ZM651.726 33.0568C655.287 36.5526 657.077 41.0523 657.077 46.6H658.077C658.077 40.8143 656.2 36.0474 652.427 32.3432L651.726 33.0568ZM657.077 46.6C657.077 50.525 656.227 54.2161 654.528 57.6798L655.425 58.1202C657.193 54.5172 658.077 50.675 658.077 46.6H657.077ZM654.529 57.6764C652.839 61.0569 650.303 63.8235 646.909 65.9778L647.444 66.8222C650.983 64.5765 653.647 61.6764 655.424 58.1236L654.529 57.6764ZM646.905 65.9802C643.6 68.1188 639.598 69.2 634.877 69.2V70.2C639.755 70.2 643.953 69.0812 647.448 66.8198L646.905 65.9802ZM634.877 69.2C632.116 69.2 629.85 68.838 628.059 68.1346L627.694 69.0654C629.637 69.8287 632.037 70.2 634.877 70.2V69.2ZM628.37 68.5178C628.238 67.7283 628.177 67.1262 628.177 66.7H627.177C627.177 67.2071 627.248 67.8717 627.383 68.6822L628.37 68.5178ZM628.177 66.7C628.177 65.9416 628.271 65.2574 628.455 64.6437L627.498 64.3563C627.282 65.076 627.177 65.8585 627.177 66.7H628.177ZM627.86 64.9862C629.568 65.3961 631.374 65.6 633.277 65.6V64.6C631.446 64.6 629.718 64.4039 628.093 64.0138L627.86 64.9862ZM633.277 65.6C638.067 65.6 641.748 64.2725 644.222 61.5353C646.688 58.8076 647.877 54.7653 647.877 49.5H646.877C646.877 54.6347 645.715 58.3924 643.481 60.8647C641.255 63.3275 637.886 64.6 633.277 64.6V65.6ZM647.877 49.5C647.877 43.8214 646.49 39.3232 643.653 36.0713L642.9 36.7287C645.53 39.7435 646.877 43.9786 646.877 49.5H647.877ZM643.657 36.0753C640.796 32.7265 636.365 31.1 630.477 31.1V32.1C636.188 32.1 640.29 33.6735 642.896 36.7247L643.657 36.0753ZM630.477 31.1C628.966 31.1 627.231 31.3057 625.275 31.7104L625.478 32.6896C627.389 32.2943 629.053 32.1 630.477 32.1V31.1ZM624.877 32.2V80.3H625.877V32.2H624.877ZM624.877 80.3C624.877 83.1898 625.177 85.463 625.811 87.0822L626.742 86.7178C626.176 85.2704 625.877 83.1436 625.877 80.3H624.877ZM625.814 87.0893C626.451 88.6467 627.426 89.7835 628.753 90.4472L629.2 89.5528C628.128 89.0165 627.302 88.0867 626.739 86.7107L625.814 87.0893ZM628.783 90.4608C630.125 91.0259 631.956 91.3644 634.247 91.4991L634.306 90.5009C632.064 90.369 630.362 90.0408 629.171 89.5392L628.783 90.4608ZM633.806 91.1682C634.109 92.0177 634.277 93.3802 634.277 95.3H635.277C635.277 93.3531 635.111 91.8489 634.747 90.8318L633.806 91.1682ZM634.809 94.8011C631.727 94.6 627.514 94.5 622.177 94.5V95.5C627.506 95.5 631.693 95.6 634.744 95.7989L634.809 94.8011ZM622.177 94.5C615.71 94.5 611.16 94.5998 608.538 94.8015L608.615 95.7985C611.194 95.6002 615.709 95.5 622.177 95.5V94.5ZM609.077 95.3C609.077 93.3802 609.244 92.0177 609.547 91.1682L608.606 90.8318C608.242 91.8489 608.077 93.3531 608.077 95.3H609.077ZM609.102 91.4994C611.803 91.3643 613.789 90.721 614.863 89.4179L614.091 88.7821C613.297 89.7456 611.684 90.369 609.052 90.5006L609.102 91.4994ZM614.861 89.4201C615.431 88.736 615.83 87.7842 616.09 86.6077C616.35 85.4274 616.477 83.9886 616.477 82.3H615.477C615.477 83.9447 615.353 85.306 615.113 86.3923C614.873 87.4825 614.522 88.264 614.092 88.7799L614.861 89.4201ZM616.477 82.3V40.1H615.477V82.3H616.477ZM616.477 40.1C616.477 38.4116 616.35 36.9805 616.089 35.8158C615.83 34.6557 615.429 33.7233 614.851 33.0692L614.102 33.7308C614.524 34.21 614.873 34.9609 615.114 36.0342C615.353 37.1028 615.477 38.455 615.477 40.1H616.477ZM614.871 33.093C613.8 31.7158 611.81 31.036 609.102 30.9006L609.052 31.8994C611.677 32.0306 613.286 32.6842 614.082 33.707L614.871 33.093ZM609.547 31.2318C609.244 30.3823 609.077 29.0198 609.077 27.1H608.077C608.077 29.0469 608.242 30.5511 608.606 31.5682L609.547 31.2318ZM608.548 27.5992C612.028 27.8 616.572 27.9 622.177 27.9V26.9C616.581 26.9 612.058 26.8 608.605 26.6008L608.548 27.5992ZM622.184 27.8999L634.884 27.6999L634.869 26.7001L622.169 26.9001L622.184 27.8999ZM729.782 89.1L729.387 89.407L729.397 89.4192L729.407 89.4308L729.782 89.1ZM735.282 91L735.753 90.8318L735.641 90.5173L735.307 90.5006L735.282 91ZM735.782 95.3L735.757 95.7994L736.282 95.8256V95.3H735.782ZM711.582 95.3H711.082V95.8303L711.611 95.7991L711.582 95.3ZM712.082 91L712.057 90.5006L711.723 90.5173L711.611 90.8318L712.082 91ZM717.482 89.1L717.098 88.7799L717.096 88.7821L717.482 89.1ZM718.982 62.5H719.482V62H718.982V62.5ZM688.482 63.1L688.443 62.6016L687.982 62.6379V63.1H688.482ZM689.882 89.1L689.487 89.407L689.497 89.4192L689.507 89.4308L689.882 89.1ZM695.382 91L695.853 90.8318L695.741 90.5173L695.407 90.5006L695.382 91ZM695.882 95.3L695.857 95.7994L696.382 95.8256V95.3H695.882ZM671.682 95.3H671.182V95.8303L671.711 95.7991L671.682 95.3ZM672.182 91L672.157 90.5006L671.823 90.5173L671.711 90.8318L672.182 91ZM677.582 89.1L677.198 88.7799L677.196 88.7821L677.582 89.1ZM677.582 33.4L677.187 33.707L677.197 33.7192L677.207 33.7308L677.582 33.4ZM672.182 31.4L671.711 31.5682L671.823 31.8827L672.157 31.8994L672.182 31.4ZM671.682 27.1L671.709 26.6007L671.182 26.572V27.1H671.682ZM695.882 27.1H696.382V26.5744L695.857 26.6006L695.882 27.1ZM695.382 31.4L695.407 31.8994L695.741 31.8827L695.853 31.5682L695.382 31.4ZM689.882 33.4L689.498 33.0799L689.496 33.0821L689.882 33.4ZM688.482 58.2H687.982V58.7H688.482V58.2ZM718.982 58.2V58.7H719.482V58.2H718.982ZM717.482 33.4L717.087 33.707L717.097 33.7192L717.107 33.7308L717.482 33.4ZM712.082 31.4L711.611 31.5682L711.723 31.8827L712.057 31.8994L712.082 31.4ZM711.582 27.1L711.609 26.6007L711.082 26.572V27.1H711.582ZM735.782 27.1H736.282V26.5744L735.757 26.6006L735.782 27.1ZM735.282 31.4L735.307 31.8994L735.641 31.8827L735.753 31.5682L735.282 31.4ZM729.782 33.4L729.398 33.0799L729.396 33.0821L729.782 33.4ZM727.882 82.3C727.882 83.9871 728 85.4233 728.242 86.6008C728.484 87.7736 728.855 88.7231 729.387 89.407L730.177 88.793C729.775 88.2769 729.447 87.4931 729.222 86.3992C728.998 85.31 728.882 83.9462 728.882 82.3H727.882ZM729.407 89.4308C730.544 90.7194 732.551 91.3641 735.257 91.4994L735.307 90.5006C732.68 90.3693 731.02 89.7472 730.157 88.7692L729.407 89.4308ZM734.811 91.1682C735.115 92.0177 735.282 93.3802 735.282 95.3H736.282C736.282 93.3531 736.116 91.8489 735.753 90.8318L734.811 91.1682ZM735.807 94.8006C731.799 94.6002 727.757 94.5 723.682 94.5V95.5C727.74 95.5 731.766 95.5998 735.757 95.7994L735.807 94.8006ZM723.682 94.5C719.009 94.5 714.965 94.6001 711.553 94.8009L711.611 95.7991C714.999 95.5999 719.022 95.5 723.682 95.5V94.5ZM712.082 95.3C712.082 93.3802 712.249 92.0177 712.553 91.1682L711.611 90.8318C711.248 91.8489 711.082 93.3531 711.082 95.3H712.082ZM712.107 91.4994C714.808 91.3643 716.795 90.721 717.868 89.4179L717.096 88.7821C716.303 89.7456 714.689 90.369 712.057 90.5006L712.107 91.4994ZM717.866 89.4201C718.436 88.736 718.836 87.7842 719.095 86.6077C719.356 85.4274 719.482 83.9886 719.482 82.3H718.482C718.482 83.9447 718.358 85.306 718.119 86.3923C717.878 87.4825 717.528 88.264 717.098 88.7799L717.866 89.4201ZM719.482 82.3V62.5H718.482V82.3H719.482ZM718.982 62C703.719 62 693.532 62.1997 688.443 62.6016L688.521 63.5984C693.565 63.2003 703.712 63 718.982 63V62ZM687.982 63.1V82.3H688.982V63.1H687.982ZM687.982 82.3C687.982 83.9871 688.1 85.4233 688.342 86.6008C688.584 87.7736 688.955 88.7231 689.487 89.407L690.277 88.793C689.875 88.2769 689.547 87.4931 689.322 86.3992C689.098 85.31 688.982 83.9462 688.982 82.3H687.982ZM689.507 89.4308C690.644 90.7194 692.651 91.3641 695.357 91.4994L695.407 90.5006C692.78 90.3693 691.12 89.7472 690.257 88.7692L689.507 89.4308ZM694.911 91.1682C695.215 92.0177 695.382 93.3802 695.382 95.3H696.382C696.382 93.3531 696.216 91.8489 695.853 90.8318L694.911 91.1682ZM695.907 94.8006C691.899 94.6002 687.857 94.5 683.782 94.5V95.5C687.84 95.5 691.866 95.5998 695.857 95.7994L695.907 94.8006ZM683.782 94.5C679.109 94.5 675.065 94.6001 671.653 94.8009L671.711 95.7991C675.099 95.5999 679.122 95.5 683.782 95.5V94.5ZM672.182 95.3C672.182 93.3802 672.349 92.0177 672.653 91.1682L671.711 90.8318C671.348 91.8489 671.182 93.3531 671.182 95.3H672.182ZM672.207 91.4994C674.908 91.3643 676.895 90.721 677.968 89.4179L677.196 88.7821C676.403 89.7456 674.789 90.369 672.157 90.5006L672.207 91.4994ZM677.966 89.4201C678.536 88.736 678.936 87.7842 679.195 86.6077C679.456 85.4274 679.582 83.9886 679.582 82.3H678.582C678.582 83.9447 678.458 85.306 678.219 86.3923C677.978 87.4825 677.628 88.264 677.198 88.7799L677.966 89.4201ZM679.582 82.3V40.1H678.582V82.3H679.582ZM679.582 40.1C679.582 38.4116 679.456 36.9805 679.195 35.8158C678.935 34.6557 678.534 33.7233 677.957 33.0692L677.207 33.7308C677.63 34.21 677.979 34.9609 678.219 36.0342C678.458 37.1028 678.582 38.455 678.582 40.1H679.582ZM677.977 33.093C676.905 31.7158 674.915 31.036 672.207 30.9006L672.157 31.8994C674.782 32.0306 676.392 32.6842 677.187 33.707L677.977 33.093ZM672.653 31.2318C672.349 30.3823 672.182 29.0198 672.182 27.1H671.182C671.182 29.0469 671.348 30.5511 671.711 31.5682L672.653 31.2318ZM671.655 27.5993C675.332 27.7998 679.375 27.9 683.782 27.9V26.9C679.389 26.9 675.365 26.8002 671.709 26.6007L671.655 27.5993ZM683.782 27.9C687.857 27.9 691.899 27.7998 695.907 27.5994L695.857 26.6006C691.866 26.8002 687.84 26.9 683.782 26.9V27.9ZM695.382 27.1C695.382 29.0198 695.215 30.3823 694.911 31.2318L695.853 31.5682C696.216 30.5511 696.382 29.0469 696.382 27.1H695.382ZM695.357 30.9006C692.645 31.0362 690.634 31.7172 689.498 33.0799L690.266 33.7201C691.131 32.6828 692.786 32.0304 695.407 31.8994L695.357 30.9006ZM689.496 33.0821C688.957 33.7365 688.584 34.6666 688.343 35.8227C688.1 36.9845 687.982 38.4132 687.982 40.1H688.982C688.982 38.4535 689.098 37.0988 689.321 36.0273C689.547 34.95 689.874 34.1969 690.268 33.7179L689.496 33.0821ZM687.982 40.1V58.2H688.982V40.1H687.982ZM688.482 58.7H718.982V57.7H688.482V58.7ZM719.482 58.2V40.1H718.482V58.2H719.482ZM719.482 40.1C719.482 38.4116 719.356 36.9805 719.095 35.8158C718.835 34.6557 718.434 33.7233 717.857 33.0692L717.107 33.7308C717.53 34.21 717.879 34.9609 718.119 36.0342C718.358 37.1028 718.482 38.455 718.482 40.1H719.482ZM717.877 33.093C716.805 31.7158 714.815 31.036 712.107 30.9006L712.057 31.8994C714.682 32.0306 716.292 32.6842 717.087 33.707L717.877 33.093ZM712.553 31.2318C712.249 30.3823 712.082 29.0198 712.082 27.1H711.082C711.082 29.0469 711.248 30.5511 711.611 31.5682L712.553 31.2318ZM711.555 27.5993C715.232 27.7998 719.275 27.9 723.682 27.9V26.9C719.289 26.9 715.265 26.8002 711.609 26.6007L711.555 27.5993ZM723.682 27.9C727.757 27.9 731.799 27.7998 735.807 27.5994L735.757 26.6006C731.766 26.8002 727.74 26.9 723.682 26.9V27.9ZM735.282 27.1C735.282 29.0198 735.115 30.3823 734.811 31.2318L735.753 31.5682C736.116 30.5511 736.282 29.0469 736.282 27.1H735.282ZM735.257 30.9006C732.545 31.0362 730.534 31.7172 729.398 33.0799L730.166 33.7201C731.031 32.6828 732.686 32.0304 735.307 31.8994L735.257 30.9006ZM729.396 33.0821C728.857 33.7365 728.484 34.6666 728.243 35.8227C728 36.9845 727.882 38.4132 727.882 40.1H728.882C728.882 38.4535 728.998 37.0988 729.221 36.0273C729.447 34.95 729.774 34.1969 730.168 33.7179L729.396 33.0821ZM727.882 40.1V82.3H728.882V40.1H727.882ZM806.875 27.2H807.375V26.6778L806.853 26.7005L806.875 27.2ZM806.475 31.1L806.612 31.5808L806.902 31.498L806.964 31.203L806.475 31.1ZM801.275 34.4L801.636 34.7463L801.636 34.7463L801.275 34.4ZM796.375 41.9L795.928 41.6764L795.927 41.6771L796.375 41.9ZM782.875 69L782.427 68.7771L782.375 68.8824V69H782.875ZM785.375 89.7L785.118 90.1287L785.129 90.1352L785.14 90.1412L785.375 89.7ZM790.575 91L791.049 90.8419L790.951 90.5462L790.642 90.5045L790.575 91ZM791.175 95.3L791.164 95.7999L791.675 95.8108V95.3H791.175ZM786.475 95.2L786.457 95.6997L786.464 95.6999L786.475 95.2ZM764.875 95.2H764.375V95.7182L764.893 95.6997L764.875 95.2ZM765.475 91L765.436 90.5016L765.105 90.5276L765.001 90.8419L765.475 91ZM770.775 89.9L770.551 89.4526L770.54 89.4588L770.775 89.9ZM772.875 87L772.394 86.8626L772.391 86.8734L772.389 86.8842L772.875 87ZM773.475 69.1H773.975V68.9777L773.919 68.8692L773.475 69.1ZM756.875 37.2L756.428 37.4236L756.431 37.4308L756.875 37.2ZM753.675 32.7L753.348 33.0778L753.354 33.083L753.36 33.0881L753.675 32.7ZM749.475 31.3L749.001 31.4581L749.11 31.7868L749.456 31.7997L749.475 31.3ZM748.875 27.2L748.893 26.7003L748.375 26.6818V27.2H748.875ZM772.675 27.2H773.175V26.6667L772.643 26.701L772.675 27.2ZM772.175 31.1L772.218 31.5981L772.564 31.5681L772.657 31.2338L772.175 31.1ZM769.375 39.3L768.93 39.5287L768.932 39.5313L769.375 39.3ZM781.075 63.6L780.618 63.8034L781.07 64.8186L781.53 63.8069L781.075 63.6ZM791.875 40.8L791.428 40.5764L791.427 40.5781L791.875 40.8ZM792.775 32.5L792.481 32.9044L792.501 32.9192L792.523 32.9319L792.775 32.5ZM789.175 31.3L788.694 31.4348L788.78 31.7431L789.096 31.7937L789.175 31.3ZM788.475 27.2L788.517 26.7017L787.975 26.6566V27.2H788.475ZM798.275 27.9C800.95 27.9 803.824 27.8331 806.897 27.6995L806.853 26.7005C803.793 26.8335 800.933 26.9 798.275 26.9V27.9ZM806.375 27.2C806.375 28.4998 806.245 29.7652 805.986 30.997L806.964 31.203C807.238 29.9015 807.375 28.5669 807.375 27.2H806.375ZM806.338 30.6192C804.371 31.1811 802.564 32.3355 800.914 34.0537L801.636 34.7463C803.186 33.1312 804.846 32.0856 806.612 31.5808L806.338 30.6192ZM800.914 34.0537C799.265 35.772 797.605 38.322 795.928 41.6764L796.822 42.1236C798.478 38.8113 800.085 36.3613 801.636 34.7463L800.914 34.0537ZM795.927 41.6771L782.427 68.7771L783.323 69.2229L796.823 42.1229L795.927 41.6771ZM782.375 69V78.7H783.375V69H782.375ZM782.375 78.7C782.375 82.3678 782.541 85.0155 782.886 86.6062L783.864 86.3938C783.543 84.9179 783.375 82.3656 783.375 78.7H782.375ZM782.886 86.6062C783.239 88.2259 783.963 89.4357 785.118 90.1287L785.632 89.2713C784.787 88.7643 784.178 87.8407 783.864 86.3938L782.886 86.6062ZM785.14 90.1412C786.225 90.7199 788.036 91.1614 790.508 91.4955L790.642 90.5045C788.181 90.1719 786.525 89.7468 785.61 89.2588L785.14 90.1412ZM790.101 91.1581C790.479 92.2939 790.675 93.671 790.675 95.3H791.675C791.675 93.5956 791.471 92.1061 791.049 90.8419L790.101 91.1581ZM791.186 94.8001L786.486 94.7001L786.464 95.6999L791.164 95.7999L791.186 94.8001ZM786.493 94.7003C782.759 94.567 780.085 94.5 778.475 94.5V95.5C780.065 95.5 782.724 95.5664 786.457 95.6997L786.493 94.7003ZM778.475 94.5C773.138 94.5 768.598 94.5667 764.857 94.7003L764.893 95.6997C768.618 95.5666 773.145 95.5 778.475 95.5V94.5ZM765.375 95.2C765.375 93.6402 765.57 92.2957 765.949 91.1581L765.001 90.8419C764.58 92.1043 764.375 93.5598 764.375 95.2H765.375ZM765.514 91.4984C768.052 91.2981 769.911 90.9275 771.01 90.3412L770.54 89.4588C769.639 89.9392 767.965 90.3019 765.436 90.5016L765.514 91.4984ZM770.999 90.3472C772.225 89.734 773.002 88.627 773.361 87.1158L772.389 86.8842C772.082 88.173 771.458 88.9993 770.551 89.4528L770.999 90.3472ZM773.356 87.1374C773.777 85.6646 773.975 83.2701 773.975 80H772.975C772.975 83.2632 772.773 85.5354 772.394 86.8626L773.356 87.1374ZM773.975 80V69.1H772.975V80H773.975ZM773.919 68.8692L757.319 36.9692L756.431 37.4308L773.031 69.3308L773.919 68.8692ZM757.322 36.9764C756.244 34.8195 755.139 33.245 753.99 32.3119L753.36 33.0881C754.345 33.8884 755.373 35.3138 756.428 37.4236L757.322 36.9764ZM754.002 32.3222C752.89 31.3579 751.366 30.8697 749.494 30.8003L749.456 31.7997C751.184 31.8636 752.46 32.3088 753.348 33.0778L754.002 32.3222ZM749.949 31.1419C749.57 30.0024 749.375 28.6906 749.375 27.2H748.375C748.375 28.7761 748.58 30.1976 749.001 31.4581L749.949 31.1419ZM748.857 27.6997C752.595 27.8332 756.068 27.9 759.275 27.9V26.9C756.082 26.9 752.621 26.8335 748.893 26.7003L748.857 27.6997ZM759.275 27.9C766.138 27.9 770.621 27.8335 772.707 27.699L772.643 26.701C770.595 26.8331 766.146 26.9 759.275 26.9V27.9ZM772.175 27.2C772.175 28.5603 772.013 29.8148 771.693 30.9662L772.657 31.2338C773.004 29.9852 773.175 28.6397 773.175 27.2H772.175ZM772.132 30.6019C770.565 30.7381 769.319 31.0654 768.452 31.6312C767.553 32.2173 767.075 33.0533 767.075 34.1H768.075C768.075 33.4134 768.363 32.8827 768.998 32.4688C769.664 32.0346 770.718 31.7286 772.218 31.5981L772.132 30.6019ZM767.075 34.1C767.075 35.3655 767.73 37.1945 768.93 39.5287L769.82 39.0713C768.62 36.7389 768.075 35.1012 768.075 34.1H767.075ZM768.932 39.5313C772.927 47.1881 776.822 55.2788 780.618 63.8034L781.532 63.3966C777.728 54.8546 773.823 46.7452 769.818 39.0687L768.932 39.5313ZM781.53 63.8069C785.195 55.7447 788.792 48.1498 792.323 41.0219L791.427 40.5781C787.891 47.7169 784.289 55.3219 780.62 63.3931L781.53 63.8069ZM792.322 41.0236C793.028 39.6119 793.563 38.3823 793.923 37.3378C794.28 36.2999 794.475 35.4142 794.475 34.7H793.475C793.475 35.2525 793.32 36.0167 792.977 37.0122C792.637 38.0011 792.122 39.1881 791.428 40.5764L792.322 41.0236ZM794.475 34.7C794.475 33.5394 793.995 32.6327 793.027 32.0681L792.523 32.9319C793.155 33.3006 793.475 33.8606 793.475 34.7H794.475ZM793.069 32.0956C792.238 31.4914 790.942 31.0764 789.254 30.8063L789.096 31.7937C790.741 32.0569 791.845 32.442 792.481 32.9044L793.069 32.0956ZM789.656 31.1652C789.195 29.5188 788.975 28.2018 788.975 27.2H787.975C787.975 28.3316 788.221 29.7479 788.694 31.4348L789.656 31.1652ZM788.433 27.6983C790.058 27.8336 793.346 27.9 798.275 27.9V26.9C793.338 26.9 790.092 26.833 788.517 26.7017L788.433 27.6983Z" transform="translate(-19 -26)" fill="#F2F2F2"/>
</svg>
