<svg width="724" height="65" viewBox="0 0 724 65" fill="none" xmlns="http://www.w3.org/2000/svg">
<path d="M114.741 56.03L114.044 55.3129L114.034 55.3229L114.741 56.03ZM114.561 33.98L113.782 34.6068L113.79 34.6169L114.561 33.98ZM99.891 30.38L99.6576 29.4076L98.891 29.5916V30.38H99.891ZM100.701 77.54L99.7646 77.8911L99.7737 77.9152L99.7839 77.9387L100.701 77.54ZM103.401 80.51L102.954 81.4044L102.972 81.4136L102.991 81.4219L103.401 80.51ZM108.441 81.5L109.384 81.1672L109.162 80.5385L108.496 80.5015L108.441 81.5ZM108.981 86.27L108.92 87.2681L109.981 87.3331V86.27H108.981ZM82.161 86.27H81.161V87.3359L82.2247 87.268L82.161 86.27ZM82.611 81.5L82.5397 80.5025L81.8598 80.5511L81.6565 81.2017L82.611 81.5ZM86.391 80.6L85.9204 79.7176L85.9075 79.7245L85.8948 79.7318L86.391 80.6ZM88.281 78.17L87.3274 77.8689L87.3274 77.8689L88.281 78.17ZM88.281 32.99L87.3274 33.2911L87.3274 33.2911L88.281 32.99ZM86.481 30.56L86.9771 29.6918L86.9771 29.6918L86.481 30.56ZM82.701 29.66L81.7395 29.9347L81.9317 30.6076L82.6297 30.6575L82.701 29.66ZM82.161 24.89L82.2154 23.8915L81.161 23.834V24.89H82.161ZM95.031 25.16V26.1601L95.0427 26.1599L95.031 25.16ZM102.681 25.07L102.693 26.0699L102.706 26.0698L102.719 26.0693L102.681 25.07ZM124.551 29.93L123.85 30.6434L123.857 30.6498L123.863 30.656L124.551 29.93ZM127.251 53.51L128.145 53.9572L128.149 53.9507L127.251 53.51ZM120.051 61.34L120.568 62.1961L120.58 62.1889L120.051 61.34ZM102.321 63.23L101.335 63.3944L101.428 63.9535L101.955 64.1608L102.321 63.23ZM102.681 58.73L102.963 57.7706L102.09 57.5139L101.753 58.3586L102.681 58.73ZM106.641 60.18C110.174 60.18 113.139 59.0463 115.448 56.7371L114.034 55.3229C112.143 57.2137 109.708 58.18 106.641 58.18V60.18ZM115.438 56.747C117.886 54.3672 118.981 50.492 118.981 45.41H116.981C116.981 50.288 115.916 53.4928 114.044 55.313L115.438 56.747ZM118.981 45.41C118.981 40.4006 117.805 36.3373 115.332 33.3431L113.79 34.6169C115.877 37.1427 116.981 40.6994 116.981 45.41H118.981ZM115.34 33.3532C112.873 30.2863 109.089 28.84 104.211 28.84V30.84C108.693 30.84 111.809 32.1537 113.782 34.6068L115.34 33.3532ZM104.211 28.84C102.744 28.84 101.225 29.0314 99.6576 29.4076L100.124 31.3524C101.557 31.0086 102.918 30.84 104.211 30.84V28.84ZM98.891 30.38V71.51H100.891V30.38H98.891ZM98.891 71.51C98.891 74.1399 99.1635 76.288 99.7646 77.8911L101.637 77.1889C101.158 75.912 100.891 74.0401 100.891 71.51H98.891ZM99.7839 77.9387C100.465 79.5061 101.518 80.6866 102.954 81.4044L103.848 79.6156C102.884 79.1334 102.137 78.3339 101.618 77.1413L99.7839 77.9387ZM102.991 81.4219C104.352 82.0344 106.172 82.3755 108.386 82.4985L108.496 80.5015C106.39 80.3845 104.85 80.0656 103.811 79.5981L102.991 81.4219ZM107.498 81.8328C107.799 82.6854 107.981 84.1336 107.981 86.27H109.981C109.981 84.0864 109.803 82.3546 109.384 81.1672L107.498 81.8328ZM109.042 85.2719C106.071 85.0899 101.696 85 95.931 85V87C101.686 87 106.011 87.0901 108.92 87.2681L109.042 85.2719ZM95.931 85C89.5692 85 84.9517 85.0898 82.0973 85.272L82.2247 87.268C85.0103 87.0902 89.5727 87 95.931 87V85ZM83.161 86.27C83.161 84.0593 83.3144 82.6018 83.5655 81.7983L81.6565 81.2017C81.3076 82.3182 81.161 84.0407 81.161 86.27H83.161ZM82.6822 82.4975C84.4166 82.3736 85.8539 82.0587 86.8871 81.4682L85.8948 79.7318C85.2481 80.1013 84.1653 80.3864 82.5397 80.5025L82.6822 82.4975ZM86.8616 81.4824C88.0318 80.8582 88.8103 79.8145 89.2346 78.4711L87.3274 77.8689C87.0316 78.8055 86.5501 79.3818 85.9204 79.7176L86.8616 81.4824ZM89.2346 78.4711C89.6418 77.1815 89.821 75.3472 89.821 73.04H87.821C87.821 75.2928 87.6402 76.8785 87.3274 77.8689L89.2346 78.4711ZM89.821 73.04V38.03H87.821V73.04H89.821ZM89.821 38.03C89.821 35.7795 89.6413 33.9768 89.2346 32.6889L87.3274 33.2911C87.6407 34.2832 87.821 35.8405 87.821 38.03H89.821ZM89.2346 32.6889C88.8175 31.3683 88.084 30.3243 86.9771 29.6918L85.9848 31.4282C86.5579 31.7557 87.0244 32.3318 87.3274 33.2911L89.2346 32.6889ZM86.9771 29.6918C85.9439 29.1013 84.5066 28.7864 82.7722 28.6625L82.6297 30.6575C84.2553 30.7736 85.3381 31.0587 85.9848 31.4282L86.9771 29.6918ZM83.6625 29.3853C83.3369 28.2456 83.161 26.756 83.161 24.89H81.161C81.161 26.864 81.3451 28.5544 81.7395 29.9347L83.6625 29.3853ZM82.1065 25.8885C85.432 26.0699 89.7421 26.16 95.031 26.16V24.16C89.7598 24.16 85.4899 24.0701 82.2154 23.8915L82.1065 25.8885ZM95.0427 26.1599L102.693 26.0699L102.669 24.0701L95.0192 24.1601L95.0427 26.1599ZM102.719 26.0693C104.263 26.0099 106.109 25.98 108.261 25.98V23.98C106.093 23.98 104.219 24.0101 102.643 24.0707L102.719 26.0693ZM108.261 25.98C115.648 25.98 120.762 27.6103 123.85 30.6434L125.252 29.2165C121.62 25.6497 115.874 23.98 108.261 23.98V25.98ZM123.863 30.656C127.056 33.6811 128.681 37.6943 128.681 42.8H130.681C130.681 37.2257 128.886 32.6589 125.239 29.204L123.863 30.656ZM128.681 42.8C128.681 46.4942 127.903 49.9126 126.353 53.0693L128.149 53.9507C129.839 50.5074 130.681 46.7858 130.681 42.8H128.681ZM126.357 53.0628C124.822 56.1319 122.551 58.6052 119.522 60.4911L120.58 62.1889C123.911 60.1148 126.44 57.3681 128.145 53.9572L126.357 53.0628ZM119.534 60.4839C116.538 62.2928 112.915 63.22 108.621 63.22V65.22C113.207 65.22 117.204 64.2272 120.568 62.1961L119.534 60.4839ZM108.621 63.22C106.18 63.22 104.214 62.8992 102.687 62.2992L101.955 64.1608C103.788 64.8808 106.022 65.22 108.621 65.22V63.22ZM103.307 63.0656C103.191 62.3665 103.141 61.8591 103.141 61.52H101.141C101.141 62.0209 101.211 62.6535 101.335 63.3944L103.307 63.0656ZM103.141 61.52C103.141 60.6885 103.296 59.8844 103.609 59.1014L101.753 58.3586C101.346 59.3756 101.141 60.4315 101.141 61.52H103.141ZM102.399 59.6894C103.545 60.0265 104.97 60.18 106.641 60.18V58.18C105.072 58.18 103.857 58.0335 102.963 57.7706L102.399 59.6894ZM195.858 78.17L194.905 78.4711L194.905 78.4711L195.858 78.17ZM197.658 80.6L197.162 81.4682L197.162 81.4682L197.658 80.6ZM201.438 81.5L202.392 81.1989L202.187 80.551L201.51 80.5025L201.438 81.5ZM201.978 86.27L201.924 87.2685L202.978 87.326V86.27H201.978ZM177.498 86.27H176.498V87.324L177.551 87.2686L177.498 86.27ZM178.128 81.5L178.057 80.5025L177.372 80.5515L177.172 81.2088L178.128 81.5ZM181.908 80.6L182.405 81.4682L182.405 81.4682L181.908 80.6ZM183.618 78.17L182.665 77.8689L182.658 77.892L182.651 77.9155L183.618 78.17ZM184.158 57.11H185.158V56.11H184.158V57.11ZM159.498 57.74L159.397 56.7451L158.498 56.8363V57.74H159.498ZM160.038 78.17L160.992 77.8689L160.992 77.8689L160.038 78.17ZM161.838 80.6L162.335 79.7318L162.335 79.7318L161.838 80.6ZM165.618 81.5L166.555 81.1489L166.329 80.5482L165.69 80.5025L165.618 81.5ZM166.158 86.27L166.104 87.2685L167.158 87.326V86.27H166.158ZM141.768 86.27H140.768V87.325L141.822 87.2686L141.768 86.27ZM142.308 81.5L142.237 80.5025L141.559 80.551L141.355 81.1989L142.308 81.5ZM146.088 80.6L146.585 81.4682L146.585 81.4682L146.088 80.6ZM147.888 78.17L146.935 77.8689L146.935 77.8689L147.888 78.17ZM147.888 32.99L146.935 33.2911L146.935 33.2911L147.888 32.99ZM146.088 30.56L146.585 29.6918L146.585 29.6918L146.088 30.56ZM142.308 29.66L141.347 29.9347L141.539 30.6076L142.237 30.6575L142.308 29.66ZM141.768 24.89L141.824 23.8915L140.768 23.8329V24.89H141.768ZM166.158 24.89H167.158V23.8387L166.108 23.8912L166.158 24.89ZM166.068 27.5L167.066 27.5713L167.066 27.5712L166.068 27.5ZM165.618 29.66L165.69 30.6575L166.314 30.6128L166.547 30.0314L165.618 29.66ZM161.838 30.56L162.335 31.4282L162.335 31.4282L161.838 30.56ZM160.038 32.99L160.992 33.2911L160.992 33.2911L160.038 32.99ZM159.498 52.34H158.498V53.34H159.498V52.34ZM184.158 52.34V53.34H185.158V52.34H184.158ZM183.618 32.99L182.651 33.2445L182.658 33.268L182.665 33.2911L183.618 32.99ZM178.128 29.66L177.185 29.9904L177.402 30.6106L178.057 30.6575L178.128 29.66ZM177.498 24.89L177.554 23.8915L176.498 23.8329V24.89H177.498ZM201.978 24.89H202.978V23.8387L201.928 23.8912L201.978 24.89ZM201.438 29.66L201.51 30.6575L202.176 30.6099L202.387 29.9762L201.438 29.66ZM195.858 32.99L194.905 32.6889L194.905 32.6889L195.858 32.99ZM194.318 73.04C194.318 75.3472 194.498 77.1815 194.905 78.4711L196.812 77.8689C196.499 76.8785 196.318 75.2928 196.318 73.04H194.318ZM194.905 78.4711C195.322 79.7918 196.055 80.8357 197.162 81.4682L198.155 79.7318C197.581 79.4043 197.115 78.8282 196.812 77.8689L194.905 78.4711ZM197.162 81.4682C198.196 82.0587 199.633 82.3736 201.367 82.4975L201.51 80.5025C199.884 80.3864 198.801 80.1013 198.155 79.7318L197.162 81.4682ZM200.485 81.8011C200.8 82.7987 200.978 84.2708 200.978 86.27H202.978C202.978 84.1892 202.797 82.4813 202.392 81.1989L200.485 81.8011ZM202.033 85.2715C198.709 85.0902 194.73 85 190.098 85V87C194.707 87 198.648 87.0898 201.924 87.2685L202.033 85.2715ZM190.098 85C185.108 85 180.889 85.0902 177.446 85.2714L177.551 87.2686C180.948 87.0898 185.129 87 190.098 87V85ZM178.498 86.27C178.498 84.5453 178.7 83.0568 179.085 81.7912L177.172 81.2088C176.717 82.7032 176.498 84.3947 176.498 86.27H178.498ZM178.2 82.4975C179.934 82.3736 181.371 82.0587 182.405 81.4682L181.412 79.7318C180.766 80.1013 179.683 80.3864 178.057 80.5025L178.2 82.4975ZM182.405 81.4682C183.527 80.827 184.233 79.7634 184.585 78.4245L182.651 77.9155C182.404 78.8566 181.97 79.413 181.412 79.7318L182.405 81.4682ZM184.572 78.4711C184.979 77.1815 185.158 75.3472 185.158 73.04H183.158C183.158 75.2928 182.978 76.8785 182.665 77.8689L184.572 78.4711ZM185.158 73.04V57.11H183.158V73.04H185.158ZM184.158 56.11C171.866 56.11 163.596 56.3192 159.397 56.7451L159.599 58.7349C163.681 58.3208 171.85 58.11 184.158 58.11V56.11ZM158.498 57.74V73.04H160.498V57.74H158.498ZM158.498 73.04C158.498 75.3472 158.678 77.1815 159.085 78.4711L160.992 77.8689C160.679 76.8785 160.498 75.2928 160.498 73.04H158.498ZM159.085 78.4711C159.502 79.7918 160.235 80.8357 161.342 81.4682L162.335 79.7318C161.761 79.4043 161.295 78.8282 160.992 77.8689L159.085 78.4711ZM161.342 81.4682C162.376 82.0587 163.813 82.3736 165.547 82.4975L165.69 80.5025C164.064 80.3864 162.981 80.1013 162.335 79.7318L161.342 81.4682ZM164.682 81.8511C164.974 82.6299 165.158 84.0631 165.158 86.27H167.158C167.158 84.0369 166.983 82.2901 166.555 81.1489L164.682 81.8511ZM166.213 85.2715C162.889 85.0902 158.94 85 154.368 85V87C158.916 87 162.827 87.0898 166.104 87.2685L166.213 85.2715ZM154.368 85C149.318 85 145.099 85.0901 141.715 85.2714L141.822 87.2686C145.158 87.0899 149.338 87 154.368 87V85ZM142.768 86.27C142.768 84.2708 142.947 82.7987 143.262 81.8011L141.355 81.1989C140.95 82.4813 140.768 84.1892 140.768 86.27H142.768ZM142.38 82.4975C144.114 82.3736 145.551 82.0587 146.585 81.4682L145.592 79.7318C144.946 80.1013 143.863 80.3864 142.237 80.5025L142.38 82.4975ZM146.585 81.4682C147.691 80.8357 148.425 79.7917 148.842 78.4711L146.935 77.8689C146.632 78.8282 146.165 79.4043 145.592 79.7318L146.585 81.4682ZM148.842 78.4711C149.249 77.1815 149.428 75.3472 149.428 73.04H147.428C147.428 75.2928 147.248 76.8785 146.935 77.8689L148.842 78.4711ZM149.428 73.04V38.03H147.428V73.04H149.428ZM149.428 38.03C149.428 35.7795 149.249 33.9768 148.842 32.6889L146.935 33.2911C147.248 34.2832 147.428 35.8405 147.428 38.03H149.428ZM148.842 32.6889C148.425 31.3683 147.691 30.3243 146.585 29.6918L145.592 31.4282C146.165 31.7557 146.632 32.3318 146.935 33.2911L148.842 32.6889ZM146.585 29.6918C145.551 29.1013 144.114 28.7864 142.38 28.6625L142.237 30.6575C143.863 30.7736 144.946 31.0587 145.592 31.4282L146.585 29.6918ZM143.27 29.3853C142.944 28.2456 142.768 26.756 142.768 24.89H140.768C140.768 26.864 140.952 28.5544 141.347 29.9347L143.27 29.3853ZM141.713 25.8885C144.978 26.0699 149.109 26.16 154.098 26.16V24.16C149.128 24.16 145.038 24.0701 141.824 23.8915L141.713 25.8885ZM154.098 26.16C158.551 26.16 162.588 26.0697 166.208 25.8888L166.108 23.8912C162.528 24.0703 158.525 24.16 154.098 24.16V26.16ZM165.158 24.89C165.158 25.7678 165.129 26.614 165.071 27.4288L167.066 27.5712C167.128 26.706 167.158 25.8122 167.158 24.89H165.158ZM165.071 27.4288C165.016 28.1952 164.882 28.8085 164.69 29.2886L166.547 30.0314C166.835 29.3115 167.001 28.4848 167.066 27.5713L165.071 27.4288ZM165.547 28.6625C163.813 28.7864 162.376 29.1013 161.342 29.6918L162.335 31.4282C162.981 31.0587 164.064 30.7736 165.69 30.6575L165.547 28.6625ZM161.342 29.6918C160.235 30.3243 159.502 31.3683 159.085 32.6889L160.992 33.2911C161.295 32.3318 161.761 31.7557 162.335 31.4282L161.342 29.6918ZM159.085 32.6889C158.678 33.9768 158.498 35.7795 158.498 38.03H160.498C160.498 35.8405 160.679 34.2832 160.992 33.2911L159.085 32.6889ZM158.498 38.03V52.34H160.498V38.03H158.498ZM159.498 53.34H184.158V51.34H159.498V53.34ZM185.158 52.34V38.03H183.158V52.34H185.158ZM185.158 38.03C185.158 35.7795 184.979 33.9768 184.572 32.6889L182.665 33.2911C182.978 34.2832 183.158 35.8405 183.158 38.03H185.158ZM184.585 32.7355C184.233 31.3966 183.527 30.333 182.405 29.6918L181.412 31.4282C181.97 31.747 182.404 32.3034 182.651 33.2445L184.585 32.7355ZM182.405 29.6918C181.371 29.1013 179.934 28.7864 178.2 28.6625L178.057 30.6575C179.683 30.7736 180.766 31.0587 181.412 31.4282L182.405 29.6918ZM179.072 29.3297C178.704 28.2779 178.498 26.813 178.498 24.89H176.498C176.498 26.927 176.713 28.6421 177.185 29.9904L179.072 29.3297ZM177.443 25.8885C180.709 26.0699 184.869 26.16 189.918 26.16V24.16C184.888 24.16 180.768 24.0701 177.554 23.8915L177.443 25.8885ZM189.918 26.16C194.371 26.16 198.408 26.0697 202.028 25.8888L201.928 23.8912C198.348 24.0703 194.345 24.16 189.918 24.16V26.16ZM200.978 24.89C200.978 26.9572 200.798 28.4183 200.49 29.3438L202.387 29.9762C202.799 28.7417 202.978 27.0228 202.978 24.89H200.978ZM201.367 28.6625C199.633 28.7864 198.196 29.1013 197.162 29.6918L198.155 31.4282C198.801 31.0587 199.884 30.7736 201.51 30.6575L201.367 28.6625ZM197.162 29.6918C196.055 30.3243 195.322 31.3683 194.905 32.6889L196.812 33.2911C197.115 32.3318 197.581 31.7557 198.155 31.4282L197.162 29.6918ZM194.905 32.6889C194.498 33.9768 194.318 35.7795 194.318 38.03H196.318C196.318 35.8405 196.499 34.2832 196.812 33.2911L194.905 32.6889ZM194.318 38.03V73.04H196.318V38.03H194.318ZM228.223 82.76L227.708 83.6175L227.713 83.6205L228.223 82.76ZM217.693 71.6L216.803 72.0561L216.806 72.0628L216.81 72.0694L217.693 71.6ZM217.873 39.2L217.002 38.7087L216.997 38.7172L217.873 39.2ZM228.673 28.31L229.165 29.1804L229.174 29.1754L228.673 28.31ZM259.633 28.22L259.14 29.0904L259.145 29.0931L259.633 28.22ZM270.343 39.02L269.465 39.4989L269.469 39.5076L270.343 39.02ZM270.343 71.33L269.459 70.8611L269.457 70.8652L270.343 71.33ZM259.723 82.67L259.205 81.8145L259.205 81.8145L259.723 82.67ZM254.593 78.53L255.233 79.2982L255.233 79.2982L254.593 78.53ZM260.353 69.89L259.415 69.5422L259.412 69.5507L260.353 69.89ZM259.813 43.16L258.882 43.5269L258.887 43.5381L259.813 43.16ZM252.703 33.08L252.067 33.852L252.076 33.8594L252.703 33.08ZM233.803 32.27L234.409 33.0654L234.415 33.0609L234.42 33.0563L233.803 32.27ZM227.863 40.55L226.934 40.1786L226.931 40.1853L226.929 40.1921L227.863 40.55ZM228.133 67.28L227.19 67.6155L227.192 67.6196L228.133 67.28ZM234.973 77.72L235.633 76.9693L235.633 76.9693L234.973 77.72ZM244.063 85.81C238.218 85.81 233.118 84.4966 228.732 81.8995L227.713 83.6205C232.447 86.4234 237.907 87.81 244.063 87.81V85.81ZM228.737 81.9025C224.397 79.2982 221.012 75.714 218.576 71.1306L216.81 72.0694C219.413 76.966 223.049 80.8218 227.708 83.6175L228.737 81.9025ZM218.582 71.1439C216.203 66.5003 215.003 61.2595 215.003 55.4H213.003C213.003 61.5405 214.262 67.0997 216.803 72.0561L218.582 71.1439ZM215.003 55.4C215.003 49.424 216.261 44.1946 218.748 39.6828L216.997 38.7172C214.324 43.5654 213.003 49.136 213.003 55.4H215.003ZM218.744 39.6913C221.297 35.1655 224.767 31.6684 229.165 29.1804L228.18 27.4397C223.458 30.1116 219.729 33.8745 217.002 38.7087L218.744 39.6913ZM229.174 29.1754C233.569 26.6307 238.524 25.35 244.063 25.35V23.35C238.201 23.35 232.896 24.7093 228.172 27.4446L229.174 29.1754ZM244.063 25.35C249.73 25.35 254.746 26.6045 259.14 29.0903L260.125 27.3496C255.399 24.6755 250.036 23.35 244.063 23.35V25.35ZM259.145 29.0931C263.601 31.5817 267.035 35.0454 269.465 39.4989L271.22 38.5411C268.61 33.7546 264.904 30.0183 260.12 27.3469L259.145 29.0931ZM269.469 39.5076C271.955 43.9581 273.213 49.1256 273.213 55.04H275.213C275.213 48.8344 273.89 43.3219 271.216 38.5324L269.469 39.5076ZM273.213 55.04C273.213 60.8916 271.956 66.1583 269.459 70.8611L271.226 71.7989C273.889 66.7817 275.213 61.1884 275.213 55.04H273.213ZM269.457 70.8652C267.02 75.5068 263.606 79.1505 259.205 81.8145L260.24 83.5255C264.959 80.6695 268.625 76.7532 271.228 71.7948L269.457 70.8652ZM259.205 81.8145C254.817 84.4704 249.779 85.81 244.063 85.81V87.81C250.106 87.81 255.508 86.3896 260.24 83.5255L259.205 81.8145ZM245.683 82.68C249.326 82.68 252.525 81.5548 255.233 79.2982L253.952 77.7618C251.62 79.7052 248.879 80.68 245.683 80.68V82.68ZM255.233 79.2982C257.913 77.0649 259.924 74.0251 261.293 70.2293L259.412 69.5507C258.141 73.0749 256.312 75.7951 253.952 77.7618L255.233 79.2982ZM261.29 70.2378C262.718 66.3885 263.423 62.0679 263.423 57.29H261.423C261.423 61.8721 260.747 65.9515 259.415 69.5422L261.29 70.2378ZM263.423 57.29C263.423 52.016 262.533 47.1756 260.738 42.7819L258.887 43.5381C260.572 47.6644 261.423 52.244 261.423 57.29H263.423ZM260.743 42.7931C259.01 38.3987 256.545 34.8863 253.329 32.3006L252.076 33.8594C254.98 36.1937 257.255 39.4013 258.882 43.5269L260.743 42.7931ZM253.338 32.3081C250.105 29.6458 246.432 28.3 242.353 28.3V30.3C245.953 30.3 249.18 31.4742 252.067 33.8519L253.338 32.3081ZM242.353 28.3C238.947 28.3 235.879 29.3664 233.185 31.4837L234.42 33.0563C236.766 31.2136 239.398 30.3 242.353 30.3V28.3ZM233.196 31.4746C230.504 33.5263 228.426 36.4482 226.934 40.1786L228.791 40.9214C230.179 37.4518 232.061 34.8537 234.409 33.0654L233.196 31.4746ZM226.929 40.1921C225.496 43.9292 224.793 48.2248 224.793 53.06H226.793C226.793 48.4152 227.469 44.3708 228.796 40.9079L226.929 40.1921ZM224.793 53.06C224.793 58.2633 225.589 63.1179 227.191 67.6155L229.075 66.9445C227.556 62.6821 226.793 58.0567 226.793 53.06H224.793ZM227.192 67.6196C228.801 72.0742 231.168 75.7038 234.312 78.4707L235.633 76.9693C232.777 74.4562 230.585 71.1258 229.073 66.9404L227.192 67.6196ZM234.312 78.4707C237.502 81.2776 241.309 82.68 245.683 82.68V80.68C241.776 80.68 238.444 79.4424 235.633 76.9693L234.312 78.4707ZM333.571 24.89L334.57 24.9322L334.616 23.8391L333.523 23.8911L333.571 24.89ZM334.561 40.01L334.955 40.9291L335.66 40.6268L335.551 39.8672L334.561 40.01ZM328.711 41L327.714 41.0791L327.785 41.9753L328.684 41.9996L328.711 41ZM325.831 32.63L325.075 33.2849L325.081 33.292L325.088 33.299L325.831 32.63ZM314.581 29.93V28.93H313.581V29.93H314.581ZM315.121 78.17L314.167 78.4711L314.175 78.4936L314.183 78.5157L315.121 78.17ZM317.281 80.6L316.855 81.5048L316.855 81.5048L317.281 80.6ZM322.051 81.5L322.983 81.1376L322.75 80.5373L322.107 80.5015L322.051 81.5ZM322.681 86.27L322.633 87.2689L323.681 87.3188V86.27H322.681ZM294.961 86.27H293.961V87.3221L295.012 87.2687L294.961 86.27ZM295.591 81.5L295.536 80.5015L294.892 80.5373L294.659 81.1376L295.591 81.5ZM300.451 80.6L300.857 81.5138L300.857 81.5138L300.451 80.6ZM302.701 78.17L301.779 77.7819L301.771 77.8029L301.763 77.8243L302.701 78.17ZM303.421 29.93H304.421V28.93H303.421V29.93ZM293.971 31.19L293.482 30.3175L293.475 30.3218L293.467 30.3262L293.971 31.19ZM290.731 34.79L291.633 35.2227L291.636 35.2159L291.639 35.2091L290.731 34.79ZM288.751 41V42H289.549L289.726 41.2216L288.751 41ZM283.081 40.1L282.1 39.9078L281.953 40.6543L282.634 40.9944L283.081 40.1ZM284.791 24.89L284.839 23.8911L283.791 23.8412V24.89H284.791ZM332.572 24.8478C332.389 29.1879 332.726 34.2928 333.571 40.1529L335.551 39.8672C334.717 34.0872 334.394 29.1121 334.57 24.9322L332.572 24.8478ZM334.167 39.0909C332.645 39.743 330.844 40.0573 328.738 40.0004L328.684 41.9996C331.018 42.0627 333.117 41.717 334.955 40.9291L334.167 39.0909ZM329.708 40.9209C329.4 37.0379 328.404 33.9938 326.574 31.961L325.088 33.299C326.498 34.8661 327.422 37.4021 327.714 41.0791L329.708 40.9209ZM326.587 31.9751C324.772 29.881 322.015 28.93 318.541 28.93V30.93C321.668 30.93 323.77 31.779 325.075 33.2849L326.587 31.9751ZM318.541 28.93H314.581V30.93H318.541V28.93ZM313.581 29.93V73.04H315.581V29.93H313.581ZM313.581 73.04C313.581 75.3472 313.76 77.1815 314.167 78.4711L316.075 77.8689C315.762 76.8785 315.581 75.2928 315.581 73.04H313.581ZM314.183 78.5157C314.686 79.881 315.578 80.9038 316.855 81.5048L317.707 79.6952C316.944 79.3362 316.396 78.739 316.059 77.8243L314.183 78.5157ZM316.855 81.5048C318.055 82.0693 319.803 82.3767 321.996 82.4985L322.107 80.5015C319.979 80.3833 318.547 80.0907 317.707 79.6952L316.855 81.5048ZM321.119 81.8624C321.471 82.7684 321.681 84.21 321.681 86.27H323.681C323.681 84.13 323.471 82.3916 322.983 81.1376L321.119 81.8624ZM322.729 85.2711C318.928 85.0902 314.442 85 309.271 85V87C314.42 87 318.874 87.0898 322.633 87.2689L322.729 85.2711ZM309.271 85C303.264 85 298.475 85.09 294.91 85.2713L295.012 87.2687C298.527 87.09 303.278 87 309.271 87V85ZM295.961 86.27C295.961 84.21 296.171 82.7684 296.523 81.8624L294.659 81.1376C294.171 82.3916 293.961 84.13 293.961 86.27H295.961ZM295.647 82.4985C297.844 82.3764 299.61 82.0683 300.857 81.5138L300.045 79.6862C299.133 80.0917 297.658 80.3836 295.536 80.5015L295.647 82.4985ZM300.857 81.5138C302.192 80.9207 303.129 79.9012 303.639 78.5157L301.763 77.8243C301.433 78.7188 300.87 79.3193 300.045 79.6862L300.857 81.5138ZM303.623 78.5581C304.181 77.2314 304.421 75.3599 304.421 73.04H302.421C302.421 75.2801 302.181 76.8286 301.779 77.7819L303.623 78.5581ZM304.421 73.04V29.93H302.421V73.04H304.421ZM303.421 28.93H300.091V30.93H303.421V28.93ZM300.091 28.93C297.419 28.93 295.188 29.3623 293.482 30.3175L294.46 32.0625C295.754 31.3377 297.603 30.93 300.091 30.93V28.93ZM293.467 30.3262C291.844 31.2728 290.626 32.6309 289.823 34.3709L291.639 35.2091C292.276 33.8291 293.218 32.7871 294.475 32.0538L293.467 30.3262ZM289.83 34.3573C289.063 35.9533 288.384 38.1048 287.776 40.7784L289.726 41.2216C290.319 38.6152 290.959 36.6267 291.633 35.2227L289.83 34.3573ZM288.751 40C286.208 40 284.513 39.6978 283.528 39.2056L282.634 40.9944C284.049 41.7022 286.134 42 288.751 42V40ZM284.062 40.2922C285.211 34.4305 285.791 29.2933 285.791 24.89H283.791C283.791 29.1267 283.232 34.1295 282.1 39.9078L284.062 40.2922ZM284.743 25.8889C288.552 26.0702 296.707 26.16 309.181 26.16V24.16C296.695 24.16 288.59 24.0698 284.839 23.8911L284.743 25.8889ZM309.181 26.16C321.655 26.16 329.81 26.0702 333.619 25.8889L333.523 23.8911C329.772 24.0698 321.667 24.16 309.181 24.16V26.16ZM357.633 82.76L357.118 83.6175L357.123 83.6205L357.633 82.76ZM347.103 71.6L346.213 72.0561L346.216 72.0628L346.22 72.0694L347.103 71.6ZM347.283 39.2L346.412 38.7087L346.407 38.7172L347.283 39.2ZM358.083 28.31L358.575 29.1804L358.584 29.1754L358.083 28.31ZM389.043 28.22L388.55 29.0904L388.555 29.0931L389.043 28.22ZM399.753 39.02L398.875 39.4989L398.88 39.5076L399.753 39.02ZM399.753 71.33L398.869 70.8611L398.867 70.8652L399.753 71.33ZM389.133 82.67L388.615 81.8145L388.615 81.8145L389.133 82.67ZM384.003 78.53L384.643 79.2982L384.643 79.2982L384.003 78.53ZM389.763 69.89L388.825 69.5422L388.822 69.5507L389.763 69.89ZM389.223 43.16L388.292 43.5269L388.297 43.5381L389.223 43.16ZM382.113 33.08L381.477 33.852L381.486 33.8594L382.113 33.08ZM363.213 32.27L363.819 33.0654L363.825 33.0609L363.831 33.0563L363.213 32.27ZM357.273 40.55L356.344 40.1786L356.342 40.1853L356.339 40.1921L357.273 40.55ZM357.543 67.28L356.601 67.6155L356.602 67.6196L357.543 67.28ZM364.383 77.72L365.043 76.9693L365.043 76.9693L364.383 77.72ZM373.473 85.81C367.628 85.81 362.528 84.4966 358.142 81.8995L357.123 83.6205C361.857 86.4234 367.318 87.81 373.473 87.81V85.81ZM358.147 81.9025C353.807 79.2982 350.422 75.714 347.986 71.1306L346.22 72.0694C348.823 76.966 352.459 80.8218 357.118 83.6175L358.147 81.9025ZM347.993 71.1439C345.613 66.5003 344.413 61.2595 344.413 55.4H342.413C342.413 61.5405 343.673 67.0997 346.213 72.0561L347.993 71.1439ZM344.413 55.4C344.413 49.424 345.671 44.1946 348.158 39.6828L346.407 38.7172C343.734 43.5654 342.413 49.136 342.413 55.4H344.413ZM348.154 39.6913C350.707 35.1655 354.178 31.6684 358.575 29.1804L357.59 27.4397C352.868 30.1116 349.139 33.8745 346.412 38.7087L348.154 39.6913ZM358.584 29.1754C362.979 26.6307 367.934 25.35 373.473 25.35V23.35C367.612 23.35 362.306 24.7093 357.582 27.4446L358.584 29.1754ZM373.473 25.35C379.14 25.35 384.157 26.6045 388.55 29.0903L389.535 27.3496C384.809 24.6755 379.446 23.35 373.473 23.35V25.35ZM388.555 29.0931C393.011 31.5817 396.446 35.0454 398.875 39.4989L400.631 38.5411C398.02 33.7546 394.314 30.0183 389.53 27.3469L388.555 29.0931ZM398.88 39.5076C401.365 43.9581 402.623 49.1256 402.623 55.04H404.623C404.623 48.8344 403.3 43.3219 400.626 38.5324L398.88 39.5076ZM402.623 55.04C402.623 60.8916 401.366 66.1583 398.869 70.8611L400.636 71.7989C403.299 66.7817 404.623 61.1884 404.623 55.04H402.623ZM398.867 70.8652C396.43 75.5068 393.016 79.1505 388.615 81.8145L389.65 83.5255C394.369 80.6695 398.035 76.7532 400.638 71.7948L398.867 70.8652ZM388.615 81.8145C384.227 84.4704 379.19 85.81 373.473 85.81V87.81C379.516 87.81 384.919 86.3896 389.65 83.5255L388.615 81.8145ZM375.093 82.68C378.736 82.68 381.935 81.5548 384.643 79.2982L383.363 77.7618C381.03 79.7052 378.29 80.68 375.093 80.68V82.68ZM384.643 79.2982C387.323 77.0649 389.334 74.0251 390.703 70.2293L388.822 69.5507C387.551 73.0749 385.723 75.7951 383.363 77.7618L384.643 79.2982ZM390.7 70.2378C392.128 66.3885 392.833 62.0679 392.833 57.29H390.833C390.833 61.8721 390.157 65.9515 388.825 69.5422L390.7 70.2378ZM392.833 57.29C392.833 52.016 391.943 47.1756 390.148 42.7819L388.297 43.5381C389.982 47.6644 390.833 52.244 390.833 57.29H392.833ZM390.153 42.7931C388.42 38.3987 385.956 34.8863 382.739 32.3006L381.486 33.8594C384.39 36.1937 386.665 39.4013 388.292 43.5269L390.153 42.7931ZM382.748 32.3081C379.516 29.6458 375.843 28.3 371.763 28.3V30.3C375.363 30.3 378.59 31.4742 381.477 33.8519L382.748 32.3081ZM371.763 28.3C368.357 28.3 365.29 29.3664 362.595 31.4837L363.831 33.0563C366.176 31.2136 368.809 30.3 371.763 30.3V28.3ZM362.607 31.4746C359.914 33.5263 357.836 36.4482 356.344 40.1786L358.201 40.9214C359.589 37.4518 361.472 34.8537 363.819 33.0654L362.607 31.4746ZM356.339 40.1921C354.906 43.9292 354.203 48.2248 354.203 53.06H356.203C356.203 48.4152 356.879 44.3708 358.206 40.9079L356.339 40.1921ZM354.203 53.06C354.203 58.2633 354.999 63.1179 356.601 67.6155L358.485 66.9445C356.967 62.6821 356.203 58.0567 356.203 53.06H354.203ZM356.602 67.6196C358.211 72.0742 360.578 75.7038 363.722 78.4707L365.043 76.9693C362.188 74.4562 359.995 71.1258 358.483 66.9404L356.602 67.6196ZM363.722 78.4707C366.912 81.2776 370.719 82.68 375.093 82.68V80.68C371.186 80.68 367.854 79.4424 365.043 76.9693L363.722 78.4707ZM428.756 82.94L428.255 83.8055L428.263 83.8103L428.756 82.94ZM418.136 71.78L417.246 72.2361L417.251 72.2448L418.136 71.78ZM418.676 38.39L417.827 37.861L417.825 37.864L418.676 38.39ZM430.106 27.95L430.549 28.8467L430.553 28.8444L430.106 27.95ZM457.556 25.52L457.351 26.4987L457.354 26.4994L457.556 25.52ZM467.456 28.67L468.438 28.8595L468.585 28.0946L467.88 27.7643L467.456 28.67ZM466.466 42.62L466.883 43.5291L467.466 43.2617V42.62H466.466ZM460.526 43.61L459.527 43.6534L459.568 44.61H460.526V43.61ZM456.566 32.18L455.897 32.9234L455.907 32.9326L456.566 32.18ZM435.236 32.27L435.82 33.0816L435.831 33.0738L435.236 32.27ZM428.576 41L429.504 41.3714L429.506 41.3661L428.576 41ZM428.666 67.64L427.72 67.964L427.723 67.9718L427.725 67.9796L428.666 67.64ZM435.506 77.9L434.863 78.6658L434.872 78.6733L435.506 77.9ZM450.446 81.41L450.551 82.4045L450.576 82.4018L450.602 82.3978L450.446 81.41ZM453.776 80.51L454.138 81.442L454.138 81.442L453.776 80.51ZM456.026 78.53L455.131 78.0828L455.125 78.0949L455.12 78.1071L456.026 78.53ZM456.206 64.22L457.155 63.9038L457.155 63.9038L456.206 64.22ZM454.226 62.06L453.825 62.9762L453.85 62.9869L453.875 62.9963L454.226 62.06ZM449.366 61.34L448.408 61.6273L448.616 62.3206L449.34 62.3397L449.366 61.34ZM448.826 56.39L448.929 55.3953L447.826 55.2812V56.39H448.826ZM471.416 56.48H472.416V55.4032L471.342 55.4827L471.416 56.48ZM470.876 61.34L470.926 62.3388L471.62 62.304L471.829 61.6411L470.876 61.34ZM468.266 61.97L468.821 62.8021L468.821 62.8021L468.266 61.97ZM467.186 64.13L468.171 64.3038L468.172 64.2944L467.186 64.13ZM467.096 77L466.102 77.1104L466.106 77.1423L466.111 77.1738L467.096 77ZM468.176 79.97L468.762 80.7802L469.485 80.2573L469.047 79.4797L468.176 79.97ZM457.826 84.92L457.531 83.9645L457.527 83.9658L457.826 84.92ZM444.686 85.81C438.771 85.81 433.636 84.5522 429.248 82.0697L428.263 83.8103C432.996 86.4878 438.481 87.81 444.686 87.81V85.81ZM429.257 82.0746C424.865 79.532 421.456 75.9531 419.021 71.3152L417.251 72.2448C419.856 77.2069 423.527 81.068 428.255 83.8054L429.257 82.0746ZM419.026 71.3239C416.651 66.6908 415.446 61.2131 415.446 54.86H413.446C413.446 61.4669 414.7 67.2692 417.246 72.2361L419.026 71.3239ZM415.446 54.86C415.446 48.5888 416.822 43.2892 419.526 38.916L417.825 37.864C414.89 42.6108 413.446 48.2912 413.446 54.86H415.446ZM419.525 38.919C422.309 34.452 425.981 31.1017 430.549 28.8467L429.663 27.0533C424.751 29.4783 420.803 33.088 417.827 37.861L419.525 38.919ZM430.553 28.8444C435.204 26.5189 440.33 25.35 445.946 25.35V23.35C440.042 23.35 434.608 24.5811 429.659 27.0556L430.553 28.8444ZM445.946 25.35C449.901 25.35 453.702 25.7337 457.351 26.4987L457.761 24.5413C453.97 23.7463 450.031 23.35 445.946 23.35V25.35ZM457.354 26.4994C461.075 27.2672 464.297 28.2956 467.032 29.5757L467.88 27.7643C464.975 26.4044 461.597 25.3328 457.758 24.5406L457.354 26.4994ZM466.474 28.4805C465.797 31.991 465.466 36.7134 465.466 42.62H467.466C467.466 36.7666 467.795 32.189 468.438 28.8595L466.474 28.4805ZM466.049 41.7109C464.795 42.286 462.978 42.61 460.526 42.61V44.61C463.114 44.61 465.257 44.274 466.883 43.5291L466.049 41.7109ZM461.525 43.5666C461.281 37.9607 459.938 33.8016 457.224 31.4274L455.907 32.9326C457.994 34.7584 459.291 38.2193 459.527 43.6534L461.525 43.5666ZM457.235 31.4367C454.592 29.0582 450.9 27.94 446.306 27.94V29.94C450.592 29.94 453.74 30.9818 455.897 32.9233L457.235 31.4367ZM446.306 27.94C441.75 27.94 437.842 29.0976 434.641 31.4662L435.831 33.0738C438.63 31.0024 442.102 29.94 446.306 29.94V27.94ZM434.652 31.4585C431.486 33.7379 429.151 36.8072 427.645 40.6339L429.506 41.3661C430.881 37.8728 432.986 35.1221 435.82 33.0815L434.652 31.4585ZM427.647 40.6286C426.155 44.3595 425.416 48.4473 425.416 52.88H427.416C427.416 48.6727 428.117 44.8405 429.504 41.3714L427.647 40.6286ZM425.416 52.88C425.416 58.431 426.178 63.4629 427.72 67.964L429.612 67.316C428.153 63.0571 427.416 58.249 427.416 52.88H425.416ZM427.725 67.9796C429.335 72.4366 431.706 76.0142 434.863 78.6657L436.149 77.1343C433.306 74.7458 431.117 71.4834 429.606 67.3004L427.725 67.9796ZM434.872 78.6733C438.066 81.2924 441.895 82.59 446.306 82.59V80.59C442.317 80.59 438.946 79.4276 436.14 77.1267L434.872 78.6733ZM446.306 82.59C447.948 82.59 449.365 82.5293 450.551 82.4045L450.341 80.4155C449.247 80.5307 447.904 80.59 446.306 80.59V82.59ZM450.602 82.3978C451.813 82.2066 452.992 81.8878 454.138 81.442L453.413 79.578C452.4 79.9722 451.359 80.2534 450.29 80.4222L450.602 82.3978ZM454.138 81.442C455.415 80.9453 456.385 80.1249 456.932 78.9529L455.12 78.1071C454.827 78.7351 454.296 79.2347 453.413 79.578L454.138 81.442ZM456.92 78.9772C457.51 77.7977 457.746 76.0387 457.746 73.85H455.746C455.746 75.9813 455.502 77.3423 455.131 78.0828L456.92 78.9772ZM457.746 73.85V69.71H455.746V73.85H457.746ZM457.746 69.71C457.746 67.1238 457.57 65.1506 457.155 63.9038L455.257 64.5362C455.562 65.4494 455.746 67.1362 455.746 69.71H457.746ZM457.155 63.9038C456.711 62.5734 455.853 61.6022 454.577 61.1237L453.875 62.9963C454.519 63.2378 454.981 63.7066 455.257 64.5362L457.155 63.9038ZM454.627 61.1438C453.475 60.64 451.685 60.4007 449.392 60.3403L449.34 62.3397C451.607 62.3993 453.057 62.64 453.825 62.9762L454.627 61.1438ZM450.324 61.0527C450.004 59.9877 449.826 58.4489 449.826 56.39H447.826C447.826 58.5311 448.008 60.2923 448.408 61.6273L450.324 61.0527ZM448.723 57.3847C450.524 57.571 454.389 57.66 460.256 57.66V55.66C454.363 55.66 450.608 55.569 448.929 55.3953L448.723 57.3847ZM460.256 57.66C466.065 57.66 469.825 57.6006 471.49 57.4773L471.342 55.4827C469.767 55.5994 466.087 55.66 460.256 55.66V57.66ZM470.416 56.48C470.416 58.5427 470.237 60.0432 469.922 61.0389L471.829 61.6411C472.235 60.3568 472.416 58.6173 472.416 56.48H470.416ZM470.826 60.3412C469.576 60.4037 468.482 60.6243 467.711 61.138L468.821 62.8021C469.13 62.5957 469.776 62.3963 470.926 62.3388L470.826 60.3412ZM467.711 61.1379C466.825 61.7287 466.395 62.7909 466.2 63.9656L468.172 64.2944C468.337 63.3091 468.627 62.9313 468.821 62.8021L467.711 61.1379ZM466.201 63.9562C466.004 65.071 465.916 66.8892 465.916 69.35H467.916C467.916 66.8908 468.007 65.229 468.171 64.3038L466.201 63.9562ZM465.916 69.35V72.86H467.916V69.35H465.916ZM465.916 72.86C465.916 74.5593 465.976 75.9797 466.102 77.1104L468.09 76.8896C467.975 75.8603 467.916 74.5207 467.916 72.86H465.916ZM466.111 77.1738C466.312 78.3118 466.713 79.4082 467.304 80.4603L469.047 79.4797C468.559 78.6118 468.24 77.7282 468.081 76.8262L466.111 77.1738ZM467.59 79.1598C464.876 81.1232 461.529 82.7297 457.531 83.9645L458.121 85.8755C462.282 84.5903 465.836 82.8968 468.762 80.7802L467.59 79.1598ZM457.527 83.9658C453.615 85.1919 449.337 85.81 444.686 85.81V87.81C449.515 87.81 453.997 87.1681 458.125 85.8742L457.527 83.9658ZM530.517 73.31L529.648 73.805L529.649 73.8061L530.517 73.31ZM533.577 78.08L532.788 78.6939L532.807 78.7184L532.827 78.7416L533.577 78.08ZM541.227 81.23H542.227V80.2905L541.289 80.2319L541.227 81.23ZM540.687 86V87H541.431L541.645 86.2873L540.687 86ZM524.847 86.81L523.98 87.3079L524.32 87.9003L524.995 87.7989L524.847 86.81ZM520.347 78.35L519.44 78.7705L519.444 78.7791L520.347 78.35ZM518.277 73.85L519.191 73.4439L519.179 73.4166L519.165 73.3901L518.277 73.85ZM513.687 65.84L512.855 66.3947L512.855 66.3947L513.687 65.84ZM508.287 59.54L508.985 58.8235L508.68 58.5268L508.255 58.5405L508.287 59.54ZM505.497 59.63L505.463 60.6294L505.496 60.6306L505.529 60.6295L505.497 59.63ZM502.887 59.54L502.922 58.5406L501.887 58.5049V59.54H502.887ZM503.337 78.17L502.367 78.4125L502.373 78.4351L502.379 78.4573L503.337 78.17ZM505.047 80.69L505.571 79.8383L505.571 79.8383L505.047 80.69ZM508.467 81.5L509.422 81.2017L509.211 80.529L508.507 80.5008L508.467 81.5ZM508.917 86.27L508.846 87.2675L509.917 87.344V86.27H508.917ZM485.157 86.27H484.157V87.3306L485.216 87.2683L485.157 86.27ZM485.697 81.5L485.626 80.5025L484.96 80.5501L484.748 81.1838L485.697 81.5ZM489.477 80.6L489.973 81.4682L489.973 81.4682L489.477 80.6ZM491.277 78.17L490.323 77.8689L490.323 77.8689L491.277 78.17ZM491.277 32.9L490.319 33.1873L490.321 33.1943L490.323 33.2011L491.277 32.9ZM489.387 30.38L488.891 31.2482L488.904 31.2555L488.916 31.2624L489.387 30.38ZM485.607 29.57L484.64 29.8245L484.829 30.5429L485.571 30.5694L485.607 29.57ZM485.157 24.89L485.238 23.8933L484.157 23.8056V24.89H485.157ZM497.217 25.16V26.1601L497.23 26.1599L497.217 25.16ZM504.327 25.07L504.34 26.0699L504.349 26.0698L504.358 26.0695L504.327 25.07ZM528.447 29.3L527.795 30.0583L527.802 30.0644L527.81 30.0704L528.447 29.3ZM529.707 51.44L528.963 50.7718L528.955 50.7804L529.707 51.44ZM519.087 57.56L518.841 56.5906L516.972 57.0642L518.436 58.3193L519.087 57.56ZM524.307 63.23L523.487 63.8018L523.492 63.81L523.498 63.8182L524.307 63.23ZM502.887 54.5H501.887V55.3828L502.763 55.4923L502.887 54.5ZM517.647 51.53L518.247 52.33L518.25 52.328L517.647 51.53ZM518.727 32.9L518.02 33.6071L518.03 33.6169L518.04 33.6265L518.727 32.9ZM502.887 30.38L502.658 29.4066L501.887 29.588V30.38H502.887ZM529.649 73.8061C530.857 75.9212 531.905 77.5587 532.788 78.6939L534.366 77.4661C533.569 76.4413 532.577 74.8988 531.385 72.8139L529.649 73.8061ZM532.827 78.7416C533.817 79.863 534.957 80.7076 536.249 81.2516L537.025 79.4084C536.037 78.9924 535.137 78.337 534.327 77.4184L532.827 78.7416ZM536.249 81.2516C537.533 81.7924 539.188 82.1045 541.165 82.2281L541.289 80.2319C539.426 80.1155 538.021 79.8276 537.025 79.4084L536.249 81.2516ZM540.227 81.23C540.227 83.1621 540.05 84.6437 539.729 85.7127L541.645 86.2873C542.044 84.9563 542.227 83.2579 542.227 81.23H540.227ZM540.687 85C533.714 85 528.374 85.2698 524.699 85.8211L524.995 87.7989C528.52 87.2702 533.741 87 540.687 87V85ZM525.714 86.3121C523.862 83.0864 522.376 80.2903 521.25 77.9209L519.444 78.7791C520.598 81.2097 522.112 84.0536 523.98 87.3079L525.714 86.3121ZM521.254 77.9295C520.113 75.4662 519.427 73.9749 519.191 73.4439L517.363 74.2561C517.607 74.8051 518.301 76.3138 519.44 78.7705L521.254 77.9295ZM519.165 73.3901C517.417 70.0141 515.868 67.3082 514.519 65.2853L512.855 66.3947C514.146 68.3318 515.657 70.9659 517.389 74.3099L519.165 73.3901ZM514.519 65.2853C513.15 63.231 511.299 61.0773 508.985 58.8235L507.589 60.2565C509.835 62.4427 511.585 64.489 512.855 66.3947L514.519 65.2853ZM508.255 58.5405L505.465 58.6305L505.529 60.6295L508.319 60.5395L508.255 58.5405ZM505.532 58.6306L502.922 58.5406L502.853 60.5394L505.463 60.6294L505.532 58.6306ZM501.887 59.54V72.86H503.887V59.54H501.887ZM501.887 72.86C501.887 75.2229 502.037 77.0914 502.367 78.4125L504.307 77.9275C504.037 76.8486 503.887 75.1771 503.887 72.86H501.887ZM502.379 78.4573C502.784 79.8053 503.468 80.8924 504.523 81.5417L505.571 79.8383C505.066 79.5276 504.611 78.9347 504.295 77.8827L502.379 78.4573ZM504.523 81.5417C505.514 82.1517 506.853 82.4363 508.427 82.4992L508.507 80.5008C507.081 80.4437 506.14 80.1883 505.571 79.8383L504.523 81.5417ZM507.513 81.7983C507.764 82.6018 507.917 84.0593 507.917 86.27H509.917C509.917 84.0407 509.77 82.3182 509.422 81.2017L507.513 81.7983ZM508.988 85.2725C506.43 85.0898 502.38 85 496.857 85V87C502.374 87 506.364 87.0902 508.846 87.2675L508.988 85.2725ZM496.857 85C492.107 85 488.185 85.0901 485.098 85.2717L485.216 87.2683C488.249 87.0899 492.127 87 496.857 87V85ZM486.157 86.27C486.157 84.2028 486.337 82.7417 486.646 81.8162L484.748 81.1838C484.337 82.4183 484.157 84.1372 484.157 86.27H486.157ZM485.768 82.4975C487.503 82.3736 488.94 82.0587 489.973 81.4682L488.981 79.7318C488.334 80.1013 487.251 80.3864 485.626 80.5025L485.768 82.4975ZM489.973 81.4682C491.08 80.8357 491.814 79.7917 492.231 78.4711L490.323 77.8689C490.021 78.8282 489.554 79.4043 488.981 79.7318L489.973 81.4682ZM492.231 78.4711C492.638 77.1815 492.817 75.3472 492.817 73.04H490.817C490.817 75.2928 490.636 76.8785 490.323 77.8689L492.231 78.4711ZM492.817 73.04V38.03H490.817V73.04H492.817ZM492.817 38.03C492.817 35.7228 492.638 33.8885 492.231 32.5989L490.323 33.2011C490.636 34.1915 490.817 35.7772 490.817 38.03H492.817ZM492.235 32.6127C491.817 31.2193 491.044 30.1306 489.858 29.4976L488.916 31.2624C489.53 31.5894 490.017 32.1807 490.319 33.1873L492.235 32.6127ZM489.883 29.5118C488.834 28.9123 487.381 28.6327 485.643 28.5706L485.571 30.5694C487.193 30.6273 488.26 30.8877 488.891 31.2482L489.883 29.5118ZM486.574 29.3155C486.306 28.2958 486.157 26.8338 486.157 24.89H484.157C484.157 26.9062 484.308 28.5642 484.64 29.8245L486.574 29.3155ZM485.076 25.8867C487.342 26.0704 491.4 26.16 497.217 26.16V24.16C491.395 24.16 487.412 24.0696 485.238 23.8933L485.076 25.8867ZM497.23 26.1599L504.34 26.0699L504.314 24.0701L497.204 24.1601L497.23 26.1599ZM504.358 26.0695C508.195 25.9496 511.153 25.89 513.237 25.89V23.89C511.121 23.89 508.139 23.9504 504.296 24.0705L504.358 26.0695ZM513.237 25.89C519.832 25.89 524.627 27.3351 527.795 30.0583L529.099 28.5417C525.427 25.3849 520.083 23.89 513.237 23.89V25.89ZM527.81 30.0704C531.054 32.7555 532.667 36.2201 532.667 40.55H534.667C534.667 35.6399 532.8 31.6045 529.085 28.5296L527.81 30.0704ZM532.667 40.55C532.667 44.6483 531.422 48.0331 528.963 50.7719L530.451 52.1081C533.272 48.9669 534.667 45.0917 534.667 40.55H532.667ZM528.955 50.7804C526.532 53.5417 523.183 55.4908 518.841 56.5906L519.333 58.5294C523.991 57.3492 527.722 55.2183 530.459 52.0996L528.955 50.7804ZM518.436 58.3193C520.481 60.072 522.161 61.9004 523.487 63.8018L525.127 62.6582C523.693 60.5996 521.893 58.648 519.738 56.8007L518.436 58.3193ZM523.498 63.8182C524.903 65.7498 526.95 69.0679 529.648 73.805L531.386 72.815C528.684 68.0721 526.591 64.6702 525.116 62.6418L523.498 63.8182ZM502.763 55.4923C504.226 55.6751 505.47 55.77 506.487 55.77V53.77C505.584 53.77 504.428 53.6849 503.011 53.5077L502.763 55.4923ZM506.487 55.77C511.205 55.77 515.153 54.6509 518.247 52.33L517.047 50.73C514.382 52.7291 510.889 53.77 506.487 53.77V55.77ZM518.25 52.328C521.481 49.8878 523.057 46.3279 523.057 41.81H521.057C521.057 45.8121 519.693 48.7322 517.044 50.732L518.25 52.328ZM523.057 41.81C523.057 37.7702 521.883 34.5084 519.414 32.1735L518.04 33.6265C520.012 35.4916 521.057 38.1698 521.057 41.81H523.057ZM519.434 32.1929C517.014 29.7724 513.377 28.66 508.737 28.66V30.66C513.097 30.66 516.12 31.7076 518.02 33.6071L519.434 32.1929ZM508.737 28.66C506.791 28.66 504.764 28.9111 502.658 29.4066L503.116 31.3534C505.09 30.8889 506.963 30.66 508.737 30.66V28.66ZM501.887 30.38V54.5H503.887V30.38H501.887ZM608.849 81.5L609.809 81.22L609.625 80.5892L608.973 80.5077L608.849 81.5ZM609.479 86.27L609.403 87.2671L610.479 87.3499V86.27H609.479ZM586.349 86.27H585.349V87.3521L586.428 87.2669L586.349 86.27ZM587.069 81.5L586.95 80.5071L586.373 80.5764L586.148 81.1119L587.069 81.5ZM590.309 80.6L589.806 79.7362L589.789 79.746L589.773 79.7563L590.309 80.6ZM590.129 74.57L589.208 74.9596L589.213 74.9707L589.218 74.9816L590.129 74.57ZM587.159 67.55L588.08 67.1604L587.822 66.55H587.159V67.55ZM564.299 68L564.249 67.0013L563.6 67.0341L563.366 67.641L564.299 68ZM562.499 72.68L563.43 73.0465L563.433 73.039L562.499 72.68ZM562.409 80.42L561.734 81.1572L561.751 81.1731L561.769 81.1882L562.409 80.42ZM565.739 81.5L566.688 81.1838L566.479 80.556L565.819 80.5032L565.739 81.5ZM566.459 86.27L566.372 87.2661L567.459 87.3621V86.27H566.459ZM549.539 86.27H548.539V87.324L549.592 87.2686L549.539 86.27ZM550.259 81.59L550.071 80.608L549.523 80.7132L549.325 81.234L550.259 81.59ZM553.859 79.34L553.046 78.7587L553.04 78.7665L553.859 79.34ZM557.459 72.05L558.382 72.4346L558.385 72.4274L558.388 72.4202L557.459 72.05ZM576.179 25.07L575.948 24.0972L575.443 24.2175L575.25 24.6998L576.179 25.07ZM580.589 24.62L581.504 24.2161L581.241 23.62H580.589V24.62ZM601.649 72.32L600.735 72.7239L600.738 72.7322L601.649 72.32ZM604.439 77.99L603.571 78.4861L603.576 78.4954L603.582 78.5045L604.439 77.99ZM606.419 80.6L605.75 81.3433L605.789 81.3781L605.831 81.4087L606.419 80.6ZM585.179 62.96V63.96H586.695L586.099 62.5668L585.179 62.96ZM579.329 49.28L580.249 48.8868L580.245 48.8782L580.241 48.8696L579.329 49.28ZM575.189 38.57L576.141 38.2635L575.172 35.253L574.234 38.2736L575.189 38.57ZM571.499 49.28L572.434 49.6365L572.435 49.6328L571.499 49.28ZM566.279 62.96L565.345 62.6035L564.828 63.96H566.279V62.96ZM607.889 81.78C608.279 83.1159 608.479 84.61 608.479 86.27H610.479C610.479 84.45 610.26 82.7641 609.809 81.22L607.889 81.78ZM609.556 85.2729C607.175 85.0898 603.362 85 598.139 85V87C603.357 87 607.104 87.0902 609.403 87.2671L609.556 85.2729ZM598.139 85C592.56 85 588.594 85.0897 586.271 85.2731L586.428 87.2669C588.665 87.0903 592.559 87 598.139 87V85ZM587.349 86.27C587.349 84.2878 587.586 82.8508 587.991 81.8881L586.148 81.1119C585.593 82.4292 585.349 84.1722 585.349 86.27H587.349ZM587.189 82.4929C588.724 82.3086 589.99 81.9886 590.846 81.4437L589.773 79.7563C589.309 80.0514 588.415 80.3314 586.95 80.5071L587.189 82.4929ZM590.813 81.4638C591.843 80.8629 592.389 79.9023 592.389 78.71H590.389C590.389 79.1977 590.215 79.4971 589.806 79.7362L590.813 81.4638ZM592.389 78.71C592.389 77.5765 591.883 76.0243 591.041 74.1584L589.218 74.9816C590.055 76.8357 590.389 78.0435 590.389 78.71H592.389ZM591.05 74.1804L588.08 67.1604L586.238 67.9396L589.208 74.9596L591.05 74.1804ZM587.159 66.55C577.851 66.55 570.212 66.7001 564.249 67.0013L564.35 68.9987C570.266 68.6999 577.868 68.55 587.159 68.55V66.55ZM563.366 67.641L561.566 72.321L563.433 73.039L565.233 68.359L563.366 67.641ZM561.569 72.3135C560.768 74.3475 560.329 76.1313 560.329 77.63H562.329C562.329 76.4887 562.671 74.9725 563.43 73.0465L561.569 72.3135ZM560.329 77.63C560.329 79.0413 560.761 80.2657 561.734 81.1572L563.085 79.6828C562.618 79.2543 562.329 78.6187 562.329 77.63H560.329ZM561.769 81.1882C562.718 81.9787 564.068 82.3695 565.66 82.4968L565.819 80.5032C564.411 80.3905 563.541 80.0613 563.05 79.6518L561.769 81.1882ZM564.791 81.8162C565.232 83.1406 565.459 84.622 565.459 86.27H567.459C567.459 84.438 567.207 82.7394 566.688 81.1838L564.791 81.8162ZM566.547 85.2739C564.462 85.0899 561.366 85 557.279 85V87C561.353 87 564.377 87.0901 566.372 87.2661L566.547 85.2739ZM557.279 85C555.512 85 552.911 85.0912 549.487 85.2714L549.592 87.2686C553.008 87.0888 555.567 87 557.279 87V85ZM550.539 86.27C550.539 84.4887 550.77 83.0581 551.194 81.946L549.325 81.234C548.789 82.6419 548.539 84.3313 548.539 86.27H550.539ZM550.448 82.572C552.24 82.2275 553.676 81.3454 554.679 79.9135L553.04 78.7665C552.363 79.7346 551.399 80.3525 550.071 80.608L550.448 82.572ZM554.673 79.9212C555.647 78.5582 556.884 76.0306 558.382 72.4346L556.536 71.6654C555.035 75.2694 553.872 77.6018 553.046 78.7588L554.673 79.9212ZM558.388 72.4202L577.108 25.4402L575.25 24.6998L556.53 71.6798L558.388 72.4202ZM576.411 26.0428C577.577 25.7653 578.966 25.62 580.589 25.62V23.62C578.853 23.62 577.302 23.7747 575.948 24.0972L576.411 26.0428ZM579.675 25.0239L600.735 72.7239L602.564 71.9161L581.504 24.2161L579.675 25.0239ZM600.738 72.7322C601.882 75.2601 602.827 77.1844 603.571 78.4861L605.308 77.4939C604.611 76.2756 603.697 74.4199 602.561 71.9078L600.738 72.7322ZM603.582 78.5045C604.321 79.737 605.042 80.7054 605.75 81.3433L607.088 79.8567C606.597 79.4146 605.997 78.643 605.297 77.4755L603.582 78.5045ZM605.831 81.4087C606.651 82.0051 607.629 82.3552 608.725 82.4923L608.973 80.5077C608.15 80.4048 607.508 80.1549 607.008 79.7913L605.831 81.4087ZM586.099 62.5668L580.249 48.8868L578.41 49.6732L584.26 63.3532L586.099 62.5668ZM580.241 48.8696C578.636 45.3014 577.269 41.7661 576.141 38.2635L574.238 38.8765C575.39 42.4539 576.783 46.0586 578.417 49.6904L580.241 48.8696ZM574.234 38.2736C573.161 41.7333 571.937 45.2845 570.564 48.9272L572.435 49.6328C573.822 45.9555 575.058 42.3667 576.144 38.8664L574.234 38.2736ZM570.565 48.9235L565.345 62.6035L567.214 63.3165L572.434 49.6365L570.565 48.9235ZM566.279 63.96H585.179V61.96H566.279V63.96ZM652.86 56.03L652.163 55.3129L652.153 55.3229L652.86 56.03ZM652.68 33.98L651.901 34.6068L651.909 34.6169L652.68 33.98ZM638.01 30.38L637.777 29.4076L637.01 29.5916V30.38H638.01ZM638.82 77.54L637.884 77.8911L637.893 77.9152L637.903 77.9387L638.82 77.54ZM641.52 80.51L641.073 81.4044L641.091 81.4136L641.11 81.4219L641.52 80.51ZM646.56 81.5L647.503 81.1672L647.281 80.5385L646.616 80.5015L646.56 81.5ZM647.1 86.27L647.039 87.2681L648.1 87.3331V86.27H647.1ZM620.28 86.27H619.28V87.3359L620.344 87.268L620.28 86.27ZM620.73 81.5L620.659 80.5025L619.979 80.5511L619.776 81.2017L620.73 81.5ZM624.51 80.6L624.04 79.7176L624.027 79.7245L624.014 79.7318L624.51 80.6ZM626.4 78.17L625.447 77.8689L625.447 77.8689L626.4 78.17ZM626.4 32.99L625.447 33.2911L625.447 33.2911L626.4 32.99ZM624.6 30.56L625.096 29.6918L625.096 29.6918L624.6 30.56ZM620.82 29.66L619.859 29.9347L620.051 30.6076L620.749 30.6575L620.82 29.66ZM620.28 24.89L620.335 23.8915L619.28 23.834V24.89H620.28ZM633.15 25.16V26.1601L633.162 26.1599L633.15 25.16ZM640.8 25.07L640.812 26.0699L640.825 26.0698L640.839 26.0693L640.8 25.07ZM662.67 29.93L661.969 30.6434L661.976 30.6498L661.982 30.656L662.67 29.93ZM665.37 53.51L666.265 53.9572L666.268 53.9507L665.37 53.51ZM658.17 61.34L658.687 62.1961L658.699 62.1889L658.17 61.34ZM640.44 63.23L639.454 63.3944L639.547 63.9535L640.074 64.1608L640.44 63.23ZM640.8 58.73L641.082 57.7706L640.21 57.5139L639.872 58.3586L640.8 58.73ZM644.76 60.18C648.293 60.18 651.258 59.0463 653.567 56.7371L652.153 55.3229C650.262 57.2137 647.827 58.18 644.76 58.18V60.18ZM653.557 56.747C656.005 54.3672 657.1 50.492 657.1 45.41H655.1C655.1 50.288 654.035 53.4928 652.163 55.313L653.557 56.747ZM657.1 45.41C657.1 40.4006 655.925 36.3373 653.451 33.3431L651.909 34.6169C653.996 37.1427 655.1 40.6994 655.1 45.41H657.1ZM653.459 33.3532C650.992 30.2863 647.208 28.84 642.33 28.84V30.84C646.812 30.84 649.928 32.1537 651.901 34.6068L653.459 33.3532ZM642.33 28.84C640.863 28.84 639.344 29.0314 637.777 29.4076L638.243 31.3524C639.676 31.0086 641.037 30.84 642.33 30.84V28.84ZM637.01 30.38V71.51H639.01V30.38H637.01ZM637.01 71.51C637.01 74.1399 637.283 76.288 637.884 77.8911L639.756 77.1889C639.278 75.912 639.01 74.0401 639.01 71.51H637.01ZM637.903 77.9387C638.585 79.5061 639.637 80.6866 641.073 81.4044L641.967 79.6156C641.003 79.1334 640.256 78.3339 639.737 77.1413L637.903 77.9387ZM641.11 81.4219C642.471 82.0344 644.291 82.3755 646.505 82.4985L646.616 80.5015C644.51 80.3845 642.969 80.0656 641.93 79.5981L641.11 81.4219ZM645.617 81.8328C645.918 82.6854 646.1 84.1336 646.1 86.27H648.1C648.1 84.0864 647.922 82.3546 647.503 81.1672L645.617 81.8328ZM647.161 85.2719C644.19 85.0899 639.815 85 634.05 85V87C639.805 87 644.13 87.0901 647.039 87.2681L647.161 85.2719ZM634.05 85C627.688 85 623.071 85.0898 620.216 85.272L620.344 87.268C623.129 87.0902 627.692 87 634.05 87V85ZM621.28 86.27C621.28 84.0593 621.434 82.6018 621.685 81.7983L619.776 81.2017C619.427 82.3182 619.28 84.0407 619.28 86.27H621.28ZM620.801 82.4975C622.536 82.3736 623.973 82.0587 625.006 81.4682L624.014 79.7318C623.367 80.1013 622.284 80.3864 620.659 80.5025L620.801 82.4975ZM624.981 81.4824C626.151 80.8582 626.929 79.8145 627.354 78.4711L625.447 77.8689C625.151 78.8055 624.669 79.3818 624.04 79.7176L624.981 81.4824ZM627.354 78.4711C627.761 77.1815 627.94 75.3472 627.94 73.04H625.94C625.94 75.2928 625.759 76.8785 625.447 77.8689L627.354 78.4711ZM627.94 73.04V38.03H625.94V73.04H627.94ZM627.94 38.03C627.94 35.7795 627.76 33.9768 627.354 32.6889L625.447 33.2911C625.76 34.2832 625.94 35.8405 625.94 38.03H627.94ZM627.354 32.6889C626.937 31.3683 626.203 30.3243 625.096 29.6918L624.104 31.4282C624.677 31.7557 625.144 32.3318 625.447 33.2911L627.354 32.6889ZM625.096 29.6918C624.063 29.1013 622.626 28.7864 620.891 28.6625L620.749 30.6575C622.374 30.7736 623.457 31.0587 624.104 31.4282L625.096 29.6918ZM621.782 29.3853C621.456 28.2456 621.28 26.756 621.28 24.89H619.28C619.28 26.864 619.464 28.5544 619.859 29.9347L621.782 29.3853ZM620.226 25.8885C623.551 26.0699 627.861 26.16 633.15 26.16V24.16C627.879 24.16 623.609 24.0701 620.335 23.8915L620.226 25.8885ZM633.162 26.1599L640.812 26.0699L640.788 24.0701L633.138 24.1601L633.162 26.1599ZM640.839 26.0693C642.382 26.0099 644.228 25.98 646.38 25.98V23.98C644.212 23.98 642.338 24.0101 640.762 24.0707L640.839 26.0693ZM646.38 25.98C653.767 25.98 658.881 27.6103 661.969 30.6434L663.371 29.2165C659.739 25.6497 653.993 23.98 646.38 23.98V25.98ZM661.982 30.656C665.176 33.6811 666.8 37.6943 666.8 42.8H668.8C668.8 37.2257 667.005 32.6589 663.358 29.204L661.982 30.656ZM666.8 42.8C666.8 46.4942 666.022 49.9126 664.472 53.0693L666.268 53.9507C667.958 50.5074 668.8 46.7858 668.8 42.8H666.8ZM664.476 53.0628C662.941 56.1319 660.67 58.6052 657.642 60.4911L658.699 62.1889C662.03 60.1148 664.559 57.3681 666.265 53.9572L664.476 53.0628ZM657.653 60.4839C654.657 62.2928 651.034 63.22 646.74 63.22V65.22C651.327 65.22 655.323 64.2272 658.687 62.1961L657.653 60.4839ZM646.74 63.22C644.299 63.22 642.333 62.8992 640.806 62.2992L640.074 64.1608C641.907 64.8808 644.141 65.22 646.74 65.22V63.22ZM641.427 63.0656C641.31 62.3665 641.26 61.8591 641.26 61.52H639.26C639.26 62.0209 639.33 62.6535 639.454 63.3944L641.427 63.0656ZM641.26 61.52C641.26 60.6885 641.415 59.8844 641.729 59.1014L639.872 58.3586C639.465 59.3756 639.26 60.4315 639.26 61.52H641.26ZM640.518 59.6894C641.664 60.0265 643.089 60.18 644.76 60.18V58.18C643.191 58.18 641.976 58.0335 641.082 57.7706L640.518 59.6894ZM733.978 78.17L733.024 78.4711L733.024 78.4711L733.978 78.17ZM735.778 80.6L735.281 81.4682L735.281 81.4682L735.778 80.6ZM739.558 81.5L740.511 81.1989L740.307 80.551L739.629 80.5025L739.558 81.5ZM740.098 86.27L740.043 87.2685L741.098 87.326V86.27H740.098ZM715.618 86.27H714.618V87.324L715.67 87.2686L715.618 86.27ZM716.248 81.5L716.176 80.5025L715.491 80.5515L715.291 81.2088L716.248 81.5ZM720.028 80.6L720.524 81.4682L720.524 81.4682L720.028 80.6ZM721.738 78.17L720.784 77.8689L720.777 77.892L720.77 77.9155L721.738 78.17ZM722.278 57.11H723.278V56.11H722.278V57.11ZM697.618 57.74L697.517 56.7451L696.618 56.8363V57.74H697.618ZM698.158 78.17L699.111 77.8689L699.111 77.8689L698.158 78.17ZM699.958 80.6L700.454 79.7318L700.454 79.7318L699.958 80.6ZM703.738 81.5L704.674 81.1489L704.449 80.5482L703.809 80.5025L703.738 81.5ZM704.278 86.27L704.223 87.2685L705.278 87.326V86.27H704.278ZM679.888 86.27H678.888V87.325L679.941 87.2686L679.888 86.27ZM680.428 81.5L680.356 80.5025L679.679 80.551L679.474 81.1989L680.428 81.5ZM684.208 80.6L684.704 81.4682L684.704 81.4682L684.208 80.6ZM686.008 78.17L685.054 77.8689L685.054 77.8689L686.008 78.17ZM686.008 32.99L685.054 33.2911L685.054 33.2911L686.008 32.99ZM684.208 30.56L684.704 29.6918L684.704 29.6918L684.208 30.56ZM680.428 29.66L679.466 29.9347L679.658 30.6076L680.356 30.6575L680.428 29.66ZM679.888 24.89L679.943 23.8915L678.888 23.8329V24.89H679.888ZM704.278 24.89H705.278V23.8387L704.228 23.8912L704.278 24.89ZM704.188 27.5L705.185 27.5713L705.185 27.5712L704.188 27.5ZM703.738 29.66L703.809 30.6575L704.433 30.6128L704.666 30.0314L703.738 29.66ZM699.958 30.56L700.454 31.4282L700.454 31.4282L699.958 30.56ZM698.158 32.99L699.111 33.2911L699.111 33.2911L698.158 32.99ZM697.618 52.34H696.618V53.34H697.618V52.34ZM722.278 52.34V53.34H723.278V52.34H722.278ZM721.738 32.99L720.77 33.2445L720.777 33.268L720.784 33.2911L721.738 32.99ZM716.248 29.66L715.304 29.9904L715.521 30.6106L716.176 30.6575L716.248 29.66ZM715.618 24.89L715.673 23.8915L714.618 23.8329V24.89H715.618ZM740.098 24.89H741.098V23.8387L740.048 23.8912L740.098 24.89ZM739.558 29.66L739.629 30.6575L740.295 30.6099L740.506 29.9762L739.558 29.66ZM733.978 32.99L733.024 32.6889L733.024 32.6889L733.978 32.99ZM732.438 73.04C732.438 75.3472 732.617 77.1815 733.024 78.4711L734.931 77.8689C734.618 76.8785 734.438 75.2928 734.438 73.04H732.438ZM733.024 78.4711C733.441 79.7918 734.175 80.8357 735.281 81.4682L736.274 79.7318C735.701 79.4043 735.234 78.8282 734.931 77.8689L733.024 78.4711ZM735.281 81.4682C736.315 82.0587 737.752 82.3736 739.486 82.4975L739.629 80.5025C738.003 80.3864 736.92 80.1013 736.274 79.7318L735.281 81.4682ZM738.604 81.8011C738.919 82.7987 739.098 84.2708 739.098 86.27H741.098C741.098 84.1892 740.916 82.4813 740.511 81.1989L738.604 81.8011ZM740.152 85.2715C736.828 85.0902 732.849 85 728.218 85V87C732.826 87 736.767 87.0898 740.043 87.2685L740.152 85.2715ZM728.218 85C723.227 85 719.008 85.0902 715.565 85.2714L715.67 87.2686C719.067 87.0898 723.248 87 728.218 87V85ZM716.618 86.27C716.618 84.5453 716.819 83.0568 717.204 81.7912L715.291 81.2088C714.836 82.7032 714.618 84.3947 714.618 86.27H716.618ZM716.319 82.4975C718.053 82.3736 719.49 82.0587 720.524 81.4682L719.531 79.7318C718.885 80.1013 717.802 80.3864 716.176 80.5025L716.319 82.4975ZM720.524 81.4682C721.646 80.827 722.352 79.7634 722.705 78.4245L720.77 77.9155C720.523 78.8566 720.089 79.413 719.531 79.7318L720.524 81.4682ZM722.691 78.4711C723.098 77.1815 723.278 75.3472 723.278 73.04H721.278C721.278 75.2928 721.097 76.8785 720.784 77.8689L722.691 78.4711ZM723.278 73.04V57.11H721.278V73.04H723.278ZM722.278 56.11C709.985 56.11 701.715 56.3192 697.517 56.7451L697.718 58.7349C701.8 58.3208 709.97 58.11 722.278 58.11V56.11ZM696.618 57.74V73.04H698.618V57.74H696.618ZM696.618 73.04C696.618 75.3472 696.797 77.1815 697.204 78.4711L699.111 77.8689C698.798 76.8785 698.618 75.2928 698.618 73.04H696.618ZM697.204 78.4711C697.621 79.7918 698.355 80.8357 699.461 81.4682L700.454 79.7318C699.881 79.4043 699.414 78.8282 699.111 77.8689L697.204 78.4711ZM699.461 81.4682C700.495 82.0587 701.932 82.3736 703.666 82.4975L703.809 80.5025C702.183 80.3864 701.1 80.1013 700.454 79.7318L699.461 81.4682ZM702.801 81.8511C703.093 82.6299 703.278 84.0631 703.278 86.27H705.278C705.278 84.0369 705.102 82.2901 704.674 81.1489L702.801 81.8511ZM704.332 85.2715C701.009 85.0902 697.059 85 692.488 85V87C697.036 87 700.947 87.0898 704.223 87.2685L704.332 85.2715ZM692.488 85C687.438 85 683.218 85.0901 679.834 85.2714L679.941 87.2686C683.277 87.0899 687.458 87 692.488 87V85ZM680.888 86.27C680.888 84.2708 681.066 82.7987 681.381 81.8011L679.474 81.1989C679.069 82.4813 678.888 84.1892 678.888 86.27H680.888ZM680.499 82.4975C682.233 82.3736 683.67 82.0587 684.704 81.4682L683.711 79.7318C683.065 80.1013 681.982 80.3864 680.356 80.5025L680.499 82.4975ZM684.704 81.4682C685.811 80.8357 686.544 79.7917 686.961 78.4711L685.054 77.8689C684.751 78.8282 684.285 79.4043 683.711 79.7318L684.704 81.4682ZM686.961 78.4711C687.368 77.1815 687.548 75.3472 687.548 73.04H685.548C685.548 75.2928 685.367 76.8785 685.054 77.8689L686.961 78.4711ZM687.548 73.04V38.03H685.548V73.04H687.548ZM687.548 38.03C687.548 35.7795 687.368 33.9768 686.961 32.6889L685.054 33.2911C685.367 34.2832 685.548 35.8405 685.548 38.03H687.548ZM686.961 32.6889C686.544 31.3683 685.811 30.3243 684.704 29.6918L683.711 31.4282C684.285 31.7557 684.751 32.3318 685.054 33.2911L686.961 32.6889ZM684.704 29.6918C683.67 29.1013 682.233 28.7864 680.499 28.6625L680.356 30.6575C681.982 30.7736 683.065 31.0587 683.711 31.4282L684.704 29.6918ZM681.389 29.3853C681.063 28.2456 680.888 26.756 680.888 24.89H678.888C678.888 26.864 679.072 28.5544 679.466 29.9347L681.389 29.3853ZM679.832 25.8885C683.098 26.0699 687.228 26.16 692.218 26.16V24.16C687.247 24.16 683.158 24.0701 679.943 23.8915L679.832 25.8885ZM692.218 26.16C696.671 26.16 700.708 26.0697 704.327 25.8888L704.228 23.8912C700.648 24.0703 696.645 24.16 692.218 24.16V26.16ZM703.278 24.89C703.278 25.7678 703.248 26.614 703.19 27.4288L705.185 27.5712C705.247 26.706 705.278 25.8122 705.278 24.89H703.278ZM703.19 27.4288C703.135 28.1952 703.001 28.8085 702.809 29.2886L704.666 30.0314C704.954 29.3115 705.12 28.4848 705.185 27.5713L703.19 27.4288ZM703.666 28.6625C701.932 28.7864 700.495 29.1013 699.461 29.6918L700.454 31.4282C701.1 31.0587 702.183 30.7736 703.809 30.6575L703.666 28.6625ZM699.461 29.6918C698.355 30.3243 697.621 31.3683 697.204 32.6889L699.111 33.2911C699.414 32.3318 699.881 31.7557 700.454 31.4282L699.461 29.6918ZM697.204 32.6889C696.797 33.9768 696.618 35.7795 696.618 38.03H698.618C698.618 35.8405 698.798 34.2832 699.111 33.2911L697.204 32.6889ZM696.618 38.03V52.34H698.618V38.03H696.618ZM697.618 53.34H722.278V51.34H697.618V53.34ZM723.278 52.34V38.03H721.278V52.34H723.278ZM723.278 38.03C723.278 35.7795 723.098 33.9768 722.691 32.6889L720.784 33.2911C721.097 34.2832 721.278 35.8405 721.278 38.03H723.278ZM722.705 32.7355C722.352 31.3966 721.646 30.333 720.524 29.6918L719.531 31.4282C720.089 31.747 720.523 32.3034 720.77 33.2445L722.705 32.7355ZM720.524 29.6918C719.49 29.1013 718.053 28.7864 716.319 28.6625L716.176 30.6575C717.802 30.7736 718.885 31.0587 719.531 31.4282L720.524 29.6918ZM717.191 29.3297C716.823 28.2779 716.618 26.813 716.618 24.89H714.618C714.618 26.927 714.832 28.6421 715.304 29.9904L717.191 29.3297ZM715.562 25.8885C718.828 26.0699 722.988 26.16 728.038 26.16V24.16C723.007 24.16 718.887 24.0701 715.673 23.8915L715.562 25.8885ZM728.038 26.16C732.491 26.16 736.528 26.0697 740.147 25.8888L740.048 23.8912C736.468 24.0703 732.465 24.16 728.038 24.16V26.16ZM739.098 24.89C739.098 26.9572 738.917 28.4183 738.609 29.3438L740.506 29.9762C740.918 28.7417 741.098 27.0228 741.098 24.89H739.098ZM739.486 28.6625C737.752 28.7864 736.315 29.1013 735.281 29.6918L736.274 31.4282C736.92 31.0587 738.003 30.7736 739.629 30.6575L739.486 28.6625ZM735.281 29.6918C734.175 30.3243 733.441 31.3683 733.024 32.6889L734.931 33.2911C735.234 32.3318 735.701 31.7557 736.274 31.4282L735.281 29.6918ZM733.024 32.6889C732.617 33.9768 732.438 35.7795 732.438 38.03H734.438C734.438 35.8405 734.618 34.2832 734.931 33.2911L733.024 32.6889ZM732.438 38.03V73.04H734.438V38.03H732.438ZM803.872 24.98H804.872V23.9392L803.832 23.9808L803.872 24.98ZM803.422 29.48L803.647 30.4544L804.286 30.3069L804.405 29.6621L803.422 29.48ZM799.102 32.09L798.379 31.3988L798.371 31.4072L798.363 31.4157L799.102 32.09ZM795.142 38.57L796.041 39.0066L796.047 38.9949L795.142 38.57ZM783.262 63.05L782.362 62.6134L782.262 62.8202V63.05H783.262ZM783.802 77.45L782.831 77.6925L782.834 77.7024L783.802 77.45ZM785.782 80.33L786.272 79.4584L786.272 79.4584L785.782 80.33ZM790.732 81.5L791.676 81.1696L791.466 80.57L790.834 80.5052L790.732 81.5ZM791.362 86.27L791.32 87.2691L792.362 87.3125V86.27H791.362ZM763.642 86.18H762.642V87.2074L763.669 87.1796L763.642 86.18ZM764.272 81.5L764.2 80.5025L763.534 80.5501L763.323 81.1838L764.272 81.5ZM769.582 80.51L769.156 79.6052L769.156 79.6052L769.582 80.51ZM771.652 77.81L772.616 78.0731L772.616 78.0731L771.652 77.81ZM772.192 63.14H773.192V62.9012L773.084 62.6882L772.192 63.14ZM757.882 34.88L756.987 35.3272L756.99 35.3318L757.882 34.88ZM755.002 30.83L754.347 31.5857L754.359 31.5961L754.371 31.6061L755.002 30.83ZM751.402 29.57L750.444 29.8573L750.649 30.5407L751.362 30.5692L751.402 29.57ZM750.862 24.98L750.892 23.9805L749.862 23.9492V24.98H750.862ZM774.712 24.98H775.712V23.9195L774.653 23.9817L774.712 24.98ZM774.262 29.48L774.348 30.4762L775.067 30.4137L775.234 29.7116L774.262 29.48ZM771.292 30.38L771.865 31.1992L771.891 31.1809L771.916 31.1609L771.292 30.38ZM771.922 36.86L771.027 37.3072L771.027 37.3072L771.922 36.86ZM781.282 57.2L780.363 57.5939L781.284 59.7448L782.202 57.592L781.282 57.2ZM790.192 37.67L789.297 37.2228L789.294 37.2298L790.192 37.67ZM790.822 30.65L790.188 31.424L790.21 31.442L790.234 31.4587L790.822 30.65ZM787.762 29.57L786.806 29.8641L786.995 30.4785L787.632 30.5616L787.762 29.57ZM787.042 24.98L787.116 23.9827L786.042 23.9032V24.98H787.042ZM795.952 26.16C798.248 26.16 800.902 26.0996 803.912 25.9792L803.832 23.9808C800.841 24.1004 798.215 24.16 795.952 24.16V26.16ZM802.872 24.98C802.872 26.2885 802.729 27.7268 802.438 29.2979L804.405 29.6621C804.714 27.9932 804.872 26.4315 804.872 24.98H802.872ZM803.197 28.5056C801.413 28.9173 799.807 29.9055 798.379 31.3988L799.824 32.7812C801.036 31.5145 802.311 30.7627 803.647 30.4544L803.197 28.5056ZM798.363 31.4157C797.003 32.9052 795.633 35.1707 794.236 38.1451L796.047 38.9949C797.411 36.0893 798.68 34.0348 799.84 32.7643L798.363 31.4157ZM794.242 38.1334L782.362 62.6134L784.161 63.4866L796.041 39.0066L794.242 38.1334ZM782.262 63.05V70.43H784.262V63.05H782.262ZM782.262 70.43C782.262 73.679 782.44 76.1247 782.832 77.6925L784.772 77.2075C784.444 75.8953 784.262 73.661 784.262 70.43H782.262ZM782.834 77.7024C783.241 79.2638 784.031 80.4923 785.291 81.2016L786.272 79.4584C785.613 79.0877 785.082 78.3962 784.769 77.1976L782.834 77.7024ZM785.291 81.2016C786.444 81.8499 788.273 82.2531 790.63 82.4948L790.834 80.5052C788.51 80.2669 787.039 79.8901 786.272 79.4584L785.291 81.2016ZM789.788 81.8304C790.156 82.8821 790.362 84.347 790.362 86.27H792.362C792.362 84.233 792.147 82.5179 791.676 81.1696L789.788 81.8304ZM791.403 85.2709C787.068 85.0902 782.524 85 777.772 85V87C782.499 87 787.015 87.0898 791.32 87.2691L791.403 85.2709ZM777.772 85C772.784 85 768.065 85.0601 763.615 85.1804L763.669 87.1796C768.099 87.0599 772.8 87 777.772 87V85ZM764.642 86.18C764.642 84.3879 764.845 82.9425 765.22 81.8162L763.323 81.1838C762.858 82.5775 762.642 84.2521 762.642 86.18H764.642ZM764.343 82.4975C766.871 82.3169 768.805 81.9805 770.007 81.4148L769.156 79.6052C768.318 79.9995 766.712 80.3231 764.2 80.5025L764.343 82.4975ZM770.007 81.4148C771.349 80.7837 772.197 79.6095 772.616 78.0731L770.687 77.5469C770.386 78.6505 769.855 79.2763 769.156 79.6052L770.007 81.4148ZM772.616 78.0731C773.014 76.6137 773.192 74.307 773.192 71.24H771.192C771.192 74.293 771.009 76.3663 770.687 77.5469L772.616 78.0731ZM773.192 71.24V63.14H771.192V71.24H773.192ZM773.084 62.6882L758.774 34.4282L756.99 35.3318L771.3 63.5918L773.084 62.6882ZM758.776 34.4328C757.793 32.4658 756.756 30.9666 755.632 30.0539L754.371 31.6061C755.168 32.2534 756.051 33.4542 756.987 35.3272L758.776 34.4328ZM755.657 30.0743C754.545 29.1106 753.108 28.6375 751.442 28.5708L751.362 30.5692C752.695 30.6225 753.659 30.9895 754.347 31.5857L755.657 30.0743ZM752.36 29.2827C752.037 28.2092 751.862 26.785 751.862 24.98H749.862C749.862 26.895 750.046 28.5308 750.444 29.8573L752.36 29.2827ZM750.831 25.9795C754.8 26.0998 758.47 26.16 761.842 26.16V24.16C758.493 24.16 754.844 24.1002 750.892 23.9805L750.831 25.9795ZM761.842 26.16C768.375 26.16 772.696 26.1003 774.77 25.9783L774.653 23.9817C772.648 24.0997 768.388 24.16 761.842 24.16V26.16ZM773.712 24.98C773.712 26.6668 773.566 28.0851 773.289 29.2484L775.234 29.7116C775.558 28.3549 775.712 26.7732 775.712 24.98H773.712ZM774.175 28.4838C772.735 28.6089 771.502 28.9314 770.667 29.5991L771.916 31.1609C772.282 30.8686 773.028 30.5911 774.348 30.4762L774.175 28.4838ZM770.718 29.5608C769.809 30.1975 769.392 31.159 769.392 32.27H771.392C771.392 31.701 771.575 31.4025 771.865 31.1992L770.718 29.5608ZM769.392 32.27C769.392 33.5448 770.003 35.2594 771.027 37.3072L772.816 36.4128C771.8 34.3806 771.392 33.0352 771.392 32.27H769.392ZM771.027 37.3072C774.017 43.2863 777.129 50.0481 780.363 57.5939L782.201 56.8061C778.955 49.2319 775.827 42.4337 772.816 36.4128L771.027 37.3072ZM782.202 57.592C785.135 50.7066 788.098 44.2128 791.09 38.1102L789.294 37.2298C786.285 43.3672 783.308 49.8934 780.362 56.808L782.202 57.592ZM791.086 38.1172C792.175 35.9402 792.812 34.1101 792.812 32.72H790.812C790.812 33.6099 790.369 35.0798 789.297 37.2228L791.086 38.1172ZM792.812 32.72C792.812 31.5382 792.358 30.5308 791.41 29.8413L790.234 31.4587C790.605 31.7292 790.812 32.1018 790.812 32.72H792.812ZM791.455 29.876C790.586 29.1651 789.351 28.7688 787.891 28.5784L787.632 30.5616C788.933 30.7312 789.737 31.0549 790.188 31.424L791.455 29.876ZM788.717 29.2759C788.264 27.8028 788.042 26.3719 788.042 24.98H786.042C786.042 26.5881 786.299 28.2172 786.806 29.8641L788.717 29.2759ZM786.968 25.9773C788.63 26.1004 791.634 26.16 795.952 26.16V24.16C791.629 24.16 788.694 24.0996 787.116 23.9827L786.968 25.9773Z" transform="translate(-81 -23)" fill="#F2F2F2"/>
</svg>
