<svg width="323" height="65" viewBox="0 0 323 65" fill="none" xmlns="http://www.w3.org/2000/svg">
<path d="M190.52 81.5L191.48 81.22L191.296 80.5892L190.644 80.5077L190.52 81.5ZM191.15 86.27L191.074 87.2671L192.15 87.3499V86.27H191.15ZM168.02 86.27H167.02V87.3521L168.099 87.2669L168.02 86.27ZM168.74 81.5L168.621 80.5071L168.044 80.5764L167.819 81.1119L168.74 81.5ZM171.98 80.6L171.476 79.7362L171.46 79.746L171.443 79.7563L171.98 80.6ZM171.8 74.57L170.879 74.9596L170.884 74.9707L170.889 74.9816L171.8 74.57ZM168.83 67.55L169.751 67.1604L169.493 66.55H168.83V67.55ZM145.97 68L145.92 67.0013L145.27 67.0341L145.037 67.641L145.97 68ZM144.17 72.68L145.101 73.0465L145.104 73.039L144.17 72.68ZM144.08 80.42L143.405 81.1572L143.422 81.1731L143.44 81.1882L144.08 80.42ZM147.41 81.5L148.359 81.1838L148.15 80.556L147.49 80.5032L147.41 81.5ZM148.13 86.27L148.042 87.2661L149.13 87.3621V86.27H148.13ZM131.21 86.27H130.21V87.324L131.263 87.2686L131.21 86.27ZM131.93 81.59L131.741 80.608L131.194 80.7132L130.996 81.234L131.93 81.59ZM135.53 79.34L134.717 78.7587L134.711 78.7665L135.53 79.34ZM139.13 72.05L140.053 72.4346L140.056 72.4274L140.059 72.4202L139.13 72.05ZM157.85 25.07L157.619 24.0972L157.114 24.2175L156.921 24.6998L157.85 25.07ZM162.26 24.62L163.175 24.2161L162.912 23.62H162.26V24.62ZM183.32 72.32L182.405 72.7239L182.409 72.7322L183.32 72.32ZM186.11 77.99L185.242 78.4861L185.247 78.4954L185.253 78.5045L186.11 77.99ZM188.09 80.6L187.421 81.3433L187.46 81.3781L187.502 81.4087L188.09 80.6ZM166.85 62.96V63.96H168.366L167.77 62.5668L166.85 62.96ZM161 49.28L161.92 48.8868L161.916 48.8782L161.912 48.8696L161 49.28ZM156.86 38.57L157.812 38.2635L156.843 35.253L155.905 38.2736L156.86 38.57ZM153.17 49.28L154.105 49.6365L154.106 49.6328L153.17 49.28ZM147.95 62.96L147.016 62.6035L146.498 63.96H147.95V62.96ZM189.56 81.78C189.95 83.1159 190.15 84.61 190.15 86.27H192.15C192.15 84.45 191.931 82.7641 191.48 81.22L189.56 81.78ZM191.227 85.2729C188.846 85.0898 185.033 85 179.81 85V87C185.028 87 188.775 87.0902 191.074 87.2671L191.227 85.2729ZM179.81 85C174.231 85 170.265 85.0897 167.942 85.2731L168.099 87.2669C170.335 87.0903 174.23 87 179.81 87V85ZM169.02 86.27C169.02 84.2878 169.257 82.8508 169.662 81.8881L167.819 81.1119C167.264 82.4292 167.02 84.1722 167.02 86.27H169.02ZM168.859 82.4929C170.395 82.3086 171.661 81.9886 172.517 81.4437L171.443 79.7563C170.98 80.0514 170.086 80.3314 168.621 80.5071L168.859 82.4929ZM172.484 81.4638C173.514 80.8629 174.06 79.9023 174.06 78.71H172.06C172.06 79.1977 171.886 79.4971 171.476 79.7362L172.484 81.4638ZM174.06 78.71C174.06 77.5765 173.554 76.0243 172.712 74.1584L170.889 74.9816C171.726 76.8357 172.06 78.0435 172.06 78.71H174.06ZM172.721 74.1804L169.751 67.1604L167.909 67.9396L170.879 74.9596L172.721 74.1804ZM168.83 66.55C159.522 66.55 151.883 66.7001 145.92 67.0013L146.021 68.9987C151.937 68.6999 159.539 68.55 168.83 68.55V66.55ZM145.037 67.641L143.237 72.321L145.104 73.039L146.904 68.359L145.037 67.641ZM143.24 72.3135C142.439 74.3475 142 76.1313 142 77.63H144C144 76.4887 144.342 74.9725 145.101 73.0465L143.24 72.3135ZM142 77.63C142 79.0413 142.432 80.2657 143.405 81.1572L144.756 79.6828C144.289 79.2543 144 78.6187 144 77.63H142ZM143.44 81.1882C144.389 81.9787 145.739 82.3695 147.331 82.4968L147.49 80.5032C146.081 80.3905 145.212 80.0613 144.72 79.6518L143.44 81.1882ZM146.462 81.8162C146.903 83.1406 147.13 84.622 147.13 86.27H149.13C149.13 84.438 148.878 82.7394 148.359 81.1838L146.462 81.8162ZM148.218 85.2739C146.133 85.0899 143.037 85 138.95 85V87C143.024 87 146.048 87.0901 148.042 87.2661L148.218 85.2739ZM138.95 85C137.183 85 134.582 85.0912 131.158 85.2714L131.263 87.2686C134.679 87.0888 137.237 87 138.95 87V85ZM132.21 86.27C132.21 84.4887 132.441 83.0581 132.865 81.946L130.996 81.234C130.459 82.6419 130.21 84.3313 130.21 86.27H132.21ZM132.119 82.572C133.911 82.2275 135.347 81.3454 136.35 79.9135L134.711 78.7665C134.033 79.7346 133.07 80.3525 131.741 80.608L132.119 82.572ZM136.344 79.9212C137.318 78.5582 138.555 76.0306 140.053 72.4346L138.207 71.6654C136.706 75.2694 135.543 77.6018 134.717 78.7588L136.344 79.9212ZM140.059 72.4202L158.779 25.4402L156.921 24.6998L138.201 71.6798L140.059 72.4202ZM158.082 26.0428C159.248 25.7653 160.637 25.62 162.26 25.62V23.62C160.524 23.62 158.973 23.7747 157.619 24.0972L158.082 26.0428ZM161.346 25.0239L182.406 72.7239L184.235 71.9161L163.175 24.2161L161.346 25.0239ZM182.409 72.7322C183.553 75.2601 184.498 77.1844 185.242 78.4861L186.979 77.4939C186.282 76.2756 185.368 74.4199 184.231 71.9078L182.409 72.7322ZM185.253 78.5045C185.992 79.737 186.713 80.7054 187.421 81.3433L188.759 79.8567C188.268 79.4146 187.668 78.643 186.968 77.4755L185.253 78.5045ZM187.502 81.4087C188.322 82.0051 189.3 82.3552 190.396 82.4923L190.644 80.5077C189.821 80.4048 189.178 80.1549 188.678 79.7913L187.502 81.4087ZM167.77 62.5668L161.92 48.8868L160.081 49.6732L165.931 63.3532L167.77 62.5668ZM161.912 48.8696C160.307 45.3014 158.94 41.7661 157.812 38.2635L155.908 38.8765C157.06 42.4539 158.454 46.0586 160.088 49.6904L161.912 48.8696ZM155.905 38.2736C154.832 41.7333 153.608 45.2845 152.235 48.9272L154.106 49.6328C155.493 45.9555 156.729 42.3667 157.815 38.8664L155.905 38.2736ZM152.236 48.9235L147.016 62.6035L148.885 63.3165L154.105 49.6365L152.236 48.9235ZM147.95 63.96H166.85V61.96H147.95V63.96ZM233.901 52.88L233.758 51.8903L233.84 53.8781L233.901 52.88ZM245.781 81.23L246.419 82.0002L246.426 81.9943L245.781 81.23ZM201.951 86.27H200.951V87.3011L201.982 87.2695L201.951 86.27ZM202.491 81.5L202.42 80.5025L201.78 80.5482L201.555 81.1489L202.491 81.5ZM206.271 80.6L205.8 79.7176L205.788 79.7245L205.775 79.7318L206.271 80.6ZM208.161 77.99L209.123 78.2647L209.126 78.2531L208.161 77.99ZM206.271 30.56L205.775 31.4282L205.788 31.4355L205.8 31.4424L206.271 30.56ZM202.491 29.66L201.527 29.9276L201.716 30.6072L202.42 30.6575L202.491 29.66ZM202.041 24.89L202.118 23.8929L201.041 23.8101V24.89H202.041ZM218.871 25.07L218.859 24.0701L218.848 24.0702L218.837 24.0706L218.871 25.07ZM226.521 24.98V23.9799L226.509 23.9801L226.521 24.98ZM243.711 48.02L244.451 48.6927L244.451 48.6927L243.711 48.02ZM232.101 32.54L231.479 33.3228L231.49 33.3316L231.501 33.34L232.101 32.54ZM219.771 30.29L219.519 29.3224L218.771 29.5174V30.29H219.771ZM219.771 51.98H218.771V52.98H219.771V51.98ZM236.151 78.26L236.869 78.9565L236.874 78.9513L236.879 78.946L236.151 78.26ZM219.771 56.66V55.66H218.771V56.66H219.771ZM220.491 78.26L219.557 78.616L219.559 78.6237L219.563 78.6314L220.491 78.26ZM222.831 80.69L222.469 81.622L222.469 81.622L222.831 80.69ZM233.84 53.8781C239.605 54.2311 243.764 55.6655 246.471 58.0416C249.147 60.3895 250.541 63.7769 250.541 68.36H252.541C252.541 63.3431 250.995 59.3505 247.791 56.5384C244.618 53.7545 239.957 52.2489 233.962 51.8819L233.84 53.8781ZM250.541 68.36C250.541 73.4265 248.735 77.4289 245.136 80.4657L246.426 81.9943C250.507 78.5511 252.541 73.9735 252.541 68.36H250.541ZM245.143 80.4598C241.563 83.425 235.929 85 228.051 85V87C236.133 87 242.319 85.395 246.419 82.0002L245.143 80.4598ZM228.051 85C216.528 85 207.816 85.09 201.92 85.2705L201.982 87.2695C207.846 87.09 216.534 87 228.051 87V85ZM202.951 86.27C202.951 84.0631 203.135 82.6299 203.427 81.8511L201.555 81.1489C201.127 82.2901 200.951 84.0369 200.951 86.27H202.951ZM202.562 82.4975C204.297 82.3736 205.734 82.0587 206.767 81.4682L205.775 79.7318C205.128 80.1013 204.045 80.3864 202.42 80.5025L202.562 82.4975ZM206.742 81.4824C207.944 80.841 208.71 79.7073 209.123 78.2647L207.199 77.7153C206.892 78.7927 206.398 79.399 205.8 79.7176L206.742 81.4824ZM209.126 78.2531C209.521 76.8049 209.701 74.8102 209.701 72.32H207.701C207.701 74.7498 207.521 76.5351 207.196 77.7269L209.126 78.2531ZM209.701 72.32V38.03H207.701V72.32H209.701ZM209.701 38.03C209.701 35.7795 209.521 33.9768 209.115 32.6889L207.207 33.2911C207.521 34.2832 207.701 35.8405 207.701 38.03H209.701ZM209.115 32.6889C208.69 31.3455 207.912 30.3018 206.742 29.6776L205.8 31.4424C206.43 31.7782 206.912 32.3545 207.207 33.2911L209.115 32.6889ZM206.767 29.6918C205.734 29.1013 204.297 28.7864 202.562 28.6625L202.42 30.6575C204.045 30.7736 205.128 31.0587 205.775 31.4282L206.767 29.6918ZM203.455 29.3924C203.191 28.445 203.041 26.9637 203.041 24.89H201.041C201.041 27.0163 201.191 28.715 201.527 29.9276L203.455 29.3924ZM201.964 25.8871C204.341 26.0699 207.52 26.16 211.491 26.16V24.16C207.542 24.16 204.421 24.0701 202.118 23.8929L201.964 25.8871ZM211.491 26.16C214.675 26.16 217.148 26.13 218.905 26.0694L218.837 24.0706C217.114 24.13 214.667 24.16 211.491 24.16V26.16ZM218.883 26.0699L226.533 25.9799L226.509 23.9801L218.859 24.0701L218.883 26.0699ZM226.521 25.98C233.228 25.98 238.183 26.9939 241.502 28.9064L242.5 27.1736C238.739 25.0061 233.374 23.98 226.521 23.98V25.98ZM241.502 28.9064C244.672 30.7337 246.311 33.7832 246.311 38.3H248.311C248.311 33.2168 246.41 29.4263 242.5 27.1736L241.502 28.9064ZM246.311 38.3C246.311 41.9119 245.19 44.9061 242.971 47.3473L244.451 48.6927C247.032 45.8539 248.311 42.3681 248.311 38.3H246.311ZM242.971 47.3473C240.753 49.787 237.71 51.3176 233.758 51.8903L234.044 53.8697C238.373 53.2424 241.869 51.533 244.451 48.6927L242.971 47.3473ZM236.701 41C236.701 36.9422 235.421 33.7803 232.701 31.74L231.501 33.34C233.581 34.8997 234.701 37.3778 234.701 41H236.701ZM232.723 31.7572C230.188 29.7418 227.142 28.75 223.641 28.75V30.75C226.74 30.75 229.334 31.6182 231.479 33.3228L232.723 31.7572ZM223.641 28.75C222.342 28.75 220.966 28.9448 219.519 29.3224L220.023 31.2576C221.336 30.9152 222.54 30.75 223.641 30.75V28.75ZM218.771 30.29V51.98H220.771V30.29H218.771ZM219.771 52.98H222.651V50.98H219.771V52.98ZM222.651 52.98C227.117 52.98 230.653 52.0442 233.082 50.0002C235.545 47.9283 236.701 44.8638 236.701 41H234.701C234.701 44.4562 233.682 46.8817 231.795 48.4698C229.874 50.0858 226.885 50.98 222.651 50.98V52.98ZM227.511 82.32C231.469 82.32 234.644 81.2482 236.869 78.9565L235.433 77.5635C233.698 79.3518 231.113 80.32 227.511 80.32V82.32ZM236.879 78.946C239.08 76.6115 240.121 73.4287 240.121 69.53H238.121C238.121 73.0713 237.182 75.7085 235.423 77.574L236.879 78.946ZM240.121 69.53C240.121 64.9954 238.592 61.4494 235.423 59.077C232.309 56.7454 227.757 55.66 221.931 55.66V57.66C227.565 57.66 231.608 58.7196 234.224 60.678C236.785 62.5956 238.121 65.4846 238.121 69.53H240.121ZM221.931 55.66H219.771V57.66H221.931V55.66ZM218.771 56.66V72.59H220.771V56.66H218.771ZM218.771 72.59C218.771 75.1448 219.01 77.1825 219.557 78.616L221.426 77.904C221.012 76.8175 220.771 75.0752 220.771 72.59H218.771ZM219.563 78.6314C220.132 80.0558 221.099 81.0895 222.469 81.622L223.193 79.758C222.403 79.4505 221.81 78.8642 221.419 77.8886L219.563 78.6314ZM222.469 81.622C223.72 82.1088 225.427 82.32 227.511 82.32V80.32C225.515 80.32 224.102 80.1112 223.193 79.758L222.469 81.622ZM277.77 82.76L277.256 83.6175L277.261 83.6205L277.77 82.76ZM267.24 71.6L266.35 72.0561L266.354 72.0628L266.357 72.0694L267.24 71.6ZM267.42 39.2L266.549 38.7087L266.545 38.7172L267.42 39.2ZM278.22 28.31L278.713 29.1804L278.721 29.1754L278.22 28.31ZM309.18 28.22L308.688 29.0904L308.693 29.0931L309.18 28.22ZM319.89 39.02L319.012 39.4989L319.017 39.5076L319.89 39.02ZM319.89 71.33L319.007 70.8611L319.005 70.8652L319.89 71.33ZM309.27 82.67L308.753 81.8145L308.753 81.8145L309.27 82.67ZM304.14 78.53L304.781 79.2982L304.781 79.2982L304.14 78.53ZM309.9 69.89L308.963 69.5422L308.96 69.5507L309.9 69.89ZM309.36 43.16L308.43 43.5269L308.435 43.5381L309.36 43.16ZM302.25 33.08L301.615 33.852L301.624 33.8594L302.25 33.08ZM283.35 32.27L283.956 33.0654L283.962 33.0609L283.968 33.0563L283.35 32.27ZM277.41 40.55L276.482 40.1786L276.479 40.1853L276.477 40.1921L277.41 40.55ZM277.68 67.28L276.738 67.6155L276.74 67.6196L277.68 67.28ZM284.52 77.72L285.181 76.9693L285.181 76.9693L284.52 77.72ZM293.61 85.81C287.765 85.81 282.666 84.4966 278.28 81.8995L277.261 83.6205C281.995 86.4234 287.455 87.81 293.61 87.81V85.81ZM278.285 81.9025C273.944 79.2982 270.56 75.714 268.123 71.1306L266.357 72.0694C268.961 76.966 272.596 80.8218 277.256 83.6175L278.285 81.9025ZM268.13 71.1439C265.75 66.5003 264.55 61.2595 264.55 55.4H262.55C262.55 61.5405 263.81 67.0997 266.35 72.0561L268.13 71.1439ZM264.55 55.4C264.55 49.424 265.809 44.1946 268.296 39.6828L266.545 38.7172C263.872 43.5654 262.55 49.136 262.55 55.4H264.55ZM268.291 39.6913C270.844 35.1655 274.315 31.6684 278.713 29.1804L277.728 27.4397C273.005 30.1116 269.276 33.8745 266.549 38.7087L268.291 39.6913ZM278.721 29.1754C283.117 26.6307 288.071 25.35 293.61 25.35V23.35C287.749 23.35 282.444 24.7093 277.719 27.4446L278.721 29.1754ZM293.61 25.35C299.277 25.35 304.294 26.6045 308.688 29.0903L309.673 27.3496C304.946 24.6755 299.583 23.35 293.61 23.35V25.35ZM308.693 29.0931C313.149 31.5817 316.583 35.0454 319.012 39.4989L320.768 38.5411C318.157 33.7546 314.452 30.0183 309.668 27.3469L308.693 29.0931ZM319.017 39.5076C321.503 43.9581 322.76 49.1256 322.76 55.04H324.76C324.76 48.8344 323.438 43.3219 320.763 38.5324L319.017 39.5076ZM322.76 55.04C322.76 60.8916 321.504 66.1583 319.007 70.8611L320.774 71.7989C323.437 66.7817 324.76 61.1884 324.76 55.04H322.76ZM319.005 70.8652C316.568 75.5068 313.154 79.1505 308.753 81.8145L309.788 83.5255C314.507 80.6695 318.173 76.7532 320.776 71.7948L319.005 70.8652ZM308.753 81.8145C304.365 84.4704 299.327 85.81 293.61 85.81V87.81C299.654 87.81 305.056 86.3896 309.788 83.5255L308.753 81.8145ZM295.23 82.68C298.874 82.68 302.073 81.5548 304.781 79.2982L303.5 77.7618C301.168 79.7052 298.427 80.68 295.23 80.68V82.68ZM304.781 79.2982C307.461 77.0649 309.472 74.0251 310.841 70.2293L308.96 69.5507C307.689 73.0749 305.86 75.7951 303.5 77.7618L304.781 79.2982ZM310.838 70.2378C312.266 66.3885 312.97 62.0679 312.97 57.29H310.97C310.97 61.8721 310.295 65.9515 308.963 69.5422L310.838 70.2378ZM312.97 57.29C312.97 52.016 312.081 47.1756 310.286 42.7819L308.435 43.5381C310.12 47.6644 310.97 52.244 310.97 57.29H312.97ZM310.291 42.7931C308.558 38.3987 306.093 34.8863 302.877 32.3006L301.624 33.8594C304.527 36.1937 306.803 39.4013 308.43 43.5269L310.291 42.7931ZM302.886 32.3081C299.653 29.6458 295.98 28.3 291.9 28.3V30.3C295.5 30.3 298.727 31.4742 301.615 33.8519L302.886 32.3081ZM291.9 28.3C288.494 28.3 285.427 29.3664 282.733 31.4837L283.968 33.0563C286.314 31.2136 288.946 30.3 291.9 30.3V28.3ZM282.744 31.4746C280.051 33.5263 277.974 36.4482 276.482 40.1786L278.339 40.9214C279.727 37.4518 281.609 34.8537 283.956 33.0654L282.744 31.4746ZM276.477 40.1921C275.044 43.9292 274.34 48.2248 274.34 53.06H276.34C276.34 48.4152 277.017 44.3708 278.344 40.9079L276.477 40.1921ZM274.34 53.06C274.34 58.2633 275.136 63.1179 276.738 67.6155L278.622 66.9445C277.104 62.6821 276.34 58.0567 276.34 53.06H274.34ZM276.74 67.6196C278.348 72.0742 280.716 75.7038 283.86 78.4707L285.181 76.9693C282.325 74.4562 280.132 71.1258 278.621 66.9404L276.74 67.6196ZM283.86 78.4707C287.049 81.2776 290.857 82.68 295.23 82.68V80.68C291.324 80.68 287.991 79.4424 285.181 76.9693L283.86 78.4707ZM382.284 74.3L383.256 74.5334L383.256 74.5334L382.284 74.3ZM378.144 81.77L377.447 81.0524L377.442 81.0576L377.436 81.0629L378.144 81.77ZM349.794 84.47L349.346 85.3644L349.356 85.3694L349.366 85.3741L349.794 84.47ZM342.774 77.27L341.856 77.6681L341.859 77.6753L341.863 77.6825L342.774 77.27ZM340.254 32.99L339.286 33.2445L339.29 33.2576L340.254 32.99ZM338.724 30.65L339.227 29.7862L339.227 29.7862L338.724 30.65ZM335.214 29.66L334.26 29.9611L334.448 30.5575L335.067 30.6492L335.214 29.66ZM334.674 24.89L334.748 23.8928L333.674 23.8122V24.89H334.674ZM358.344 24.89H359.344V23.8241L358.28 23.892L358.344 24.89ZM357.894 29.66L357.99 30.6554L358.701 30.5865L358.866 29.8916L357.894 29.66ZM353.844 30.56L353.396 29.6656L353.383 29.6723L353.369 29.6795L353.844 30.56ZM352.224 32.9L353.187 33.1677L353.191 33.1545L352.224 32.9ZM354.924 76.73L354.099 77.2959L354.107 77.3067L354.924 76.73ZM370.494 80.51L370.81 81.4587L370.82 81.4553L370.83 81.4517L370.494 80.51ZM374.634 77.81L373.911 77.1188L373.9 77.1298L373.89 77.141L374.634 77.81ZM377.334 72.32L376.361 72.0895L376.358 72.1017L376.355 72.114L377.334 72.32ZM377.604 34.43L376.622 34.6188L376.625 34.6369L376.629 34.6549L377.604 34.43ZM375.894 31.01L375.243 31.7693L375.243 31.7693L375.894 31.01ZM372.024 29.66L371.039 29.8358L371.172 30.5772L371.921 30.6547L372.024 29.66ZM371.574 24.89L371.657 23.8935L370.574 23.8032V24.89H371.574ZM389.304 24.89H390.304V23.8101L389.227 23.8929L389.304 24.89ZM388.764 29.66L388.888 30.6523L389.581 30.5656L389.738 29.8849L388.764 29.66ZM385.434 31.01L386.08 31.7734L386.096 31.7594L386.112 31.7448L385.434 31.01ZM383.814 34.34L384.794 34.5361L384.796 34.5288L383.814 34.34ZM382.364 61.61C382.364 67.0416 382.004 71.18 381.311 74.0666L383.256 74.5334C384.003 71.42 384.364 67.0984 384.364 61.61H382.364ZM381.311 74.0666C380.632 76.8987 379.34 79.2156 377.447 81.0524L378.84 82.4876C381.028 80.3644 382.496 77.7013 383.256 74.5334L381.311 74.0666ZM377.436 81.0629C374.327 84.1723 369.643 85.81 363.204 85.81V87.81C369.964 87.81 375.24 86.0877 378.851 82.4771L377.436 81.0629ZM363.204 85.81C357.639 85.81 353.334 85.0377 350.221 83.5659L349.366 85.3741C352.853 87.0223 357.488 87.81 363.204 87.81V85.81ZM350.241 83.5756C347.198 82.054 345.026 79.82 343.685 76.8575L341.863 77.6825C343.401 81.08 345.909 83.646 349.346 85.3644L350.241 83.5756ZM343.691 76.8719C342.384 73.8598 341.704 69.9282 341.704 65.03H339.704C339.704 70.0918 340.403 74.3202 341.856 77.6681L343.691 76.8719ZM341.704 65.03V38.12H339.704V65.03H341.704ZM341.704 38.12C341.704 35.7654 341.556 33.9407 341.217 32.7224L339.29 33.2576C339.552 34.1993 339.704 35.7946 339.704 38.12H341.704ZM341.221 32.7355C340.881 31.4464 340.257 30.387 339.227 29.7862L338.22 31.5138C338.63 31.753 339.026 32.2536 339.287 33.2445L341.221 32.7355ZM339.227 29.7862C338.336 29.2662 337.008 28.915 335.36 28.6708L335.067 30.6492C336.659 30.885 337.671 31.1938 338.22 31.5138L339.227 29.7862ZM336.167 29.3589C335.852 28.3613 335.674 26.8892 335.674 24.89H333.674C333.674 26.9708 333.855 28.6787 334.26 29.9611L336.167 29.3589ZM334.599 25.8872C337.038 26.0701 340.698 26.16 345.564 26.16V24.16C340.709 24.16 337.11 24.0699 334.748 23.8928L334.599 25.8872ZM345.564 26.16C351.268 26.16 355.554 26.0701 358.407 25.888L358.28 23.892C355.493 24.0699 351.259 24.16 345.564 24.16V26.16ZM357.344 24.89C357.344 26.7656 357.196 28.2712 356.921 29.4284L358.866 29.8916C359.191 28.5288 359.344 26.8544 359.344 24.89H357.344ZM357.797 28.6647C355.912 28.8471 354.408 29.1596 353.396 29.6656L354.291 31.4544C354.959 31.1204 356.156 30.8329 357.99 30.6554L357.797 28.6647ZM353.369 29.6795C352.272 30.2703 351.603 31.3302 351.257 32.6455L353.191 33.1545C353.445 32.1898 353.855 31.6897 354.318 31.4405L353.369 29.6795ZM351.26 32.6324C350.921 33.852 350.774 35.7082 350.774 38.12H352.774C352.774 35.7318 352.926 34.108 353.187 33.1676L351.26 32.6324ZM350.774 38.12V63.68H352.774V38.12H350.774ZM350.774 63.68C350.774 69.4237 351.84 74.0034 354.099 77.2958L355.748 76.1642C353.808 73.3366 352.774 69.2163 352.774 63.68H350.774ZM354.107 77.3067C356.513 80.7155 360.446 82.32 365.634 82.32V80.32C360.861 80.32 357.654 78.8645 355.741 76.1533L354.107 77.3067ZM365.634 82.32C367.367 82.32 369.093 82.0308 370.81 81.4587L370.177 79.5613C368.654 80.0692 367.14 80.32 365.634 80.32V82.32ZM370.83 81.4517C372.649 80.8019 374.175 79.8148 375.377 78.479L373.89 77.141C372.933 78.2052 371.698 79.0181 370.157 79.5683L370.83 81.4517ZM375.356 78.5012C376.831 76.9596 377.802 74.9482 378.312 72.526L376.355 72.114C375.905 74.2518 375.076 75.9004 373.911 77.1188L375.356 78.5012ZM378.307 72.5505C378.875 70.1527 379.144 66.5768 379.144 61.88H377.144C377.144 66.5432 376.873 69.9273 376.361 72.0895L378.307 72.5505ZM379.144 61.88V41.27H377.144V61.88H379.144ZM379.144 41.27C379.144 38.2478 378.964 35.8773 378.578 34.2051L376.629 34.6549C376.963 36.1027 377.144 38.2922 377.144 41.27H379.144ZM378.586 34.2412C378.261 32.5533 377.617 31.1702 376.544 30.2507L375.243 31.7693C375.85 32.2898 376.346 33.1867 376.622 34.6188L378.586 34.2412ZM376.544 30.2507C375.484 29.3418 373.96 28.855 372.126 28.6653L371.921 30.6547C373.567 30.825 374.623 31.2382 375.243 31.7693L376.544 30.2507ZM373.008 29.4842C372.717 27.8545 372.574 26.3237 372.574 24.89H370.574C370.574 26.4563 370.73 28.1055 371.039 29.8358L373.008 29.4842ZM371.491 25.8865C373.691 26.0699 376.693 26.16 380.484 26.16V24.16C376.714 24.16 373.776 24.0701 371.657 23.8935L371.491 25.8865ZM380.484 26.16C384.038 26.16 387.005 26.0697 389.38 25.8871L389.227 23.8929C386.922 24.0703 384.009 24.16 380.484 24.16V26.16ZM388.304 24.89C388.304 26.4352 388.132 27.9498 387.789 29.4351L389.738 29.8849C390.115 28.2502 390.304 26.5848 390.304 24.89H388.304ZM388.64 28.6677C387.067 28.8643 385.736 29.3701 384.755 30.2752L386.112 31.7448C386.691 31.2099 387.58 30.8157 388.888 30.6523L388.64 28.6677ZM384.788 30.2466C383.76 31.1164 383.152 32.4845 382.832 34.1512L384.796 34.5288C385.075 33.0755 385.547 32.2236 386.08 31.7734L384.788 30.2466ZM382.833 34.1439C382.513 35.743 382.364 38.0426 382.364 41H384.364C384.364 38.0774 384.514 35.937 384.794 34.5361L382.833 34.1439ZM382.364 41V61.61H384.364V41H382.364ZM449.933 24.89L450.932 24.9322L450.979 23.8391L449.886 23.8911L449.933 24.89ZM450.923 40.01L451.317 40.9291L452.023 40.6268L451.913 39.8672L450.923 40.01ZM445.073 41L444.076 41.0791L444.148 41.9753L445.046 41.9996L445.073 41ZM442.193 32.63L441.438 33.2849L441.444 33.292L441.45 33.299L442.193 32.63ZM430.943 29.93V28.93H429.943V29.93H430.943ZM431.483 78.17L430.53 78.4711L430.537 78.4936L430.545 78.5157L431.483 78.17ZM433.643 80.6L433.218 81.5048L433.218 81.5048L433.643 80.6ZM438.413 81.5L439.345 81.1376L439.112 80.5373L438.469 80.5015L438.413 81.5ZM439.043 86.27L438.996 87.2689L440.043 87.3188V86.27H439.043ZM411.323 86.27H410.323V87.3221L411.374 87.2687L411.323 86.27ZM411.953 81.5L411.898 80.5015L411.255 80.5373L411.021 81.1376L411.953 81.5ZM416.813 80.6L417.219 81.5138L417.219 81.5138L416.813 80.6ZM419.063 78.17L418.142 77.7819L418.133 77.8029L418.125 77.8243L419.063 78.17ZM419.783 29.93H420.783V28.93H419.783V29.93ZM410.333 31.19L409.845 30.3175L409.837 30.3218L409.829 30.3262L410.333 31.19ZM407.093 34.79L407.995 35.2227L407.998 35.2159L408.001 35.2091L407.093 34.79ZM405.113 41V42H405.912L406.088 41.2216L405.113 41ZM399.443 40.1L398.462 39.9078L398.316 40.6543L398.996 40.9944L399.443 40.1ZM401.153 24.89L401.201 23.8911L400.153 23.8412V24.89H401.153ZM448.934 24.8478C448.751 29.1879 449.088 34.2928 449.934 40.1529L451.913 39.8672C451.079 34.0872 450.756 29.1121 450.932 24.9322L448.934 24.8478ZM450.529 39.0909C449.008 39.743 447.206 40.0573 445.1 40.0004L445.046 41.9996C447.38 42.0627 449.479 41.717 451.317 40.9291L450.529 39.0909ZM446.07 40.9209C445.762 37.0379 444.766 33.9938 442.937 31.961L441.45 33.299C442.861 34.8661 443.785 37.4021 444.076 41.0791L446.07 40.9209ZM442.949 31.9751C441.134 29.881 438.377 28.93 434.903 28.93V30.93C438.03 30.93 440.133 31.779 441.438 33.2849L442.949 31.9751ZM434.903 28.93H430.943V30.93H434.903V28.93ZM429.943 29.93V73.04H431.943V29.93H429.943ZM429.943 73.04C429.943 75.3472 430.123 77.1815 430.53 78.4711L432.437 77.8689C432.124 76.8785 431.943 75.2928 431.943 73.04H429.943ZM430.545 78.5157C431.048 79.881 431.94 80.9038 433.218 81.5048L434.069 79.6952C433.306 79.3362 432.759 78.739 432.422 77.8243L430.545 78.5157ZM433.218 81.5048C434.417 82.0693 436.166 82.3767 438.358 82.4985L438.469 80.5015C436.341 80.3833 434.91 80.0907 434.069 79.6952L433.218 81.5048ZM437.481 81.8624C437.834 82.7684 438.043 84.21 438.043 86.27H440.043C440.043 84.13 439.833 82.3916 439.345 81.1376L437.481 81.8624ZM439.091 85.2711C435.291 85.0902 430.804 85 425.633 85V87C430.783 87 435.236 87.0898 438.996 87.2689L439.091 85.2711ZM425.633 85C419.626 85 414.837 85.09 411.273 85.2713L411.374 87.2687C414.89 87.09 419.64 87 425.633 87V85ZM412.323 86.27C412.323 84.21 412.533 82.7684 412.885 81.8624L411.021 81.1376C410.534 82.3916 410.323 84.13 410.323 86.27H412.323ZM412.009 82.4985C414.207 82.3764 415.972 82.0683 417.219 81.5138L416.407 79.6862C415.495 80.0917 414.02 80.3836 411.898 80.5015L412.009 82.4985ZM417.219 81.5138C418.554 80.9207 419.491 79.9012 420.002 78.5157L418.125 77.8243C417.795 78.7188 417.233 79.3193 416.407 79.6862L417.219 81.5138ZM419.985 78.5581C420.544 77.2314 420.783 75.3599 420.783 73.04H418.783C418.783 75.2801 418.543 76.8286 418.142 77.7819L419.985 78.5581ZM420.783 73.04V29.93H418.783V73.04H420.783ZM419.783 28.93H416.453V30.93H419.783V28.93ZM416.453 28.93C413.781 28.93 411.55 29.3623 409.845 30.3175L410.822 32.0625C412.116 31.3377 413.965 30.93 416.453 30.93V28.93ZM409.829 30.3262C408.207 31.2728 406.989 32.6309 406.185 34.3709L408.001 35.2091C408.638 33.8291 409.58 32.7871 410.837 32.0538L409.829 30.3262ZM406.192 34.3573C405.426 35.9533 404.746 38.1048 404.138 40.7784L406.088 41.2216C406.681 38.6152 407.321 36.6267 407.995 35.2227L406.192 34.3573ZM405.113 40C402.571 40 400.875 39.6978 399.891 39.2056L398.996 40.9944C400.412 41.7022 402.496 42 405.113 42V40ZM400.425 40.2922C401.573 34.4305 402.153 29.2933 402.153 24.89H400.153C400.153 29.1267 399.594 34.1295 398.462 39.9078L400.425 40.2922ZM401.106 25.8889C404.914 26.0702 413.069 26.16 425.543 26.16V24.16C413.058 24.16 404.953 24.0698 401.201 23.8911L401.106 25.8889ZM425.543 26.16C438.018 26.16 446.173 26.0702 449.981 25.8889L449.886 23.8911C446.134 24.0698 438.029 24.16 425.543 24.16V26.16Z" transform="translate(-130 -23)" fill="#F2F2F2"/>
</svg>
