<svg width="435" height="193" viewBox="0 0 435 193" fill="none" xmlns="http://www.w3.org/2000/svg">
<path d="M10.2 88.9L9.45014 89.5616L9.45562 89.5678L10.2 88.9ZM10.3 51.4L9.56102 50.7262L9.55562 50.7322L10.3 51.4ZM43.4 88.9L42.6562 88.2316L42.6556 88.2322L43.4 88.9ZM37.1 86.1L37.9346 86.6509L37.9396 86.6433L37.1 86.1ZM38.5 59.9L37.557 60.2328L37.5599 60.241L37.5629 60.2491L38.5 59.9ZM33.4 52L32.753 52.7625L32.753 52.7625L33.4 52ZM16.7 54.1L15.8706 53.5414L15.8666 53.5473L15.8627 53.5532L16.7 54.1ZM15.3 80.3L14.355 80.6271L14.3588 80.6382L14.3629 80.6491L15.3 80.3ZM20.5 88.3L19.8399 89.0512L19.8464 89.0569L19.853 89.0625L20.5 88.3ZM26.8 94.7C20.0372 94.7 14.7922 92.5216 10.9444 88.2322L9.45562 89.5678C13.7411 94.3451 19.5628 96.7 26.8 96.7V94.7ZM10.9498 88.2384C7.15589 83.9386 5.2 77.9673 5.2 70.2H3.2C3.2 78.2994 5.24411 84.7948 9.45016 89.5616L10.9498 88.2384ZM5.2 70.2C5.2 62.3675 7.18836 56.3663 11.0444 52.0678L9.55562 50.7322C5.27831 55.5004 3.2 62.0325 3.2 70.2H5.2ZM11.039 52.0738C14.9533 47.7806 20.2676 45.6 27.1 45.6V43.6C19.7991 43.6 13.9134 45.9527 9.56104 50.7262L11.039 52.0738ZM27.1 45.6C33.868 45.6 39.0771 47.7484 42.855 51.9671L44.3449 50.6329C40.1229 45.9183 34.332 43.6 27.1 43.6V45.6ZM42.855 51.9671C46.6438 56.1978 48.6 62.1318 48.6 69.9H50.6C50.6 61.8015 48.5562 55.3355 44.3449 50.6329L42.855 51.9671ZM48.6 69.9C48.6 77.7969 46.5795 83.8653 42.6562 88.2316L44.1438 89.5684C48.4872 84.7347 50.6 78.1365 50.6 69.9H48.6ZM42.6556 88.2322C38.8078 92.5216 33.5628 94.7 26.8 94.7V96.7C34.0372 96.7 39.8589 94.3451 44.1444 89.5678L42.6556 88.2322ZM28.1 92.1C32.256 92.1 35.5608 90.2475 37.9346 86.6508L36.2654 85.5492C34.2392 88.6192 31.544 90.1 28.1 90.1V92.1ZM37.9396 86.6433C40.2852 83.0182 41.4 78.0337 41.4 71.8H39.4C39.4 77.833 38.3148 82.3818 36.2604 85.5567L37.9396 86.6433ZM41.4 71.8C41.4 67.176 40.7543 63.0865 39.4371 59.5509L37.5629 60.2491C38.779 63.5135 39.4 67.3573 39.4 71.8H41.4ZM39.443 59.5672C38.1986 56.0415 36.4118 53.244 34.047 51.2375L32.753 52.7625C34.7882 54.4894 36.4014 56.9585 37.557 60.2328L39.443 59.5672ZM34.047 51.2375C31.6676 49.2186 28.9053 48.2 25.8 48.2V50.2C28.428 50.2 30.7324 51.0481 32.753 52.7625L34.047 51.2375ZM25.8 48.2C21.5933 48.2 18.2523 50.0049 15.8706 53.5414L17.5294 54.6586C19.5477 51.6617 22.2734 50.2 25.8 50.2V48.2ZM15.8627 53.5532C13.5786 57.0509 12.5 61.9745 12.5 68.2H14.5C14.5 62.1588 15.5548 57.6825 17.5373 54.6468L15.8627 53.5532ZM12.5 68.2C12.5 72.8843 13.1107 77.0324 14.355 80.6271L16.245 79.9729C15.0893 76.6343 14.5 72.7157 14.5 68.2H12.5ZM14.3629 80.6491C15.6737 84.1675 17.4895 86.9857 19.8399 89.0512L21.1601 87.5488C19.1105 85.7476 17.4596 83.2325 16.2371 79.9509L14.3629 80.6491ZM19.853 89.0625C22.2324 91.0814 24.9947 92.1 28.1 92.1V90.1C25.472 90.1 23.1676 89.2519 21.147 87.5375L19.853 89.0625ZM71.5062 56.6L70.5527 56.9011L70.5598 56.9236L70.5679 56.9457L71.5062 56.6ZM68.7063 53.9L69.048 52.9602L69.048 52.9602L68.7063 53.9ZM61.4063 53.1H60.4063V54.1H61.4063V53.1ZM61.9062 49.3L61.7403 48.3139L61.1476 48.4136L60.9576 48.9838L61.9062 49.3ZM78.9062 44.4L79.2426 43.4583L78.857 43.3205L78.4855 43.4928L78.9062 44.4ZM80.7063 46.1L79.7576 46.4162L79.7742 46.466L79.7959 46.5138L80.7063 46.1ZM81.8063 86.8L80.8361 87.0425L80.8422 87.067L80.8496 87.0912L81.8063 86.8ZM84.1062 90L83.616 90.8716L83.6476 90.8894L83.6805 90.9048L84.1062 90ZM89.1062 91L90.0607 90.7017L89.855 90.0435L89.1667 90.0018L89.1062 91ZM89.6062 95.3L89.5587 96.2989L90.6062 96.3488V95.3H89.6062ZM62.8063 95.3H61.8063V96.3521L62.857 96.2987L62.8063 95.3ZM63.3062 91L63.2475 90.0017L62.5578 90.0423L62.3518 90.7017L63.3062 91ZM68.5062 89.9L68.0782 88.9963L68.0686 89.0008L68.059 89.0056L68.5062 89.9ZM71.3062 86.7L72.2375 87.0644L72.2401 87.0578L72.2426 87.0511L71.3062 86.7ZM73.2062 62.9C73.2062 59.9543 72.9772 57.6998 72.4446 56.2543L70.5679 56.9457C70.9687 58.0335 71.2062 59.9791 71.2062 62.9H73.2062ZM72.4598 56.2989C71.9492 54.6819 70.7492 53.5788 69.048 52.9602L68.3645 54.8398C69.5966 55.2878 70.2633 55.9848 70.5527 56.9011L72.4598 56.2989ZM69.048 52.9602C67.4042 52.3625 64.8182 52.1 61.4063 52.1V54.1C64.7943 54.1 67.075 54.3709 68.3645 54.8398L69.048 52.9602ZM62.4063 53.1C62.4063 51.6298 62.5672 50.4793 62.8549 49.6162L60.9576 48.9838C60.5786 50.1207 60.4063 51.5035 60.4063 53.1H62.4063ZM62.0722 50.2861C68.8653 49.1427 74.6235 47.4885 79.327 45.3072L78.4855 43.4928C73.989 45.5782 68.4138 47.1906 61.7403 48.3139L62.0722 50.2861ZM78.5699 45.3417C79.2708 45.5921 79.6057 45.9607 79.7576 46.4162L81.6549 45.7838C81.2735 44.6393 80.4084 43.8746 79.2426 43.4583L78.5699 45.3417ZM79.7959 46.5138C80.0381 47.0466 80.2063 48.0034 80.2063 49.5H82.2063C82.2063 47.9299 82.0411 46.62 81.6166 45.6862L79.7959 46.5138ZM80.2063 49.5V79.7H82.2063V49.5H80.2063ZM80.2063 79.7C80.2063 82.8559 80.4058 85.3212 80.8361 87.0425L82.7764 86.5575C82.4067 85.0788 82.2063 82.8108 82.2063 79.7H80.2063ZM80.8496 87.0912C81.3672 88.792 82.2622 90.1101 83.616 90.8716L84.5965 89.1284C83.817 88.6899 83.1786 87.8746 82.7629 86.5088L80.8496 87.0912ZM83.6805 90.9048C84.9844 91.5185 86.8005 91.8621 89.0458 91.9982L89.1667 90.0018C87.012 89.8712 85.4947 89.5482 84.532 89.0952L83.6805 90.9048ZM88.1518 91.2983C88.4423 92.2278 88.6062 93.5474 88.6062 95.3H90.6062C90.6062 93.4526 90.4369 91.9055 90.0607 90.7017L88.1518 91.2983ZM89.6538 94.3011C85.4364 94.1003 80.9871 94 76.3063 94V96C80.9588 96 85.3761 96.0997 89.5587 96.2989L89.6538 94.3011ZM76.3063 94C71.2272 94 66.7097 94.1002 62.7555 94.3013L62.857 96.2987C66.7695 96.0998 71.252 96 76.3063 96V94ZM63.8063 95.3C63.8063 93.5474 63.9702 92.2278 64.2607 91.2983L62.3518 90.7017C61.9756 91.9055 61.8063 93.4526 61.8063 95.3H63.8063ZM63.365 91.9983C65.686 91.8617 67.5764 91.483 68.9535 90.7944L68.059 89.0056C67.0361 89.517 65.4598 89.8716 63.2475 90.0017L63.365 91.9983ZM68.9343 90.8037C70.471 90.0759 71.562 88.7908 72.2375 87.0644L70.375 86.3356C69.8505 87.6759 69.0749 88.5241 68.0782 88.9963L68.9343 90.8037ZM72.2426 87.0511C72.9057 85.2828 73.2062 82.8069 73.2062 79.7H71.2062C71.2062 82.7264 70.9068 84.9172 70.3699 86.3489L72.2426 87.0511ZM73.2062 79.7V62.9H71.2062V79.7H73.2062ZM103.87 84.8L103.181 84.0759L103.172 84.0843L103.163 84.0929L103.87 84.8ZM113.87 84.8L113.127 85.469L113.145 85.4885L113.163 85.5071L113.87 84.8ZM113.77 94.2L113.101 93.4567L113.101 93.4567L113.77 94.2ZM108.67 95C106.73 95 105.345 94.46 104.377 93.4929L102.963 94.9071C104.396 96.34 106.344 97 108.67 97V95ZM104.377 93.4929C103.385 92.5001 102.87 91.2306 102.87 89.6H100.87C100.87 91.7028 101.556 93.4999 102.963 94.9071L104.377 93.4929ZM102.87 89.6C102.87 88.0016 103.429 86.655 104.577 85.5071L103.163 84.0929C101.644 85.6116 100.87 87.4651 100.87 89.6H102.87ZM104.56 85.5241C105.754 84.3869 107.265 83.8 109.17 83.8V81.8C106.809 81.8 104.787 82.5464 103.181 84.0759L104.56 85.5241ZM109.17 83.8C110.845 83.8 112.133 84.3641 113.127 85.469L114.614 84.131C113.208 82.5692 111.362 81.8 109.17 81.8V83.8ZM113.163 85.5071C114.276 86.6203 114.77 87.7765 114.77 89H116.77C116.77 87.1569 115.998 85.513 114.577 84.0929L113.163 85.5071ZM114.77 89C114.77 91.0632 114.171 92.494 113.101 93.4567L114.439 94.9433C116.036 93.506 116.77 91.4702 116.77 89H114.77ZM113.101 93.4567C111.979 94.4665 110.53 95 108.67 95V97C110.944 97 112.895 96.3335 114.439 94.9433L113.101 93.4567ZM67.3 230L68.2578 229.713L68.0802 229.121L67.4713 229.015L67.3 230ZM67.9 234.3L67.8501 235.299L68.9 235.351V234.3H67.9ZM45.2 234.3H44.2V235.351L45.2499 235.299L45.2 234.3ZM45.9 230L45.7935 229.006L45.25 229.064L45.0056 229.553L45.9 230ZM49.8 229.1L49.3528 228.206L49.3368 228.214L49.3211 228.222L49.8 229.1ZM49.5 222.2L50.4267 221.824L50.4226 221.814L50.4182 221.804L49.5 222.2ZM45.1 212L46.0182 211.604L45.7577 211H45.1V212ZM18.7 212.4L18.6619 211.401L18.0074 211.426L17.7688 212.036L18.7 212.4ZM16 219.3L15.0687 218.936L15.0655 218.944L16 219.3ZM15.6 228.9L14.9598 229.668L14.9941 229.697L15.0308 229.722L15.6 228.9ZM19.6 230L20.5247 229.619L20.2896 229.048L19.6739 229.003L19.6 230ZM20.3 234.3L20.2121 235.296L21.3 235.392V234.3H20.3ZM2.5 234.3H1.5V235.354L2.55256 235.299L2.5 234.3ZM3.2 230.1L3.01115 229.118L2.48091 229.22L2.27532 229.719L3.2 230.1ZM7.3 227.5L8.11373 228.081L8.11373 228.081L7.3 227.5ZM11.2 219.3L12.1306 219.666L12.1317 219.663L11.2 219.3ZM31.9 166.2L31.671 165.227L31.1592 165.347L30.9683 165.837L31.9 166.2ZM35.8 165.8L36.7167 165.4L36.455 164.8H35.8V165.8ZM59.6 220.4L58.6833 220.8L58.6869 220.808L59.6 220.4ZM63.5 227.8L62.7106 228.414L62.721 228.427L62.7318 228.44L63.5 227.8ZM43.2 207.5V208.5H44.7143L44.1197 207.107L43.2 207.5ZM35.6 189.7L36.5197 189.307L36.5171 189.301L35.6 189.7ZM31.2 178.8L32.1439 178.47L31.1628 175.666L30.2486 178.492L31.2 178.8ZM27.4 189.6L28.3331 189.96L28.3363 189.951L28.3394 189.943L27.4 189.6ZM20.5 207.5L19.5669 207.14L19.0428 208.5H20.5V207.5ZM66.3422 230.287C66.7115 231.519 66.9 232.854 66.9 234.3H68.9C68.9 232.679 68.6885 231.148 68.2578 229.713L66.3422 230.287ZM67.9499 233.301C63.9351 233.101 60.1184 233 56.5 233V235C60.0816 235 63.8649 235.099 67.8501 235.299L67.9499 233.301ZM56.5 233C52.948 233 49.1645 233.101 45.1501 233.301L45.2499 235.299C49.2355 235.099 52.9853 235 56.5 235V233ZM46.2 234.3C46.2 232.411 46.4339 231.168 46.7944 230.447L45.0056 229.553C44.4328 230.698 44.2 232.322 44.2 234.3H46.2ZM46.0065 230.994C47.881 230.793 49.3568 230.481 50.2789 229.978L49.3211 228.222C48.7765 228.519 47.6523 228.807 45.7935 229.006L46.0065 230.994ZM50.2472 229.994C50.7911 229.722 51.2456 229.334 51.5575 228.814C51.8679 228.297 52 227.711 52 227.1H50C50 227.422 49.9321 227.636 49.8425 227.786C49.7544 227.932 49.6089 228.078 49.3528 228.206L50.2472 229.994ZM52 227.1C52 226.541 51.835 225.811 51.5812 224.982C51.3193 224.127 50.9324 223.072 50.4267 221.824L48.5733 222.576C49.0676 223.795 49.4307 224.79 49.6688 225.568C49.915 226.372 50 226.859 50 227.1H52ZM50.4182 221.804L46.0182 211.604L44.1818 212.396L48.5818 222.596L50.4182 221.804ZM45.1 211C34.493 211 25.6793 211.133 18.6619 211.401L18.7381 213.399C25.7207 213.133 34.507 213 45.1 213V211ZM17.7688 212.036L15.0688 218.936L16.9312 219.664L19.6312 212.764L17.7688 212.036ZM15.0655 218.944C13.9866 221.776 13.4 224.114 13.4 225.9H15.4C15.4 224.486 15.8801 222.424 16.9345 219.656L15.0655 218.944ZM13.4 225.9C13.4 227.44 13.8708 228.761 14.9598 229.668L16.2402 228.132C15.7292 227.706 15.4 227.026 15.4 225.9H13.4ZM15.0308 229.722C16.1144 230.472 17.6595 230.859 19.5261 230.997L19.6739 229.003C17.9405 228.874 16.8189 228.528 16.1692 228.078L15.0308 229.722ZM18.6753 230.381C19.0762 231.354 19.3 232.647 19.3 234.3H21.3C21.3 232.486 21.0571 230.912 20.5247 229.619L18.6753 230.381ZM20.3879 233.304C18.0778 233.1 14.8771 233 10.8 233V235C14.8563 235 17.9889 235.1 20.2121 235.296L20.3879 233.304ZM10.8 233C9.03847 233 6.24939 233.101 2.44744 233.301L2.55256 235.299C6.35061 235.099 9.09486 235 10.8 235V233ZM3.5 234.3C3.5 232.72 3.72216 231.458 4.12468 230.481L2.27532 229.719C1.74451 231.008 1.5 232.547 1.5 234.3H3.5ZM3.38885 231.082C5.36692 230.702 6.96033 229.696 8.11373 228.081L6.48627 226.919C5.63967 228.104 4.49975 228.832 3.01115 229.118L3.38885 231.082ZM8.11373 228.081C9.19408 226.569 10.5327 223.727 12.1306 219.666L10.2694 218.934C8.66734 223.006 7.40592 225.631 6.48627 226.919L8.11373 228.081ZM12.1317 219.663L32.8317 166.563L30.9683 165.837L10.2683 218.937L12.1317 219.663ZM32.129 167.173C33.1709 166.928 34.3915 166.8 35.8 166.8V164.8C34.2751 164.8 32.8958 164.938 31.671 165.227L32.129 167.173ZM34.8833 166.2L58.6833 220.8L60.5167 220L36.7167 165.4L34.8833 166.2ZM58.6869 220.808C60.3491 224.531 61.6927 227.105 62.7106 228.414L64.2894 227.186C63.4407 226.095 62.1843 223.736 60.5131 219.992L58.6869 220.808ZM62.7318 228.44C63.8829 229.822 65.3608 230.678 67.1287 230.985L67.4713 229.015C66.1725 228.789 65.1171 228.178 64.2682 227.16L62.7318 228.44ZM44.1197 207.107L36.5197 189.307L34.6803 190.093L42.2803 207.893L44.1197 207.107ZM36.5171 189.301C34.5206 184.709 33.0652 181.102 32.1439 178.47L30.2561 179.13C31.2015 181.831 32.6794 185.491 34.6829 190.099L36.5171 189.301ZM30.2486 178.492C29.5213 180.74 28.2601 184.325 26.4606 189.257L28.3394 189.943C30.1399 185.008 31.412 181.393 32.1514 179.108L30.2486 178.492ZM26.4669 189.24L19.5669 207.14L21.4331 207.86L28.3331 189.96L26.4669 189.24ZM20.5 208.5H43.2V206.5H20.5V208.5ZM78.0102 234.2H77.0102V235.233L78.0424 235.199L78.0102 234.2ZM78.5102 229.7L78.4304 228.703L77.7859 228.755L77.5684 229.364L78.5102 229.7ZM82.2102 228.9L81.7911 227.992L81.7769 227.999L81.7629 228.006L82.2102 228.9ZM84.0102 226.8L84.9588 227.116L84.9588 227.116L84.0102 226.8ZM84.0102 191.2L84.9588 190.884L84.9588 190.884L84.0102 191.2ZM82.2102 189.1L81.7629 189.994L81.7769 190.001L81.7911 190.008L82.2102 189.1ZM78.5102 188.3L77.5615 188.616L77.7707 189.244L78.4304 189.297L78.5102 188.3ZM78.0102 183.8L78.0414 182.8L77.0102 182.768V183.8H78.0102ZM100.21 183.8H101.21V182.771L100.182 182.8L100.21 183.8ZM99.8102 188.3L99.8656 189.298L100.576 189.259L100.772 188.575L99.8102 188.3ZM94.9102 189.9L94.1774 189.22L94.1638 189.234L94.1509 189.249L94.9102 189.9ZM94.9102 228.1L94.1293 228.725L94.1523 228.753L94.1774 228.78L94.9102 228.1ZM99.8102 229.7L100.776 229.442L100.59 228.742L99.8656 228.702L99.8102 229.7ZM100.21 234.2L100.181 235.2L101.21 235.23V234.2H100.21ZM79.0102 234.2C79.0102 232.151 79.1799 230.798 79.4519 230.036L77.5684 229.364C77.1737 230.469 77.0102 232.115 77.0102 234.2H79.0102ZM78.5899 230.697C80.2929 230.561 81.682 230.282 82.6574 229.794L81.7629 228.006C81.1383 228.318 80.0608 228.573 78.4304 228.703L78.5899 230.697ZM82.6292 229.808C83.7741 229.28 84.5483 228.348 84.9588 227.116L83.0615 226.484C82.8053 227.252 82.3795 227.72 81.7911 227.992L82.6292 229.808ZM84.9588 227.116C85.3443 225.96 85.5102 224.329 85.5102 222.3H83.5102C83.5102 224.271 83.3427 225.64 83.0615 226.484L84.9588 227.116ZM85.5102 222.3V195.6H83.5102V222.3H85.5102ZM85.5102 195.6C85.5102 193.633 85.3435 192.038 84.9588 190.884L83.0615 191.516C83.3434 192.362 83.5102 193.7 83.5102 195.6H85.5102ZM84.9588 190.884C84.5483 189.652 83.7741 188.72 82.6292 188.192L81.7911 190.008C82.3795 190.28 82.8053 190.748 83.0615 191.516L84.9588 190.884ZM82.6574 188.206C81.682 187.718 80.2929 187.439 78.5899 187.303L78.4304 189.297C80.0608 189.427 81.1383 189.682 81.7629 189.994L82.6574 188.206ZM79.4588 187.984C79.1776 187.14 79.0102 185.771 79.0102 183.8H77.0102C77.0102 185.829 77.176 187.46 77.5615 188.616L79.4588 187.984ZM77.9789 184.8C82.2528 184.933 85.997 185 89.2102 185V183C86.0233 183 82.3008 182.934 78.0414 182.8L77.9789 184.8ZM89.2102 185C91.8908 185 95.5684 184.933 100.239 184.8L100.182 182.8C95.5185 182.934 91.8628 183 89.2102 183V185ZM99.2102 183.8C99.2102 185.854 99.0745 187.235 98.8486 188.025L100.772 188.575C101.079 187.498 101.21 185.879 101.21 183.8H99.2102ZM99.7547 187.302C97.2999 187.438 95.3221 187.987 94.1774 189.22L95.643 190.58C96.2316 189.947 97.5204 189.429 99.8656 189.298L99.7547 187.302ZM94.1509 189.249C93.596 189.897 93.2481 190.791 93.0316 191.819C92.8123 192.86 92.7102 194.127 92.7102 195.6H94.7102C94.7102 194.206 94.808 193.09 94.9887 192.231C95.1722 191.359 95.4243 190.837 95.6694 190.551L94.1509 189.249ZM92.7102 195.6V222.3H94.7102V195.6H92.7102ZM92.7102 222.3C92.7102 223.774 92.8125 225.047 93.0309 226.103C93.2471 227.148 93.5918 228.053 94.1293 228.725L95.691 227.475C95.4286 227.147 95.1732 226.586 94.9894 225.697C94.8079 224.82 94.7102 223.693 94.7102 222.3H92.7102ZM94.1774 228.78C95.3221 230.013 97.2999 230.562 99.7547 230.698L99.8656 228.702C97.5204 228.571 96.2316 228.053 95.643 227.42L94.1774 228.78ZM98.8439 229.958C99.076 230.828 99.2102 232.222 99.2102 234.2H101.21C101.21 232.178 101.078 230.572 100.776 229.442L98.8439 229.958ZM100.24 233.2C95.7016 233.067 92.024 233 89.2102 233V235C91.9963 235 95.652 235.066 100.181 235.2L100.24 233.2ZM89.2102 233C85.8639 233 82.1196 233.067 77.9779 233.201L78.0424 235.199C82.1674 235.066 85.8898 235 89.2102 235V233ZM156.413 222.3L157.241 221.741L157.237 221.735L156.413 222.3ZM161.913 228L161.394 228.855L161.411 228.866L161.429 228.876L161.913 228ZM169.012 229.8H170.012V228.846L169.06 228.801L169.012 229.8ZM168.612 234V235H169.351L169.568 234.294L168.612 234ZM154.212 234.7L153.349 235.204L153.679 235.77L154.33 235.693L154.212 234.7ZM151.513 230.5L150.661 231.025L150.671 231.04L150.68 231.055L151.513 230.5ZM147.012 223.2L146.154 223.712L146.157 223.719L146.161 223.725L147.012 223.2ZM137.212 213.1L137.751 212.257L137.49 212.091L137.181 212.1L137.212 213.1ZM134.012 213.2L133.978 214.199L134.011 214.201L134.044 214.2L134.012 213.2ZM131.112 213.1L131.147 212.101L130.112 212.065V213.1H131.112ZM131.613 227.1L132.567 226.802L132.567 226.802L131.613 227.1ZM133.213 229.3L132.734 230.178L132.749 230.186L132.765 230.194L133.213 229.3ZM136.812 230L137.761 229.684L137.543 229.03L136.854 229.001L136.812 230ZM137.212 234.2L137.159 235.199L138.212 235.256V234.2H137.212ZM115.412 234.2H114.412V235.236L115.448 235.199L115.412 234.2ZM115.913 230L115.833 229.003L115.188 229.055L114.971 229.664L115.913 230ZM119.613 229.2L119.193 228.292L119.179 228.299L119.165 228.306L119.613 229.2ZM121.413 227.1L122.361 227.416L122.361 227.416L121.413 227.1ZM120.712 189.8L119.953 190.451L119.953 190.451L120.712 189.8ZM115.913 188.2L114.964 188.516L115.179 189.161L115.857 189.198L115.913 188.2ZM115.412 183.8L115.465 182.801L114.412 182.746V183.8H115.412ZM126.413 184V185L126.426 185L126.413 184ZM133.612 183.9L133.626 184.9L133.639 184.9L133.651 184.899L133.612 183.9ZM156.012 187.4L155.41 188.198L155.41 188.198L156.012 187.4ZM157.212 206.5L157.92 207.207L157.929 207.198L157.212 206.5ZM146.913 211.5L146.719 210.519L144.17 211.021L146.398 212.357L146.913 211.5ZM151.013 215L150.232 215.625L150.249 215.646L150.267 215.667L151.013 215ZM146.712 205.7L147.19 206.579L147.197 206.575L147.205 206.571L146.712 205.7ZM131.112 188.6L130.916 187.619L130.112 187.78V188.6H131.112ZM131.112 207.9H130.112V208.767L130.971 208.89L131.112 207.9ZM155.584 222.859C157.429 225.594 159.359 227.62 161.394 228.855L162.431 227.145C160.732 226.114 158.996 224.339 157.241 221.741L155.584 222.859ZM161.429 228.876C163.528 230.033 166.052 230.66 168.965 230.799L169.06 228.801C166.373 228.673 164.164 228.1 162.396 227.124L161.429 228.876ZM168.012 229.8C168.012 231.72 167.876 232.992 167.657 233.706L169.568 234.294C169.882 233.275 170.012 231.747 170.012 229.8H168.012ZM168.612 233C162.922 233 158.08 233.234 154.095 233.707L154.33 235.693C158.212 235.233 162.97 235 168.612 235V233ZM155.076 234.196C154.593 233.367 153.677 231.944 152.345 229.945L150.68 231.055C152.015 233.056 152.899 234.433 153.349 235.204L155.076 234.196ZM152.364 229.975L147.864 222.675L146.161 223.725L150.661 231.025L152.364 229.975ZM147.871 222.688C145.325 218.42 141.948 214.941 137.751 212.257L136.674 213.943C140.61 216.459 143.767 219.713 146.154 223.712L147.871 222.688ZM137.181 212.1L133.981 212.2L134.044 214.2L137.244 214.1L137.181 212.1ZM134.047 212.201L131.147 212.101L131.078 214.099L133.978 214.199L134.047 212.201ZM130.112 213.1V222.2H132.112V213.1H130.112ZM130.112 222.2C130.112 224.423 130.278 226.181 130.658 227.398L132.567 226.802C132.281 225.885 132.112 224.377 132.112 222.2H130.112ZM130.658 227.398C131.042 228.627 131.704 229.616 132.734 230.178L133.691 228.422C133.254 228.184 132.85 227.707 132.567 226.802L130.658 227.398ZM132.765 230.194C133.755 230.689 135.124 230.931 136.771 230.999L136.854 229.001C135.301 228.936 134.27 228.711 133.66 228.406L132.765 230.194ZM135.864 230.316C136.074 230.947 136.212 232.2 136.212 234.2H138.212C138.212 232.2 138.084 230.653 137.761 229.684L135.864 230.316ZM137.266 233.201C134.772 233.067 131.117 233 126.313 233V235C131.108 235 134.72 235.067 137.159 235.199L137.266 233.201ZM126.313 233C122.767 233 119.121 233.067 115.377 233.201L115.448 235.199C119.17 235.066 122.792 235 126.313 235V233ZM116.412 234.2C116.412 232.365 116.58 231.105 116.854 230.336L114.971 229.664C114.578 230.762 114.412 232.301 114.412 234.2H116.412ZM115.992 230.997C117.695 230.861 119.084 230.582 120.06 230.094L119.165 228.306C118.541 228.618 117.463 228.873 115.833 229.003L115.992 230.997ZM120.032 230.108C121.176 229.58 121.951 228.648 122.361 227.416L120.464 226.784C120.208 227.552 119.782 228.02 119.193 228.292L120.032 230.108ZM122.361 227.416C122.747 226.26 122.913 224.629 122.913 222.6H120.913C120.913 224.571 120.745 225.94 120.464 226.784L122.361 227.416ZM122.913 222.6V195.5H120.913V222.6H122.913ZM122.913 195.5C122.913 194.027 122.81 192.76 122.591 191.719C122.375 190.691 122.027 189.797 121.472 189.149L119.953 190.451C120.198 190.737 120.45 191.259 120.634 192.131C120.815 192.99 120.913 194.106 120.913 195.5H122.913ZM121.472 189.149C120.386 187.883 118.411 187.337 115.968 187.202L115.857 189.198C118.214 189.329 119.439 189.851 119.953 190.451L121.472 189.149ZM116.861 187.884C116.579 187.038 116.412 185.7 116.412 183.8H114.412C114.412 185.767 114.579 187.362 114.964 188.516L116.861 187.884ZM115.36 184.799C117.92 184.933 121.607 185 126.413 185V183C121.618 183 117.972 182.933 115.465 182.801L115.36 184.799ZM126.426 185L133.626 184.9L133.599 182.9L126.399 183L126.426 185ZM133.651 184.899C137.114 184.766 139.732 184.7 141.513 184.7V182.7C139.693 182.7 137.044 182.767 133.574 182.901L133.651 184.899ZM141.513 184.7C147.81 184.7 152.39 185.918 155.41 188.198L156.615 186.602C153.101 183.949 148.015 182.7 141.513 182.7V184.7ZM155.41 188.198C158.443 190.489 159.913 193.368 159.913 196.9H161.913C161.913 192.699 160.115 189.245 156.615 186.602L155.41 188.198ZM159.913 196.9C159.913 200.533 158.763 203.474 156.496 205.802L157.929 207.198C160.595 204.459 161.913 201.001 161.913 196.9H159.913ZM156.505 205.793C154.214 208.084 150.98 209.68 146.719 210.519L147.106 212.481C151.645 211.587 155.278 209.849 157.92 207.207L156.505 205.793ZM146.398 212.357C147.977 213.305 149.249 214.396 150.232 215.625L151.793 214.375C150.643 212.937 149.182 211.695 147.427 210.643L146.398 212.357ZM150.267 215.667C151.352 216.879 153.119 219.263 155.588 222.865L157.237 221.735C154.773 218.137 152.94 215.654 151.758 214.333L150.267 215.667ZM134.912 209.2C139.82 209.2 143.932 208.349 147.19 206.579L146.235 204.821C143.36 206.384 139.605 207.2 134.912 207.2V209.2ZM147.205 206.571C150.555 204.677 152.313 201.861 152.313 198.2H150.313C150.313 201.073 149.003 203.256 146.22 204.829L147.205 206.571ZM152.313 198.2C152.313 194.545 151.041 191.665 148.401 189.742C145.82 187.861 142.071 187 137.312 187V189C141.887 189 145.138 189.839 147.224 191.358C149.251 192.835 150.313 195.055 150.313 198.2H152.313ZM137.312 187C135.116 187 132.984 187.206 130.916 187.619L131.309 189.581C133.241 189.194 135.242 189 137.312 189V187ZM130.112 188.6V207.9H132.112V188.6H130.112ZM130.971 208.89C132.407 209.095 133.722 209.2 134.912 209.2V207.2C133.836 207.2 132.618 207.105 131.254 206.91L130.971 208.89ZM192.033 233.6L191.79 234.57L191.795 234.571L192.033 233.6ZM182.433 230.3L181.446 230.138L181.319 230.914L182.043 231.221L182.433 230.3ZM183.233 218.7L182.93 217.747L182.187 217.983L182.235 218.761L183.233 218.7ZM188.633 218L189.632 217.968L189.601 217H188.633V218ZM192.533 227L191.929 227.797L191.94 227.805L192.533 227ZM212.233 228L211.765 227.116L211.754 227.122L212.233 228ZM213.933 219.6L213.226 220.307L213.248 220.329L213.271 220.35L213.933 219.6ZM209.933 217L209.501 217.902L209.525 217.913L209.548 217.923L209.933 217ZM203.133 214.3L203.468 213.358L203.461 213.355L203.454 213.353L203.133 214.3ZM193.133 210.4L192.676 211.29L192.69 211.297L192.705 211.304L193.133 210.4ZM186.633 205.3L185.859 205.933L185.869 205.946L185.88 205.959L186.633 205.3ZM188.933 186.9L188.367 186.075L188.359 186.081L188.933 186.9ZM212.133 184.3L211.941 185.281L211.945 185.282L212.133 184.3ZM219.433 186.6L220.429 186.691L220.489 186.033L219.907 185.72L219.433 186.6ZM219.933 197.1L220.397 197.986L221.081 197.628L220.907 196.875L219.933 197.1ZM214.433 198.2L213.462 198.439L213.649 199.2H214.433V198.2ZM209.833 190.3L209.237 191.103L209.251 191.114L209.266 191.124L209.833 190.3ZM194.933 189.5L194.461 188.619L194.454 188.622L194.447 188.626L194.933 189.5ZM195.433 199.2L194.903 200.048L194.903 200.048L195.433 199.2ZM205.433 203.6L205.1 204.543L205.107 204.545L205.433 203.6ZM221.233 212.3L220.467 212.943L220.472 212.949L220.477 212.955L221.233 212.3ZM218.433 230.6L219.038 231.396L219.038 231.396L218.433 230.6ZM202.033 233.7C198.432 233.7 195.18 233.34 192.27 232.629L191.795 234.571C194.886 235.327 198.301 235.7 202.033 235.7V233.7ZM192.275 232.63C189.403 231.912 186.252 230.83 182.822 229.379L182.043 231.221C185.547 232.703 188.796 233.822 191.79 234.57L192.275 232.63ZM183.42 230.462C184.161 225.947 184.437 222.002 184.231 218.639L182.235 218.761C182.429 221.931 182.171 225.719 181.446 230.138L183.42 230.462ZM183.536 219.653C184.875 219.227 186.566 219 188.633 219V217C186.433 217 184.524 217.24 182.93 217.747L183.536 219.653ZM187.633 218.032C187.773 222.359 189.147 225.692 191.929 227.797L193.136 226.203C190.985 224.575 189.759 221.908 189.632 217.968L187.633 218.032ZM191.94 227.805C194.706 229.843 198.477 230.8 203.133 230.8V228.8C198.722 228.8 195.427 227.89 193.126 226.195L191.94 227.805ZM203.133 230.8C207.084 230.8 210.306 230.19 212.712 228.878L211.754 227.122C209.76 228.21 206.915 228.8 203.133 228.8V230.8ZM212.701 228.884C215.186 227.568 216.633 225.679 216.633 223.2H214.633C214.633 224.721 213.813 226.032 211.765 227.116L212.701 228.884ZM216.633 223.2C216.633 221.488 215.924 220.023 214.594 218.85L213.271 220.35C214.209 221.177 214.633 222.112 214.633 223.2H216.633ZM214.64 218.893C213.468 217.721 212.02 216.786 210.317 216.077L209.548 217.923C211.045 218.547 212.264 219.346 213.226 220.307L214.64 218.893ZM210.364 216.098C208.783 215.342 206.478 214.428 203.468 213.358L202.798 215.242C205.788 216.305 208.016 217.192 209.501 217.902L210.364 216.098ZM203.454 213.353C199.339 211.959 196.046 210.673 193.561 209.496L192.705 211.304C195.287 212.527 198.66 213.841 202.812 215.247L203.454 213.353ZM193.59 209.51C191.238 208.303 189.171 206.682 187.385 204.641L185.88 205.959C187.828 208.185 190.095 209.964 192.676 211.29L193.59 209.51ZM187.407 204.667C185.774 202.672 184.933 200.172 184.933 197.1H182.933C182.933 200.561 183.891 203.528 185.859 205.933L187.407 204.667ZM184.933 197.1C184.933 192.922 186.469 189.845 189.506 187.719L188.359 186.081C184.73 188.622 182.933 192.344 182.933 197.1H184.933ZM189.499 187.725C192.675 185.544 197.086 184.4 202.833 184.4V182.4C196.846 182.4 191.99 183.589 188.367 186.075L189.499 187.725ZM202.833 184.4C205.902 184.4 208.938 184.694 211.941 185.281L212.325 183.319C209.195 182.706 206.03 182.4 202.833 182.4V184.4ZM211.945 185.282C215.032 185.873 217.353 186.616 218.959 187.48L219.907 185.72C218.046 184.717 215.5 183.927 212.321 183.318L211.945 185.282ZM218.437 186.509C218.366 187.29 218.333 188.461 218.333 190H220.333C220.333 188.472 220.366 187.376 220.429 186.691L218.437 186.509ZM218.333 190C218.333 193.032 218.534 195.485 218.958 197.325L220.907 196.875C220.532 195.249 220.333 192.968 220.333 190H218.333ZM219.469 196.214C218.261 196.847 216.603 197.2 214.433 197.2V199.2C216.796 199.2 218.805 198.82 220.397 197.986L219.469 196.214ZM215.404 197.961C214.441 194.041 212.816 191.138 210.399 189.476L209.266 191.124C211.116 192.396 212.558 194.759 213.462 198.439L215.404 197.961ZM210.429 189.497C208.158 187.813 205.372 187 202.133 187V189C205.027 189 207.374 189.721 209.237 191.103L210.429 189.497ZM202.133 187C199.095 187 196.518 187.517 194.461 188.619L195.405 190.381C197.081 189.483 199.304 189 202.133 189V187ZM194.447 188.626C193.426 189.193 192.612 189.921 192.055 190.827C191.497 191.737 191.233 192.772 191.233 193.9H193.233C193.233 193.095 193.418 192.43 193.76 191.873C194.104 191.313 194.639 190.807 195.418 190.374L194.447 188.626ZM191.233 193.9C191.233 196.499 192.527 198.563 194.903 200.048L195.963 198.352C194.072 197.17 193.233 195.701 193.233 193.9H191.233ZM194.903 200.048C197.131 201.441 200.548 202.936 205.1 204.543L205.766 202.657C201.251 201.064 198.001 199.626 195.963 198.352L194.903 200.048ZM205.107 204.545C208.952 205.871 212.078 207.123 214.495 208.299L215.37 206.501C212.855 205.277 209.647 203.995 205.759 202.655L205.107 204.545ZM214.495 208.299C216.838 209.439 218.825 210.986 220.467 212.943L221.999 211.657C220.174 209.481 217.961 207.761 215.37 206.501L214.495 208.299ZM220.477 212.955C222.028 214.745 222.833 217.033 222.833 219.9H224.833C224.833 216.633 223.904 213.855 221.989 211.645L220.477 212.955ZM222.833 219.9C222.833 223.977 221.187 227.253 217.828 229.804L219.038 231.396C222.879 228.48 224.833 224.623 224.833 219.9H222.833ZM217.828 229.804C214.481 232.345 209.273 233.7 202.033 233.7V235.7C209.459 235.7 215.185 234.322 219.038 231.396L217.828 229.804ZM319.652 183.8H320.652V182.757L319.611 182.801L319.652 183.8ZM318.952 188.3L319.205 189.268L319.73 189.131L319.901 188.616L318.952 188.3ZM315.152 191L314.339 190.419L314.333 190.427L315.152 191ZM311.652 198.9L312.593 199.239L312.594 199.235L311.652 198.9ZM298.952 234.1L299.303 235.036L299.736 234.874L299.893 234.439L298.952 234.1ZM294.752 234.7L293.831 235.089L294.089 235.7H294.752V234.7ZM283.752 211.9L282.857 212.344L282.86 212.352L282.864 212.359L283.752 211.9ZM277.452 199.2L278.348 198.756L277.374 196.791L276.529 198.815L277.452 199.2ZM262.852 234.2L263.189 235.142L263.605 234.993L263.775 234.585L262.852 234.2ZM258.552 234.7L257.616 235.052L257.86 235.7H258.552V234.7ZM243.152 197.5L242.235 197.899L242.237 197.902L243.152 197.5ZM240.252 191.3L239.358 191.747L239.369 191.769L239.381 191.79L240.252 191.3ZM238.552 189.2L237.952 190L238.007 190.041L238.067 190.074L238.552 189.2ZM236.152 188.4L235.189 188.668L235.367 189.31L236.028 189.392L236.152 188.4ZM235.652 183.8L235.688 182.801L234.652 182.764V183.8H235.652ZM257.152 183.8H258.152V182.769L257.122 182.8L257.152 183.8ZM256.752 188.3L256.817 189.298L257.582 189.249L257.733 188.496L256.752 188.3ZM252.352 189.2L252.771 190.108L252.799 190.095L252.826 190.08L252.352 189.2ZM252.752 196.4L253.663 195.986L253.661 195.983L252.752 196.4ZM256.552 204.4L257.452 203.964L257.451 203.96L256.552 204.4ZM263.152 218.7L262.229 219.085L263.146 221.285L264.074 219.089L263.152 218.7ZM277.852 183.9L277.493 182.967L277.097 183.119L276.931 183.511L277.852 183.9ZM282.052 183.4L282.955 182.97L282.684 182.4H282.052V183.4ZM288.252 196L287.358 196.447L287.358 196.447L288.252 196ZM299.252 218.8L298.34 219.208L299.304 221.364L300.181 219.171L299.252 218.8ZM307.252 198.8L308.181 199.171L308.187 199.155L308.194 199.138L307.252 198.8ZM307.252 189.8L306.606 190.563L306.638 190.59L306.671 190.614L307.252 189.8ZM303.052 188.3L302.108 188.63L302.31 189.207L302.916 189.291L303.052 188.3ZM302.352 183.8L302.392 182.801L301.352 182.759V183.8H302.352ZM311.152 185C313.636 185 316.484 184.933 319.694 184.799L319.611 182.801C316.421 182.934 313.602 183 311.152 183V185ZM318.652 183.8C318.652 185.302 318.434 186.694 318.004 187.984L319.901 188.616C320.404 187.106 320.652 185.498 320.652 183.8H318.652ZM318.7 187.332C316.92 187.797 315.462 188.846 314.339 190.419L315.966 191.581C316.843 190.354 317.918 189.603 319.205 189.268L318.7 187.332ZM314.333 190.427C313.313 191.884 312.108 194.638 310.71 198.565L312.594 199.235C313.997 195.295 315.125 192.782 315.972 191.573L314.333 190.427ZM310.712 198.561L298.012 233.761L299.893 234.439L312.593 199.239L310.712 198.561ZM298.601 233.164C297.689 233.506 296.422 233.7 294.752 233.7V235.7C296.55 235.7 298.082 235.494 299.303 235.036L298.601 233.164ZM295.674 234.311C293.325 228.742 289.645 221.115 284.641 211.441L282.864 212.359C287.86 222.018 291.513 229.591 293.831 235.089L295.674 234.311ZM284.648 211.456L278.348 198.756L276.557 199.644L282.857 212.344L284.648 211.456ZM276.529 198.815L261.929 233.815L263.775 234.585L278.375 199.585L276.529 198.815ZM262.516 233.258C261.75 233.532 260.459 233.7 258.552 233.7V235.7C260.513 235.7 262.088 235.535 263.189 235.142L262.516 233.258ZM259.488 234.348C255.746 224.391 250.605 211.973 244.068 197.098L242.237 197.902C248.766 212.76 253.892 225.142 257.616 235.052L259.488 234.348ZM244.069 197.101C242.738 194.039 241.753 191.927 241.124 190.81L239.381 191.79C239.952 192.806 240.9 194.828 242.235 197.899L244.069 197.101ZM241.147 190.853C240.582 189.723 239.902 188.806 239.038 188.326L238.067 190.074C238.403 190.261 238.856 190.743 239.358 191.747L241.147 190.853ZM239.152 188.4C238.419 187.85 237.421 187.551 236.276 187.408L236.028 189.392C237.017 189.516 237.619 189.75 237.952 190L239.152 188.4ZM237.116 188.132C236.816 187.051 236.652 185.616 236.652 183.8H234.652C234.652 185.717 234.822 187.349 235.189 188.668L237.116 188.132ZM235.617 184.799C239.36 184.933 242.839 185 246.052 185V183C242.866 183 239.411 182.934 235.688 182.801L235.617 184.799ZM246.052 185C249.066 185 252.777 184.933 257.183 184.8L257.122 182.8C252.728 182.934 249.039 183 246.052 183V185ZM256.152 183.8C256.152 185.415 256.023 186.848 255.772 188.104L257.733 188.496C258.015 187.086 258.152 185.518 258.152 183.8H256.152ZM256.688 187.302C254.602 187.437 252.948 187.744 251.878 188.32L252.826 190.08C253.49 189.723 254.769 189.43 256.817 189.298L256.688 187.302ZM251.933 188.292C251.363 188.555 250.877 188.934 250.539 189.455C250.2 189.977 250.052 190.574 250.052 191.2H252.052C252.052 190.893 252.122 190.69 252.216 190.545C252.311 190.399 252.475 190.245 252.771 190.108L251.933 188.292ZM250.052 191.2C250.052 191.859 250.233 192.662 250.527 193.561C250.826 194.477 251.268 195.564 251.844 196.818L253.661 195.983C253.103 194.769 252.695 193.757 252.428 192.939C252.155 192.105 252.052 191.541 252.052 191.2H250.052ZM251.842 196.814C252.847 199.025 254.118 201.701 255.654 204.84L257.451 203.96C255.92 200.832 254.657 198.175 253.663 195.986L251.842 196.814ZM255.652 204.836C258.717 211.166 260.907 215.912 262.229 219.085L264.075 218.315C262.731 215.088 260.521 210.301 257.452 203.964L255.652 204.836ZM264.074 219.089L278.774 184.289L276.931 183.511L262.231 218.311L264.074 219.089ZM278.211 184.833C278.896 184.57 280.138 184.4 282.052 184.4V182.4C280.1 182.4 278.542 182.563 277.493 182.967L278.211 184.833ZM281.149 183.83C282.487 186.639 284.557 190.846 287.358 196.447L289.147 195.553C286.347 189.954 284.284 185.761 282.955 182.97L281.149 183.83ZM287.358 196.447C292.423 206.578 296.082 214.162 298.34 219.208L300.165 218.392C297.889 213.304 294.215 205.689 289.147 195.553L287.358 196.447ZM300.181 219.171L308.181 199.171L306.324 198.429L298.324 218.429L300.181 219.171ZM308.194 199.138C309.133 196.52 309.652 194.416 309.652 192.9H307.652C307.652 194.05 307.238 195.88 306.311 198.462L308.194 199.138ZM309.652 192.9C309.652 191.257 309.089 189.883 307.834 188.986L306.671 190.614C307.282 191.05 307.652 191.743 307.652 192.9H309.652ZM307.898 189.037C306.816 188.121 305.191 187.586 303.189 187.309L302.916 189.291C304.78 189.548 305.955 190.012 306.606 190.563L307.898 189.037ZM303.996 187.97C303.573 186.76 303.352 185.374 303.352 183.8H301.352C301.352 185.559 301.599 187.174 302.108 188.63L303.996 187.97ZM302.312 184.799C305.655 184.933 308.602 185 311.152 185V183C308.636 183 305.716 182.934 302.392 182.801L302.312 184.799ZM377.741 229.7L378.689 229.384L378.485 228.769L377.84 228.705L377.741 229.7ZM378.241 234.2L378.191 235.199L379.241 235.251V234.2H378.241ZM357.341 234.2H356.341V235.251L357.391 235.199L357.341 234.2ZM357.941 229.7L357.811 228.708L357.246 228.782L357.021 229.306L357.941 229.7ZM361.141 228.9L361.626 229.774L361.641 229.766L361.655 229.757L361.141 228.9ZM361.141 224.1L362.051 223.686L362.047 223.678L361.141 224.1ZM359.141 219.8L360.047 219.378L359.778 218.8H359.141V219.8ZM336.441 220.3L336.38 219.302L335.761 219.339L335.52 219.91L336.441 220.3ZM335.341 222.9L336.258 223.299L336.262 223.29L335.341 222.9ZM338.441 229.7L339.389 229.384L339.184 228.768L338.538 228.705L338.441 229.7ZM339.041 234.2L338.988 235.199L340.041 235.254V234.2H339.041ZM323.641 234.2H322.641V235.264L323.703 235.198L323.641 234.2ZM324.241 229.7L324.062 228.716L323.45 228.827L323.279 229.425L324.241 229.7ZM327.641 227.9L328.4 228.551L328.411 228.538L328.421 228.525L327.641 227.9ZM330.841 222L331.751 222.414L331.752 222.411L330.841 222ZM348.041 183.9L347.835 182.921L347.338 183.026L347.129 183.489L348.041 183.9ZM352.041 183.5L352.942 183.066L352.669 182.5H352.041V183.5ZM370.441 221.7L371.343 221.269L371.342 221.266L370.441 221.7ZM374.141 227.9L373.411 228.584L373.422 228.596L373.434 228.607L374.141 227.9ZM357.141 215.7V216.7H358.724L358.043 215.27L357.141 215.7ZM351.141 203.1L352.044 202.67L352.038 202.66L351.141 203.1ZM347.541 194.7L348.492 194.393L347.537 191.431L346.588 194.395L347.541 194.7ZM345.541 199.7L344.639 199.267L344.635 199.275L344.632 199.283L345.541 199.7ZM344.141 202.7L343.246 202.253L343.235 202.275L343.225 202.298L344.141 202.7ZM338.441 215.7L337.525 215.298L336.91 216.7H338.441V215.7ZM376.792 230.016C377.073 230.86 377.241 232.229 377.241 234.2H379.241C379.241 232.171 379.075 230.54 378.689 229.384L376.792 230.016ZM378.291 233.201C375.601 233.067 372.149 233 367.941 233V235C372.132 235 375.547 235.067 378.191 235.199L378.291 233.201ZM367.941 233C363.533 233 359.981 233.067 357.291 233.201L357.391 235.199C360.033 235.067 363.548 235 367.941 235V233ZM358.341 234.2C358.341 232.158 358.544 230.83 358.86 230.094L357.021 229.306C356.537 230.436 356.341 232.109 356.341 234.2H358.341ZM358.07 230.692C359.611 230.491 360.846 230.208 361.626 229.774L360.655 228.026C360.236 228.259 359.337 228.509 357.811 228.708L358.07 230.692ZM361.655 229.757C362.601 229.19 363.141 228.31 363.141 227.2H361.141C361.141 227.557 361.014 227.81 360.626 228.043L361.655 229.757ZM363.141 227.2C363.141 226.743 363.02 226.217 362.842 225.668C362.66 225.102 362.393 224.439 362.051 223.686L360.23 224.514C360.555 225.227 360.788 225.815 360.939 226.282C361.095 226.766 361.141 227.057 361.141 227.2H363.141ZM362.047 223.678L360.047 219.378L358.234 220.222L360.234 224.522L362.047 223.678ZM359.141 218.8C349.533 218.8 341.943 218.967 336.38 219.302L336.501 221.298C342.005 220.967 349.548 220.8 359.141 220.8V218.8ZM335.52 219.91L334.42 222.51L336.262 223.29L337.362 220.69L335.52 219.91ZM334.424 222.501C333.744 224.065 333.341 225.421 333.341 226.5H335.341C335.341 225.846 335.604 224.801 336.258 223.299L334.424 222.501ZM333.341 226.5C333.341 227.714 333.804 228.749 334.75 229.488C335.647 230.188 336.889 230.553 338.344 230.695L338.538 228.705C337.259 228.58 336.451 228.279 335.981 227.912C335.561 227.584 335.341 227.153 335.341 226.5H333.341ZM337.492 230.016C337.847 231.081 338.041 232.466 338.041 234.2H340.041C340.041 232.334 339.834 230.719 339.389 229.384L337.492 230.016ZM339.093 233.201C336.54 233.067 333.755 233 330.741 233V235C333.726 235 336.475 235.066 338.988 235.199L339.093 233.201ZM330.741 233C328.124 233 325.736 233.067 323.578 233.202L323.703 235.198C325.812 235.066 328.157 235 330.741 235V233ZM324.641 234.2C324.641 232.684 324.83 231.277 325.202 229.975L323.279 229.425C322.851 230.923 322.641 232.516 322.641 234.2H324.641ZM324.42 230.684C326.062 230.385 327.421 229.693 328.4 228.551L326.881 227.249C326.261 227.973 325.352 228.482 324.062 228.716L324.42 230.684ZM328.421 228.525C329.309 227.416 330.42 225.343 331.751 222.414L329.93 221.586C328.595 224.524 327.573 226.384 326.86 227.275L328.421 228.525ZM331.752 222.411L348.952 184.311L347.129 183.489L329.929 221.589L331.752 222.411ZM348.247 184.879C349.44 184.627 350.704 184.5 352.041 184.5V182.5C350.577 182.5 349.174 182.639 347.835 182.921L348.247 184.879ZM351.14 183.934L369.54 222.134L371.342 221.266L352.942 183.066L351.14 183.934ZM369.538 222.131C371.006 225.201 372.295 227.394 373.411 228.584L374.87 227.216C373.986 226.273 372.808 224.333 371.343 221.269L369.538 222.131ZM373.434 228.607C374.642 229.815 376.049 230.536 377.641 230.695L377.84 228.705C376.765 228.597 375.773 228.118 374.848 227.193L373.434 228.607ZM358.043 215.27L352.043 202.67L350.238 203.53L356.238 216.13L358.043 215.27ZM352.038 202.66C350.312 199.141 349.137 196.391 348.492 194.393L346.589 195.007C347.278 197.142 348.502 199.993 350.243 203.54L352.038 202.66ZM346.588 194.395C346.07 196.016 345.42 197.64 344.639 199.267L346.442 200.133C347.261 198.427 347.945 196.718 348.493 195.005L346.588 194.395ZM344.632 199.283C343.896 200.889 343.437 201.871 343.246 202.253L345.035 203.147C345.244 202.729 345.719 201.711 346.45 200.117L344.632 199.283ZM343.225 202.298L337.525 215.298L339.356 216.102L345.056 203.102L343.225 202.298ZM338.441 216.7H357.141V214.7H338.441V216.7ZM421.415 209.4L420.807 208.606L420.802 208.61L420.796 208.615L421.415 209.4ZM421.215 191.8L420.518 192.517L420.528 192.527L420.539 192.537L421.215 191.8ZM406.015 189L405.781 188.028L405.015 188.212V189H406.015ZM407.815 227.7L407.108 228.407L407.108 228.407L407.815 227.7ZM414.015 229.7L414.964 229.384L414.746 228.732L414.06 228.701L414.015 229.7ZM414.515 234.2L414.479 235.199L415.515 235.236V234.2H414.515ZM390.315 234.2H389.315V235.241L390.355 235.199L390.315 234.2ZM390.815 229.7L390.758 228.702L390.096 228.739L389.873 229.364L390.815 229.7ZM395.515 228.1L394.759 227.445L394.756 227.449L395.515 228.1ZM396.315 191.2L397.264 190.884L397.264 190.884L396.315 191.2ZM394.515 189.1L394.068 189.994L394.082 190.001L394.096 190.008L394.515 189.1ZM390.815 188.3L389.866 188.616L390.075 189.244L390.735 189.297L390.815 188.3ZM390.315 183.8L390.336 182.8L389.315 182.778V183.8H390.315ZM402.615 184V185H402.623L402.632 185L402.615 184ZM414.615 183.8V182.8H414.607L414.598 182.8L414.615 183.8ZM432.215 207.9L431.348 207.402L431.348 207.402L432.215 207.9ZM425.315 214.3L424.852 213.413L424.844 213.418L425.315 214.3ZM408.315 216L407.325 216.141L407.414 216.763L408.012 216.953L408.315 216ZM408.415 211.7L408.611 210.719L407.745 210.546L407.466 211.384L408.415 211.7ZM412.815 213C416.513 213 419.616 212.091 422.034 210.185L420.796 208.615C418.814 210.176 416.183 211 412.815 211V213ZM422.022 210.194C424.626 208.204 425.815 204.979 425.815 200.8H423.815C423.815 204.621 422.737 207.13 420.807 208.606L422.022 210.194ZM425.815 200.8C425.815 196.771 424.532 193.484 421.891 191.063L420.539 192.537C422.697 194.516 423.815 197.229 423.815 200.8H425.815ZM421.912 191.083C419.317 188.562 415.415 187.4 410.415 187.4V189.4C415.148 189.4 418.446 190.505 420.518 192.517L421.912 191.083ZM410.415 187.4C409.048 187.4 407.5 187.615 405.781 188.028L406.248 189.972C407.863 189.585 409.249 189.4 410.415 189.4V187.4ZM405.015 189V221.2H407.015V189H405.015ZM405.015 221.2C405.015 224.396 405.614 226.913 407.108 228.407L408.522 226.993C407.616 226.087 407.015 224.271 407.015 221.2H405.015ZM407.108 228.407C408.575 229.874 410.954 230.562 413.969 230.699L414.06 228.701C411.209 228.571 409.455 227.926 408.522 226.993L407.108 228.407ZM413.066 230.016C413.347 230.86 413.515 232.229 413.515 234.2H415.515C415.515 232.171 415.349 230.54 414.964 229.384L413.066 230.016ZM414.551 233.201C410.805 233.067 406.926 233 402.915 233V235C406.904 235 410.759 235.066 414.479 235.199L414.551 233.201ZM402.915 233C397.841 233 393.626 233.067 390.275 233.201L390.355 235.199C393.67 235.067 397.855 235 402.915 235V233ZM391.315 234.2C391.315 232.151 391.485 230.798 391.757 230.036L389.873 229.364C389.478 230.469 389.315 232.115 389.315 234.2H391.315ZM390.872 230.698C393.258 230.562 395.193 230.013 396.274 228.751L394.756 227.449C394.237 228.054 393.039 228.571 390.758 228.702L390.872 230.698ZM396.271 228.755C396.853 228.083 397.229 227.173 397.466 226.119C397.704 225.056 397.815 223.777 397.815 222.3H395.815C395.815 223.689 395.709 224.81 395.514 225.681C395.317 226.56 395.044 227.117 394.759 227.445L396.271 228.755ZM397.815 222.3V195.6H395.815V222.3H397.815ZM397.815 195.6C397.815 193.633 397.648 192.038 397.264 190.884L395.366 191.516C395.648 192.362 395.815 193.7 395.815 195.6H397.815ZM397.264 190.884C396.853 189.652 396.079 188.72 394.934 188.192L394.096 190.008C394.684 190.28 395.11 190.748 395.366 191.516L397.264 190.884ZM394.962 188.206C393.987 187.718 392.598 187.439 390.895 187.303L390.735 189.297C392.365 189.427 393.443 189.682 394.068 189.994L394.962 188.206ZM391.764 187.984C391.482 187.14 391.315 185.771 391.315 183.8H389.315C389.315 185.829 389.481 187.46 389.866 188.616L391.764 187.984ZM390.294 184.8C396.558 184.933 400.669 185 402.615 185V183C400.694 183 396.605 182.934 390.336 182.8L390.294 184.8ZM402.632 185L414.632 184.8L414.598 182.8L402.598 183L402.632 185ZM414.615 184.8C421.375 184.8 426.114 186.216 429.048 188.845L430.382 187.355C426.916 184.25 421.588 182.8 414.615 182.8V184.8ZM429.048 188.845C432.026 191.513 433.515 194.905 433.515 199.1H435.515C435.515 194.362 433.803 190.42 430.382 187.355L429.048 188.845ZM433.515 199.1C433.515 202.132 432.79 204.893 431.348 207.402L433.082 208.398C434.706 205.574 435.515 202.468 435.515 199.1H433.515ZM431.348 207.402C429.921 209.883 427.772 211.89 424.852 213.413L425.777 215.187C428.991 213.51 431.442 211.25 433.082 208.398L431.348 207.402ZM424.844 213.418C422.021 214.923 418.558 215.7 414.415 215.7V217.7C418.805 217.7 422.608 216.877 425.785 215.182L424.844 213.418ZM414.415 215.7C411.857 215.7 409.942 215.468 408.618 215.047L408.012 216.953C409.621 217.465 411.772 217.7 414.415 217.7V215.7ZM409.305 215.859C409.173 214.935 409.115 214.293 409.115 213.9H407.115C407.115 214.441 407.19 215.198 407.325 216.141L409.305 215.859ZM409.115 213.9C409.115 213.104 409.207 212.484 409.364 212.016L407.466 211.384C407.222 212.116 407.115 212.963 407.115 213.9H409.115ZM408.219 212.681C409.317 212.9 410.863 213 412.815 213V211C410.9 211 409.512 210.9 408.611 210.719L408.219 212.681Z" transform="translate(-1 -43)" fill="#F2F2F2"/>
</svg>
