<svg width="596" height="193" viewBox="0 0 596 193" fill="none" xmlns="http://www.w3.org/2000/svg">
<path d="M10.2 88.9L9.45014 89.5616L9.45562 89.5678L10.2 88.9ZM10.3 51.4L9.56102 50.7262L9.55562 50.7322L10.3 51.4ZM43.4 88.9L42.6562 88.2316L42.6556 88.2322L43.4 88.9ZM37.1 86.1L37.9346 86.6509L37.9396 86.6433L37.1 86.1ZM38.5 59.9L37.557 60.2328L37.5599 60.241L37.5629 60.2491L38.5 59.9ZM33.4 52L32.753 52.7625L32.753 52.7625L33.4 52ZM16.7 54.1L15.8706 53.5414L15.8666 53.5473L15.8627 53.5532L16.7 54.1ZM15.3 80.3L14.355 80.6271L14.3588 80.6382L14.3629 80.6491L15.3 80.3ZM20.5 88.3L19.8399 89.0512L19.8464 89.0569L19.853 89.0625L20.5 88.3ZM26.8 94.7C20.0372 94.7 14.7922 92.5216 10.9444 88.2322L9.45562 89.5678C13.7411 94.3451 19.5628 96.7 26.8 96.7V94.7ZM10.9498 88.2384C7.15589 83.9386 5.2 77.9673 5.2 70.2H3.2C3.2 78.2994 5.24411 84.7948 9.45016 89.5616L10.9498 88.2384ZM5.2 70.2C5.2 62.3675 7.18836 56.3663 11.0444 52.0678L9.55562 50.7322C5.27831 55.5004 3.2 62.0325 3.2 70.2H5.2ZM11.039 52.0738C14.9533 47.7806 20.2676 45.6 27.1 45.6V43.6C19.7991 43.6 13.9134 45.9527 9.56104 50.7262L11.039 52.0738ZM27.1 45.6C33.868 45.6 39.0771 47.7484 42.855 51.9671L44.3449 50.6329C40.1229 45.9183 34.332 43.6 27.1 43.6V45.6ZM42.855 51.9671C46.6438 56.1978 48.6 62.1318 48.6 69.9H50.6C50.6 61.8015 48.5562 55.3355 44.3449 50.6329L42.855 51.9671ZM48.6 69.9C48.6 77.7969 46.5795 83.8653 42.6562 88.2316L44.1438 89.5684C48.4872 84.7347 50.6 78.1365 50.6 69.9H48.6ZM42.6556 88.2322C38.8078 92.5216 33.5628 94.7 26.8 94.7V96.7C34.0372 96.7 39.8589 94.3451 44.1444 89.5678L42.6556 88.2322ZM28.1 92.1C32.256 92.1 35.5608 90.2475 37.9346 86.6508L36.2654 85.5492C34.2392 88.6192 31.544 90.1 28.1 90.1V92.1ZM37.9396 86.6433C40.2852 83.0182 41.4 78.0337 41.4 71.8H39.4C39.4 77.833 38.3148 82.3818 36.2604 85.5567L37.9396 86.6433ZM41.4 71.8C41.4 67.176 40.7543 63.0865 39.4371 59.5509L37.5629 60.2491C38.779 63.5135 39.4 67.3573 39.4 71.8H41.4ZM39.443 59.5672C38.1986 56.0415 36.4118 53.244 34.047 51.2375L32.753 52.7625C34.7882 54.4894 36.4014 56.9585 37.557 60.2328L39.443 59.5672ZM34.047 51.2375C31.6676 49.2186 28.9053 48.2 25.8 48.2V50.2C28.428 50.2 30.7324 51.0481 32.753 52.7625L34.047 51.2375ZM25.8 48.2C21.5933 48.2 18.2523 50.0049 15.8706 53.5414L17.5294 54.6586C19.5477 51.6617 22.2734 50.2 25.8 50.2V48.2ZM15.8627 53.5532C13.5786 57.0509 12.5 61.9745 12.5 68.2H14.5C14.5 62.1588 15.5548 57.6825 17.5373 54.6468L15.8627 53.5532ZM12.5 68.2C12.5 72.8843 13.1107 77.0324 14.355 80.6271L16.245 79.9729C15.0893 76.6343 14.5 72.7157 14.5 68.2H12.5ZM14.3629 80.6491C15.6737 84.1675 17.4895 86.9857 19.8399 89.0512L21.1601 87.5488C19.1105 85.7476 17.4596 83.2325 16.2371 79.9509L14.3629 80.6491ZM19.853 89.0625C22.2324 91.0814 24.9947 92.1 28.1 92.1V90.1C25.472 90.1 23.1676 89.2519 21.147 87.5375L19.853 89.0625ZM96.6062 81.6L97.5994 81.7168L97.6932 80.9193L96.9348 80.6555L96.6062 81.6ZM97.1063 92.7L98.046 93.0417L98.1579 92.7342L98.0663 92.42L97.1063 92.7ZM95.8062 94.5L96.361 95.3321L96.3914 95.3118L96.4202 95.2894L95.8062 94.5ZM94.0062 95.1L93.9991 96.1H94.0062V95.1ZM80.0063 95L80.0134 94L80.0014 94L80.0063 95ZM59.4062 95.1L58.5893 95.6767L58.8899 96.1025L59.4111 96.1L59.4062 95.1ZM58.2063 89.9L57.5343 89.1594L57.2063 89.4571V89.9H58.2063ZM63.6063 85L62.9456 84.2493L62.9399 84.2543L62.9343 84.2594L63.6063 85ZM71.9063 77.5L72.5909 78.2288L72.5916 78.2282L71.9063 77.5ZM78.2063 70.9L77.447 70.2492L77.4454 70.2511L78.2063 70.9ZM82.5063 64.5L81.6057 64.0653L81.5995 64.078L81.5937 64.0909L82.5063 64.5ZM81.4063 51.7L80.7143 52.422L80.7217 52.429L80.7292 52.4359L81.4063 51.7ZM68.3062 51.8L67.5991 51.0929L67.5916 51.1004L67.5843 51.1081L68.3062 51.8ZM65.3063 60.1V61.1H66.1946L66.2993 60.2178L65.3063 60.1ZM60.0063 59.2L59.014 59.076L58.9206 59.8227L59.6123 60.1191L60.0063 59.2ZM59.9062 48.1L59.5151 47.1797L58.7952 47.4856L58.9188 48.258L59.9062 48.1ZM89.5063 47.7L88.9516 48.5321L88.958 48.5364L88.9645 48.5406L89.5063 47.7ZM92.5063 62.2L93.3945 62.6594L93.3945 62.6594L92.5063 62.2ZM88.7062 67.6L89.4422 68.2771L89.4422 68.2771L88.7062 67.6ZM82.0062 74.3L81.3158 73.5766L81.3155 73.5769L82.0062 74.3ZM70.7062 85.6L69.9772 84.9156L68.3959 86.6H70.7062V85.6ZM88.6063 85.3L88.3814 84.3256L88.3814 84.3256L88.6063 85.3ZM90.5062 84.1L91.3383 84.6547L91.3515 84.6349L91.3637 84.6145L90.5062 84.1ZM91.5062 81L91.435 80.0025L90.6678 80.0573L90.5239 80.8129L91.5062 81ZM95.6131 81.4832C95.4732 82.6727 95.4063 84.2504 95.4063 86.2H97.4063C97.4063 84.2829 97.4727 82.7939 97.5994 81.7168L95.6131 81.4832ZM95.4063 86.2C95.4063 88.9758 95.6416 91.2497 96.1463 92.98L98.0663 92.42C97.6376 90.9503 97.4063 88.8908 97.4063 86.2H95.4063ZM96.1665 92.3583C95.9623 92.9197 95.6396 93.3627 95.1923 93.7106L96.4202 95.2894C97.1729 94.7039 97.7169 93.947 98.046 93.0417L96.1665 92.3583ZM95.2515 93.6679C94.7822 93.9809 94.3719 94.1 94.0062 94.1V96.1C94.8406 96.1 95.6303 95.8191 96.361 95.3321L95.2515 93.6679ZM94.0134 94.1L80.0134 94L79.9991 96L93.9991 96.1L94.0134 94.1ZM80.0014 94L59.4014 94.1L59.4111 96.1L80.0111 96L80.0014 94ZM60.2232 94.5233C59.599 93.639 59.2063 92.1536 59.2063 89.9H57.2063C57.2063 92.313 57.6135 94.2944 58.5893 95.6767L60.2232 94.5233ZM58.8782 90.6406L64.2782 85.7406L62.9343 84.2594L57.5343 89.1594L58.8782 90.6406ZM64.2669 85.7507C67.6049 82.8132 70.3803 80.3055 72.5909 78.2288L71.2216 76.7712C69.0322 78.8278 66.2742 81.3201 62.9456 84.2493L64.2669 85.7507ZM72.5916 78.2282C74.8837 76.071 77.009 73.8446 78.9671 71.5489L77.4454 70.2511C75.5368 72.4887 73.4621 74.6624 71.2209 76.7718L72.5916 78.2282ZM78.9655 71.5508C81.0025 69.1743 82.4996 66.9596 83.4188 64.9091L81.5937 64.0909C80.7796 65.9071 79.41 67.959 77.447 70.2492L78.9655 71.5508ZM83.4068 64.9347C84.403 62.8712 84.9063 60.7231 84.9063 58.5H82.9063C82.9063 60.4102 82.4762 62.2621 81.6057 64.0653L83.4068 64.9347ZM84.9063 58.5C84.9063 55.3156 84.0168 52.7429 82.0833 50.9641L80.7292 52.4359C82.1291 53.7238 82.9063 55.6844 82.9063 58.5H84.9063ZM82.0982 50.978C80.2621 49.2185 77.7522 48.4 74.7063 48.4V50.4C77.3936 50.4 79.3504 51.1149 80.7143 52.422L82.0982 50.978ZM74.7063 48.4C71.8253 48.4 69.4199 49.2722 67.5991 51.0929L69.0134 52.5071C70.3926 51.1278 72.2538 50.4 74.7063 50.4V48.4ZM67.5843 51.1081C65.8219 52.947 64.7877 55.9831 64.3132 59.9822L66.2993 60.2178C66.7581 56.3503 67.7239 53.853 69.0282 52.4919L67.5843 51.1081ZM65.3063 59.1C63.2579 59.1 61.6364 58.8107 60.4002 58.2809L59.6123 60.1191C61.1761 60.7893 63.088 61.1 65.3063 61.1V59.1ZM60.9985 59.324C61.2042 57.6785 61.3063 55.9368 61.3063 54.1H59.3063C59.3063 55.8632 59.2083 57.5215 59.014 59.076L60.9985 59.324ZM61.3063 54.1C61.3063 51.7322 61.1712 49.6764 60.8937 47.942L58.9188 48.258C59.1746 49.8569 59.3063 51.8011 59.3063 54.1H61.3063ZM60.2974 49.0203C65.5055 46.8069 70.9723 45.7 76.7063 45.7V43.7C70.7069 43.7 64.9737 44.8598 59.5151 47.1797L60.2974 49.0203ZM76.7063 45.7C82.1403 45.7 86.1819 46.6856 88.9516 48.5321L90.061 46.868C86.8306 44.7144 82.3389 43.7 76.7063 43.7V45.7ZM88.9645 48.5406C91.6695 50.2838 93.0062 52.7619 93.0062 56.1H95.0062C95.0062 52.1047 93.343 48.9829 90.048 46.8594L88.9645 48.5406ZM93.0062 56.1C93.0062 58.0701 92.5461 59.9463 91.618 61.7406L93.3945 62.6594C94.4664 60.5871 95.0062 58.3965 95.0062 56.1H93.0062ZM91.618 61.7406C90.6605 63.5918 89.4459 65.3191 87.9703 66.9229L89.4422 68.2771C91.0333 66.5476 92.352 64.6749 93.3945 62.6594L91.618 61.7406ZM87.9703 66.9229C86.4588 68.5659 84.2436 70.7819 81.3158 73.5766L82.6967 75.0234C85.6356 72.2181 87.8871 69.9674 89.4422 68.2771L87.9703 66.9229ZM81.3155 73.5769C76.8402 77.8518 73.0599 81.6318 69.9772 84.9156L71.4353 86.2844C74.4859 83.0349 78.2389 79.2815 82.697 75.0231L81.3155 73.5769ZM70.7062 86.6H84.5062V84.6H70.7062V86.6ZM84.5062 86.6C86.3849 86.6 87.8473 86.5014 88.8311 86.2744L88.3814 84.3256C87.6319 84.4986 86.361 84.6 84.5062 84.6V86.6ZM88.8311 86.2744C89.8853 86.0311 90.7656 85.5138 91.3383 84.6547L89.6742 83.5453C89.4469 83.8862 89.0605 84.1689 88.3814 84.3256L88.8311 86.2744ZM91.3637 84.6145C91.8554 83.7951 92.2151 82.623 92.4886 81.1871L90.5239 80.8129C90.2641 82.177 89.9571 83.0715 89.6488 83.5855L91.3637 84.6145ZM91.5775 81.9975C93.3292 81.8723 94.8908 82.0621 96.2777 82.5445L96.9348 80.6555C95.255 80.0713 93.4166 79.861 91.435 80.0025L91.5775 81.9975ZM108.265 84.8L107.575 84.0759L107.566 84.0843L107.558 84.0929L108.265 84.8ZM118.265 84.8L117.522 85.469L117.539 85.4885L117.558 85.5071L118.265 84.8ZM118.165 94.2L117.496 93.4567L117.496 93.4567L118.165 94.2ZM113.065 95C111.125 95 109.739 94.46 108.772 93.4929L107.358 94.9071C108.791 96.34 110.738 97 113.065 97V95ZM108.772 93.4929C107.779 92.5001 107.265 91.2306 107.265 89.6H105.265C105.265 91.7028 105.951 93.4999 107.358 94.9071L108.772 93.4929ZM107.265 89.6C107.265 88.0016 107.824 86.655 108.972 85.5071L107.558 84.0929C106.039 85.6116 105.265 87.4651 105.265 89.6H107.265ZM108.954 85.5241C110.149 84.3869 111.659 83.8 113.565 83.8V81.8C111.204 81.8 109.181 82.5464 107.575 84.0759L108.954 85.5241ZM113.565 83.8C115.239 83.8 116.527 84.3641 117.522 85.469L119.008 84.131C117.603 82.5692 115.757 81.8 113.565 81.8V83.8ZM117.558 85.5071C118.671 86.6203 119.165 87.7765 119.165 89H121.165C121.165 87.1569 120.392 85.513 118.972 84.0929L117.558 85.5071ZM119.165 89C119.165 91.0632 118.566 92.494 117.496 93.4567L118.834 94.9433C120.431 93.506 121.165 91.4702 121.165 89H119.165ZM117.496 93.4567C116.374 94.4665 114.925 95 113.065 95V97C115.338 97 117.289 96.3335 118.834 94.9433L117.496 93.4567ZM55.2 169.7L54.2004 169.672L54.2 169.686V169.7H55.2ZM55.9 182.1L56.3299 183.003L56.9539 182.706L56.8965 182.017L55.9 182.1ZM50.9 183L49.9006 183.033L49.9317 183.967L50.8655 183.999L50.9 183ZM48 173.9L47.2459 174.557L47.2459 174.557L48 173.9ZM34.3 170.8V169.8H33.3V170.8H34.3ZM34.9 226.6L33.9513 226.916L33.9541 226.925L33.957 226.933L34.9 226.6ZM37.1 229.1L36.6528 229.994L36.6855 230.011L36.7192 230.025L37.1 229.1ZM42.1 230L43.0417 229.664L42.8196 229.042L42.1605 229.002L42.1 230ZM42.6 234.3L42.5532 235.299L43.6 235.348V234.3H42.6ZM16.4 234.3H15.4V235.355L16.4535 235.299L16.4 234.3ZM16.9 230L16.8395 229.002L16.1804 229.042L15.9583 229.664L16.9 230ZM21.9 229.1L22.2807 230.025L22.3035 230.015L22.3258 230.005L21.9 229.1ZM24.2 226.5L23.268 226.138L23.2591 226.16L23.2513 226.184L24.2 226.5ZM24.9 170.8H25.9V169.8H24.9V170.8ZM12.7 172.3L13.1886 173.173L13.2017 173.165L13.2145 173.157L12.7 172.3ZM9.1 176.2L8.18468 175.797L8.18071 175.806L8.17692 175.815L9.1 176.2ZM7.3 183V184H8.13458L8.28387 183.179L7.3 183ZM2.5 182.1L1.51544 181.925L1.39488 182.603L1.9855 182.957L2.5 182.1ZM4.1 166.1L4.1535 165.101L3.1 165.045V166.1H4.1ZM55.3 166.1L56.2996 166.128L56.3298 165.042L55.2455 165.101L55.3 166.1ZM54.2 169.7C54.2 172.411 54.4364 176.579 54.9035 182.183L56.8965 182.017C56.4302 176.421 56.2 172.323 56.2 169.7H54.2ZM55.4701 181.197C54.2464 181.78 52.7464 182.063 50.9345 182.001L50.8655 183.999C52.9203 184.07 54.7536 183.753 56.3299 183.003L55.4701 181.197ZM51.8994 182.967C51.7619 178.839 50.7611 175.548 48.7541 173.243L47.2459 174.557C48.8389 176.386 49.7715 179.161 49.9006 183.033L51.8994 182.967ZM48.7541 173.243C46.6992 170.884 43.5728 169.8 39.6 169.8V171.8C43.2273 171.8 45.7008 172.783 47.2459 174.557L48.7541 173.243ZM39.6 169.8H34.3V171.8H39.6V169.8ZM33.3 170.8V221.3H35.3V170.8H33.3ZM33.3 221.3C33.3 223.666 33.4998 225.562 33.9513 226.916L35.8487 226.284C35.5002 225.238 35.3 223.601 35.3 221.3H33.3ZM33.957 226.933C34.4425 228.308 35.3523 229.344 36.6528 229.994L37.5472 228.206C36.7143 227.789 36.1575 227.158 35.843 226.267L33.957 226.933ZM36.7192 230.025C38.0054 230.554 39.8026 230.863 42.0395 230.998L42.1605 229.002C39.9974 228.871 38.4613 228.579 37.4807 228.175L36.7192 230.025ZM41.1583 230.336C41.4318 231.102 41.6 232.394 41.6 234.3H43.6C43.6 232.34 43.4349 230.765 43.0417 229.664L41.1583 230.336ZM42.6468 233.301C38.3639 233.1 33.9816 233 29.5 233V235C33.9518 235 38.3028 235.1 42.5532 235.299L42.6468 233.301ZM29.5 233C24.4877 233 20.1024 233.1 16.3465 233.301L16.4535 235.299C20.1642 235.1 24.5123 235 29.5 235V233ZM17.4 234.3C17.4 232.394 17.5682 231.102 17.8417 230.336L15.9583 229.664C15.5651 230.765 15.4 232.34 15.4 234.3H17.4ZM16.9605 230.998C19.1974 230.863 20.9946 230.554 22.2807 230.025L21.5192 228.175C20.5387 228.579 19.0026 228.871 16.8395 229.002L16.9605 230.998ZM22.3258 230.005C23.7093 229.354 24.6632 228.273 25.1487 226.816L23.2513 226.184C22.9368 227.127 22.3573 227.78 21.4742 228.195L22.3258 230.005ZM25.132 226.862C25.6655 225.491 25.9 223.611 25.9 221.3H23.9C23.9 223.522 23.6678 225.109 23.268 226.138L25.132 226.862ZM25.9 221.3V170.8H23.9V221.3H25.9ZM24.9 169.8H19.8V171.8H24.9V169.8ZM19.8 169.8C16.6474 169.8 14.0729 170.31 12.1855 171.443L13.2145 173.157C14.6605 172.29 16.8192 171.8 19.8 171.8V169.8ZM12.2114 171.427C10.3652 172.461 9.00996 173.922 8.18468 175.797L10.0153 176.603C10.6567 175.145 11.7015 174.005 13.1886 173.173L12.2114 171.427ZM8.17692 175.815C7.4699 177.512 6.85454 179.86 6.31613 182.821L8.28387 183.179C8.81213 180.273 9.39677 178.088 10.0231 176.585L8.17692 175.815ZM7.3 182C5.146 182 3.77394 181.698 3.0145 181.243L1.9855 182.957C3.22606 183.702 5.054 184 7.3 184V182ZM3.48456 182.275C4.55858 176.234 5.1 170.84 5.1 166.1H3.1C3.1 170.693 2.57476 175.966 1.51544 181.925L3.48456 182.275ZM4.04651 167.099C7.81203 167.3 16.3411 167.4 29.6 167.4V165.4C16.3256 165.4 7.85464 165.3 4.1535 165.101L4.04651 167.099ZM29.6 167.4C43.0581 167.4 51.6548 167.3 55.3545 167.099L55.2455 165.101C51.6118 165.3 43.0752 165.4 29.6 165.4V167.4ZM54.3004 166.072L54.2004 169.672L56.1996 169.728L56.2996 166.128L54.3004 166.072ZM118.096 228.4L117.315 229.025L117.338 229.053L117.363 229.08L118.096 228.4ZM122.896 230L123.819 229.615L123.578 229.037L122.953 229.002L122.896 230ZM123.396 234.2L123.367 235.2L124.396 235.23V234.2H123.396ZM101.196 234.2H100.196V235.233L101.228 235.199L101.196 234.2ZM101.696 230L101.639 229.002L101.014 229.037L100.773 229.615L101.696 230ZM106.396 228.4L105.64 227.745L105.637 227.749L106.396 228.4ZM107.696 210.4H108.696V209.4H107.696V210.4ZM81.7961 210.9L81.7217 209.903L80.7961 209.972V210.9H81.7961ZM82.9961 228.4L82.2152 229.025L82.2382 229.053L82.2633 229.08L82.9961 228.4ZM87.8961 230L88.8519 229.706L88.647 229.04L87.9516 229.002L87.8961 230ZM88.2961 234.2L88.2667 235.2L89.2961 235.23V234.2H88.2961ZM66.0961 234.2H65.0961V235.233L66.1283 235.199L66.0961 234.2ZM66.5961 230L66.5163 229.003L65.9078 229.052L65.673 229.615L66.5961 230ZM70.2961 229.2L69.877 228.292L69.8629 228.299L69.8489 228.306L70.2961 229.2ZM72.0961 227.1L73.0448 227.416L73.0448 227.416L72.0961 227.1ZM72.0961 190.9L73.0448 190.584L73.0448 190.584L72.0961 190.9ZM70.2961 188.8L69.8489 189.694L69.8629 189.701L69.877 189.708L70.2961 188.8ZM66.5961 188L65.6544 188.336L65.8718 188.945L66.5163 188.997L66.5961 188ZM66.0961 183.8L66.1273 182.8L65.0961 182.768V183.8H66.0961ZM88.2961 183.8H89.2961V182.771L88.2675 182.8L88.2961 183.8ZM87.8961 188L87.9516 188.998L88.647 188.96L88.8519 188.294L87.8961 188ZM82.9961 189.6L82.2633 188.92L82.2498 188.934L82.2368 188.949L82.9961 189.6ZM81.7961 206H80.7961V207H81.7961V206ZM107.696 206V207H108.696V206H107.696ZM107.096 190.9L106.147 191.216L106.157 191.244L106.168 191.271L107.096 190.9ZM105.296 188.8L104.849 189.694L104.863 189.701L104.877 189.708L105.296 188.8ZM101.596 188L100.63 188.258L100.812 188.94L101.516 188.997L101.596 188ZM101.196 183.8L101.227 182.8L100.196 182.768V183.8H101.196ZM123.396 183.8H124.396V182.771L123.368 182.8L123.396 183.8ZM122.896 188L122.952 188.998L123.644 188.96L123.851 188.298L122.896 188ZM118.096 189.6L118.855 190.251L118.855 190.251L118.096 189.6ZM115.896 222.6C115.896 224.074 115.998 225.347 116.217 226.403C116.433 227.448 116.778 228.353 117.315 229.025L118.877 227.775C118.614 227.447 118.359 226.886 118.175 225.997C117.994 225.12 117.896 223.993 117.896 222.6H115.896ZM117.363 229.08C118.504 230.309 120.442 230.861 122.839 230.998L122.953 229.002C120.684 228.872 119.422 228.358 118.829 227.72L117.363 229.08ZM121.973 230.385C122.222 230.983 122.396 232.204 122.396 234.2H124.396C124.396 232.196 124.236 230.617 123.819 229.615L121.973 230.385ZM123.425 233.2C118.888 233.067 115.21 233 112.396 233V235C115.182 235 118.838 235.066 123.367 235.2L123.425 233.2ZM112.396 233C109.05 233 105.305 233.067 101.164 233.201L101.228 235.199C105.353 235.066 109.076 235 112.396 235V233ZM102.196 234.2C102.196 232.204 102.37 230.983 102.619 230.385L100.773 229.615C100.356 230.617 100.196 232.196 100.196 234.2H102.196ZM101.753 230.998C104.139 230.862 106.074 230.313 107.155 229.051L105.637 227.749C105.118 228.354 103.92 228.871 101.639 229.002L101.753 230.998ZM107.152 229.055C107.734 228.383 108.111 227.473 108.347 226.419C108.585 225.356 108.696 224.077 108.696 222.6H106.696C106.696 223.989 106.59 225.11 106.395 225.981C106.198 226.86 105.925 227.417 105.64 227.745L107.152 229.055ZM108.696 222.6V210.4H106.696V222.6H108.696ZM107.696 209.4C94.901 209.4 86.2312 209.566 81.7217 209.903L81.8705 211.897C86.2943 211.567 94.8912 211.4 107.696 211.4V209.4ZM80.7961 210.9V222.6H82.7961V210.9H80.7961ZM80.7961 222.6C80.7961 224.074 80.8984 225.347 81.1168 226.403C81.3331 227.448 81.6777 228.353 82.2152 229.025L83.777 227.775C83.5145 227.447 83.2591 226.886 83.0754 225.997C82.8938 225.12 82.7961 223.993 82.7961 222.6H80.7961ZM82.2633 229.08C83.408 230.313 85.3858 230.862 87.8406 230.998L87.9516 229.002C85.6063 228.871 84.3175 228.353 83.7289 227.72L82.2633 229.08ZM86.9403 230.294C87.16 231.008 87.2961 232.28 87.2961 234.2H89.2961C89.2961 232.253 89.1655 230.725 88.8519 229.706L86.9403 230.294ZM88.3255 233.2C83.7875 233.067 80.11 233 77.2961 233V235C80.0822 235 83.738 235.066 88.2667 235.2L88.3255 233.2ZM77.2961 233C73.9498 233 70.2055 233.067 66.0639 233.201L66.1283 235.199C70.2534 235.066 73.9757 235 77.2961 235V233ZM67.0961 234.2C67.0961 232.204 67.2697 230.983 67.5192 230.385L65.673 229.615C65.2558 230.617 65.0961 232.196 65.0961 234.2H67.0961ZM66.6758 230.997C68.3788 230.861 69.7679 230.582 70.7433 230.094L69.8489 228.306C69.2243 228.618 68.1467 228.873 66.5163 229.003L66.6758 230.997ZM70.7152 230.108C71.8601 229.58 72.6342 228.648 73.0448 227.416L71.1474 226.784C70.8913 227.552 70.4655 228.02 69.877 228.292L70.7152 230.108ZM73.0448 227.416C73.4302 226.26 73.5961 224.629 73.5961 222.6H71.5961C71.5961 224.571 71.4286 225.94 71.1474 226.784L73.0448 227.416ZM73.5961 222.6V195.3H71.5961V222.6H73.5961ZM73.5961 195.3C73.5961 193.333 73.4295 191.738 73.0448 190.584L71.1474 191.216C71.4294 192.062 71.5961 193.4 71.5961 195.3H73.5961ZM73.0448 190.584C72.6342 189.352 71.8601 188.42 70.7152 187.892L69.877 189.708C70.4655 189.98 70.8913 190.448 71.1474 191.216L73.0448 190.584ZM70.7433 187.906C69.7679 187.418 68.3788 187.139 66.6758 187.003L66.5163 188.997C68.1467 189.127 69.2243 189.382 69.8489 189.694L70.7433 187.906ZM67.5378 187.664C67.2635 186.895 67.0961 185.635 67.0961 183.8H65.0961C65.0961 185.699 65.262 187.238 65.6544 188.336L67.5378 187.664ZM66.0649 184.8C70.3387 184.933 74.0829 185 77.2961 185V183C74.1093 183 70.3868 182.934 66.1273 182.8L66.0649 184.8ZM77.2961 185C79.9768 185 83.6544 184.933 88.3247 184.8L88.2675 182.8C83.6045 182.934 79.9488 183 77.2961 183V185ZM87.2961 183.8C87.2961 185.72 87.16 186.992 86.9403 187.706L88.8519 188.294C89.1655 187.275 89.2961 185.747 89.2961 183.8H87.2961ZM87.8406 187.002C85.3858 187.138 83.408 187.687 82.2633 188.92L83.7289 190.28C84.3175 189.647 85.6063 189.129 87.9516 188.998L87.8406 187.002ZM82.2368 188.949C81.6819 189.597 81.334 190.491 81.1175 191.519C80.8983 192.56 80.7961 193.827 80.7961 195.3H82.7961C82.7961 193.906 82.8939 192.79 83.0746 191.931C83.2582 191.059 83.5103 190.537 83.7554 190.251L82.2368 188.949ZM80.7961 195.3V206H82.7961V195.3H80.7961ZM81.7961 207H107.696V205H81.7961V207ZM108.696 206V195.3H106.696V206H108.696ZM108.696 195.3C108.696 193.324 108.495 191.706 108.025 190.529L106.168 191.271C106.497 192.094 106.696 193.409 106.696 195.3H108.696ZM108.045 190.584C107.634 189.352 106.86 188.42 105.715 187.892L104.877 189.708C105.465 189.98 105.891 190.448 106.147 191.216L108.045 190.584ZM105.743 187.906C104.768 187.418 103.379 187.139 101.676 187.003L101.516 188.997C103.147 189.127 104.224 189.382 104.849 189.694L105.743 187.906ZM102.562 187.742C102.329 186.866 102.196 185.567 102.196 183.8H100.196C100.196 185.633 100.33 187.134 100.63 188.258L102.562 187.742ZM101.165 184.8C105.438 184.933 109.149 185 112.296 185V183C109.176 183 105.487 182.934 101.227 182.8L101.165 184.8ZM112.296 185C115.043 185 118.754 184.933 123.425 184.8L123.368 182.8C118.705 182.934 115.016 183 112.296 183V185ZM122.396 183.8C122.396 185.481 122.233 186.769 121.942 187.702L123.851 188.298C124.226 187.097 124.396 185.585 124.396 183.8H122.396ZM122.841 187.002C120.398 187.137 118.422 187.683 117.337 188.949L118.855 190.251C119.37 189.651 120.594 189.129 122.952 188.998L122.841 187.002ZM117.337 188.949C116.782 189.597 116.434 190.491 116.218 191.519C115.998 192.56 115.896 193.827 115.896 195.3H117.896C117.896 193.906 117.994 192.79 118.175 191.931C118.358 191.059 118.61 190.537 118.855 190.251L117.337 188.949ZM115.896 195.3V222.6H117.896V195.3H115.896ZM179.357 219.8L179.539 218.817L178.71 218.663L178.419 219.454L179.357 219.8ZM183.757 222L184.691 222.358L184.923 221.752L184.464 221.293L183.757 222ZM181.057 234.1L181.052 235.1L181.942 235.105L182.05 234.221L181.057 234.1ZM161.757 234L161.762 233H161.757V234ZM138.557 234.2H137.557V235.223L138.58 235.2L138.557 234.2ZM139.057 229.7L138.977 228.703L138.333 228.755L138.115 229.364L139.057 229.7ZM142.757 228.9L142.338 227.992L142.324 227.999L142.31 228.006L142.757 228.9ZM144.557 226.7L145.512 226.998L145.512 226.998L144.557 226.7ZM144.457 191.2L143.508 191.516L143.518 191.544L143.529 191.571L144.457 191.2ZM142.657 189.1L142.21 189.994L142.224 190.001L142.238 190.008L142.657 189.1ZM139.057 188.3L138.108 188.616L138.317 189.242L138.974 189.297L139.057 188.3ZM138.557 183.8L138.585 182.8L137.557 182.772V183.8H138.557ZM178.857 183.8L179.85 183.684L179.743 182.771L178.825 182.801L178.857 183.8ZM180.757 196.2L181.3 197.04L181.911 196.645L181.723 195.942L180.757 196.2ZM176.257 197.3L175.262 197.395L175.348 198.3H176.257V197.3ZM172.757 190.7L172.132 191.481L172.139 191.486L172.145 191.491L172.757 190.7ZM154.257 188.3V187.3H153.257V188.3H154.257ZM154.257 206.7H153.257V207.7H154.257V206.7ZM166.557 205.5L166.061 204.632L166.052 204.637L166.043 204.643L166.557 205.5ZM168.757 201.1L168.454 200.147L167.78 200.362L167.758 201.069L168.757 201.1ZM173.357 200.4L174.354 200.48L174.44 199.4H173.357V200.4ZM173.357 217.5V218.5H174.448L174.353 217.413L173.357 217.5ZM168.957 216.9L167.961 216.991L168.019 217.629L168.624 217.843L168.957 216.9ZM166.557 212.4L166.043 213.257L166.052 213.263L166.061 213.268L166.557 212.4ZM154.257 211.2V210.2H153.257V211.2H154.257ZM154.857 226.6L153.914 226.933L153.926 226.967L153.941 227.001L154.857 226.6ZM157.157 228.9L156.756 229.816L156.79 229.831L156.824 229.843L157.157 228.9ZM171.657 228.5L171.359 227.545L171.35 227.548L171.657 228.5ZM176.357 225.6L175.576 224.975L175.572 224.98L176.357 225.6ZM179.175 220.783C180.805 221.085 182.079 221.736 183.05 222.707L184.464 221.293C183.168 219.997 181.509 219.181 179.539 218.817L179.175 220.783ZM182.823 221.642C181.584 224.879 180.67 229 180.064 233.979L182.05 234.221C182.644 229.334 183.53 225.388 184.691 222.358L182.823 221.642ZM181.062 233.1L161.762 233L161.752 235L181.052 235.1L181.062 233.1ZM161.757 233C152.154 233 144.412 233.067 138.534 233.2L138.58 235.2C144.436 235.067 152.161 235 161.757 235V233ZM139.557 234.2C139.557 232.151 139.727 230.798 139.999 230.036L138.115 229.364C137.721 230.469 137.557 232.115 137.557 234.2H139.557ZM139.137 230.697C140.84 230.561 142.229 230.282 143.204 229.794L142.31 228.006C141.685 228.318 140.608 228.573 138.977 228.703L139.137 230.697ZM143.176 229.808C144.344 229.269 145.11 228.284 145.512 226.998L143.603 226.402C143.338 227.249 142.904 227.731 142.338 227.992L143.176 229.808ZM145.512 226.998C145.891 225.783 146.057 224.06 146.057 221.9H144.057C144.057 224.006 143.89 225.483 143.603 226.402L145.512 226.998ZM146.057 221.9V195.6H144.057V221.9H146.057ZM146.057 195.6C146.057 193.624 145.856 192.006 145.386 190.829L143.529 191.571C143.858 192.394 144.057 193.709 144.057 195.6H146.057ZM145.406 190.884C144.995 189.652 144.221 188.72 143.076 188.192L142.238 190.008C142.826 190.28 143.252 190.748 143.508 191.516L145.406 190.884ZM143.104 188.206C142.133 187.72 140.782 187.44 139.14 187.303L138.974 189.297C140.532 189.426 141.581 189.68 142.21 189.994L143.104 188.206ZM140.006 187.984C139.724 187.14 139.557 185.771 139.557 183.8H137.557C137.557 185.829 137.723 187.46 138.108 188.616L140.006 187.984ZM138.529 184.8C143.34 184.933 148.583 185 154.257 185V183C148.598 183 143.374 182.933 138.585 182.8L138.529 184.8ZM154.257 185C166.521 185 174.737 184.933 178.889 184.799L178.825 182.801C174.71 182.933 166.526 183 154.257 183V185ZM177.864 183.916C178.596 190.17 179.236 194.376 179.791 196.458L181.723 195.942C181.212 194.024 180.585 189.963 179.85 183.684L177.864 183.916ZM180.214 195.36C179.293 195.956 178.002 196.3 176.257 196.3V198.3C178.245 198.3 179.954 197.911 181.3 197.04L180.214 195.36ZM177.253 197.205C176.962 194.154 175.672 191.692 173.369 189.909L172.145 191.491C173.975 192.908 175.019 194.846 175.262 197.395L177.253 197.205ZM173.382 189.919C171.097 188.092 167.225 187.3 162.057 187.3V189.3C167.155 189.3 170.417 190.108 172.132 191.481L173.382 189.919ZM162.057 187.3H154.257V189.3H162.057V187.3ZM153.257 188.3V206.7H155.257V188.3H153.257ZM154.257 207.7H159.257V205.7H154.257V207.7ZM159.257 207.7C161.057 207.7 162.606 207.598 163.894 207.387C165.171 207.177 166.252 206.849 167.072 206.357L166.043 204.643C165.529 204.951 164.726 205.223 163.57 205.413C162.424 205.602 160.991 205.7 159.257 205.7V207.7ZM167.053 206.368C168.851 205.341 169.683 203.485 169.757 201.131L167.758 201.069C167.698 202.982 167.063 204.059 166.061 204.632L167.053 206.368ZM169.06 202.053C170.425 201.619 171.856 201.4 173.357 201.4V199.4C171.658 199.4 170.022 199.648 168.454 200.147L169.06 202.053ZM172.36 200.32C172.223 202.031 172.157 204.866 172.157 208.8H174.157C174.157 204.867 174.224 202.103 174.354 200.48L172.36 200.32ZM172.157 208.8C172.157 213.062 172.223 216.004 172.361 217.587L174.353 217.413C174.224 215.93 174.157 213.071 174.157 208.8H172.157ZM173.357 216.5C171.62 216.5 170.277 216.305 169.29 215.957L168.624 217.843C169.904 218.295 171.494 218.5 173.357 218.5V216.5ZM169.953 216.809C169.735 214.415 168.834 212.55 167.053 211.532L166.061 213.268C167.08 213.85 167.779 214.985 167.961 216.991L169.953 216.809ZM167.072 211.543C166.252 211.051 165.171 210.723 163.894 210.513C162.606 210.302 161.057 210.2 159.257 210.2V212.2C160.991 212.2 162.424 212.298 163.57 212.487C164.726 212.677 165.529 212.949 166.043 213.257L167.072 211.543ZM159.257 210.2H154.257V212.2H159.257V210.2ZM153.257 211.2V221.7H155.257V211.2H153.257ZM153.257 221.7C153.257 223.873 153.458 225.64 153.914 226.933L155.8 226.267C155.456 225.293 155.257 223.794 155.257 221.7H153.257ZM153.941 227.001C154.508 228.298 155.459 229.249 156.756 229.816L157.558 227.984C156.722 227.618 156.139 227.035 155.773 226.199L153.941 227.001ZM156.824 229.843C158.119 230.3 159.922 230.5 162.157 230.5V228.5C159.993 228.5 158.462 228.3 157.49 227.957L156.824 229.843ZM162.157 230.5H162.757V228.5H162.157V230.5ZM162.757 230.5C166.66 230.5 169.749 230.166 171.964 229.452L171.35 227.548C169.431 228.167 166.587 228.5 162.757 228.5V230.5ZM171.955 229.454C174.209 228.75 175.978 227.695 177.142 226.22L175.572 224.98C174.737 226.039 173.372 226.917 171.359 227.546L171.955 229.454ZM177.138 226.225C178.299 224.773 179.344 222.728 180.295 220.146L178.419 219.454C177.504 221.938 176.548 223.76 175.576 224.975L177.138 226.225ZM225.744 204.6H226.744V203.6H225.744V204.6ZM224.444 211.1V212.1H225.062L225.338 211.547L224.444 211.1ZM195.844 211.5H194.844V212.529L195.872 212.5L195.844 211.5ZM196.244 207.9L195.274 207.657L195.269 207.676L195.265 207.694L196.244 207.9ZM197.444 204.6V203.6H196.846L196.563 204.126L197.444 204.6ZM224.744 204.6C224.744 207.095 224.327 209.097 223.549 210.653L225.338 211.547C226.294 209.636 226.744 207.305 226.744 204.6H224.744ZM224.444 210.1C214.834 210.1 205.292 210.233 195.816 210.5L195.872 212.5C205.329 212.233 214.853 212.1 224.444 212.1V210.1ZM196.844 211.5C196.844 210.445 196.968 209.314 197.222 208.106L195.265 207.694C194.986 209.019 194.844 210.288 194.844 211.5H196.844ZM197.214 208.143C197.534 206.861 197.909 205.845 198.324 205.074L196.563 204.126C196.045 205.088 195.62 206.273 195.274 207.657L197.214 208.143ZM197.444 205.6H225.744V203.6H197.444V205.6ZM293.081 230L294.039 229.713L293.861 229.121L293.253 229.015L293.081 230ZM293.681 234.3L293.631 235.299L294.681 235.351V234.3H293.681ZM270.981 234.3H269.981V235.351L271.031 235.299L270.981 234.3ZM271.681 230L271.575 229.006L271.031 229.064L270.787 229.553L271.681 230ZM275.581 229.1L275.134 228.206L275.118 228.214L275.102 228.222L275.581 229.1ZM275.281 222.2L276.208 221.824L276.204 221.814L276.199 221.804L275.281 222.2ZM270.881 212L271.799 211.604L271.539 211H270.881V212ZM244.481 212.4L244.443 211.401L243.789 211.426L243.55 212.036L244.481 212.4ZM241.781 219.3L240.85 218.936L240.847 218.944L241.781 219.3ZM241.381 228.9L240.741 229.668L240.775 229.697L240.812 229.722L241.381 228.9ZM245.381 230L246.306 229.619L246.071 229.048L245.455 229.003L245.381 230ZM246.081 234.3L245.993 235.296L247.081 235.392V234.3H246.081ZM228.281 234.3H227.281V235.354L228.334 235.299L228.281 234.3ZM228.981 230.1L228.792 229.118L228.262 229.22L228.057 229.719L228.981 230.1ZM233.081 227.5L233.895 228.081L233.895 228.081L233.081 227.5ZM236.981 219.3L237.912 219.666L237.913 219.663L236.981 219.3ZM257.681 166.2L257.452 165.227L256.94 165.347L256.75 165.837L257.681 166.2ZM261.581 165.8L262.498 165.4L262.236 164.8H261.581V165.8ZM285.381 220.4L284.465 220.8L284.468 220.808L285.381 220.4ZM289.281 227.8L288.492 228.414L288.502 228.427L288.513 228.44L289.281 227.8ZM268.981 207.5V208.5H270.496L269.901 207.107L268.981 207.5ZM261.381 189.7L262.301 189.307L262.298 189.301L261.381 189.7ZM256.981 178.8L257.925 178.47L256.944 175.666L256.03 178.492L256.981 178.8ZM253.181 189.6L254.114 189.96L254.118 189.951L254.121 189.943L253.181 189.6ZM246.281 207.5L245.348 207.14L244.824 208.5H246.281V207.5ZM292.123 230.287C292.493 231.519 292.681 232.854 292.681 234.3H294.681C294.681 232.679 294.47 231.148 294.039 229.713L292.123 230.287ZM293.731 233.301C289.716 233.101 285.9 233 282.281 233V235C285.863 235 289.646 235.099 293.631 235.299L293.731 233.301ZM282.281 233C278.729 233 274.946 233.101 270.931 233.301L271.031 235.299C275.017 235.099 278.767 235 282.281 235V233ZM271.981 234.3C271.981 232.411 272.215 231.168 272.576 230.447L270.787 229.553C270.214 230.698 269.981 232.322 269.981 234.3H271.981ZM271.788 230.994C273.662 230.793 275.138 230.481 276.06 229.978L275.102 228.222C274.558 228.519 273.434 228.807 271.575 229.006L271.788 230.994ZM276.028 229.994C276.572 229.722 277.027 229.334 277.339 228.814C277.649 228.297 277.781 227.711 277.781 227.1H275.781C275.781 227.422 275.713 227.636 275.624 227.786C275.536 227.932 275.39 228.078 275.134 228.206L276.028 229.994ZM277.781 227.1C277.781 226.541 277.616 225.811 277.362 224.982C277.101 224.127 276.714 223.072 276.208 221.824L274.355 222.576C274.849 223.795 275.212 224.79 275.45 225.568C275.696 226.372 275.781 226.859 275.781 227.1H277.781ZM276.199 221.804L271.799 211.604L269.963 212.396L274.363 222.596L276.199 221.804ZM270.881 211C260.274 211 251.461 211.133 244.443 211.401L244.519 213.399C251.502 213.133 260.288 213 270.881 213V211ZM243.55 212.036L240.85 218.936L242.712 219.664L245.412 212.764L243.55 212.036ZM240.847 218.944C239.768 221.776 239.181 224.114 239.181 225.9H241.181C241.181 224.486 241.661 222.424 242.716 219.656L240.847 218.944ZM239.181 225.9C239.181 227.44 239.652 228.761 240.741 229.668L242.021 228.132C241.51 227.706 241.181 227.026 241.181 225.9H239.181ZM240.812 229.722C241.896 230.472 243.441 230.859 245.307 230.997L245.455 229.003C243.722 228.874 242.6 228.528 241.95 228.078L240.812 229.722ZM244.457 230.381C244.857 231.354 245.081 232.647 245.081 234.3H247.081C247.081 232.486 246.838 230.912 246.306 229.619L244.457 230.381ZM246.169 233.304C243.859 233.1 240.658 233 236.581 233V235C240.638 235 243.77 235.1 245.993 235.296L246.169 233.304ZM236.581 233C234.82 233 232.031 233.101 228.229 233.301L228.334 235.299C232.132 235.099 234.876 235 236.581 235V233ZM229.281 234.3C229.281 232.72 229.503 231.458 229.906 230.481L228.057 229.719C227.526 231.008 227.281 232.547 227.281 234.3H229.281ZM229.17 231.082C231.148 230.702 232.742 229.696 233.895 228.081L232.268 226.919C231.421 228.104 230.281 228.832 228.792 229.118L229.17 231.082ZM233.895 228.081C234.975 226.569 236.314 223.727 237.912 219.666L236.051 218.934C234.449 223.006 233.187 225.631 232.268 226.919L233.895 228.081ZM237.913 219.663L258.613 166.563L256.75 165.837L236.05 218.937L237.913 219.663ZM257.91 167.173C258.952 166.928 260.173 166.8 261.581 166.8V164.8C260.056 164.8 258.677 164.938 257.452 165.227L257.91 167.173ZM260.665 166.2L284.465 220.8L286.298 220L262.498 165.4L260.665 166.2ZM284.468 220.808C286.13 224.531 287.474 227.105 288.492 228.414L290.071 227.186C289.222 226.095 287.966 223.736 286.294 219.992L284.468 220.808ZM288.513 228.44C289.664 229.822 291.142 230.678 292.91 230.985L293.253 229.015C291.954 228.789 290.898 228.178 290.049 227.16L288.513 228.44ZM269.901 207.107L262.301 189.307L260.462 190.093L268.062 207.893L269.901 207.107ZM262.298 189.301C260.302 184.709 258.846 181.102 257.925 178.47L256.037 179.13C256.983 181.831 258.461 185.491 260.464 190.099L262.298 189.301ZM256.03 178.492C255.303 180.74 254.041 184.325 252.242 189.257L254.121 189.943C255.921 185.008 257.193 181.393 257.933 179.108L256.03 178.492ZM252.248 189.24L245.348 207.14L247.214 207.86L254.114 189.96L252.248 189.24ZM246.281 208.5H268.981V206.5H246.281V208.5ZM346.791 222.3L347.601 221.713L347.595 221.705L347.59 221.698L346.791 222.3ZM352.791 228L352.311 228.877L352.322 228.883L352.333 228.889L352.791 228ZM360.391 229.8H361.391V228.843L360.436 228.801L360.391 229.8ZM359.991 234V235H360.73L360.947 234.294L359.991 234ZM345.591 234.7L344.759 235.255L345.1 235.765L345.709 235.693L345.591 234.7ZM341.791 229.3L342.608 228.723L342.602 228.715L341.791 229.3ZM337.391 223.2L336.576 223.779L336.58 223.785L337.391 223.2ZM332.591 217.4L331.902 218.124L331.902 218.124L332.591 217.4ZM326.691 213.1L327.209 212.244L326.958 212.093L326.665 212.1L326.691 213.1ZM322.891 213.2L322.862 214.2L322.89 214.2L322.918 214.2L322.891 213.2ZM319.491 213.1L319.521 212.1L318.491 212.07V213.1H319.491ZM319.991 227L320.946 226.702L320.946 226.702L319.991 227ZM321.591 229.2L321.113 230.078L321.128 230.086L321.144 230.094L321.591 229.2ZM325.091 230L326.033 229.664L325.817 229.059L325.178 229.004L325.091 230ZM325.591 234.2L325.537 235.199L326.591 235.256V234.2H325.591ZM303.791 234.2H302.791V235.236L303.827 235.199L303.791 234.2ZM304.291 230L304.212 229.003L303.567 229.055L303.35 229.664L304.291 230ZM307.991 229.2L307.572 228.292L307.558 228.299L307.544 228.306L307.991 229.2ZM309.791 227.1L310.74 227.416L310.74 227.416L309.791 227.1ZM309.091 189.8L308.332 190.451L308.332 190.451L309.091 189.8ZM304.291 188.2L303.343 188.516L303.558 189.161L304.236 189.198L304.291 188.2ZM303.791 183.8L303.844 182.801L302.791 182.746V183.8H303.791ZM323.291 183.8L323.274 182.8L323.265 182.8L323.256 182.801L323.291 183.8ZM328.891 183.7V182.7H328.882L328.874 182.7L328.891 183.7ZM344.391 187.4L343.781 188.192L343.79 188.199L343.799 188.206L344.391 187.4ZM345.791 206.3L345.065 205.613L345.064 205.613L345.791 206.3ZM336.091 211.3L335.874 210.324L333.125 210.935L335.644 212.194L336.091 211.3ZM340.691 214.7L339.948 215.369L339.957 215.378L339.965 215.388L340.691 214.7ZM335.091 205.7L335.577 206.574L335.583 206.571L335.091 205.7ZM336.291 190.6L335.684 191.394L335.684 191.394L336.291 190.6ZM319.491 188.6L319.295 187.619L318.491 187.78V188.6H319.491ZM319.491 207.9H318.491V208.767L319.35 208.89L319.491 207.9ZM345.982 222.887C347.97 225.629 350.073 227.65 352.311 228.877L353.272 227.123C351.376 226.083 349.48 224.305 347.601 221.713L345.982 222.887ZM352.333 228.889C354.56 230.038 357.243 230.661 360.347 230.799L360.436 228.801C357.54 228.672 355.157 228.095 353.25 227.111L352.333 228.889ZM359.391 229.8C359.391 231.72 359.255 232.992 359.036 233.706L360.947 234.294C361.261 233.275 361.391 231.747 361.391 229.8H359.391ZM359.991 233C354.301 233 349.459 233.234 345.474 233.707L345.709 235.693C349.591 235.233 354.349 235 359.991 235V233ZM346.423 234.145C346.28 233.931 345 232.112 342.608 228.723L340.974 229.877C343.383 233.288 344.636 235.069 344.759 235.255L346.423 234.145ZM342.602 228.715L338.202 222.615L336.58 223.785L340.98 229.885L342.602 228.715ZM338.207 222.621C336.389 220.063 334.747 218.072 333.281 216.676L331.902 218.124C333.236 219.395 334.794 221.271 336.576 223.779L338.207 222.621ZM333.281 216.676C331.809 215.274 329.775 213.798 327.209 212.244L326.174 213.955C328.674 215.469 330.574 216.86 331.902 218.124L333.281 216.676ZM326.665 212.1L322.865 212.2L322.918 214.2L326.718 214.1L326.665 212.1ZM322.921 212.2L319.521 212.1L319.462 214.1L322.862 214.2L322.921 212.2ZM318.491 213.1V222.2H320.491V213.1H318.491ZM318.491 222.2C318.491 224.36 318.657 226.083 319.037 227.298L320.946 226.702C320.659 225.783 320.491 224.306 320.491 222.2H318.491ZM319.037 227.298C319.421 228.527 320.083 229.516 321.113 230.078L322.07 228.322C321.633 228.084 321.229 227.607 320.946 226.702L319.037 227.298ZM321.144 230.094C322.11 230.577 323.423 230.859 325.005 230.996L325.178 229.004C323.693 228.875 322.673 228.623 322.039 228.306L321.144 230.094ZM324.15 230.336C324.424 231.105 324.591 232.365 324.591 234.2H326.591C326.591 232.301 326.425 230.762 326.033 229.664L324.15 230.336ZM325.645 233.201C323.151 233.067 319.496 233 314.691 233V235C319.487 235 323.098 235.067 325.537 235.199L325.645 233.201ZM314.691 233C311.146 233 307.5 233.067 303.756 233.201L303.827 235.199C307.549 235.066 311.171 235 314.691 235V233ZM304.791 234.2C304.791 232.365 304.959 231.105 305.233 230.336L303.35 229.664C302.957 230.762 302.791 232.301 302.791 234.2H304.791ZM304.371 230.997C306.074 230.861 307.463 230.582 308.439 230.094L307.544 228.306C306.92 228.618 305.842 228.873 304.212 229.003L304.371 230.997ZM308.41 230.108C309.555 229.58 310.33 228.648 310.74 227.416L308.843 226.784C308.587 227.552 308.161 228.02 307.572 228.292L308.41 230.108ZM310.74 227.416C311.126 226.26 311.291 224.629 311.291 222.6H309.291C309.291 224.571 309.124 225.94 308.843 226.784L310.74 227.416ZM311.291 222.6V195.5H309.291V222.6H311.291ZM311.291 195.5C311.291 194.027 311.189 192.76 310.97 191.719C310.753 190.691 310.406 189.797 309.851 189.149L308.332 190.451C308.577 190.737 308.829 191.259 309.013 192.131C309.194 192.99 309.291 194.106 309.291 195.5H311.291ZM309.851 189.149C308.765 187.883 306.789 187.337 304.347 187.202L304.236 189.198C306.593 189.329 307.818 189.851 308.332 190.451L309.851 189.149ZM305.24 187.884C304.958 187.038 304.791 185.7 304.791 183.8H302.791C302.791 185.767 302.958 187.362 303.343 188.516L305.24 187.884ZM303.739 184.799C306.298 184.933 309.751 185 314.091 185V183C309.765 183 306.352 182.933 303.844 182.801L303.739 184.799ZM314.091 185C316.508 185 319.588 184.933 323.327 184.799L323.256 182.801C319.529 182.934 316.475 183 314.091 183V185ZM323.309 184.8L328.909 184.7L328.874 182.7L323.274 182.8L323.309 184.8ZM328.891 184.7C335.954 184.7 340.846 185.93 343.781 188.192L345.002 186.608C341.537 183.937 336.095 182.7 328.891 182.7V184.7ZM343.799 188.206C346.809 190.417 348.291 193.35 348.291 197.1H350.291C350.291 192.716 348.508 189.183 344.983 186.594L343.799 188.206ZM348.291 197.1C348.291 200.533 347.208 203.347 345.065 205.613L346.518 206.987C349.042 204.319 350.291 201 350.291 197.1H348.291ZM345.064 205.613C342.971 207.83 339.938 209.421 335.874 210.324L336.308 212.276C340.645 211.313 344.078 209.57 346.518 206.987L345.064 205.613ZM335.644 212.194C337.417 213.081 338.844 214.143 339.948 215.369L341.435 214.031C340.138 212.591 338.499 211.386 336.539 210.406L335.644 212.194ZM339.965 215.388C341.121 216.608 343.123 219.098 345.993 222.902L347.59 221.698C344.726 217.902 342.661 215.325 341.417 214.012L339.965 215.388ZM323.391 209.2C328.297 209.2 332.381 208.35 335.577 206.574L334.606 204.826C331.802 206.384 328.086 207.2 323.391 207.2V209.2ZM335.583 206.571C338.972 204.655 340.691 201.651 340.691 197.7H338.691C338.691 200.949 337.344 203.278 334.599 204.829L335.583 206.571ZM340.691 197.7C340.691 194.407 339.427 191.739 336.899 189.806L335.684 191.394C337.689 192.927 338.691 194.993 338.691 197.7H340.691ZM336.899 189.806C334.37 187.872 330.501 187 325.491 187V189C330.349 189 333.679 189.861 335.684 191.394L336.899 189.806ZM325.491 187C323.424 187 321.359 187.207 319.295 187.619L319.688 189.581C321.624 189.193 323.559 189 325.491 189V187ZM318.491 188.6V207.9H320.491V188.6H318.491ZM319.35 208.89C320.789 209.095 322.137 209.2 323.391 209.2V207.2C322.246 207.2 320.994 207.105 319.633 206.91L319.35 208.89ZM412.547 183.8L413.545 183.855L413.606 182.758L412.508 182.801L412.547 183.8ZM413.247 196.8L413.641 197.719L414.337 197.421L414.238 196.67L413.247 196.8ZM408.347 197.7L407.348 197.742L407.388 198.7H408.347V197.7ZM405.747 190.6L405.04 191.307L405.047 191.315L405.055 191.322L405.747 190.6ZM394.047 188.3V187.3H393.047V188.3H394.047ZM394.547 227.2L393.598 227.516L393.611 227.556L393.628 227.594L394.547 227.2ZM396.547 229.2L396.153 230.119L396.164 230.124L396.175 230.128L396.547 229.2ZM401.047 230L401.97 229.615L401.732 229.043L401.113 229.002L401.047 230ZM401.547 234.2L401.52 235.2L402.547 235.227V234.2H401.547ZM377.047 234.2H376.047V235.231L377.077 235.2L377.047 234.2ZM377.547 230L377.48 229.002L376.862 229.043L376.624 229.615L377.547 230ZM382.047 229.2L381.696 228.264L381.686 228.267L381.675 228.272L382.047 229.2ZM384.247 227.1L385.175 227.471L385.175 227.471L384.247 227.1ZM384.847 188.3H385.847V187.3H384.847V188.3ZM374.547 189.4L374.977 190.303L374.985 190.299L374.994 190.294L374.547 189.4ZM371.447 192.3L370.562 191.834L370.562 191.834L371.447 192.3ZM369.747 197.7V198.7H370.567L370.727 197.896L369.747 197.7ZM365.047 196.8L364.07 196.585L363.915 197.287L364.532 197.657L365.047 196.8ZM366.547 183.8L366.585 182.801L365.547 182.761V183.8H366.547ZM411.548 183.745C411.344 187.426 411.584 191.825 412.255 196.93L414.238 196.67C413.577 191.641 413.35 187.374 413.545 183.855L411.548 183.745ZM412.853 195.881C411.602 196.417 410.108 196.7 408.347 196.7V198.7C410.319 198.7 412.092 198.383 413.641 197.719L412.853 195.881ZM409.346 197.658C409.207 194.315 408.294 191.656 406.439 189.878L405.055 191.322C406.4 192.611 407.22 194.685 407.348 197.742L409.346 197.658ZM406.454 189.893C404.653 188.092 401.906 187.3 398.447 187.3V189.3C401.654 189.3 403.774 190.041 405.04 191.307L406.454 189.893ZM398.447 187.3H394.047V189.3H398.447V187.3ZM393.047 188.3V222.6H395.047V188.3H393.047ZM393.047 222.6C393.047 224.692 393.212 226.358 393.598 227.516L395.496 226.884C395.215 226.042 395.047 224.642 395.047 222.6H393.047ZM393.628 227.594C394.129 228.763 394.984 229.618 396.153 230.119L396.941 228.281C396.243 227.982 395.765 227.503 395.466 226.806L393.628 227.594ZM396.175 230.128C397.324 230.588 398.949 230.862 400.98 230.998L401.113 229.002C399.144 228.871 397.77 228.612 396.918 228.272L396.175 230.128ZM400.124 230.385C400.373 230.983 400.547 232.204 400.547 234.2H402.547C402.547 232.196 402.387 230.617 401.97 229.615L400.124 230.385ZM401.574 233.2C396.636 233.067 392.593 233 389.447 233V235C392.568 235 396.591 235.066 401.52 235.2L401.574 233.2ZM389.447 233C385.569 233 381.425 233.067 377.017 233.2L377.077 235.2C381.468 235.066 385.592 235 389.447 235V233ZM378.047 234.2C378.047 232.204 378.22 230.983 378.47 230.385L376.624 229.615C376.207 230.617 376.047 232.196 376.047 234.2H378.047ZM377.613 230.998C379.644 230.862 381.27 230.588 382.418 230.128L381.675 228.272C380.824 228.612 379.449 228.871 377.48 229.002L377.613 230.998ZM382.398 230.136C383.711 229.644 384.664 228.749 385.175 227.471L383.318 226.729C383.029 227.451 382.516 227.956 381.696 228.264L382.398 230.136ZM385.175 227.471C385.647 226.291 385.847 224.637 385.847 222.6H383.847C383.847 224.563 383.646 225.909 383.318 226.729L385.175 227.471ZM385.847 222.6V188.3H383.847V222.6H385.847ZM384.847 187.3H380.747V189.3H384.847V187.3ZM380.747 187.3C378.011 187.3 375.766 187.672 374.1 188.506L374.994 190.294C376.261 189.661 378.149 189.3 380.747 189.3V187.3ZM374.117 188.497C372.539 189.248 371.338 190.36 370.562 191.834L372.332 192.766C372.889 191.706 373.754 190.885 374.977 190.303L374.117 188.497ZM370.562 191.834C369.831 193.223 369.241 195.13 368.766 197.504L370.727 197.896C371.186 195.603 371.73 193.91 372.332 192.766L370.562 191.834ZM369.747 196.7C367.666 196.7 366.324 196.4 365.561 195.943L364.532 197.657C365.77 198.4 367.561 198.7 369.747 198.7V196.7ZM366.023 197.015C367.037 192.42 367.547 188.014 367.547 183.8H365.547C365.547 187.853 365.057 192.113 364.07 196.585L366.023 197.015ZM366.508 184.799C369.998 184.933 377.652 185 389.447 185V183C377.642 183 370.029 182.933 366.585 182.801L366.508 184.799ZM389.447 185C401.441 185 409.162 184.933 412.586 184.799L412.508 182.801C409.131 182.933 401.452 183 389.447 183V185ZM466.271 219.8L466.453 218.817L465.624 218.663L465.333 219.454L466.271 219.8ZM470.671 222L471.605 222.358L471.837 221.752L471.378 221.293L470.671 222ZM467.971 234.1L467.966 235.1L468.856 235.105L468.964 234.221L467.971 234.1ZM448.671 234L448.676 233H448.671V234ZM425.471 234.2H424.471V235.223L425.494 235.2L425.471 234.2ZM425.971 229.7L425.891 228.703L425.247 228.755L425.029 229.364L425.971 229.7ZM429.671 228.9L429.252 227.992L429.238 227.999L429.224 228.006L429.671 228.9ZM431.471 226.7L432.426 226.998L432.426 226.998L431.471 226.7ZM431.371 191.2L430.422 191.516L430.432 191.544L430.443 191.571L431.371 191.2ZM429.571 189.1L429.124 189.994L429.138 190.001L429.152 190.008L429.571 189.1ZM425.971 188.3L425.022 188.616L425.231 189.242L425.888 189.297L425.971 188.3ZM425.471 183.8L425.499 182.8L424.471 182.772V183.8H425.471ZM465.771 183.8L466.764 183.684L466.657 182.771L465.739 182.801L465.771 183.8ZM467.671 196.2L468.214 197.04L468.825 196.645L468.637 195.942L467.671 196.2ZM463.171 197.3L462.176 197.395L462.262 198.3H463.171V197.3ZM459.671 190.7L459.046 191.481L459.053 191.486L459.059 191.491L459.671 190.7ZM441.171 188.3V187.3H440.171V188.3H441.171ZM441.171 206.7H440.171V207.7H441.171V206.7ZM453.471 205.5L452.975 204.632L452.966 204.637L452.957 204.643L453.471 205.5ZM455.671 201.1L455.368 200.147L454.694 200.362L454.672 201.069L455.671 201.1ZM460.271 200.4L461.268 200.48L461.354 199.4H460.271V200.4ZM460.271 217.5V218.5H461.362L461.267 217.413L460.271 217.5ZM455.871 216.9L454.875 216.991L454.933 217.629L455.538 217.843L455.871 216.9ZM453.471 212.4L452.957 213.257L452.966 213.263L452.975 213.268L453.471 212.4ZM441.171 211.2V210.2H440.171V211.2H441.171ZM441.771 226.6L440.828 226.933L440.84 226.967L440.855 227.001L441.771 226.6ZM444.071 228.9L443.67 229.816L443.704 229.831L443.738 229.843L444.071 228.9ZM458.571 228.5L458.273 227.545L458.264 227.548L458.571 228.5ZM463.271 225.6L462.49 224.975L462.486 224.98L463.271 225.6ZM466.089 220.783C467.719 221.085 468.993 221.736 469.964 222.707L471.378 221.293C470.082 219.997 468.423 219.181 466.453 218.817L466.089 220.783ZM469.737 221.642C468.498 224.879 467.584 229 466.978 233.979L468.964 234.221C469.558 229.334 470.445 225.388 471.605 222.358L469.737 221.642ZM467.976 233.1L448.676 233L448.666 235L467.966 235.1L467.976 233.1ZM448.671 233C439.068 233 431.326 233.067 425.448 233.2L425.494 235.2C431.35 235.067 439.075 235 448.671 235V233ZM426.471 234.2C426.471 232.151 426.641 230.798 426.913 230.036L425.029 229.364C424.635 230.469 424.471 232.115 424.471 234.2H426.471ZM426.051 230.697C427.754 230.561 429.143 230.282 430.118 229.794L429.224 228.006C428.599 228.318 427.522 228.573 425.891 228.703L426.051 230.697ZM430.09 229.808C431.258 229.269 432.024 228.284 432.426 226.998L430.517 226.402C430.252 227.249 429.818 227.731 429.252 227.992L430.09 229.808ZM432.426 226.998C432.805 225.783 432.971 224.06 432.971 221.9H430.971C430.971 224.006 430.804 225.483 430.517 226.402L432.426 226.998ZM432.971 221.9V195.6H430.971V221.9H432.971ZM432.971 195.6C432.971 193.624 432.77 192.006 432.3 190.829L430.443 191.571C430.772 192.394 430.971 193.709 430.971 195.6H432.971ZM432.32 190.884C431.909 189.652 431.135 188.72 429.99 188.192L429.152 190.008C429.74 190.28 430.166 190.748 430.422 191.516L432.32 190.884ZM430.018 188.206C429.048 187.72 427.696 187.44 426.054 187.303L425.888 189.297C427.446 189.426 428.495 189.68 429.124 189.994L430.018 188.206ZM426.92 187.984C426.639 187.14 426.471 185.771 426.471 183.8H424.471C424.471 185.829 424.637 187.46 425.022 188.616L426.92 187.984ZM425.443 184.8C430.254 184.933 435.497 185 441.171 185V183C435.512 183 430.288 182.933 425.499 182.8L425.443 184.8ZM441.171 185C453.435 185 461.651 184.933 465.803 184.799L465.739 182.801C461.624 182.933 453.44 183 441.171 183V185ZM464.778 183.916C465.51 190.17 466.15 194.376 466.705 196.458L468.637 195.942C468.126 194.024 467.499 189.963 466.764 183.684L464.778 183.916ZM467.128 195.36C466.207 195.956 464.916 196.3 463.171 196.3V198.3C465.159 198.3 466.868 197.911 468.214 197.04L467.128 195.36ZM464.167 197.205C463.876 194.154 462.586 191.692 460.283 189.909L459.059 191.491C460.889 192.908 461.933 194.846 462.176 197.395L464.167 197.205ZM460.296 189.919C458.011 188.092 454.14 187.3 448.971 187.3V189.3C454.069 189.3 457.331 190.108 459.046 191.481L460.296 189.919ZM448.971 187.3H441.171V189.3H448.971V187.3ZM440.171 188.3V206.7H442.171V188.3H440.171ZM441.171 207.7H446.171V205.7H441.171V207.7ZM446.171 207.7C447.971 207.7 449.521 207.598 450.808 207.387C452.085 207.177 453.166 206.849 453.986 206.357L452.957 204.643C452.443 204.951 451.64 205.223 450.484 205.413C449.338 205.602 447.905 205.7 446.171 205.7V207.7ZM453.967 206.368C455.765 205.341 456.597 203.485 456.671 201.131L454.672 201.069C454.612 202.982 453.977 204.059 452.975 204.632L453.967 206.368ZM455.974 202.053C457.339 201.619 458.77 201.4 460.271 201.4V199.4C458.572 199.4 456.936 199.648 455.368 200.147L455.974 202.053ZM459.274 200.32C459.137 202.031 459.071 204.866 459.071 208.8H461.071C461.071 204.867 461.138 202.103 461.268 200.48L459.274 200.32ZM459.071 208.8C459.071 213.062 459.137 216.004 459.275 217.587L461.267 217.413C461.138 215.93 461.071 213.071 461.071 208.8H459.071ZM460.271 216.5C458.534 216.5 457.191 216.305 456.204 215.957L455.538 217.843C456.818 218.295 458.408 218.5 460.271 218.5V216.5ZM456.867 216.809C456.649 214.415 455.748 212.55 453.967 211.532L452.975 213.268C453.994 213.85 454.693 214.985 454.875 216.991L456.867 216.809ZM453.986 211.543C453.166 211.051 452.085 210.723 450.808 210.513C449.521 210.302 447.971 210.2 446.171 210.2V212.2C447.905 212.2 449.338 212.298 450.484 212.487C451.64 212.677 452.443 212.949 452.957 213.257L453.986 211.543ZM446.171 210.2H441.171V212.2H446.171V210.2ZM440.171 211.2V221.7H442.171V211.2H440.171ZM440.171 221.7C440.171 223.873 440.372 225.64 440.828 226.933L442.714 226.267C442.37 225.293 442.171 223.794 442.171 221.7H440.171ZM440.855 227.001C441.422 228.298 442.373 229.249 443.67 229.816L444.472 227.984C443.636 227.618 443.053 227.035 442.687 226.199L440.855 227.001ZM443.738 229.843C445.033 230.3 446.836 230.5 449.071 230.5V228.5C446.907 228.5 445.376 228.3 444.404 227.957L443.738 229.843ZM449.071 230.5H449.671V228.5H449.071V230.5ZM449.671 230.5C453.574 230.5 456.664 230.166 458.878 229.452L458.264 227.548C456.345 228.167 453.501 228.5 449.671 228.5V230.5ZM458.869 229.454C461.123 228.75 462.892 227.695 464.056 226.22L462.486 224.98C461.651 226.039 460.286 226.917 458.273 227.546L458.869 229.454ZM464.052 226.225C465.213 224.773 466.258 222.728 467.209 220.146L465.333 219.454C464.418 221.938 463.462 223.76 462.49 224.975L464.052 226.225ZM527.358 222.3L528.167 221.713L528.162 221.705L528.156 221.698L527.358 222.3ZM533.358 228L532.877 228.877L532.888 228.883L532.899 228.889L533.358 228ZM540.958 229.8H541.958V228.843L541.002 228.801L540.958 229.8ZM540.558 234V235H541.296L541.514 234.294L540.558 234ZM526.158 234.7L525.326 235.255L525.666 235.765L526.276 235.693L526.158 234.7ZM522.358 229.3L523.175 228.723L523.169 228.715L522.358 229.3ZM517.958 223.2L517.143 223.779L517.147 223.785L517.958 223.2ZM513.158 217.4L512.468 218.124L512.468 218.124L513.158 217.4ZM507.258 213.1L507.776 212.244L507.525 212.093L507.232 212.1L507.258 213.1ZM503.458 213.2L503.428 214.2L503.456 214.2L503.484 214.2L503.458 213.2ZM500.058 213.1L500.087 212.1L499.058 212.07V213.1H500.058ZM500.558 227L501.512 226.702L501.512 226.702L500.558 227ZM502.158 229.2L501.679 230.078L501.695 230.086L501.711 230.094L502.158 229.2ZM505.658 230L506.6 229.664L506.384 229.059L505.744 229.004L505.658 230ZM506.158 234.2L506.104 235.199L507.158 235.256V234.2H506.158ZM484.358 234.2H483.358V235.236L484.394 235.199L484.358 234.2ZM484.858 230L484.778 229.003L484.134 229.055L483.916 229.664L484.858 230ZM488.558 229.2L488.139 228.292L488.125 228.299L488.111 228.306L488.558 229.2ZM490.358 227.1L491.306 227.416L491.306 227.416L490.358 227.1ZM489.658 189.8L488.899 190.451L488.899 190.451L489.658 189.8ZM484.858 188.2L483.909 188.516L484.124 189.161L484.802 189.198L484.858 188.2ZM484.358 183.8L484.41 182.801L483.358 182.746V183.8H484.358ZM503.858 183.8L503.84 182.8L503.831 182.8L503.822 182.801L503.858 183.8ZM509.458 183.7V182.7H509.449L509.44 182.7L509.458 183.7ZM524.958 187.4L524.347 188.192L524.356 188.199L524.366 188.206L524.958 187.4ZM526.358 206.3L525.631 205.613L525.631 205.613L526.358 206.3ZM516.658 211.3L516.441 210.324L513.691 210.935L516.211 212.194L516.658 211.3ZM521.258 214.7L520.515 215.369L520.523 215.378L520.532 215.388L521.258 214.7ZM515.658 205.7L516.143 206.574L516.15 206.571L515.658 205.7ZM516.858 190.6L516.25 191.394L516.25 191.394L516.858 190.6ZM500.058 188.6L499.862 187.619L499.058 187.78V188.6H500.058ZM500.058 207.9H499.058V208.767L499.916 208.89L500.058 207.9ZM526.548 222.887C528.536 225.629 530.64 227.65 532.877 228.877L533.839 227.123C531.943 226.083 530.046 224.305 528.167 221.713L526.548 222.887ZM532.899 228.889C535.126 230.038 537.809 230.661 540.913 230.799L541.002 228.801C538.106 228.672 535.723 228.095 533.816 227.111L532.899 228.889ZM539.958 229.8C539.958 231.72 539.822 232.992 539.602 233.706L541.514 234.294C541.827 233.275 541.958 231.747 541.958 229.8H539.958ZM540.558 233C534.867 233 530.025 233.234 526.04 233.707L526.276 235.693C530.157 235.233 534.915 235 540.558 235V233ZM526.99 234.145C526.847 233.931 525.567 232.112 523.175 228.723L521.541 229.877C523.949 233.288 525.202 235.069 525.326 235.255L526.99 234.145ZM523.169 228.715L518.769 222.615L517.147 223.785L521.547 229.885L523.169 228.715ZM518.773 222.621C516.955 220.063 515.313 218.072 513.847 216.676L512.468 218.124C513.803 219.395 515.36 221.271 517.143 223.779L518.773 222.621ZM513.847 216.676C512.375 215.274 510.342 213.798 507.776 212.244L506.74 213.955C509.24 215.469 511.14 216.86 512.468 218.124L513.847 216.676ZM507.232 212.1L503.432 212.2L503.484 214.2L507.284 214.1L507.232 212.1ZM503.487 212.2L500.087 212.1L500.028 214.1L503.428 214.2L503.487 212.2ZM499.058 213.1V222.2H501.058V213.1H499.058ZM499.058 222.2C499.058 224.36 499.224 226.083 499.603 227.298L501.512 226.702C501.225 225.783 501.058 224.306 501.058 222.2H499.058ZM499.603 227.298C499.987 228.527 500.65 229.516 501.679 230.078L502.637 228.322C502.199 228.084 501.795 227.607 501.512 226.702L499.603 227.298ZM501.711 230.094C502.676 230.577 503.99 230.859 505.571 230.996L505.744 229.004C504.259 228.875 503.239 228.623 502.605 228.306L501.711 230.094ZM504.716 230.336C504.99 231.105 505.158 232.365 505.158 234.2H507.158C507.158 232.301 506.992 230.762 506.6 229.664L504.716 230.336ZM506.212 233.201C503.717 233.067 500.062 233 495.258 233V235C500.053 235 503.665 235.067 506.104 235.199L506.212 233.201ZM495.258 233C491.712 233 488.067 233.067 484.322 233.201L484.394 235.199C488.116 235.066 491.737 235 495.258 235V233ZM485.358 234.2C485.358 232.365 485.525 231.105 485.8 230.336L483.916 229.664C483.524 230.762 483.358 232.301 483.358 234.2H485.358ZM484.938 230.997C486.641 230.861 488.03 230.582 489.005 230.094L488.111 228.306C487.486 228.618 486.408 228.873 484.778 229.003L484.938 230.997ZM488.977 230.108C490.122 229.58 490.896 228.648 491.306 227.416L489.409 226.784C489.153 227.552 488.727 228.02 488.139 228.292L488.977 230.108ZM491.306 227.416C491.692 226.26 491.858 224.629 491.858 222.6H489.858C489.858 224.571 489.69 225.94 489.409 226.784L491.306 227.416ZM491.858 222.6V195.5H489.858V222.6H491.858ZM491.858 195.5C491.858 194.027 491.756 192.76 491.536 191.719C491.32 190.691 490.972 189.797 490.417 189.149L488.899 190.451C489.144 190.737 489.396 191.259 489.579 192.131C489.76 192.99 489.858 194.106 489.858 195.5H491.858ZM490.417 189.149C489.331 187.883 487.356 187.337 484.913 187.202L484.802 189.198C487.16 189.329 488.384 189.851 488.899 190.451L490.417 189.149ZM485.806 187.884C485.525 187.038 485.358 185.7 485.358 183.8H483.358C483.358 185.767 483.524 187.362 483.909 188.516L485.806 187.884ZM484.305 184.799C486.864 184.933 490.317 185 494.658 185V183C490.332 183 486.918 182.933 484.41 182.801L484.305 184.799ZM494.658 185C497.074 185 500.154 184.933 503.894 184.799L503.822 182.801C500.095 182.934 497.041 183 494.658 183V185ZM503.876 184.8L509.476 184.7L509.44 182.7L503.84 182.8L503.876 184.8ZM509.458 184.7C516.521 184.7 521.413 185.93 524.347 188.192L525.568 186.608C522.103 183.937 516.662 182.7 509.458 182.7V184.7ZM524.366 188.206C527.375 190.417 528.858 193.35 528.858 197.1H530.858C530.858 192.716 529.074 189.183 525.55 186.594L524.366 188.206ZM528.858 197.1C528.858 200.533 527.774 203.347 525.631 205.613L527.084 206.987C529.608 204.319 530.858 201 530.858 197.1H528.858ZM525.631 205.613C523.538 207.83 520.504 209.421 516.441 210.324L516.875 212.276C521.211 211.313 524.645 209.57 527.085 206.987L525.631 205.613ZM516.211 212.194C517.983 213.081 519.411 214.143 520.515 215.369L522.001 214.031C520.705 212.591 519.066 211.386 517.105 210.406L516.211 212.194ZM520.532 215.388C521.688 216.608 523.69 219.098 526.559 222.902L528.156 221.698C525.293 217.902 523.228 215.325 521.984 214.012L520.532 215.388ZM503.958 209.2C508.864 209.2 512.947 208.35 516.143 206.574L515.172 204.826C512.368 206.384 508.652 207.2 503.958 207.2V209.2ZM516.15 206.571C519.539 204.655 521.258 201.651 521.258 197.7H519.258C519.258 200.949 517.91 203.278 515.166 204.829L516.15 206.571ZM521.258 197.7C521.258 194.407 519.994 191.739 517.465 189.806L516.25 191.394C518.255 192.927 519.258 194.993 519.258 197.7H521.258ZM517.465 189.806C514.937 187.872 511.067 187 506.058 187V189C510.915 189 514.245 189.861 516.25 191.394L517.465 189.806ZM506.058 187C503.991 187 501.925 187.207 499.862 187.619L500.254 189.581C502.191 189.193 504.125 189 506.058 189V187ZM499.058 188.6V207.9H501.058V188.6H499.058ZM499.916 208.89C501.355 209.095 502.703 209.2 503.958 209.2V207.2C502.813 207.2 501.56 207.105 500.199 206.91L499.916 208.89ZM595.351 183.8H596.351V182.751L595.303 182.801L595.351 183.8ZM594.951 188.2L595.109 189.187L595.761 189.083L595.921 188.443L594.951 188.2ZM590.351 190.2L590.932 191.014L590.945 191.005L590.957 190.995L590.351 190.2ZM586.451 195.2L585.561 194.743L585.56 194.745L586.451 195.2ZM574.551 218.5L573.66 218.045L573.551 218.259V218.5H574.551ZM574.951 226.3L573.977 226.529L573.984 226.556L573.991 226.582L574.951 226.3ZM581.451 229.7L582.416 229.437L582.233 228.769L581.544 228.704L581.451 229.7ZM582.051 234.2L582.026 235.2L583.051 235.225V234.2H582.051ZM557.451 234.2H556.451V235.236L557.486 235.199L557.451 234.2ZM558.051 229.7L557.965 228.704L557.299 228.761L557.097 229.399L558.051 229.7ZM562.951 228.8L562.557 227.881L562.557 227.881L562.951 228.8ZM564.851 226.6L565.805 226.898L565.808 226.89L565.81 226.882L564.851 226.6ZM565.351 218.6H566.351V218.343L566.227 218.118L565.351 218.6ZM551.051 192.6L551.927 192.118L551.914 192.094L551.899 192.07L551.051 192.6ZM548.151 189.3L547.582 190.122L547.596 190.132L547.61 190.141L548.151 189.3ZM544.551 188.3L543.587 188.568L543.782 189.268L544.507 189.299L544.551 188.3ZM544.051 183.8L544.089 182.801L543.051 182.761V183.8H544.051ZM565.851 183.8H566.851V182.726L565.78 182.803L565.851 183.8ZM565.451 188.2L565.541 189.196L566.277 189.129L566.429 188.406L565.451 188.2ZM562.251 189L562.765 189.857L562.765 189.857L562.251 189ZM562.651 194.3L563.509 193.787L563.505 193.78L562.651 194.3ZM572.851 213.7L571.952 214.139L572.882 216.044L573.761 214.115L572.851 213.7ZM582.351 194.6L581.477 194.114L581.473 194.121L581.469 194.129L582.351 194.6ZM582.851 189L582.365 189.874L582.384 189.885L582.404 189.894L582.851 189ZM579.751 188.3L578.788 188.57L578.974 189.233L579.66 189.296L579.751 188.3ZM579.051 183.8L579.137 182.804L578.051 182.709V183.8H579.051ZM587.751 185C590.036 185 592.586 184.933 595.398 184.799L595.303 182.801C592.516 182.934 589.998 183 587.751 183V185ZM594.351 183.8C594.351 185.633 594.218 187.006 593.981 187.957L595.921 188.443C596.216 187.26 596.351 185.7 596.351 183.8H594.351ZM594.793 187.213C592.956 187.506 591.27 188.242 589.745 189.405L590.957 190.995C592.231 190.024 593.612 189.427 595.109 189.187L594.793 187.213ZM589.77 189.386C588.19 190.515 586.799 192.335 585.561 194.743L587.34 195.657C588.502 193.398 589.712 191.885 590.932 191.014L589.77 189.386ZM585.56 194.745L573.66 218.045L575.441 218.955L587.341 195.655L585.56 194.745ZM573.551 218.5V220.6H575.551V218.5H573.551ZM573.551 220.6C573.551 223.271 573.682 225.273 573.977 226.529L575.924 226.071C575.686 225.06 575.551 223.263 575.551 220.6H573.551ZM573.991 226.582C574.392 227.943 575.188 228.987 576.404 229.594L577.298 227.806C576.647 227.48 576.177 226.924 575.91 226.018L573.991 226.582ZM576.404 229.594C577.512 230.149 579.203 230.494 581.357 230.696L581.544 228.704C579.432 228.506 578.056 228.185 577.298 227.806L576.404 229.594ZM580.486 229.963C580.862 231.343 581.051 232.755 581.051 234.2H583.051C583.051 232.579 582.839 230.99 582.416 229.437L580.486 229.963ZM582.076 233.2C576.741 233.067 572.764 233 570.151 233V235C572.738 235 576.694 235.066 582.026 235.2L582.076 233.2ZM570.151 233C565.409 233 561.163 233.067 557.415 233.201L557.486 235.199C561.205 235.067 565.426 235 570.151 235V233ZM558.451 234.2C558.451 232.54 558.643 231.146 559.004 230.001L557.097 229.399C556.659 230.787 556.451 232.394 556.451 234.2H558.451ZM558.136 230.696C560.473 230.496 562.25 230.188 563.345 229.719L562.557 227.881C561.785 228.212 560.295 228.504 557.965 228.704L558.136 230.696ZM563.345 229.719C564.576 229.192 565.395 228.212 565.805 226.898L563.896 226.302C563.64 227.121 563.193 227.608 562.557 227.881L563.345 229.719ZM565.81 226.882C566.187 225.601 566.351 223.609 566.351 221H564.351C564.351 223.591 564.181 225.333 563.891 226.318L565.81 226.882ZM566.351 221V218.6H564.351V221H566.351ZM566.227 218.118L551.927 192.118L550.175 193.082L564.475 219.082L566.227 218.118ZM551.899 192.07C550.868 190.421 549.807 189.176 548.692 188.459L547.61 190.141C548.361 190.624 549.234 191.579 550.203 193.13L551.899 192.07ZM548.72 188.478C547.643 187.732 546.235 187.372 544.594 187.301L544.507 189.299C545.933 189.361 546.925 189.668 547.582 190.122L548.72 188.478ZM545.514 188.032C545.213 186.949 545.051 185.546 545.051 183.8H543.051C543.051 185.654 543.222 187.251 543.587 188.568L545.514 188.032ZM544.012 184.799C547.49 184.933 550.736 185 553.751 185V183C550.765 183 547.545 182.934 544.089 182.801L544.012 184.799ZM553.751 185C559.942 185 564.013 184.934 565.922 184.797L565.78 182.803C563.955 182.933 559.959 183 553.751 183V185ZM564.851 183.8C564.851 185.416 564.721 186.811 564.472 187.994L566.429 188.406C566.714 187.056 566.851 185.517 566.851 183.8H564.851ZM565.36 187.204C563.854 187.341 562.602 187.623 561.736 188.143L562.765 189.857C563.233 189.577 564.114 189.326 565.541 189.196L565.36 187.204ZM561.736 188.143C560.79 188.71 560.251 189.59 560.251 190.7H562.251C562.251 190.343 562.378 190.09 562.765 189.857L561.736 188.143ZM560.251 190.7C560.251 191.861 560.85 193.265 561.797 194.82L563.505 193.78C562.585 192.268 562.251 191.272 562.251 190.7H560.251ZM561.792 194.813C564.437 199.243 567.823 205.681 571.952 214.139L573.749 213.261C569.612 204.786 566.198 198.29 563.509 193.787L561.792 194.813ZM573.761 214.115C576.484 208.137 579.641 201.789 583.233 195.071L581.469 194.129C577.86 200.878 574.684 207.263 571.941 213.285L573.761 214.115ZM583.225 195.086C583.739 194.16 584.139 193.33 584.412 192.601C584.681 191.885 584.851 191.206 584.851 190.6H582.851C582.851 190.861 582.771 191.282 582.539 191.899C582.313 192.504 581.962 193.24 581.477 194.114L583.225 195.086ZM584.851 190.6C584.851 190.078 584.73 189.57 584.449 189.12C584.168 188.67 583.765 188.339 583.298 188.106L582.404 189.894C582.603 189.994 582.7 190.096 582.753 190.18C582.805 190.263 582.851 190.389 582.851 190.6H584.851ZM583.336 188.126C582.54 187.683 581.324 187.439 579.841 187.304L579.66 189.296C581.111 189.428 581.962 189.65 582.365 189.874L583.336 188.126ZM580.714 188.03C580.265 186.427 580.051 185.02 580.051 183.8H578.051C578.051 185.247 578.303 186.84 578.788 188.57L580.714 188.03ZM578.964 184.796C580.547 184.934 583.489 185 587.751 185V183C583.479 183 580.621 182.933 579.137 182.804L578.964 184.796Z" transform="translate(-1 -43)" fill="#F2F2F2"/>
</svg>
